<?xml version="1.0" encoding="UTF-8"?>
<svg width="763.25" height="600" version="1.1" xmlns="http://www.w3.org/2000/svg">
<defs>
<clipPath id="a">
<path d="m434.68-1.5e-5c-0.20633 2.1079-0.2972 4.15-0.96876 6.166-0.33729 1.0119-0.90382 1.9198-1.2383 2.9395-0.3281 1.002-0.57681 2.048-0.96289 3.0274-0.75379 1.9121-1.762 3.9112-3.1133 5.4668-1.4524 1.6723-3.2919 2.433-5.5137 2.3828-0.93481-0.0212-1.8608-0.12622-2.7949-0.04492-0.4158 0.0361-0.74595 0.05098-1.0352 0.41016-0.2277 0.28355-1.0506 0.95242-0.75781 1.3145-0.40943 0.0226-0.56281 0.70574-0.5918 1.0586-0.10394 1.2544-0.20855 2.5092-0.3125 3.7637-0.0848 1.0303-0.27785 1.5631-0.71486 2.5156-0.41719 0.90864-1.2343 2.0203-1.1367 3.0371 0.0948 0.98854 0.0497 1.9522-0.38868 2.8672-0.99562 2.0747-1.663 4.2298-2.3828 6.4141-0.2977 0.90158-0.51863 1.8155-0.23437 2.7383 0.19799 0.64063 0.29074 0.94546 0.7539 1.4199 0.31891 0.32598 1.0103 0.71159 0.6836 1.2207 0.14426 0.0382 0.28308 0.08846 0.41602 0.14648l-1.0879 5.2363c0.0849 0.10819 0.18284 0.20794 0.29102 0.29492l0.77149 0.61719c0.28285 0.22628 0.62765 0.36235 0.98828 0.39063l1.4727 0.11524 0.0156 0.01367 1.0606 0.99805 0.0449 0.11914-0.23828 0.11133c-0.5763 0.27224-0.966 0.82862-1.0254 1.4629l-0.14453 1.5566c-0.0269 0.2878 0.0142 0.5777 0.12305 0.84571l0.46094 1.1367-8e-3 0.01562c-0.26566 0.56075-0.22416 1.2189 0.10961 1.7422l0.35742 0.55664 0.41406 1.3516c0.0141 0.046 0.0292 0.09219 0.0469 0.13672l0.11132 0.2793c0.23406 0.58973 0.7593 1.0133 1.3809 1.1172 0.0629 0.4172 0.27132 0.80043 0.59376 1.084 0.0743 0.0658 0.15289 0.1254 0.23633 0.17774-1e-3 0.10394 7e-3 0.20856 0.0234 0.3125l0.28711 1.7148c0.0438 0.25598 0.14144 0.49863 0.28711 0.71289l0.59765 0.88086c0.21496 0.31891 0.52664 0.5613 0.88868 0.69141l0.3711 0.13281 0.30273 0.49805c0.27365 0.45326 0.73135 0.76351 1.2539 0.84766l0.35352 0.05664c0.27577 0.53457 0.80076 0.89891 1.4004 0.9668l0.35937 0.04102c0.041 0.49569 0.28444 0.96073 0.6875 1.2754l0.26953 0.20899c0.3684 0.28709 0.83139 0.41564 1.291 0.37109l0.20508 0.29297c0.32173 0.46034 0.8384 0.74479 1.3984 0.76953l0.55666 0.02343c0.30689 0.0113 0.61682-0.05016 0.89259-0.18945l0.65039-0.33008c0.0969-0.0488 0.18787-0.10557 0.27344-0.16992l0.32031 0.3457-0.20312 0.6875c-0.21638 0.72833 0.0465 1.5137 0.6582 1.9649l0.6172 0.45703c0.24819 0.18314 0.54147 0.30094 0.84765 0.33984l0.73438 0.0918c0.0537 0.0509 0.10982 0.09999 0.16992 0.14453l0.7207 0.53906c0.058 0.25668 0.17367 0.5013 0.33985 0.71485l0.41602 0.52735c0.23759 0.30406 0.56448 0.52372 0.9336 0.62696 0.37689 0.50912 0.99651 0.78276 1.6152 0.72266 0.0219 0.0262 0.045 0.05272 0.0684 0.07813l0.22656 0.24805c0.28638 0.31113 0.67319 0.51055 1.0918 0.56641l0.26367 0.03711 0.084 0.17383c0.25597 0.52892 0.75414 0.90011 1.334 0.99414l0.75586 0.12305 0.76563 0.66016c0.37052 0.31961 0.85173 0.47211 1.334 0.42969 0.37194 0.57418 1.0493 0.90352 1.7578 0.80664l0.69336-0.09961c0.0177-3e-3 0.035-0.0058 0.0527-0.0098l0.41212 0.26367c0.16052 0.10182 0.33568 0.176 0.51953 0.22266l1.8418 0.4707c0.2581 0.0658 0.52761 0.07223 0.78712 0.02344 0.28214 0.55933 0.8436 0.94656 1.4941 0.98828l0.55665 0.03516c0.19869 0.18102 0.43723 0.31479 0.69532 0.39258l1.6621 0.50196c0.0389 0.0792 0.077 0.15838 0.11523 0.23828 0.23052 0.48367 0.66206 0.83511 1.1719 0.96875 0.0587 0.094 0.12604 0.18415 0.20312 0.26758l0.41797 0.45117c0.26305 0.28497 0.6098 0.47865 0.99023 0.55078l0.43165 0.08008-0.29297 0.41602c-0.2885 0.40801-0.3948 0.91889-0.29297 1.4082 0.10111 0.48933 0.39907 0.91557 0.82618 1.1758 0.1591 0.0969 0.34114 0.23532 0.51367 0.3711 0.35568 0.27931 0.80419 0.4185 1.2539 0.37891h0.0195l0.23047 0.25977c0.32881 0.37477 0.79568 0.59489 1.2871 0.61328 0.0771 0.0813 0.16252 0.15743 0.25586 0.22461l0.46093 0.33203c0.0318 0.0233 0.0644 0.04591 0.0977 0.06641 8e-3 0.36347 0.12596 0.72042 0.34375 1.0195l0.29688 0.4082c0.28213 0.38821 0.70646 0.64716 1.1816 0.72071 0.23406 0.0361 0.47099 0.02706 0.69726-0.02734 0.16971 0.0566 0.34846 0.0883 0.52734 0.0918 0.0474 0.12516 0.10438 0.27173 0.17579 0.44922l-0.0937 0.34179c-0.087 0.3097-0.0919 0.63489-0.01 0.94531l0.0391 0.16016c0.12304 0.53742 0.28482 0.84369 0.69141 1.3125l0.44141 0.51367c-0.24396 0.52963-0.21668 1.1471 0.0781 1.6563l0.18556 0.32226c0.27153 0.47023 0.74135 0.79335 1.2773 0.87891l0.99414 0.1582-0.20508 0.2793c-0.0912 0.12375-0.16608 0.25826-0.22265 0.40039l-0.66211 1.6582c-0.0537 0.046-0.10891 0.0925-0.16406 0.14063-0.2383 0.20436-0.46479 0.40586-0.57227 0.51758l-0.11914 0.12304c-0.5254 0.54377-0.65695 1.3562-0.32813 2.0371 0.10253 0.21142 0.20785 0.42346 0.3125 0.63282l-0.4375 1.5059c-0.17467 0.13082-0.22876 0.16286-0.24219 0.16993-0.0785 0.0325-0.16067 0.0501-0.27735 0.082-0.1386 0.0382-0.30433 0.0824-0.50586 0.14258l-0.1914 0.0566c-0.61235 0.18314-1.0816 0.67744-1.2344 1.2969l-0.0215 0.084c-0.0587 0.24113-0.11895 0.48808-0.1543 0.60547-0.0438 0.0523-0.0976 0.10865-0.16406 0.1836-0.11598 0.1287-0.25808 0.28571-0.43556 0.49219-0.19163 0.22344-0.32752 0.49221-0.39258 0.77929-7e-3 0.0332-0.0126 0.0638-0.0176 0.0957-0.23971 0.15981-0.30142 0.22121-0.40039 0.33789-0.14357 0.15344-0.18188 0.22477-0.67969 1.1504l-0.12305 0.22851c-0.20082 0.36346-0.27082 0.78466-0.19726 1.1934l0.30664 1.6953c0.11738 0.66468 0.13157 0.74953 0.2539 0.99414 0.0134 0.0269 0.0281 0.054 0.043 0.0801 0.12021 0.21355 0.2588 0.40954 0.40234 0.58985-0.11879 0.49003-0.13243 0.86706-0.1289 1.4434v0.0254c-0.0417 0.0375-0.0834 0.0759-0.12305 0.11132-0.17749 0.15982-0.32709 0.29352-0.37305 0.33594-0.2581 0.2383-0.44249 0.54783-0.52734 0.88867-0.0177 0.0721-0.0393 0.14521-0.0605 0.21875-0.10749 0.37053-0.25269 0.87817-0.21875 1.4707 0.029 0.52467 0.0534 1.0501 0.0781 1.5762 0.0446 0.91997 0.0892 1.8653 0.1543 2.8086l-0.53322 0.82814c-0.18315 0.28355-0.28411 0.61512-0.28906 0.95312l-0.0117 0.66211c-0.50064 0.48791-0.64201 0.7882-0.87891 1.5547l-0.0527 0.16992c-0.23546 0.50982-0.17383 1.3066-0.17383 1.3066-0.26163-0.13788-0.59212-0.27369-0.82617-0.45117-0.83299-0.62863-1.988-2.4392-2.8379-2.7129-0.60741-0.19515-1.3359-0.26192-1.9688-0.30859-0.47447-0.0354-1.0481-0.12953-1.4356 0.21484-0.17679 0.1591-0.39276 0.31965-0.55469 0.49219-0.87399 0.93906-1.68 2.5145-2.3906 3.6367-0.42074 0.66398-0.96584 1.2762-1.4297 1.9141l-0.0684 0.0957c-0.42992 0.53882-0.82255 1.1051-1.1719 1.7012-0.3274 0.55932-0.91508 1.9756-1.3047 2.4063-0.95531 1.0578-2.0298 0.96885-3 0.0234-0.1301-0.12658-0.57719-1.0006-0.72851-1.2637-0.57559-1.0083-1.4002-2.3375-1.6817-3.5078-0.25173-0.52115-0.50308-1.2034-0.84179-1.6602-0.19446-0.26447-0.68735-0.46671-0.97656-0.60743-0.78208-0.37829-1.4444-0.57761-2.293-0.74024-0.19799-0.0382-0.49678-0.13103-0.69336-0.1289-0.89663 8e-3 -1.8298 0.17494-2.7285 0.22656-0.64844 0.0382-1.3391 7e-3 -1.9805 0.0859-0.39386 0.0488-1.0512 0.19892-1.4238 0.33398-0.3684 0.13364-0.70918 0.42747-1.0762 0.57032-0.24325 0.0948-0.5088 0.17022-0.77539 0.24024l-0.1289-0.25782c-0.76723-1.0288-1.1306-0.83173-2.6289-1.2461-0.23052-0.84571-0.66562-2.0348-1.8281-1.8008-0.21001-0.64419-0.71882-0.75022-1.3008-0.79687l-0.041-0.10547c-0.39458-0.98289-0.881-1.4237-1.6348-1.4824-0.046-0.71066-0.54426-1.201-1.6445-0.84181-0.61591-1.3923-0.83128-2.1004-2.3926-1.3594-0.47235-0.47871-0.94351-0.95824-1.418-1.4356-0.0806-0.57064-0.0357-1.9477-0.96484-1.9746-0.0919-0.35003-0.2971-0.53669-0.54883-0.64064 0.0438-0.28708-0.035-0.56424-0.3164-0.96093 0.13293-0.33517 0.17204-0.632 0.1289-0.88868l-1.9434-0.27343c-0.0919 0.0509-0.20729 0.18615-0.23633 0.28515-1.3633 0.41507-3.9005-0.62323-5.1231-1.0234-0.36488-0.11953-1.719-0.59678-2.2832-0.5586l-4.7188 0.32227c-0.24817-0.1287-0.58977-0.26135-0.81251-0.42188-0.89307-0.647-2.4546-2.51-3.2656-3.377-0.81319 0.2185-1.6236 0.43825-2.4375 0.65039l-0.92578 3.334-1.7754 0.99025c-0.8153-0.37477-2.8064-1.059-3.7129-1.0781-1.1137-0.0247-2.2568 0.20481-3.3692 0.1836-0.95813-0.0177-1.9609-0.31264-2.9141-0.30274-0.0615 7.1e-4 -1.0472 0.31459-1.1992 0.34571-0.68095 0.13788-1.9122 0.37553-2.584 0.41797l-1.1543-0.0937c-0.74742-0.0615-1.4978-0.12068-2.248-0.15039l-0.81641-0.0293c-0.12445-0.0523-3.2544-1.7988-3.3711-1.8809-0.97936-0.69227-1.7732-1.7614-2.7539-2.4473-0.36628-0.25526-0.6159-0.32531-1.0098-0.5332-0.91502-0.48296-1.8154-0.971-2.7559-1.4024-1.0812-0.49495-1.3894-0.6556-2.5215-0.95117-0.20365-0.053-0.31343-0.12203-0.52344-0.13476-1.0232-0.0622-2.1016 0.17466-3.127 0.12304-0.0318-1e-3 -1.8644-0.36051-1.9238-0.3789-0.17819-0.0523-2.2974-0.83801-2.4219-0.90236-0.19799-0.10324-0.27386-0.21883-0.44922-0.35742-0.60246-0.47518-1.577-1.3366-2.207-1.6973-0.89732-0.51337-1.9112-0.93277-2.8418-1.3867-0.10748-0.0523-0.22647-0.14571-0.32617-0.21289-0.58196-0.38537-3.0178-1.928-3.3438-2.2617-0.27648-0.28284-0.37195-0.49821-0.60743-0.81641-1.1271-1.5196-2.2238-3.0513-3.2852-4.6211-0.49427-0.73116-1.0291-1.4598-1.4258-2.2539-0.0898-0.39316 0.17747-1.0534 0.40234-1.3574l0.71875-0.13281c0.21849-0.32527 0.46874-0.65685 0.66602-0.99413 0.20225-0.34649 0.41755-1.1262 0.64454-1.3906 0.20718-0.24254 0.5848-0.40691 0.8125-0.63672l0.35938-0.48633c0.36133-0.48649 0.8965-0.52513 1.4629-0.62696 0.83016-0.15061 1.922 0.09682 2.668-0.30274l0.29102-0.46094c-0.017-0.0488-0.165-0.49812-0.17773-0.51367-0.81743-1.0416-1.9713-1.8052-2.793-2.875l-0.75197-0.02734-2.7559 1.6719c-0.59748 5e-3 -1.7256-0.27426-2.2383-0.54297-1.1837-0.61942-2.3442-1.3917-3.4961-2.0762l-0.46484-0.11328c-0.10395-0.0262-0.96249-0.24219-0.99219-0.24219-0.54519 2e-3 -1.7744 0.10093-2.3047 0.19922-0.77217 0.14355-1.6051 0.45051-2.3652 0.66406-1.492-0.39245-2.69-0.89119-3.6113-2.1895-0.14072-0.83015-0.4834-2.7694-0.50391-2.8281l-0.41797-0.64844c-0.31042-0.91642-1.5411-1.1796-2.4434-1.4023-1.2707-0.31395-2.571-0.57337-3.8262-0.94532-1.0911-0.32386-2.2005-0.6764-3.1777-1.2598-1.0126-0.60457-1.6974-1.5375-2.4512-2.4277-0.7262-0.85632-1.249-1.5402-2.4199-1.707-0.51832-0.0735-1.0216-0.01271-1.5371-0.06641-0.12939-0.0134-0.53375-0.19931-0.61719-0.09961-0.1888 0.22345-0.37832 0.44576-0.56641 0.66992-0.67812 0.8054-1.3079 1.6235-2.0801 2.3399-0.90724 0.84005-1.6688 1.074-2.8984 0.98633-1.0069-0.0714-2.1662-1.1632-3.0098-1.6836-0.87611-0.54023-1.696-1.1576-2.5332-1.7559-1.5811-1.1307-2.7256-3.2795-4.7734-3.6387-0.70712-0.12375-1.0678-0.19844-1.7481 2e-3 -0.47165 0.13859-0.76617 0.49019-1.1699 0.76172-0.62014 0.41579-0.79151 0.20577-1.5078 0.2793-0.52892 0.0545-0.95943 0.28802-1.5039 0.29297-0.46811 4e-3 -1.0678-0.12412-1.3945 0.23438-0.32244 0.35356-0.63529 0.6227-0.79297 1.0703-0.25597 0.72833-0.5116 1.456-0.76758 2.1836-0.21142 0.60176-0.23543 0.60435-0.83789 0.87305-1.8074 0.80611-2.9982 2.3941-4.4492 3.6719-0.2489 0.21991-1.2182 0.25381-1.5371 0.3125-0.43346 0.0806-0.86554 0.17263-1.2969 0.26172-1.2318 0.25385-1.7862 0.78328-2.5781 1.7266l-0.11915 0.26563c-0.25103 0.34225-0.5075 0.67651-0.79883 0.96289-0.52185 0.51689-1.191 0.91885-1.7051 1.4414-0.0997 0.10041-1.256 2.0002-1.3281 2.1133-0.64631 1.0289-1.3484 2.0183-2.0371 3.0195-0.47235 0.6859-1.3597 1.9731-2.0371 2.5586l-0.78321 0.46484c-0.0149 8e-3 -0.70173 0.43905-0.78516 0.46875-0.67672 0.24608-1.4059 0.35215-2.084 0.60742-0.21214 0.0799-0.60612 0.16199-0.79493 0.29492-0.6555 0.46104-1.3119 0.91603-1.9512 1.4004l-0.99805 0.75781c-0.6548 0.35073-2.11 0.89668-2.8418 1.1816-0.93199 0.36347-1.8726 0.49756-2.6992 1.1113h0.0352c0.34719 0.23829 0.87576 0.52524 1.1699 0.81445 0.58195 0.57065 0.87111 2.8267 1.0352 3.625 3e-3 0.0134 0.0105 0.0689 0.0176 0.0781 0.77217 1.0854 1.5222 2.2089 2.3262 3.2695 0.19587 0.25951 0.56908 0.49283 0.73242 0.76367 0.28709 0.47518 0.32779 1.9468 0.29102 2.4707-0.0905 0.16194-1.2318 2.2637-1.248 2.2793-0.24891 0.25668-2.9683 2.1972-3.4258 2.5352-0.11172 0.52185-0.0829 1.0046-0.0391 1.5293 0.27578 0.33658 0.56231 0.66499 0.84376 0.99805 0.60529-0.0728 2.504-0.37865 3.0117-0.35743 1.1052 0.046 4.4009 0.91681 5.2813 0.57032 0.91643-0.36062 2.6926-1.8914 3.4746-2.5215 0.1294-0.10324 0.29482-0.27432 0.43554-0.35352 0.22982-0.12799 1.1322-0.30721 1.3535-0.27539 0.36698 0.0516 0.85298 0.27092 1.2129 0.38477l1.543 1.5586s0.73633 1.4859 0.73633 2.5996 2.3945 0.92774 2.3945 0.92774l1.4727 1.4863s1.8412 0.1836 3.1289 0.1836c1.2891 0 1.1055 2.043 1.1055 2.043 0 0-0.36817 2.0426-0.55273 3.1563-0.18385 1.1144-1.1055 2.043-1.1055 2.043 0 0-2.7605 1.4844-4.418 1.4844-1.6575 0-3.2324-0.32422-3.2324-0.32422-0.18032 0.0559-0.44186 0.17339-0.625 0.19531l-6.4141 0.77149-0.71875 0.2539c-0.52326 0.37903-1.2352 1.3708-1.5117 1.957 0.0502 0.47871 0.15131 1.0142 0.15625 1.4922 1e-3 0.1789-0.12627 0.39836-0.13476 0.58008-0.0226 0.56499 0.34153 1.2043 0.36133 1.6816 7.1e-4 0.0156-0.18101 0.83622-0.19727 0.89845-0.17961 0.74105-0.68393 0.97191-0.7207 1.9336-8e-3 0.21071-0.0596 0.52364-0.0312 0.72658 7e-3 0.0502 0.79018 1.7878 0.8418 1.9102 0.0205-1e-3 0.18097-0.0104 0.18945-0.0156 0.48226-0.29275 1.0235-0.57175 1.4824-0.89844 0.35073-0.2489 0.64985-0.64536 1.0098-0.87305l0.59375-0.14258c0.51761-0.0198 1.364 0.3498 1.7988 0.59375 0.47378 3e-3 1.3716-0.57898 1.7188-0.85546l1.1816-2.8652-0.14257-0.51173c-0.62651-0.31042-1.2469-0.62906-1.8692-0.94726-0.11455-0.30971-0.0228-0.86253 0.15039-1.1348 0.046-0.0304 0.5489-0.37075 0.56446-0.375 0.49992-0.14284 2.8854-0.2709 3.5176-0.33595l0.85547 0.45509c0.31466 0.75731 0.3349 3.922 0.38086 4.8652 2e-3 0.0198 0.26236 0.60749 0.28711 0.66407 0.24466 0.57206 0.47547 1.1381 0.62891 1.7441l0.58008 0.48828c0.45609 0.12798 1.4339-0.2223 1.8242-0.42383 1.7339 0.5077 3.1303 1.5006 3.918 2.9707 0.29275 0.54589 0.60576 1.0874 0.83204 1.668 0.36771 0.14566 0.2966 1.2359 0.67773 1.3398l4.7481 1.8184c0.2878-0.17253-1.2301-2.9036-0.73438-2.9707 0.0226-3e-3 1.4456-0.74471 1.4668-0.7539 0.43134-0.20649 0.86558-0.43371 1.3047-0.62111 0.33942-0.14495 0.74112-0.22516 1.0664-0.39062 0.43276-0.21991 0.86956-0.54392 1.2832-0.80274 0.0247 0.0219 0.26193 0.22183 0.26758 0.23243 0.20577 0.39528 0.32841 0.86028 0.51368 1.2676 0.51902 1.1378 1.5142 3.5228 2.3125 4.4512 0.61449 0.21567 1.4481 0.23359 2.086 0.17773 0.0431-4e-3 1.057-0.20013 1.0684-0.20508l2.2559 0.72852s1.1042 2.8e-4 1.4727-0.74219c0.3677-0.74247 1.2871-1.4844 1.2871-1.4844l1.6582-0.1875 0.73633-2.5977s1.1037 0.18612 1.8398 0.55664c0.73682 0.37124 1.291 0.37219 2.5801 0.74414 1.2891 0.37052 0.73439 2.4131-0.55469 3.1563-1.2884 0.74247-0.55299 3.1532-0.36914 4.2676 0.18456 1.1144 2.0274 1.4863 2.0274 1.4863l2.2305-1.9121c0.7948 0.10324 1.3193 0.50849 1.6113 1.2637-0.099 0.63287-0.12394 1.8983 0.0762 2.5078l0.63086 1.2363 0.9961 0.84961c0.0219 0.012 1.0441 0.24957 1.1367 0.27149l0.30079 0.39844c-0.13436 0.8846-0.29184 1.7665-0.43751 2.6504 0.68308-0.094 1.3722-0.21906 2.0566-0.28906 0.46245-0.046 0.51693 0.064 0.89453 0.29883l1.0332 2.1094 0.46289 0.32617c0.33447 0.10821 0.78529 0.12637 1.1367 0.19142 0.61662 0.11526 1.3123 0.20529 1.9141 0.375 0.53599 0.15203 1.4246 0.84034 1.8906 1.1543l0.59375 1.0781 1.5566-0.73242c0.26518 0.17536 0.84233 0.40754 1.041 0.58008 0.0163 0.0148 0.52967 0.63871 0.5332 0.64649 7e-3 0.0163 0.2374 0.98614 0.24023 1.0215 0.0905 0.86975 0.21215 2.402 0.20508 3.2598-0.012 1.3527-1.1647 4.6219-1.9531 5.7286-0.0389 0.0537-1.3827 1.629-1.3926 1.6367-0.44053 0.36557-0.73609 0.50996-1.207 0.83593l-2.4102 1.668c-1.7042 1.2353-3.4016 2.5129-5.0703 3.7949-2.2727 1.7452-4.554 3.5251-6.7637 5.3516-0.42356 0.35071-0.8747 0.87805-1.3301 1.168-0.43205 0.27577-1.9669 0.87526-2.582 1.1348-0.1085 0.0455-0.23878 0.10527-0.37305 0.15235h-0.0449c-0.24108 0.0843-0.48313 0.17411-0.6543 0.28515l-0.43359 0.45508c-0.0856 0.0884-0.16801 0.11609-0.2168 0.22852-3e-3 7e-3 -7e-3 0.0242-0.01 0.0312-0.31526 0.75396-0.90996 3.3858-1.3281 3.959-0.28214 0.38539-0.80647 0.7003-1.1289 1.0645-0.42993 0.48438-1.5803 1.8547-1.9141 2.3652-0.34153 0.52397-0.48146 0.85255-0.78906 1.3984l-1.5742 2.7969c-0.017 0.0304-0.23393 1.8069-0.21484 1.9512 0.0346 0.26798 0.20172 0.64446 0.28515 0.9082 0.41862 0.24962 1.0176 0.52265 1.3867 0.82813l0.52344 0.75392 0.0996 0.66991c-0.0346 0.37618-0.25397 0.79141-0.26953 1.1641-0.0276 0.6562 0.0916 1.4189 0.13476 2.0801 0.0502 0.075 0.57715 0.86123 0.59766 0.87891 0.33729 0.2885 0.95522 0.55745 1.3477 0.78515l3.3809-0.44727c0.78419 0.55793 1.5944 1.2234 2.416 1.7149 0.0205 0.012 0.81426 0.23714 0.89062 0.25977 0.58127 0.99632 1.1597 1.9974 1.7481 2.9902-0.47589 0.94824-1.1965 2.2084-1.584 3.1602-8e-3 0.0198-0.10409 0.9336-0.11328 1.0156l0.95703 2.0234c-0.47659 0.59115-1.1682 1.8226-1.3711 2.541-8e-3 0.0297-0.20188 1.4989-0.20117 1.5215 0 0.0368 0.296 1.6037 0.29883 1.6094 3e-3 6e-3 1.0033 1.1924 1.0195 1.2051l3.5371 2.7442c0.68944 0.53458 1.0301 0.90794 1.7676 1.3711 0.36346 0.22769 4.6659 0.61726 5.291 0.75586 0.30122 0.0672 2.5805 1.4314 2.7637 1.6152 7e-3 7e-3 1.0912 1.6291 1.1152 1.6758 0.23759 0.45891 1.2232 3.3997 1.332 3.5234 0.52539 0.59539 0.9163 0.83332 1.5039 1.3672l3.0117 2.7344c0.43982 0.43204 1.8233 2.0041 2.1797 2.4941 0.58761 0.80823 0.96034 1.8248 1.5508 2.6309 0.52821 0.71844 1.626 1.8283 2.2539 2.541 1.2127 0.0792 2.5005 0.0872 3.7012 0.24414 0.50629 0.0658 1.9118 0.38973 2.4004 0.54883l5.291 1.875c1.031 0.36558 1.6353 0.51818 2.6465 0.9375 0.7934 0.3281 1.2046 0.59613 1.9746 0.97657l3.9473 1.9492c1.118 0.55155 2.1894 1.268 3.1016 2.125 1.5189 0.23264 1.669 0.0605 2.7481 1.1523h2.3027c0.70995 0 1.988 0.79201 2.4844 1.2969 0.56923 0.57842 1.0335 1.3604 1.4727 2.0449 0.86196 0.0248 3.3585 0.0956 4.0508-0.0918 0.55226-0.15062 1.2085-0.56693 1.6582-0.92968 0.74034 1.0748 1.4389 2.198 2.209 3.2481 0.51337 0.70004 1.3829 0.95487 2.211 0.74415-0.0417 0.95744-0.0918 1.9195-0.0918 2.877 0 0.60458 0.0511 0.99901-0.55273 1.2988-0.49356 0.24466-1.687-0.98004-2.211-1.207-1.1816-0.51407 7e-3 1.6627 0.27735 1.9512 0.27365 0.28991 0.65251 0.53585 0.97071 0.77345 0.7156 0.53528 3.0046 2.1422 3.4473 2.7539 0.66115 0.91076 0.56515 2.2227 0.27735 3.248-0.42568 1.5175-0.73633 5.0532-0.73633 6.6817 0 1.2735-0.72087 1.8576-1.5645 2.6934-1.2283 1.2162-0.33782 3.1218 0.36718 4.3613 0.34295 0.60459 0.26722 1.6699-0.45898 1.6699-0.36841 0-0.74505 0.0918-1.1113 0.125-0.51761 0.0481-1.0408 0.0625-1.5606 0.0625-0.95671 0-1.5903-0.12601-2.209 0.65039-0.65763 0.82381-1.4605 1.3464-2.4844 1.5762-1.2764 0.28638 0.17726 1.9164 0.55273 2.4121 0.31396 0.4179 0.64695 1.6085 0.55078 2.1367-0.0163 0.0933-1.5812 2.6965-1.7481 2.9688-0.71277 1.1618-1.2527 3.551-1.3828 4.9199-0.11313 1.1802-0.55501 1.9945-1.8398 1.9492-1.0614-0.0375-0.60975 0.65039-2.0254 0.65039-1.6681 0-1.9315 2.3382-2.3926 3.5254-0.34932 0.89946-1.0588 1.3405-1.4746 0.28125-0.17607-0.45043-0.88065-0.85883-1.1953-1.3008-0.5155-0.72196-0.30817-1.6-1.3809-1.8574-1.0996-0.26234-0.79439-0.64631-1.1953-1.5762-0.44902-1.0423-1.1344-0.86959-2.0254-0.65039-0.65477 0.16052-3.069-0.40292-3.7754-0.6504-0.62227-0.21779-1.3614-0.70501-2.0254-0.64844-2.0132 0.17536-4.1633 0.28355-6.168 0-1.7148-0.24396-2.3141 0.6193-3.6817 1.2988-1.1321 0.56216-3.5559 0.7545-4.8789 0.92774-1.0883 0.14213-2.1419 0.5678-3.0371 1.207-0.56428 0.40305-1.3 1.0912-1.5645 1.7637 0.0997 0.19799 1.2738 2.5877 1.3027 2.623 0 0 1.9557 1.3178 1.9727 1.3242 0.50843 0.18597 2.2427 0.30605 2.8926 0.45314 0.48509 0.11173 0.9597 0.41249 1.4434 0.53906 0.28921 0.0735 0.67577-5e-3 0.95508 0.082l7.0039 2.1895c0.029 8e-3 1.1658 0.79329 1.2754 0.86329 0.0297 0.0198 1.4287 0.0937 1.5645 0.0937 1.0366 0 3.9823 0.19189 4.8789 0.46484 0.87754 0.26658 2.8482 1.6429 3.4981 2.3203 0.53103 0.55438 1.4589 2.5689 1.5664 3.3418 0.12586 0.90016-0.50529 2.1413-1.3828 2.4121-0.9426 0.29133-0.30519 1.5968 0.18555 2.043 0.43628 0.39811 0.75433 0.95474 1.0117 1.4844 0.16547 0.34224 1.5052 4.611 1.5469 4.9356 0.0764 0.60246 0.24341 2.5722 0.40039 3.1641 0.15345 0.57559 0.61631 1.1462 1.0625 1.5195 0.041 0.0339 0.99577 0.69657 1 0.69727l3.6484 1.1133c0.71278 0.21708 1.1256 0.29943 1.8242 0.55469 0.89592 0.3288 2.4742 1.1605 3.3984 1.5918 1.2509 0.58551 2.5054 1.2309 3.7754 1.7676 0.96804 0.40731 2.0095 0.72815 2.9981 1.086l4.0781 1.4844c0.0417 0.0537 0.51654 0.66734 0.52149 0.6836 0.21708 0.68732 0.20607 1.501 0.39063 2.2031 8e-3 0.0283 0.37551 0.76754 0.41015 0.834 0.33447 0.64489 0.6303 1.0558 1.2285 1.4766 0.25951 0.18243 0.66207 0.32139 0.89259 0.52149 0.21778 0.19023 1.2142 1.337 1.3535 1.5859 0.17678 0.31749 0.0812 0.63041 0.18164 0.93164 0.0693 0.20931 0.25859 0.43237 0.35547 0.63672 0.0622 0.13153 0.0879 0.28754 0.14453 0.4219 0.0233 0.0551 0.30459 0.65884 0.32227 0.68358 0.21073 0.29274 2.7462 1.8439 3.0899 2.0059 0.18243 0.087 0.40566 0.1154 0.59375 0.19531 0.5565 0.23476 0.86157 0.88447 0.91602 1.4629-0.14708 0.54801-1.1394 0.80342-1.4922 1.3203-0.0283 0.27436 0.3748 0.78567 0.5332 0.98437 0.24112 0.30051 0.59462 0.61886 0.91211 0.83594 0.0368 0.0248 0.62935 0.37308 0.64844 0.38086 0.82239 0.28214 1.9752-0.17923 2.7637-0.35742 0.56852 0.15557 1.7189 1.3569 2.1445 1.8477 0.17042 0.19587 0.32467 0.44806 0.50781 0.62696 0.19164 0.18597 0.45188 0.32924 0.65626 0.5039 0.20081 0.169 0.37431 0.3837 0.58008 0.54492 0.66752 0.52328 1.583 1.1524 2.3184 1.5957 1.8823 1.1385 2.4364 1.1802 3.2305 3.5293 0.30901 0.91431 0.34876 1.7831-0.20704 2.6055 5e-3 0.0651 0.0384 0.634 0.0469 0.66016 0.0141 0.0438 0.30453 0.48652 0.34767 0.56641 0.19021 0.3479 0.35188 0.73457 0.50391 1.1016-0.14708 0.43204-0.44895 1.7577-0.42774 2.1856 0.0438 0.0622 0.4495 0.65013 0.47071 0.66993 0.0163 0.0148 0.55438 0.28508 0.60742 0.31054 0.42356 0.21425 0.91653 0.0684 1.1562-0.32617 0.21566-0.35425 0.68687-0.97752 1.1055-1.1133 0.16193-0.053 1.535-0.0918 1.75-0.0918 0.73116 0 2.1036-0.23404 2.7598-0.5586 0.45326-0.22486 0.8769-0.51398 1.3457-0.70703 0.13577-0.0566 0.38773-0.0725 0.49804-0.12695 0.48084-0.24113 0.93892-0.53266 1.4219-0.76954 0.26163-0.1294 0.55656-0.20458 0.82031-0.33398 0.50771-0.24537 0.97954-0.56676 1.4922-0.8086 0.33729-0.1591 0.731-0.281 1.0527-0.46485 0.58337-0.33306 1.1242-0.7565 1.7012-1.1016 0.40942-0.24537 0.85802-0.43324 1.2695-0.67578 0.7446-0.43843 1.4671-1.0467 2.2676-1.377 1.4849-0.61376 3.1541-1.0426 4.7578-1.1543 0.0679-4e-3 0.58324-0.0465 0.61718-0.043 0.0155 2e-3 0.49669 0.18932 0.51369 0.19922 0.13858 0.087 0.61298 1.0204 0.66601 1.207 0.0912 0.31537 0.0623 0.66186 0.2207 0.96876 0.49215 0.95955 1.055 0.48293 1.4531 0.87891 0.44408 0.44477 0.68176 1.175 1.1484 1.5625 0.9836-0.0481 1.6103-1.3586 2.0664-2.0996 0.37124-0.18173 0.88328-0.12273 1.2715-0.0527l0.61133 0.4707c0.13221 0.32034 0.10429 0.67725 0.0703 1.0117-0.0863 0.83015-0.17863 1.6601-0.25781 2.4902-0.0262 0.28214-0.0176 0.58327-0.0586 0.86328-0.0346 0.24042-0.1705 0.5236-0.17969 0.75977-7.1e-4 0.0346 0.10961 0.62249 0.12305 0.69532 0.041 0.24112 0.0609 0.54291 0.13086 0.77344 0.14143 0.45963 0.74319 1.1052 1.1328 1.3711 0.37972 0.25951 1.0551 0.27557 1.4356 0.0195l0.16016-0.47853 0.47851-0.34765 0.46289 0.01c0.33943 0.23264 1.0132 0.76227 1.4375 0.64064 0.57347-0.36276 0.79075-1.1172 1.5332-1.3145 0.65552-0.17536 1.4433-0.1007 2.1172-0.18555 0.50631-0.0651 1.026-0.19895 1.5274-0.30078 0.71489 0.27719 1.425 0.59685 2.0664 1.0176 0.62439 0.40942 1.9239 0.85903 2.6699 1.0195 0.59893 0.1287 2.2668 0.31457 2.6211 1.0273 0.0155 0.0312 0.0261 0.0661 0.041 0.0977 0.0313 0.0664 0.0529 0.13905 0.082 0.20703 0.18219 0.42869 0.33441 0.8792 0.52345 1.3008 0.38113 0.84925 0.69101 1.1219 0.72071 2.1055l-0.3711 0.25976c-0.69581-0.0255-1.1062-0.20504-1.6797-0.27929-0.57135-0.0742-1.6848 0.38534-1.9902 0.87891-0.26304 0.42639-0.46436 1.0404-0.75781 1.4258-0.18526 0.24254-0.59256 0.47695-0.84571 0.64454-0.63852 0.42498-1.2758 0.72599-1.9766 1.0371-0.1782 0.0792-0.39881 0.13626-0.5664 0.23243-0.72267 0.41294-0.80946 1.2064-0.64258 1.9531 0.0629 0.28145 0.46828 1.3922 0.56445 1.5449 0.44194 0.69509 1.9875 2.1762 2.6543 2.7539 0.88317 0.76368 2.2701 1.773 2.4434 3.0508-0.27649 0.19163-0.8709 0.22945-1.1856 0.16016-1.0239-0.94825-2.2575-0.68755-3.4024-1.2207-0.46669-0.99209-1.279-2.3979-2.5801-1.666-0.30334 0.17042-1.0214 0.81377-1.2031 1.1016-0.76299 1.1908-1.3088 2.5133-2.0703 3.709-0.0863 0.13577-0.17286 0.33238-0.27539 0.45117-0.0149 0.0184-0.26788 0.19645-0.29688 0.21484-0.0375 0.024-0.46191 0.26582-0.48242 0.27149-0.82238 0.24536-3.7101-0.93207-4.4766-1.1074-0.0629-0.0148-0.58464 0.058-0.69141 0.0488-0.17819-0.0163-0.37046-0.13486-0.55078-0.1582-0.59328-0.0742-1.2308 0.10598-1.6211 0.58398-0.0354 0.0438-0.46933 0.89736-0.47852 0.93555-0.0481 0.22627 4e-3 0.51274-0.0254 0.74609-0.0212 0.16829-0.26556 1.1676-0.37304 1.3203-0.25598 0.36841-0.94262 0.74465-1.3379 1.3457l-0.16993 0.36523c-0.12658 0.71135 0.64253 2.0177 0.91408 2.6406 0.22344 0.51692 0.42321 1.0468 0.64453 1.5645 0.11173 0.26445 0.26445 0.52747 0.36133 0.79688 0.0728 0.20294 0.10429 0.44553 0.16015 0.65625 0.21072 0.78136 0.39835 1.6188 0.77735 2.3379 0.437 0.82663 1.0821 1.5681 1.582 2.3594 0.40376 0.63711 0.70067 1.146 1.2734 1.6778 0.65691 0.61025 1.47 1.0119 2.1856 1.5352 0.98571 0.72055 2.8052 2.546 3.9649 2.8203 1.3888-0.0806 2.0473-1.9595 3.1836-2.5684l0.50195 0.043c0.40517 0.38327 0.63607 0.83979 0.97266 1.2676 0.44831 0.57064 0.60953 0.62566 1.0098 1.3398 0.15556 0.2786 0.25935 0.61566 0.44533 0.87305 0.43346 0.60175 1.1085 1.0879 1.4648 1.7441 0.0297 0.0587 0.30684 1.1633 0.3125 1.2305 0.0757 0.78277-0.59122 1.4245-0.94336 2.0645 0.0382 0.56286 0.8673 3.9208 1.0957 4.3535 0.10253 0.19376 0.30167 0.37316 0.42188 0.56055 0.13011 0.20152 0.21775 0.44476 0.35352 0.64062 0.25457 0.36912 0.50769 0.54078 0.72266 1.0117 0.34012 0.10749 0.65204 0.29258 0.98438 0.4043 0.26729 0.0891 0.55215 0.13727 0.82226 0.2207 0.61591 0.18739 1.2049 0.45526 1.8145 0.65821 0.22769 0.29486 0.19415 0.56019 0.29102 0.88476 0.17325 0.58409 0.51438 1.7736 0.91602 2.2481 0.19659 0.23052 0.89429 0.64693 1.2012 0.70703 0.46669 0.0891 1.3375-0.0469 1.8438-0.0469 0.69085 0 1.5176 0.10094 2.1738 0.32227 0.14496 0.16901 0.25876 0.43029 0.3125 0.64454-0.0764 0.21072-0.43988 0.43465-0.61524 0.55274-1.4036 0.95248-2.5683 0.37706-3.9727 1.0488-0.24255 0.11597-0.51131 0.3357-0.73829 0.48633-1.7042 1.1194-2.1016 1.7179-3.086 3.4199-0.22912 0.39669-0.37832 0.87953-0.68946 1.2246-0.39174 0.43558-1.0144 0.65226-1.3828 1.1543-0.45255 0.6152-0.56157 1.171-1.1563 1.7246-0.29982-0.1598-0.57053-0.87048-0.61719-1.1738-0.0672-0.44902-0.0159-0.95675-0.0527-1.4121-0.0318-0.38892-0.12496-0.7739-0.1582-1.1621-0.0707-0.86622-0.0257-1.7506-0.16993-2.6133-0.0764-0.45255-0.40377-0.70467-0.64843-1.0547l-0.50977-0.19922c-0.36488 0.0474-1.2113 0.34847-1.461 0.60939-0.40518 0.42073-0.82293 0.98431-1.1758 1.4531-0.39529 0.5261-0.84043 1.7453-1.6133 1.7559-0.59469-0.42709-2.5739-1.3735-3.1445-1.5898-0.0601-0.0219-0.70465 9e-3 -0.84961-0.0176-0.28214-0.053-0.57849-0.18161-0.86134-0.21484-0.23971-0.0283-0.98449 0.0909-1.2129 0.24219-0.76298 0.50699-0.81603 1.3002-0.85351 2.1367-0.0318 0.69228-0.0453 1.4277 0.0996 2.1094 0.0545 0.25739 0.17573 0.5104 0.24219 0.76562 0.14355 0.55721 0.43494 2.3139 1.0254 2.6738 0.46173 0.28143 1.0997 0.33412 1.6328 0.24219 0.58973 0.37336 1.1776 0.74761 1.7617 1.1309 0.52114-0.0127 1.3358-0.70886 2.0196-0.88281 0.40092 0.1393 0.831 0.3959 1.123 0.70703-0.28497 0.69228-1.289 1.9314-1.166 2.707 0.087 0.55508 0.51861 0.782 0.91601 1.0762 0.14991 0.11101 0.32831 0.31447 0.49024 0.39649 0.36347 0.18809 0.61903 0.0304 0.91602 0.48437 0.14779 0.22486 0.20804 0.91395 0.1543 1.1699-0.0255 0.11738-0.14251 0.24324-0.16797 0.36133-0.0686 0.338 0.33976 1.2825 0.5625 1.5293 0.25668 0.28568 0.71342 0.41224 1.0352 0.59961 0.36911 0.21567 0.58847 0.51102 1.041 0.59375 0.60671 0.70853 1.1003 1.4332 1.3047 2.3418l-0.25977 0.68554c-0.71347 0.18881-1.6643 1.1375-1.7188 1.9238l0.0684 0.42578c0.21637 0.35709 0.57095 0.70993 0.83399 1.043 0.3974 0.21213 0.6564 0.0933 1.0488 0.12305 0.54943 0.041 1.4428 0.25408 1.8106 0.69531 0.14142 0.28002 0.0853 0.5769 0.0195 0.86328-0.13223 0.57488-0.40089 0.92923-0.75586 1.3867-0.041 0.053-0.33797 0.42326-0.35352 0.45508-0.15769 0.32528-0.26846 0.74103-0.38867 1.084-0.3182 0.91219-0.66859 1.8383-0.93164 2.7695-0.11526 0.4073-0.18165 0.83436-0.30469 1.2402-0.17182 0.5664-0.43705 1.1163-0.61523 1.6855-0.13508 0.43275-0.17474 0.83911-0.26172 1.2754-0.0127 0.0622-0.0934 0.22697-0.0977 0.2793-0.0714 0.96238 0.90932 1.6013 0.51758 2.6309-0.25456 0.67105-0.78948 1.0048-1.2031 1.5352-0.18244 0.23264-0.49811 1.1956-0.55468 1.4883-8e-3 0.0403-0.0659 0.71888-0.0645 0.75 0.0389 0.56852 1.2051 3.0353 1.5 3.543 0.56782 0.97441 1.2324 1.8588 1.7578 2.8594 0.10043 0.19164 0.2819 0.44425 0.34766 0.64649 0.0983 0.29769 0.23199 1.1772 0.25391 1.5117 0.0354 0.51692-0.0573 1.0474 0.0254 1.5664 0.14072 0.88531 0.31283 1.7606 0.50587 2.6367l1.0664 1.4551c0.07-0.0516 0.13754-0.10824 0.20118-0.17188l8e-3 -8e-3c0.34507-0.34507 0.68708-0.69598 1.0293-1.0488 0.66329-0.68238 1.2906-1.326 1.9453-1.9277 0.42992-0.39456 0.88904-0.77468 1.377-1.1777 0.25668-0.21215 0.5146-0.4246 0.76563-0.63672l2.6309-2.2305c0.40235-0.34296 0.61374-0.65844 0.79687-0.95119 0.10395-0.16617 0.28628-0.46446 0.50195-0.82226 0.3776-0.62651 1.2612-2.0924 1.4649-2.3555 0.13859-0.15557 0.68378-0.57656 1.0098-0.82617 0.50913-0.39104 0.98875-0.75724 1.336-1.1094 0.42356-0.43064 0.9101-1.0913 1.3379-1.6719 0.16335-0.22204 0.31581-0.42922 0.42188-0.56642 0.1294-0.1598 0.20747-0.30842 0.22656-0.35156 0.11526-0.21001 0.22687-0.42692 0.33789-0.64258 0.14708-0.28567 0.29261-0.57326 0.45313-0.83984 0.0636-0.10536 0.1957-0.26328 0.32227-0.41602 0.23264-0.28073 0.51998-0.62901 0.74414-1.0547 0.0219-0.0417 0.0434-0.082 0.0625-0.12304l2.2949-2.5703c0.0311-0.0297 0.0611-0.0565 0.0879-0.084 4e-3 -5e-3 7e-3 -0.0118 0.0117-0.0156 3e-3 -3e-3 5e-3 -6e-3 8e-3 -8e-3 0.1294-0.13647 0.25517-0.28372 0.37891-0.4414 3e-3 -3e-3 6e-3 -7e-3 8e-3 -0.01v-2e-3l0.18555-0.23633c0.0806-0.10749 0.17157-0.24711 0.26562-0.39844 0.17819 3e-3 0.3343 1e-3 0.44532-8e-3 0.12728-0.01 0.2918-6e-3 0.4707-4e-3 0.92774 0.0149 2.0776 0.0167 2.9297-0.66992 0.40237-0.32456 0.80717-0.64703 1.211-0.96875 0.39951-0.31893 0.8001-0.63646 1.1699-0.93555l0.10156-0.0703c0.42285-0.28567 1.0016-0.67794 1.252-1.373l0.54102-1.5c0.28921-0.79974 0.38409-1.6307 0.46679-2.3633 0.0283-0.24961 0.0564-0.49375 0.0918-0.72851 0.0608-0.39811 0.13989-0.50738 0.61719-1.0957l0.24414-0.30079c0.33589-0.42216 0.66587-0.84722 0.9961-1.2715 0.76156-0.97722 1.4807-1.8983 2.2578-2.7949 0.45185-0.52044 0.96848-1.0176 1.5137-1.543 0.2284-0.22061 0.45678-0.44062 0.68164-0.66406 0.36346-0.36063 0.68249-0.72511 0.9922-1.0801 0.32174-0.36841 0.62532-0.71668 0.9414-1.0137 0.29557-0.27931 0.59417-0.55681 0.89258-0.834l0.33984-0.31446c0.53671-0.49781 0.7801-1.1418 0.959-1.6113 0.0361-0.094 0.0681-0.18284 0.10351-0.25781 0.0933-0.1994 0.19152-0.4554 0.29688-0.73048 0.0976-0.25527 0.27008-0.7053 0.39453-0.91602 2.074-1.1363 3.6385-1.7505 5.3652-2.1133 0.63289-0.13294 1.2901-0.19497 1.9746-0.24023 0.0134 0.0184 0.024 0.0334 0.0332 0.0469 0.10678 0.15557 0.19515 0.27508 0.23828 0.32813l0.17383 0.2168c0.26517 0.33235 0.566 0.70879 0.95703 1.0645 0.33376 0.30336 0.66748 0.60378 1.002 0.9043l0.83986 0.75586c0.53246 0.48226 1.6613 1.1181 3.2559-0.043 0.0566-0.0417 0.1141-0.0875 0.17774-0.125l1.0723-0.63477c0.99774-0.59398 1.9254-1.1914 2.834-1.8242 0.82309-0.57417 1.1254-1.2101 1.2598-1.7539 0.55226-0.0205 1.1942-0.13342 1.7344-0.59375l1.4395-1.2246c0.0636-0.0544 0.14686-0.11036 0.23242-0.17188 0.38608-0.27719 0.91645-0.65912 1.2559-1.2305l0.9629-1.625c0.70004-1.1809 1.1244-2.1238 1.4688-3.2559 0.22839-0.75096 0.47285-1.4962 0.7168-2.2422l0.16603-0.51172c0.39527-1.2141 0.61811-2.3599 0.82812-3.5274l0.0449-0.27148c9e-3 -0.0551 0.0142-0.10784 0.0234-0.16016l0.88672-1.0156c1.3075-1.5083 2.7552-2.9132 4.4297-4.2949 0.7955-0.65762 1.5978-1.301 2.4082-1.9395 0.21354-0.16759 0.4428-0.36919 0.67969-0.58203 0.28425-0.25385 0.81238-0.72724 1.0273-0.80078 2.0549-0.59185 4.2303-1.1538 6.6543-1.7188l1.6328-0.38281c1.0119-0.23759 1.4838-1.1153 1.7949-1.6973 0.0297-0.0566 0.056-0.10998 0.0645-0.12695 0.16405-0.2482 0.32958-0.54381 0.5-0.85352 0.17748-0.32315 0.47435-0.86259 0.61718-0.98633 1.9425-1.3237 3.8758-2.574 5.9102-3.8242 0.58337-0.35922 1.1558-0.7346 1.7285-1.1094l0.61914-0.4043c0.22345-0.14495 0.47162-0.28614 0.72265-0.42968 0.71135-0.40871 1.5163-0.87264 2.1641-1.543 0.16052-0.16547 0.33083-0.32884 0.50195-0.49219 0.6562-0.62862 1.3995-1.34 1.8789-2.3477 0.1591-0.33588 0.31016-0.70621 0.46289-1.0859 0.24751-0.61731 0.50248-1.2548 0.78321-1.6133l0.45312-0.58008c1.1979-1.5288 2.4361-3.1096 3.5625-4.7813 0.71984-1.067 1.2769-2.1461 1.8164-3.1934 0.0354-0.0693 0.0721-0.14471 0.10742-0.22461l1.002-0.35352c0.71136-0.25244 1.4885-0.29208 2.3887-0.33593l0.59961-0.0312c1.0494-0.0622 2.0151-0.55287 2.8672-0.98634 0.26022-0.13294 0.50864-0.26196 0.73633-0.35742 0.61095-0.25527 1.2116-0.52194 1.8106-0.78711 1.357-0.60175 2.6409-1.1684 3.9922-1.5977 1.8845-0.59752 3.6902-1.3534 5.4375-2.0859l0.87109-0.36328c0.85208-0.35498 1.5872-0.89343 2.2363-1.3672 0.23406-0.17041 0.4662-0.3382 0.69531-0.49023 0.74601-0.49569 1.4545-1.0507 2.2988-1.7988 2.0344-1.801 3.6944-3.1392 5.3809-4.3398 1.3647-0.97088 2.9182-1.8209 4.418-2.6426l0.57618-0.31445c0.76174-0.41967 1.5156-0.85359 2.2695-1.2871 0.11881-0.0683 0.23866-0.13479 0.35743-0.20313 0.4672-0.26931 0.93919-0.53029 1.4082-0.79687 0.46446-0.26399 0.9259-0.53364 1.3946-0.78907l3.2266-1.7578c0.19304-0.10536 0.40417-0.20729 0.61914-0.31055 0.73257-0.35072 1.5605-0.74749 2.2344-1.4277l0.0527-0.0527c1.533-1.5486 3.1186-3.15 4.6113-4.8301 0.66328-0.74601 1.2887-1.4495 1.9746-2.1113 0.17325-0.16759 0.34699-0.34454 0.51953-0.52344 0.40305-0.41861 0.819-0.85254 1.1641-0.99609l2.1836-0.90625c0.11668-0.0481 0.23953-0.10661 0.36329-0.16602 0.0431-0.0212 0.0864-0.0439 0.13086-0.0645 0.35285 0.024 0.70629 0.0439 1.0606 0.0645 0.57489 0.0332 1.1499 0.0656 1.7227 0.11719l3.8809 0.35156c0.0757 7e-3 0.16197 0.0248 0.2539 0.041 0.41224 0.0707 0.97756 0.16629 1.5645 0.0469 0.5268-0.10749 0.97227-0.37541 1.3301-0.5918 0.0735-0.0438 0.13858-0.0888 0.19727-0.11914 0.22062-0.11243 0.57856-0.17913 0.95898-0.25196 0.56429-0.10748 1.2663-0.24412 1.9473-0.60547 0.20506-0.10818 0.4132-0.21496 0.62109-0.32031 0.75875-0.3875 1.5451-0.78659 2.2988-1.3516l2.5176-1.8887c0.46386-0.34933 0.72282-0.89132 0.7207-1.4492l0.30441-0.56367c0.18031-0.33234 0.24875-0.70561 0.20703-1.0684l0.41603-0.64062c0.25527 0.38819 0.51143 0.77602 0.76953 1.1621 1.1378 1.7048 2.7031 2.8903 4.1484 4.3145 0.7347 0.72338 1.4731 1.438 2.2227 2.1465 0.72479 0.68518 1.5466 1.3696 2.1328 2.168 0.61095 0.83298 1.1469 1.7308 1.7578 2.5723 0.29487 0.40517 0.435 0.96826 0.67188 1.418 0.2086 0.3967 0.51737 0.75831 0.79102 1.1133 0.6258 0.81106 1.2461 1.7235 2.0176 2.4024 0.83934 0.73894 1.6183 1.4737 2.3184 2.3477 0.58834 0.73398 1.3978 1.3314 2.1035 1.9473 0.37759 0.33022 0.86762 0.4682 1.2481 0.7871 0.45397 0.37973 0.54979 0.73256 0.76758 1.2891 0.17254 0.44266 0.58124 0.77789 0.76367 1.2227 0.2185 0.53245 0.46031 1.0349 0.72265 1.5469 0.4865 0.94965 0.96098 1.896 1.4121 2.8633 0.82803 1.7734 2.0734 3.4084 3.4473 4.793 1.5019 1.5139 2.9004 3.1708 4.4688 4.6133 0.81177 0.74672 1.6078 1.5158 2.4492 2.2285 0.79621 0.67529 1.2461 1.5408 2.0176 2.25 0.77995 0.71702 1.8164 1.3536 2.4082 2.2227 0.54307 0.79763 1.2821 1.6426 2.0684 2.209 0.87823 0.63357 1.7766 1.1866 2.582 1.9199 0.76157 0.69297 1.4266 1.5367 2.1797 2.2559 0.71066 0.68024 1.3016 1.492 2.0957 2.0781 0.84642 0.6251 1.6834 1.2121 2.5566 1.8047-1.475 0.35497-2.9465 0.7344-4.418 1.1035-0.5855 0.14637-0.95711 0.46677-1.457 0.82031-0.64701 0.45752-0.98581 0.3635-1.7969 0.32815-0.45538-0.0191-0.81321 0.78449-1.2559 0.95702-0.65408 0.25385-1.3652 0.45736-1.9902 0.77344-0.67529 0.34082-1.3091 0.81515-1.9512 1.2168-0.57913 0.36133-0.7607 0.46357-1.4551 0.29883 0 0.81531-0.0571 1.0792-0.82226 1.5254-0.53104 0.30972-1.2309 0.4594-1.8086 0.67578-0.43912 0.16404-1.1323-0.37182-1.5332-0.17383-0.60884 0.30122-1.2193 0.60253-1.8281 0.90235-0.239 0.11879-0.5318-0.24434-0.77929-0.25-0.16052-4e-3 -0.57052 0.14319-0.69923 0.24219-0.46457 0.35426-1.1149 0.69502-1.4805 1.1504-0.22627 0.28355-0.35393 0.44275-0.44727 0.78711-0.0856 0.31821-0.0459 0.49937-0.35351 0.59767-0.58691 0.18738-1.184 0.26684-1.6231 0.70312-0.56145 0.55791-0.6957 0.78227-1.4707 0.85156-0.40518 0.0361-0.78152 0.69214-1.041 0.97852-0.38184 0.42215-0.70768 0.71773-0.89648 1.2481-0.22981 0.64913-0.40743 0.92198-0.87695 1.4297-0.37973 0.41013-4e-3 0.99958-0.62892 1.1445-0.46387 0.10819-1.0621 0.22292-1.0918 0.85156-0.0304 0.64771-4e-3 1.1095 0.14258 1.7402 0.0955 0.40942-0.18925 1.1057-0.26562 1.5137-0.0905 0.48367-0.19508 0.81082-0.0664 1.2754 0.19163 0.6859 0.38062 1.3708 0.57227 2.0566 0.1202 0.43135 0.63827 0.77583 0.70898 1.1563 0.0679 0.36416-0.35615 1.1243-0.4707 1.4863-0.0438 0.1386 0.41928 0.41484 0.47656 0.55274 0.0735 0.17819-0.0661 0.46129 0.0527 0.6211 0.33942 0.45679 0.59985 0.72076 1.0566 1.0566 0.73893 0.54377 1.3345 1.3196 2.0996 1.8047 1.1158 0.70712 2.2299 1.412 3.3457 2.1191 0.76015 0.48155 1.5394 0.63382 2.25 1.2207 0.32033 0.26447 1.2477 0.76735 1.4004 1.1562 0.0693 0.17396-0.0654 0.59176-0.0859 0.78126-0.0163 0.15132 0.15511 0.37308 0.21875 0.5039 0.24395 0.5063 0.51105 0.96001 0.60156 1.5137 0.10677 0.65126 0.17631 0.96136 0.53906 1.5059 0.31043 0.46528 0.7949 0.84301 1.1895 1.2383 0.3182 0.3182 0.81498 0.1631 1.1777 0.38867 0.38608 0.23971 0.90148 0.72797 1.3477 0.8086l1.9004 0.33985c0.57489 0.10324 0.82676 0.13685 1.2793 0.48828 0.48225 0.37407 0.69559 0.55234 1.2832 0.66406 0.37053 0.0714 1.2849 0.10659 1.3867 0.64258 0.0997 0.52752 0.19912 1.0558 0.29883 1.584 0.11172 0.59045 0.22421 1.181 0.33593 1.7715 0.0601 0.3175 0.92594 0.88468 1.1621 1.1074 0.79764 0.75167 1.4336 1.639 2.1152 2.498 1.2092 1.5238 2.3222 3.13 3.4473 4.7168 1.1837 1.6702 1.8124 3.9268 1.1816 5.8926-0.68943 2.144-3.2962 3.0392-5.0703 3.9902-0.83651 0.44902-1.5968 1.0109-2.3789 1.5469-0.80116 0.54802-1.5252 1.2753-2.4961 1.5313-2.0414 0.53953-4.1284 0.25835-6.1953 0.66211-1.9884 0.38821-3.8535 1.2633-5.8985 1.3672-1.101 0.0559-2.1952 0.0409-3.2969 0.0664-1.0989 0.0262-1.9329 0.2694-2.9024 0.80469-1.0006 0.55296-1.8263 0.71848-2.9746 0.7793-0.9928 0.0523-1.943-0.042-2.916 0.21679-0.85348 0.22627-2.1211 0.46233-2.6133 1.2578-0.58336 0.94187-0.43559 1.8289-0.56641 2.8867-0.13435 1.096-0.56533 1.9915-1.7695 2.1973-1.0663 0.18244-2.1061 0.0353-3.166 0.16406-1.1632 0.14212-1.8012-0.16301-2.7813-0.73438-1.0119-0.59044-1.256 1.4791-1.3203 2.0137-0.11951 0.99349-0.42848 2.1603-0.35353 3.1524 0.0848 1.1172 0.31084 2.1736 0.49611 3.2774 0.16688 0.99422 0.49236 2.0962 0.97461 2.9766 0.46104 0.84289 1.2082 1.564 1.8086 2.3086 0.63499 0.78844 0.85539 1.9204 1.5215 2.6621 0.67954 0.75661 1.4871 1.3476 2.3398 1.9062 0.96662 0.63359 1.9277 1.2552 2.8477 1.9531 0.70995 0.53882 1.8622 0.63303 2.4336 1.3281 0.35355 0.42922 0.59239 0.93461 0.88867 1.4062 0.28072 0.4462-0.0389 0.86747 0.64844 1.0449 0.48013 0.12446 1.1764 0.0411 1.6856 0.11329 0.38466 0.0544 0.82774 0.49658 1.1855 0.6875 0.87613 0.466 1.7781 0.88954 2.7207 1.1992 0.84784 0.27932 1.88 0.25065 2.7617 0.48047 1.0062 0.26234 2.0123 0.63487 2.7363 1.4219 0.68166 0.73965 1.4419 1.4154 2.2891 1.957 0.8174 0.52256 1.8642 0.85108 2.7559 1.2266 0.4073 0.17112 1.0109 0.45942 1.3086 0.79884 0.33165 0.37831 0.2675 0.80351 0.33399 1.2617 0.14566 0.99986 1.176 1.7556 0.58203 2.7774-0.55508 0.95461-0.77501 1.8334-0.64844 2.9492 0.11457 1.0091 0.15661 2.127 0.39844 3.1035 0.2588 1.0423 1.1179 1.6744 2.0527 2.0859 0.94967 0.41861 1.9847 0.72019 2.7852 1.4082 0.746 0.63995 1.1882 1.791 1.3438 2.7598 0.0863 0.53528-0.01 1.1151 0.15235 1.6426 0.14496 0.47024 0.45899 0.95245 0.66406 1.4043 0.42497 0.93905 1.2508 1.2709 2.1445 1.5742 0.94612 0.32173 1.8866 0.67411 2.8731 0.85937 1.1872 0.22203 1.9606 0.0322 3.0488-0.47265 0.88743-0.41154 1.9678-0.72624 2.9492-0.77149 0.46457-0.0212 1.0154 0.0608 1.4609 4e-3 0.46953-0.0608 0.9301-0.41257 1.3028-0.67774 1.7777-1.265 3.679-1.409 5.3789 0.10352 0.91996 0.81813 0.93063 1.6556 0.82032 2.8301-0.0919 0.97865-0.22504 1.925-0.0156 2.9121 0.20012 0.94258 0.637 2.053 1.3066 2.7559 0.77924 0.81743 1.8248 0.56935 2.8516 0.71289 2.5619 0.35851 1.6892 3.0483 2.6445 4.7461 0.22275 0.39741 0.5137 1.0754 0.92383 1.3145 0.45184 0.26304 0.89096 0.53943 1.3301 0.82227 0.77713 0.50134 1.2343 1.5266 1.7774 2.25 1.1837 1.5769 2.9203 2.8286 3.9414 4.5059 0.53882 0.8846 1.1471 1.7869 1.5176 2.7578 0.39386 1.0289 0.65149 2.0871 1.0234 3.1231 0.6265 1.7444 1.2713 3.8402 3.0469 4.7227 0.97158 0.48296 1.8342 1.0908 2.8418 1.4981 0.95462 0.38608 1.8542 0.38234 2.8555 0.4375 1.031 0.0566 1.9975 0.13078 3.0313-4e-3 1.0656-0.13789 2.1031-0.58422 3.1016-0.95899 1.0607-0.39741 2.0854-0.45739 3.2168-0.57618 1.0112-0.10607 1.8348-1.2122 2.457-1.8691 0.76086-0.80328 1.3184-1.8742 1.9414-2.7871 0.23617-0.34578 0.69196-0.21543 1.0215-0.4707 0.4165-0.32244 0.8109-0.6979 1.291-0.91994 0.519-0.2397 0.84909-0.44019 1.4141-0.40625 0.60813 0.0368 1.2161 0.0733 1.8242 0.10938 1.1455 0.0686 2.1066-0.0341 3.25-0.19531 1.072-0.15203 1.9931 0.3458 3.0156 0.68945 0.96765 0.32558 1.733 0.54549 2.6992 0.63478l-0.0625-2.0957-0.0957-3.6504-0.10938-4.1973 0.35742-6.2051-0.18359-3.2461-0.37891-2.0215-0.0547-5.7988 0.20898-4.7188 0.11524-2.623-0.35743-2.4102-0.91797-13.531 0.35547-2.8731-2.3848-2.8125-0.23438-0.67578-3.3242-9.4161 0.25782-1.1875-0.17969-2.0332 0.26758-1.1055-0.90626-1.8867 0.0762-1.1406 0.72071 1.1113 0.98242 0.93751 1.123 0.0684 0.10742 0.0137 0.75197-0.34181 2.2129 0.14845 1.2773-1.0586 3.2148-4.1934 3.5449-5.8848 1.0469-2.9824 0.17188-1.1816 0.0781-0.50586-0.35937-1.4004 0.42187-1.3438 1.0449-1.6875 0.12696-0.63086-0.34375-2.4942 0.21875-3.6133-0.68946-3.5371-0.50976-1.2363-0.71681-0.95313-1.5938-0.73046-0.20313-0.3418 0.65626-0.76759 0.59374-0.64648 0.40821-1.4668 0.22852-2.2051 0.51758-0.71875-0.99024-2.1172-0.0742-0.98242 1.7227-4.6406 1.4473-2.4375-0.2793-0.48243-0.68945-1.207 0.50391-0.65235 8.9414-5.709 0.38868-1.1172-0.34571-1.0352-0.66211-0.33009-0.20312-0.7539 0.32422-0.54883 0.71484 0.15039 1.0195 0.83984 0.0371 0.94923 0.83008 0.61328 0.79687 0.57422 0.72072-0.21094s0.1268-1.2968-0.10938-1.6504-0.29414-0.8849 0.64844-0.47265c0.94257 0.41225 2.2401-0.29579 2.6524-0.53125 0.41225-0.23547 2.239-1.531 4.1836-2.002 1.9446-0.47094 3.9482 0.17664 4.4785 0.41211 0.53033 0.23548-0.53206 1.5908-1.1211 2.1211-0.58902 0.53034-1.001 0.47073-0.82422-0.53125 0.17678-1.002-1.0604-0.35356-1.4727 0-0.41226 0.35355-0.82426 1.7684-0.82422 2.3574 0 0.58903-0.8856 1.2967-1.4746 1.709-0.58903 0.41226-0.64758 0.82409-0.41211 1.2363s0.23632 0.94351 0.23632 1.1797c0 0.23617-0.94322 1.4744-1.3555 2.2402-0.41225 0.76579-0.11914 1.9443 0.52929 2.4746 0.64843 0.53034 1.7098-0.1183 2.0039-0.53125 0.29416-0.41296 0.88377-0.88364 1.0606-1.4727 0.17678-0.58903 0.0604-1.7089 0.47265-2.0625 0.41225-0.35357 0.41112 0.59066 0.58789 1.8281 0.17678 1.2374-0.4718 1.6483-0.88476 2.0606-0.41297 0.41225-0.88283 1.5312-0.88283 1.5312s0.17693 0.59082 0.23633 1.416c0.0594 0.82519 0.53108 0.64749 1.2969 0.47071s1.0584-0.41207 1.4707-0.76563c0.41224-0.35355 1.3564-0.70807 1.5332-0.17773 0.17677 0.53033-0.29464 0.82524-1.1192 1.2969-0.82449 0.47165-0.64959 0.88378-0.0605 1.0606 0.58903 0.17678 1.7696-0.41307 2.0645-0.58985 0.29486-0.17678 1.1785 9.4e-4 2.1211 0.0605 0.94259 0.0594 0.76582-0.17671 0.64844-0.70703-0.11738-0.53034-0.41378-0.41406-1.2383-0.41406s-0.70704-0.82432-0.70704-1.4141v-3.8887c0-0.41296 0.5899-0.70707 0.88477-0.35352 0.29487 0.35356 0.0586 1.5909 0.0586 2.3574s9.2e-4 1.8848 0.53125 2.1797c0.53034 0.29487 0.88281 0.47178 0.88281-0.41212 0-0.88389 0.824-1.7666 1.2949-2.2969 0.47093-0.53035 0.70803-1.4753 0.53125-2.123s0.53017-1.4132 1.4141-1.8262c0.8839-0.41296 0.82509 0.0584 1.0606 0.52929 0.23547 0.47094 0.82626 2.4168 1.1211 3.6543 0.29486 1.2374-0.23804 3.654-0.70898 4.4785s-2.0027 1.4131-3.9473 1.8848c-1.9446 0.47165-0.17572 1.8274 0.11914 1.5332 0.29487-0.29417 2.4736-1.0598 3.2988-1.1192 0.8252-0.0594 2.7697-2.2987 3.3594-3.7129 0.58974-1.4142 1.6895-10.066 1.6895-10.066l0.23438-5.918 0.54297-10.986 0.45312-2.5996s0.43738-4.1664 1.498-4.7852c1.0607-0.61872 3.9789-1.2368 4.9512-1.1484 0.97229 0.0884 1.3257-0.0884 1.7676 0.35352 0.44195 0.44195 0.88385 0.97207 0.35351 1.7676-0.53033 0.7955-0.35398 1.3261-0.61914 1.6797-0.26516 0.35355-0.26478 2.2978 0.97266 2.4746 1.2375 0.17678 1.7666-0.088 2.2969 0.61914 0.53034 0.70712 1.2377 1.0615 2.0332 0.88476 0.79549-0.17678 2.7406 0.706 3.3594 1.2363 0.61872 0.53034 1.4144 0.97266 2.3867 0.97266 0.97227 0 1.5029 0.0883 2.0332 0.70703 0.53034 0.61872 1.586 1.3066 1.586 1.3066l0.73242 0.25391 0.23047 0.89453 0.78516-0.41992 0.47852-0.95899-0.47852-0.62306h-0.75391l0.0137-0.91796 0.74024 0.22851 0.0117-0.27539-0.67578-0.72656-2.6582-1.4785-0.84179-1.3457-0.92774-5.4141 0.26953-2.3242 1.5938-3.293 0.21094-0.9082-0.17773-0.81056-0.66407-0.13281-0.44531 0.31054-0.19141-0.36914 0.35743-0.49219-0.39063-0.30078-0.99414 0.34571-1.0449-0.28321-1.0274-0.82226-2.7442-2.6602-2.1543-2.6367-2.2442-1.9648-0.72657-0.73633-1.9395-1.957-1.0527-1.6543-1.3125-2.6172-0.72267-2.1699-0.10156-1.9512 0.32617-3.1836 0.8711-3.002 0.84375-2.086 0.33789-0.85156 0.71875-1.9863 0.0977-0.26953-0.0508-0.66407 0.0156-0.0664 0.76955-3.166 0.55273-0.88281 0.73438-2.4473 0.23632-2.3184 0.54102-1.4238 1.1738-3.0938 0.75976-0.44922 2.3906-2.582 1.041-1.5215 1.7578-1.6953 2.2461-1.3144 1.5312-0.36719 1.6348-0.94337-0.6836-1.6719-0.65235-1.5742-0.93555-1.498-0.0195-0.10352-1.543-5.8379-0.40234-3.0059 0.12109-2.4258 0.39648-1.1074 1.4473-1.7656 0.79688-1.8613 0.55664-3.6172 1.1289-1.2481 1.5039-0.31836 0.52931-0.71875 0.68945-0.92578-0.65235-1.4336-0.73243-0.91016-0.23632-0.58203-0.85352-2.1621-1.2813-6.6153 0.0742-0.60157 0.17383-1.5176 0.60546-1.8574 0.86133-0.96679 1.1543-0.38086 1.4024-1.1016 0.96289-0.30469 0.9258-0.75977 1.957-1.5918 0.35156-0.94921-1.2559-2.4883-0.51562-0.79687-2.961-3.2988-1.084-1.6172-1.2734-2.6621-0.13477-0.27539-0.82617-2.7715-0.23633-1.5742-0.0176-0.15431-0.0293-0.17578 0.16015-0.50976 0.16992-0.52344 0.13086-0.41797 1.5625-0.97851 0.94923-1.2637 1.1973-0.25 1.2637-1.2344 1.5293 0.35351 0.68359-0.6504 0.1543-0.14453 1.625-0.26172-0.043-0.47656-1.7617-2.5274-0.27344-0.38477-0.0508-0.43359-0.125-0.95899-0.25391-1.9316 0.44141-3.1836 0.2793-0.52344 0.75-0.6504 2.4336-0.5957 3.0313-3.3613 0.94923-0.58789 2.584-0.61719 2.1016-0.84571 1.1777-1.127 1.0156-0.97852 2.4805-1.0215 1.8047-0.7461 1.1484-1.2871 0.39062 0.0918 0.19727 1.459 0.70703-0.0273 0.81642-0.4375 0.15039-0.38477-0.9004-0.0351 0.28126-1.1094 1.1894-0.9707 0.0742-0.0605 2.586-1.084 1.2734-2.1406 0.58986-0.5332 0.4668-0.43945 0.85351-0.24806 0.52344-0.1582 0.0742-0.0137 1.2774-0.0566 2.0781 0.44727 1.2442-0.44727 1.6309-1.4141 0.43165-0.37304 1.2031-0.75782 0.28711-0.17969 0.17188-0.0605 2.7344-1.0293 2.8613-0.55078 1.0918 0.45313 0.53125 0.0117 1.0391 0.0371 0.81445-0.43554 0.64845-0.77344 0.97851-3.2578 0.01-0.72657 0.0137-1.5039 0.56446-0.1543 0.24218-0.29101 0.16016-0.18556-0.0879-0.40235-0.57227-0.27929-0.80468 0.33008-0.25977-0.22657-0.34961-0.68359-0.0801-0.17383-0.0645-0.91015-0.01-0.15821 0.38869-0.86719 0.76367-0.64844 0.875-0.1543 1.2695-0.68555 0.51367 0.35938 1.1699-0.37305 1.3477 0.19336 2.3574-0.11523 2.4707 0.44531 1.0547 0.92187 1.2539 0.53711 0.59179 0.54103 0.56642 0.5 0.89648 1.4082 0.45313 2.0469 0.4668-0.11719 0.37109-0.0996 1.7227-0.42773 0.93554 0.041 1.7402 0.6875 0.68164 0.27344 0.60547-0.0508 0.38477-0.0254 0.91406-0.70703 0.83204-1.459 0.79492-0.63476 2.1211-0.57032 1.627-0.13281 0.9961 0.20703 0.85156 0.54883 0.41602-0.20117 1.2695 0.22656 0.17578-0.42383 0.70703-1.6563 1.1035-0.92187 1.8047-0.5957 2.5313 0.22265 3.7813 1.0449 2.3477 1.4199 0.96876 0.125 1.8242-0.3418 1.8965 0.24023 2.0938 0.69727 3.002 1.5957 3.4297 1.8086 0.0859 0.40429 0.4336 0.31251 2.2734 0.48438 1.5977 1.4375 1.0996 0.29101 2.9043 3.4141 0.68164 1.1211 0.18945 0.8125 0.61523 2.7969-0.30468 1.6602 0.21875 1.4746 0.9043 1.7676 0.44532 1.9297 0.44726 5.0254 0.75977-1.8555-0.14844-4.1387 0.0332-0.30079 0.21094-2.3027-0.74023-0.45898-0.16407-2.0664-0.39258-0.64844-0.35742-0.5957 0.16016-1.1582 0.043-0.27539-0.53711-2.1387-0.35353-1.4024 0.0899-0.48438v-8e-3l0.6543-3.4492-0.21679-2.3359 0.12304-3.3242 0.0176-0.39454-0.29492-1.0898-1.5996-2.6973-1.0312-2.4531-0.26562-1.4199-0.13477-0.69922-0.0762-0.0586-1.375-1.1328-4.9219-2.8789-0.98633-1.1875-0.92773-2.7363-0.0606-0.21875-0.73243 0.64648-0.78711-0.35156-0.36719-1.6758-1.2598-0.82227-0.28907-1.1191-1.2617-1.2578-0.0645-1.0625-1.5274-2.6543-0.92383 0.19336-0.57226-0.63867-0.67578-0.30078-1.2598 0.043-0.85547-0.54102-0.58789-0.0156-0.47461 0.28711-0.39259 0.22656-1.7363-1.1992-0.1543-0.10742-0.38086-0.0547-0.0547-0.0156-1.2285-0.1836-0.27344-0.27734-0.41016-0.41992-2.8965-0.34961-0.0742-0.0137-0.67383-0.0723-0.94728-0.51758-0.75585-1.2442-1.4434-0.95312-0.63283-0.88281-0.54492-2.2383-2.8438-3.041-0.3125-0.84962 0.92383-1.6504-0.30859-0.91016-1.1953 0.62305-1.2129-0.0273-4.9297 1.1445-0.85353-0.0977-0.66992-0.0723-1.8887-1.3008-1.6953-0.0332-1.8809 0.47656-3.5957 1.5371-2.4844 0.55079-4.7129 1.0332-8.1621 1.2383-2.3457-0.50586-2.2012-1.3672-1.3262-0.15039-2.0957 0.30078-1.7598 0.24805-2.5176-0.41211-2.4043-0.85743-1.2441-1.0449-3.0488-4.5293-0.41993-0.19336-7.1055-0.0684-2.0938-0.32617-1.9727-0.8711-1.9453-1.2539-1.6465-0.51172-0.38086-0.125-1.4258-2.2774-0.52343-1.6504-0.19922-0.63867-0.78517-1.252-0.85742-1.3496-0.0371-0.31055-0.52344-3.6231-0.0957-0.66016-0.32617-2.2813-0.10352-3.8457-0.0156-0.5586-0.0117-0.4414-0.0176-0.62697 0.17969-1.0332 0.11523-0.67383 0.0449-0.0723 1.459-2.4805-0.23047-0.60742-0.47461-1.2832 0.23633-0.53515 0.83594-0.16797 0.4375-0.51367-0.21093-0.79688-1.0742-1.4199-0.86524-2.3906-1.3945-1.8047-1.5684-1.0996-1.7266-0.56836-1.4629-0.0371-1.7988 0.35937-1.623-0.87109-1.748-0.33398-1.3516-0.33399-1.2344-0.81056-1.2539-1.5957-1.0527-2.1524-2.127-2.0547-2.2754-3.2031-3.7813-2.1367-0.82618-0.96875-2.7637-5.1172-0.52734-0.66406-0.2207-0.30079-2.8516-1.9453-1.8867-2.2305-3.1426-2.7871-3.0899-3.5313-1.5488-2.9043-1.2793-0.8086-0.0117-0.42968 0.60156-0.38086 0.22852-0.15039-0.63867-1.4141-0.72657-4.4551-0.83008-2.0254-1.8242-4.6484-0.0957-3.9766-0.34765-1.5996-1.5332-5.4141-1.3008-10.418-1.1133-3.625-0.16016-1.6035-0.0859-0.88281-3.668-9.2637-2.6055-3.3379-0.9082-2.6621-1.7578-2.5664-5.5234-8.0137-4.2617-7.3438-4.1817-5.3633-1.4922-2.9395-1.3594-1.5039-4.0957-4.5449-3.0566-4.1016-1.7676-2.3574-1.4238-1.6055-0.82813-0.91602-5.6543-7.8223-0.64453-0.4375-0.75976 0.10742-0.64844-0.55274-2.0606-4.5899-1.3945-2.5039-2.2109-3.9844-1.6738-1.6836-1.5898-2.4238-0.9297-1.5195-1.5879-1.877-0.0742-0.07813-1.7988-1.668-2.4414-2.7481-5.7246-5.1758-2.3613-1.584-0.99609-1.2832s-1.4441 1.3061-1.4512 1.7734c-7e-3 0.46741-0.20313 2.9063-0.20313 2.9063l-1.5762 2.0742-1.2012 0.1875-0.49414 2.3574 0.12109 1.3867-5.5586 6.8457-2.834 2.7637-2.332 4.0195-4.1465 4.8809-0.19727 0.55274c-6e-3 0.0396-0.013 0.08027-0.0215 0.11914l-0.59961 2.7207c-7e-3 0.0332-0.0162 0.06516-0.0254 0.09766l-0.0449 0.16406 0.0664 1.4727c0.0142 0.26658-0.0349 0.53251-0.13672 0.7793l-0.73633 1.7832c-6e-3 0.0156-0.0119 0.03198-0.0176 0.04687l-0.49025 1.1875c-0.0884 0.21213-0.21643 0.40556-0.37695 0.57031l-0.67578 0.74024-0.42774 0.62696c-0.0226 0.0332-0.0462 0.06576-0.0723 0.09766l-0.45117 0.66992c-0.029 0.0438-0.0625 0.08472-0.0957 0.125l-0.87305 1.082c-0.0834 0.10394-0.18051 0.19852-0.28516 0.28125l-2.5664 2.0274c-0.169 0.13365-0.36134 0.23697-0.5664 0.30274l-1.9883 0.63477-1.1094 0.7793c-0.18597 0.13011-0.39336 0.22236-0.61328 0.27539l-1.9024 0.45508-1.1758 0.52734-1.3047 1c-0.0148 0.012-0.03 0.02456-0.0449 0.03516l-2.3046 1.7716c-0.16829 0.13011-0.35885 0.22809-0.5625 0.29102l-1.8164 0.56641-0.39063 0.56055 4e-3 0.10352c0.0127 0.28143-0.0423 0.56097-0.1582 0.81836l-0.44336 0.98438c-0.0962 0.21355-0.23422 0.4034-0.40039 0.5625l-1.752 1.8613c-0.20437 0.21709-0.45936 0.38057-0.7422 0.47461l-1.1016 0.36914c-0.18456 0.0615-0.37781 0.09375-0.57227 0.09375h-1.6719l-0.49805 0.5c-0.31466 0.3182-0.73599 0.5072-1.1836 0.53125l-0.11524 0.0059-2.6035 0.7461c-0.25811 0.0735-0.52976 0.09149-0.79493 0.04687l-2.5274-0.42383-1.4336-0.06055-0.38086 0.17383c-0.0233 0.0148-0.0475 0.02957-0.0723 0.04297l-1.5684 0.84766c-0.0233 0.0127-0.0463 0.02581-0.0703 0.03711l-0.96485 0.52149c-0.13931 0.075-0.28849 0.13191-0.44335 0.16797l-0.52345 0.12305c-0.18102 0.0424-0.36693 0.05902-0.55078 0.04492l-1.8574-0.14844-2.0664 0.39844c-0.58124 0.11173-1.1821-0.06981-1.6035-0.48633l-0.17382-0.17383-0.66407-0.09375-0.68945 0.0293-1.0352 0.36328-0.99804 0.89454c-0.13577 0.12162-0.28891 0.22122-0.45508 0.29688l-0.39649 0.41406c0 0.58054-0.01 1.1604-0.0137 1.7402-6e-3 0.8747-0.0866 1.7096-0.39062 2.5234-0.47378 1.2672-0.94689 2.5336-1.4199 3.8008-0.36771 0.98289-1.0378 1.9137-1.5469 2.8301-0.9631 1.7331-2.1749 3.4589-3.459 4.9707-0.47942 0.56358-1.6159 0.85061-2.2891 1.1172-0.88602 0.35002-2.1677 0.70344-2.6641 1.6191-0.4971 0.91784-1.0646 1.7122-1.1856 2.7559-0.12021 1.0373-0.18082 2.0215-0.19922 3.0645-0.0375 2.0853 0.22573 4.5825-1.1348 6.3594-1.2947 1.6914-3.406 2.7041-4.2227 4.7696-0.76863 1.9453 0.83256 4.0683 0.14453 6.0313-0.41791 1.1929-0.81877 1.9137-1.8808 2.5996-0.85775 0.55438-1.7757 0.76373-2.8067 0.82031-2.255 0.12373-4.45-0.41528-6.6895-0.20313-1.1957 0.11314-1.8836 0.5488-2.7852 1.3047-0.28638 0.24043-0.49756 0.7018-0.70898 1.0059-0.42215 0.60883-0.84276 1.2154-1.2656 1.8242-0.62651 0.90157-1.7898 0.81341-2.7656 0.90039-0.71914 0.0636-2.326-0.14119-3.002-0.42969-2.0591-0.87895-2.6883-3.3548-4.1973-4.8164-0.71984-0.69651-1.7123-0.99208-2.6719-0.84571-1.2827 0.19587-2.2281 0.31049-3.5059 0.13867-1.0515-0.14143-1.3141-1.1047-2.041-1.6895-0.51407-0.41366-0.81477-0.56117-1.4512-0.74219-0.24112-0.0686-1.2927 0.11525-1.4766 0.2793-0.34295 0.30688-0.79256 0.60055-1.0606 0.97461-0.32457 0.45469-0.62375 1.0488-1.0254 1.4356-0.82733 0.79551-1.9257 1.0719-3.002 1.2402-1.6773 0.26305-3.8094 2.4182-5.4414 0.97071-0.89733-0.79551-1.7598-1.5946-2.6055-2.4453-0.77925-0.78347-1.5677-1.2995-2.1914-2.2266-0.21638-0.32245 0.13281-0.83795 0.13281-1.2148v-2.0645c0-0.74812-1.5378-1.7839-2.1367-1.9883-0.47094-0.16051-0.85015 0.0138-1.3359 0.12695-0.24395 0.0573-1.3798 0.49545-1.582 0.34766-0.99561-0.72408-1.625-1.1621-2.8809-1.0469-1.0501 0.0962-1.9623 0.73549-2.9883 0.86914-1.0939 0.14213-2.2391-0.57243-3.1973-0.97266-1.9354-0.80752-3.8306-1.7269-5.7696-2.5195-0.88248-0.36063-1.9001-0.54455-2.7246-1.0254-1.0727-0.6258-2.1441-1.2512-3.2168-1.877-0.92985-0.54306-1.7919-1.2486-2.6758-1.8652-0.59539-0.41508-1.9865-1.1317-2.1406-1.9258-0.43629-2.2522-0.60195-4.5049-0.81055-6.791-0.0834-0.91996-0.10878-1.8645-0.25586-2.7774-0.1096-0.67742-0.10418-2.7398-0.98242-2.9922-0.63995-0.18385-0.95535-0.13601-1.6172-0.01367-0.34227 0.0629-1.0806 0.31163-1.4024 0.06055-0.83158-0.64842-1.3605-1.3466-1.1992-2.4766 0.0651-0.45609 0.0236-1.185 0.23438-1.5938l0.88086-1.6992c0.17962-0.3479 0.64181-0.60404 0.62696-1.0078-0.0276-0.76367-0.11822-0.85415-0.83595-1.1992-0.86126-0.41366-2.1233-0.45995-2.793-1.1621-0.79338-0.83228-0.58232-1.8489-0.89062-2.8594-0.37406-1.2247-0.75566-1.9874-1.6777-2.8848-0.29487-0.28708-0.74349-0.44035-1.0801-0.6836-0.23122-0.16688-1.1879-0.74935-1.125-1.127 0.0962-0.57276 0.19094-1.1447 0.28711-1.7168 0.0842-0.50346-0.15642-1.1704-0.23633-1.6738-0.0622-0.39386 0.31004-0.91814 0.19336-1.2773-0.0997-0.30689-0.77477-0.84642-1.0371-1.0508-1.4715-1.1455-3.756-2.4475-4.3867-4.3242-0.37053-1.1038-0.44081-2.0997-0.42383-3.2559 0.01-0.67034-4e-3 -0.81799-0.37109-1.3809-0.20719-0.31678-0.78062-0.84419-1.1582-0.86328-0.69439-0.0354-0.94889-0.0877-1.5195 0.2793-0.50276 0.32315-1.0174 0.57967-1.5527 0.84766-0.90793 0.45468-1.8516 0.69391-2.4336 1.6231-0.42992 0.68661-0.0859 2.2373-1.0391 2.5449-1.1745 0.37973-2.0707-0.0094-3.207-0.4082-0.86197-0.30336-2.0868 0.28944-2.9785 0.375-0.48438 0.0467-1.2239-2.1709-1.4219-2.5859-0.4964-1.0409-0.99189-2.0822-1.4883-3.1231-0.16972-0.35568-0.15322-0.95258-0.15039-1.3535 4e-3 -0.75803 0.20298-1.0135 0.61523-1.6641 0.25739-0.40659 0.72027-0.64684 1.1035-0.92969 0.35498-0.26304 0.38405-0.97488 0.30273-1.3574-0.1987-0.92844-0.58136-2.0569-1.5176-2.4805-1.0041-0.45466-1.9938-0.41977-3.0742-0.58594-0.38326-0.0587-0.97293-0.0037-1.2324-0.31836l-1.3711-1.6622c-0.69227-0.83935-1.2003-1.5756-1.7285-2.5274-0.50983-0.91924-0.97041-1.9768-1.5898-2.8281-0.3472-0.47659-0.63382-0.80692-0.58008-1.4356 0.0488-0.56993 0.30081-1.017 0.26758-1.5996-0.0523-0.93127-0.10467-2.1962-0.56642-3.0059-0.52963-0.92774-1.0606-2.0845-2.1523-2.4063-0.93269-0.27506-2.0174 0.14245-2.9805 0.27539-0.97866 0.13435-2.2264 0.46588-3.1563 0.02539-0.49853-0.23618-0.9397-0.46531-1.3965-0.77149-0.48508-0.32527-0.35263-0.90383-0.59375-1.4023-0.45185-0.93339-1.4406-1.742-2.1406-2.4746-0.64418-0.67247-1.2464-1.427-1.9648-2.0195-0.91854-0.75732-1.8164-1.4723-2.6211-2.3477-0.72764-0.79197-1.0743-1.6766-1.3692-2.709-0.29133-1.0204-0.0179-2.0676-0.20312-3.0957-0.18314-1.0183-0.78306-2.1235-1.1133-3.1192-0.16406-0.49498-0.12204-0.9787-0.12695-1.502-5e-3 -0.55862-0.20975-1.1141-0.33986-1.6543-0.14142-0.58761-1.1906-1.9453-1.8906-1.7734-0.94825 0.23264-2.0377 0.41801-2.8516 0.99219-0.68095 0.48083-2.1941 1.2022-2.5293 2.0352-0.37406 0.92985-0.10514 2.2912-1.1192 2.7813-1.0352 0.50064-1.9642-0.05333-2.9824-0.42383-0.52751-0.19162-1.0595-0.36889-1.5898-0.55274-0.4278-0.14849-1.1818 0.12706-1.6231 0.19141-1.0034 0.14707-2.006 0.79691-2.9238 1.207-0.95319 0.42569-1.8255 0.80002-2.6797 1.3926-0.95885 0.66469-1.821 1.1449-2.9043 1.5918-0.95248 0.39245-2.0682 0.5414-3.0879 0.1836-0.78277-0.27436-1.8745-1.4145-2.209-2.1484-0.90157-1.9792-0.45707-4.772-0.45703-6.9082 0-0.84429 0.16039-1.9227-0.39258-2.5859-0.70358-0.84359-1.5928-1.1776-2.6309-1.5156-0.41366-0.13436-0.8947-0.3971-1.3359-0.37305-0.70852 0.0382-1.4177 0.07898-2.127 0.11719-0.94259 0.0509-1.9314 0.08963-2.8711-0.01367-1.1285-0.12374-2.7403-0.09902-3.7246-0.69727-0.64213-0.39033-1.1426-0.61111-1.5294-1.2461-0.39371-0.64629-0.75933-0.91497-1.3788-1.3633zm-185.24 138.87c-0.27613-0.0234-0.59741-7e-5 -0.78126 0.18554-0.36841 0.37125-1.291 0.65039-1.291 0.65039l-0.82812 0.92579-0.82813 0.74414c-0.46033 0.18599-0.82896 0.36969-0.73633 1.0195 0.0912 0.64984 0.27539 1.207 0.27539 1.207l2.5781 1.3926s0.36767 3.248 0.91993 3.5274l0.55273 0.2793 3.8652-0.18555 1.0137-1.2988s-0.46094-0.8362-0.46094-1.3008c0-0.46386 0.55273-1.5781 0.55273-1.5781l-1.2891-3.1563-1.5645-0.64844-1.4727-1.6699s-0.22974-0.0704-0.50586-0.0937zm26.65 13.551c-0.27719-7.1e-4 -1.1055 0.27929-1.1055 0.27929s-1.1959 0.18431-1.6563 0.46291c-0.46032 0.2786-1.0122 0.83607-0.64453 1.3926 0.3684 0.5579 1.3809 2.1348 1.3809 2.1348l1.8398-0.55664 0.36915 1.1133 2.3945 1.3008s0.27344-0.92828 0.27344-1.5781c0-0.64984-0.27344-1.4863-0.27344-1.4863l0.36719-0.65039-0.82813-1.207-1.1953-0.46288s-0.64681-0.7422-0.92188-0.74221zm40.498 58.449 1.8594 0.72656 1.793 1.4629 0.91407 2.1426-0.34766 2.8184-0.0801 0.6504-3.1387 2.7168-1.4941 2.1504-1.6543 0.18554-0.92187-1.8555v-2.7852l-1.584-1.1055 0.57617-4.5703 0.18945-0.26758 0.87696-1.2305 1.5176-0.81055zm627.58 31.473-0.60742 0.40821-0.29297 0.63671-0.57031 0.1836-0.77931 0.69336-0.0723 0.0566-0.83984-0.18751-0.16211 0.41017 0.54883 0.92382 1.7129 1.0547 0.76953 2.2676 0.72656 1.043 0.0215 1.1446 1.0938 0.49218 1.1406 1.7129-1.1406 0.48437 0.125 0.35938 0.85351 0.082 0.35157 1.2012 0.26757 0.91993 0.0762 0.22461 0.12696 0.92383 0.32812 2.1777 0.42969 0.082-0.20117-3.4356 0.22851-0.57814 0.47658-1.2109 0.60156-0.57032-0.0117-0.66406-0.55664-1.75-0.70313 0.0176-0.63477-0.80274-0.30273-1.875-0.41993-0.58984 0.64844-1.4668-0.94922-2.9121-0.61914-0.57617h-0.32423l-0.50781 0.01zm17.713 14.137-0.47461 0.0781 0.39844 0.85742-0.29297 0.52344 0.85351 0.0723 0.29297-0.1289zm9.2637 9.2227-0.29297 0.25 0.78907 1.1699 0.87305-0.0762 0.68555 1.086-0.8086 0.67381 0.13282 0.24805 1.7285 0.78516 0.43164 0.75196-0.01 0.35937-0.0332 1.873 0.29102 0.58009-1.0801 1.5879-1.4727 1.5566 0.12109 0.10547 0.3418 0.29298 0.9707-0.34767 0.77931-0.75195 1.6562-2.6758 0.0664-0.0332 0.22072-0.12695 0.62501-0.34962 2.1269-0.58008 1.0547 0.0215 0.97851 0.44531 0.25-0.66016 0.0547-0.16992-0.13867-2.3047-0.6211-0.6836-2.0723-2.2774-0.28516 0.48437 0.16407 0.41017-0.3379 0.0566-0.10156 0.0156-1.084-0.959-0.69337-0.2832-0.44531-0.18164 0.68554 3.252v0.78321l-0.5039 0.77735-0.0664-0.0684-0.01-4e-3 -0.27734-0.27539-0.10156-0.42773-8e-3 -0.01-0.15235-0.64845-0.3164-0.22265-1.1113-0.77149-1.5996-2.1914-1.4024-0.48633zm-70.014 6.5293-0.56055 0.15039v0.38867l0.70899 0.37696h0.71484l0.28125-8e-3 1.1719-2e-3 0.6914-0.0137 0.37305 0.22267 0.14258-0.30078-0.16992-0.29103-1.418-0.2207-0.79103-0.12305-0.54492-0.0859zm7.1719 0.74219-0.79687 0.0859-0.15234 0.41602 0.37109 0.27148 1.3633 0.041 0.50781-0.42774zm-18.869 1.9902-0.47656 0.50586 1.2246 0.85157 1.5586-0.0234 1.4746-0.73438-0.0859-0.41211-1.0332 0.27343zm10.242 0.52148-1.2832 0.82814 1.3144 1.1406 0.40431-0.24414-0.46486-0.93945 0.19142-0.41602zm-51.844 42.674-0.375 0.28125-0.39844 1.4961 1.291-0.12304zm7.2129 7.9571-1.207 0.50195-0.64648 0.80665 0.20117 1.959-0.6582 1.1113 0.35742 0.57617 1.9961-0.71875 1.2441-0.0801 0.42188-0.35938 0.20313-0.82618-0.93751-1.9805zm-20.16 8.6055-0.60547 0.26367-0.47853 0.63477-0.73242-0.0977-0.95898 0.52931-0.97462 0.16015-0.70899 0.63868-0.10937 0.3789 0.48437-0.0176 1.5762-0.55273 2.3223-0.082 1.0898-0.28906 0.0977-0.7383-0.26953-0.61132zm-7.3731 19.76-0.36914 0.0156 0.18554 1.7227 0.8711 0.58006 0.74806 0.22852-0.28125-1.1074-0.75978-0.58789zm1.4551 3.1582-0.23633 0.12889 0.91601 1.8223 0.60743-0.27344-0.14063-0.36327-0.52344-0.9629zm-583.02 1.5977c-1.1045 0-2.3945-2.8e-4 -2.3945 0.74219 0 0.74317 5e-4 1.6719 0.92187 1.6719h2.209s0.18359-0.74387 0.18359-1.4863c0-0.74318 0.18459-0.92774-0.91992-0.92774zm12.709 3.3184v2e-3c-0.10289-6e-3 -0.20725-8e-3 -0.33594 0.0156l-1.0039 0.56445-3.4746 3.3164c-0.67743 0.64701-1.0228 1.051-1.7363 1.6563l-1.6406 1.0332-2.123 2.1602-3.6817 2.043s-3.6831 1.1152-4.4199 1.1152c-0.73683 0-2.5774-2.0421-3.1289-3.3418-0.55225-1.3004-1.8418-0.1875-1.8418-0.1875s-0.92065 1.1144-2.5781 0.92773c-1.6575-0.18456-3.0059 1.041-3.0059 1.041-0.5169 0.0566-1.0436 0.10063-1.5606 0.16992l-2.9981 0.4082c-0.0438 6e-3 -1.2737 0.1439-1.459 0.20117l-3.7832 1.1738-0.47071 0.9629-1.0391 0.64258c0.0163 0.33164 0.12299 0.65944 0.3125 0.93945l0.0469 0.0723c0.25457 0.38538 0.4086 0.61673 0.78125 0.83594l0.19336 0.11328c0.26729 0.15558 0.75463 0.43729 1.082 0.62891l0.90626 1.373c0.21708 0.32952 0.53626 0.57817 0.9082 0.70899 0.0587 0.0212 0.25274 0.0905 0.43165 0.15625 0.14284 0.17042 0.33197 0.41415 0.43945 0.55274 0.0127 0.13082 0.0243 0.26035 0.0371 0.39258 0.0615 0.65479 0.12555 1.3325 0.25 2.0078 0.11526 0.62722 0.33057 1.1965 0.52149 1.6992 0.11314 0.2977 0.22297 0.58047 0.29297 0.83008-0.0148 0.37691-0.0701 1.2976-0.16211 2.7422l-0.0234 0.36915c-0.0311 0.5756 0.21325 1.1312 0.66016 1.4961l4.6172 3.7617c0.52539 0.4278 1.2478 0.52613 1.8672 0.2539l1.0078-0.44336c0.0431 0.2086 0.12302 0.40865 0.23828 0.5918l0.38868 0.6172c0.32174 0.51265 0.87639 0.82678 1.4746 0.84375 3e-3 0.13576 0.0106 0.31219 0.0234 0.5625l8e-3 0.15234c0.0148 0.47165 0.21457 0.91942 0.55469 1.2461 0.0608 0.058 0.1278 0.13137 0.19922 0.20703 0.2461 0.26195 0.55496 0.58213 0.91797 0.82422h-4e-3c0.01 7e-3 0.0174 0.0151 0.0273 0.0215 0.34083 0.22062 0.71247 0.39592 1.0625 0.55078 4e-3 0.14075 3e-3 0.26916 6e-3 0.42773 5e-3 0.26285 0.0136 0.55286 8e-3 0.70899-0.12516 0.33233-0.39121 1.0141-0.52344 1.3535l-0.0781 0.20312c-0.18031 0.46882-0.14711 1.0098 0.0742 1.461 0.29558 0.60388 0.34929 0.71011 0.5586 0.92578 0.0177 0.0184 0.0363 0.0371 0.0547 0.0547 0.0446 0.0424 0.0908 0.0827 0.13672 0.12304l-0.043 0.0879c-0.21002 0.43205-0.23917 0.92884-0.0801 1.3828l0.29297 0.83984c0.0509 0.14637 0.12005 0.28537 0.20703 0.41406 0.17536 0.26022 0.34669 0.42694 0.44922 0.52735l0.76172 0.83594c0.0453 0.0502 0.0936 0.10001 0.14454 0.14454 0.35567 0.31466 0.7346 0.57362 1.0684 0.80273 0.30759 0.21072 0.59831 0.41165 0.74609 0.54883 0.094 0.11738 0.23152 0.38667 0.34961 0.6582l-0.16406 0.22461c-0.4674 0.63924-0.46457 1.5083 0.01 2.1426l0.12305 0.16406-0.22656 0.42188c-0.25668 0.47872-0.28352 1.0475-0.0742 1.5488l0.12304 0.29492-0.0332 0.0351c-0.4773 0.51124-0.61443 1.2532-0.35351 1.9024 0.44266 1.1024 1.5578 2.1692 2.4297 2.6543 0.1796 0.099 0.37395 0.16724 0.57618 0.20118l-0.0742 0.1875c-0.14071 0.35214-0.16614 0.74488-0.0742 1.1133l0.0879 0.36523c0.25386 1.0607 0.25433 1.0596 0.34766 1.252 0.07 0.14425 0.15706 0.27823 0.26172 0.39844l0.79492 0.91211c0.12303 0.14142 0.26847 0.26375 0.42969 0.36133l4.4531 2.6816c0.1591 0.0962 0.3339 0.19559 0.51563 0.29883 0.29699 0.16758 0.60565 0.34107 0.76758 0.45703l1.2969 0.99806c0.11455 0.0877 0.21579 0.15618 0.31055 0.22265 0.0629 0.0445 0.12319 0.083 0.19531 0.15235 0.11173 0.10749 0.28904 0.35252 0.44531 0.57031 0.29487 0.41013 0.62788 0.87523 1.0762 1.25 0.11102 0.0926 0.23388 0.17073 0.36328 0.23437l0.6582 0.32227 0.0469 0.5293c0.0431 0.4773 0.27542 0.91967 0.64454 1.2266 0.31608 0.26233 0.64493 0.52212 0.97656 0.78517 0.57419 0.45538 1.1184 0.88827 1.5879 1.3203 0.075 0.12163 0.17614 0.28287 0.25391 0.41015-0.0262 0.16264-0.10436 0.40876-0.17578 0.53321-0.17678 0.3076-0.25701 0.66012-0.23438 1.0137 0.0516 0.80681 0.49004 1.9343 1.3301 2.5078 0.1789 0.12233 0.37592 0.21276 0.58594 0.26367l0.92969 0.22657 0.48633 0.97851 2.6035 1.209c1.9389 3.9613 3.8386 7.9436 5.7598 11.914 0.0177 0.0346 0.5358 4.8607 0.56055 5.082l2.1563-0.27931 0.19141-1.6445 0.89258-0.4375c0.3479 0.37759 1.1139 1.093 1.377 1.4883 0.0629 0.0941 0.22192 0.89371 0.29687 1.0274l0.51758 0.60937 0.25977 0.30664c0.2001-1e-3 2.5233-0.0392 2.5664-0.0293 0.6067 0.13435 2.5888 1.0764 3.3242 1.3359 1.731 0.61025 3.5106 1.1293 5.2578 1.6914l0.15625 0.0508c0.38467-0.31608 1.5628-1.379 1.9531-1.5918 0.49994-0.27295 1.0946-0.48166 1.6172-0.71289l1.1445 0.22461 0.4668 1.0781c-0.34083 0.6364-0.783 1.6351-1.1797 2.2051-0.024 0.0354-0.93222 0.87734-1.0234 0.9629l1.2363 1.8203 2.6856-0.48047 1.3691 0.86523c0.43134 1.1533 0.77519 3.0909 0.72852 4.3262l3.0254 4.1074c0.41154 0.55934 0.68683 0.84599 1.0566 1.4336l-1.0703 2.0313c-0.17466 0.77006-0.28906 1.3081-0.28906 1.7578 0 0.11243 0.0127 0.22439 0.0332 0.33399l0.34375 1.8281c0.0453 0.2383 0.13713 0.46645 0.27148 0.66797 0.0502 0.0764 0.90235 1.1154 1.1406 1.3106 0.0205 0.0163 0.0413 0.0331 0.0625 0.0488 0.3175 0.23689 0.57023 0.38605 0.79297 0.51758 0.0962 0.0573 0.19779 0.11786 0.31446 0.1914l1.9883 1.2617c0.27293 0.17324 0.58701 0.26871 0.91016 0.27931l0.53515 0.0176c-0.0191 0.34861-0.0208 0.6841-0.0215 1.0059v0.14453c1e-5 0.0926 3e-3 0.17989 0.01 0.26757-0.24183 0.55862-0.89459 1.876-1.2305 2.5528-0.20434 0.41154-0.37595 0.75762-0.4707 0.95703-0.17961 0.3776-0.2105 0.85849-0.10938 1.2637 0.3882 1.5564 0.38869 1.5561 0.51172 1.8008 0.20153 0.37831 0.43846 0.59626 0.57422 0.72072l0.66407 0.75586c0.0403 0.046 0.0824 0.0891 0.12695 0.13085 0.71136 0.65621 2.4257 1.7568 3.4863 2.1387 0.7262 0.26093 1.4466 0.42185 2.1445 0.57812 0.55509 0.12373 1.0784 0.24022 1.5508 0.39649 0.53175 0.17608 1.6374 0.60995 1.9648 0.7832 0.45679 0.24254 0.9212 0.554 1.4141 0.88282 0.60671 0.40517 1.2348 0.82364 1.9356 1.1758 0.47377 0.23689 1.8884 0.38282 1.8672 0.38282 0.33022 0.0212 1.2884-0.18311 1.6504-0.39454l1.7402-1.0195 1.0684 1.1836c0.22769 0.25244 0.52294 0.43666 0.84962 0.52929l0.90234 0.25586c-0.10324 0.50912 0.015 1.0514 0.35157 1.4785l0.35937 0.45703c0.31042 0.39317 0.76961 0.63867 1.2695 0.67969l1.1172 0.0898c0.3175 0.0283 0.63798-0.0347 0.92578-0.17187 0.2878-0.13788 0.57604-0.28079 0.86525-0.42579 0.54447-0.27222 1.0587-0.52988 1.5664-0.74414 0.1393-0.0587 0.37333-0.12277 0.59961-0.18359 0.1584-0.0417 0.3156-0.0837 0.49025-0.13672 0.01-3e-3 0.0367-0.0114 0.0742-0.0234 0.34649 0.0311 0.87774 0.0811 1.1797 0.10938 0.11384 0.0516 0.24812 0.1175 0.38672 0.1875 0.36982 0.18809 0.79034 0.40223 1.2832 0.53516 0.62156 0.16688 1.227 0.24783 1.8125 0.32421 0.38255 0.0502 0.74506 0.0961 1.0703 0.16407l0.99804 0.31445c0.0495 0.0156 0.0977 0.0294 0.14649 0.043l0.23047 0.21289 0.26758 0.69923c0.20291 0.52468 0.64069 0.92505 1.1816 1.082l2.1816 0.62891c0.13223 0.0382 0.26588 0.0606 0.40235 0.0684l2.6758 0.14062c0.22345 0.012 0.41344 0.01 0.59376 8e-3 0.24466-2e-3 0.33457-3e-3 0.4668 0.0234 0.0551 0.0113 0.0872 0.0265 0.25976 0.11133 0.15133 0.0735 0.31049 0.1509 0.5 0.22656l1.8672 0.75392 1.127 0.95507c0.90581 0.77005 1.8005 1.4403 2.6582 1.9883 0.45963 0.29557 1.0305 0.36199 1.5488 0.18945 0.18526-0.0622 0.44802-0.15619 0.74218-0.26367 0.34861-0.12799 1.0016-0.36858 1.375-0.48243 0.0283 5e-3 0.0562 0.01 0.0859 0.0137l0.35743 0.0469 0.47071 1.2031c0.10041 0.25598 0.258 0.4859 0.46093 0.67187l0.71289 0.6836c0.15769 0.15345 0.34215 0.2763 0.54297 0.36328 0.3974 0.17183 0.77711 0.24404 1.084 0.30274 0.11243 0.0212 0.28125 0.0542 0.32226 0.0684 0.39881 0.17889 0.87901 0.44513 1.3867 0.72656 1.1802 0.65479 2.5162 1.3974 3.8555 1.6074 0.3175 0.0509 0.64745 0.0134 0.94727-0.10547l0.75-0.29883c0.23405-0.0933 0.44626-0.23375 0.62304-0.41406 0.23901-0.24467 0.5046-0.52919 0.78322-0.82618 0.41577-0.44407 0.87583-0.93577 1.2676-1.3106l6.2578 2.6719c0.15486 0.0658 0.31944 0.11034 0.48633 0.13086l2.4609 0.3086c1.1625 0.25174 2.6104 0.5071 3.6973 0.34376 0.20365-0.0311 0.39906-0.0965 0.58008-0.19336 0.52822-6e-3 1.0292-0.2431 1.3672-0.6504 0.15769-0.19021 0.28598-0.34467 0.39064-0.47266l0.0996 0.14258c0.0594 0.0834 0.1264 0.16153 0.19922 0.23437 0.20082 0.20152 1.6248 1.1744 1.7754 1.25 0.31113 0.1492 0.55678 0.22681 0.75195 0.28907 0.07 0.0226 0.14388 0.0456 0.23438 0.0781l1.3711 0.49609 0.38867 0.30664c0.2284 0.17961 0.46327 0.53522 0.71289 0.91211 0.28144 0.4264 0.60053 0.91067 1.0488 1.3477 0.21072 0.20153 0.21105 0.19934 1.6875 0.99414l0.54493 0.29688c0.19799 0.1089 0.41648 0.17999 0.64063 0.20898l0.24023-1.7871 0.39063-1.8203c0.31184-1.4319 0.65377-2.8652 0.93945-4.3028 0.0954-0.4787 0.13419-0.98438 0.20703-1.4688 0.0544-0.3585 0.17902-0.79329 0.18751-1.1504 7e-3 -0.26799-1.4007-3.7577-1.4629-3.9317-0.1096-0.30688-0.13973-0.66149-0.25781-0.96484-0.19093-0.49003-0.4854-0.95013-0.67774-1.4394-0.42356-1.077-0.70861-2.2205-1.1484-3.291-0.43981-1.0678-0.97568-2.0717-1.2578-3.2031-0.23335-0.93126-0.38209-1.8898-0.62109-2.8203-0.0778-0.30689-0.23516-0.61336-0.33204-0.91601-0.19305-0.60104-0.53799-1.6188-0.61719-2.2305l4e-3 -0.6543c9e-3 -1.1992 0.26171-2.3799-0.0332-3.5664l-0.10742-0.4375c-0.13082-0.2765-0.49489-0.60306-0.70703-0.82227-0.77075-0.79692-1.3787-1.2701-1.7422-2.3711-0.15981-0.48154-0.16339-0.98879-0.29492-1.4668-0.0947-0.34719-0.27409-0.68617-0.38086-1.0312-0.16405-0.5261-0.36841-1.7014-0.68945-2.1094-0.3684-0.46811-1.2683-1.1789-1.793-1.4766-0.96804-0.54943-2.318-0.92103-3.0117-1.8594-0.15132-0.20436-0.30159-0.59446-0.40625-0.83204-0.23122-0.51903-0.73906-1.9862-0.79492-2.5293-0.0403-0.39669 0.0509-0.7597 0.0742-1.1465 0.0113-0.20011-0.034-0.43038-8e-3 -0.62695 0.11383-0.85137 0.67918-1.5832 0.2832-2.4883-0.36134-0.82308-1.5463-1.7264-2.0547-2.4844-0.10607-0.15556-0.26917-0.35069-0.34766-0.51757-0.0467-0.0997-0.18945-0.89751-0.18945-1.0078 0-0.0771 0.2831-1.6591 0.30078-1.7051 0.10678-0.28073 0.3014-0.58535 0.44141-0.85547-7e-3 -0.0728-0.0409-0.66921-0.0508-0.70314-0.13648-0.49003-1.4377-1.6051-1.8125-1.8809 0-0.5671 0.0813-2.5243 0-2.998-0.11101-0.63216-0.35283-1.2746-0.43556-1.9082-0.10254-0.80611-0.0565-2.3611-0.0742-3.1524-0.0198-0.81955-0.31826-3.4311 0.50978-4.1445v-6.7696l-3.627-2.1055c-1.7607-1.0204-3.583-2.4453-5.2539-3.6192-0.49499-0.3479-0.75601-0.57916-1.2715-0.89453-0.72408-0.44336-1.6294-0.66211-2.3535-1.1055-0.7163-0.437-1.652-1.245-2.3457-1.7676-0.0297-0.0219-0.29369-0.13753-0.34179-0.16016-0.19657-0.0926-2.33-1.1135-2.3887-1.127-0.77641-0.17394-1.2343-0.1574-2.0234-0.25781l-4.0508-0.51563-0.82813-0.29101c-0.0226-0.0156-1.0328-1.1287-1.0625-1.1641l-0.76954-0.84376c-0.0106-0.0156-0.49148-1.3207-0.49219-1.3242-0.0269-0.32456 0.0347-0.50871 0.0566-0.83398l0.11133-1.666c0.14284-0.45751 0.33529-0.66985 0.54883-1.0976l1.0957-2.1992c0.62155-1.0875 1.4866-2.0889 2.0664-3.1934 0.26658-0.50347 0.35255-0.81909 0.57812-1.3438 0.50915-1.1809 1.3953-2.9451 1.5332-4.2695-0.1591-0.4872-0.29339-1.1036-0.50977-1.5625-0.12233-0.26092-1.191-1.164-1.3691-1.4688l-0.27734-0.85548-0.14063-0.42773 0.41016-5.5-0.13086-0.6211c-0.0629-0.30123-0.10332-0.76756-0.2207-1.0469-0.54944-1.3032-1.4751-2.3239-2.3477-3.4121-0.31043-0.38751-0.52038-0.58119-0.79688-0.99415-0.4179-0.62368-0.62355-1.4645-1.0195-2.1094-0.40518-0.65904-1.5585-1.6749-2.2168-2.0723-0.22557-0.0156-0.47524-0.0122-0.69727-0.0469-0.26376-0.041-3.0612-0.45538-3.1348-0.48437-0.64842-0.25104-0.9567-0.51924-1.5684-0.85158l-3.1348-1.7051-1.1543-0.11329-0.58593 0.48438-1.1719 0.9668-1.4707 1.9902c-0.28709 0.38821-0.40045 0.64837-0.73633 0.99414-0.24255 0.25032-0.44426 0.31356-0.72852 0.51367l-1.4609 1.0254c-0.40306 0.22203-1.678 0.68591-2.1426 0.83789-0.0318 0.0106-0.57204 0.0664-0.64063 0.0742-0.0201 2e-3 -0.21937 0.0258-0.2832 0.0332-0.56431 0.065-2.481 0.28406-2.5039 0.29297-0.51085 0.20049-0.78476 0.43612-1.2188 0.70703h0.0137c-0.0471 0.0295-0.081 0.0476-0.13282 0.0781l-2.6777 1.5742c-1.3753 0.6661-2.9365 1.0237-4.3203 1.6777-0.36912 0.17465-1.1969 0.97431-1.5137 1.3477l-3.3008 3.9004c-0.0587 0.0707-1.0384 0.73743-1.2109 0.82228-0.24324 0.11951-1.7685 0.61684-1.8555 0.62109-0.54732 0.0332-3.1405-0.16279-3.7988-0.35937-0.0757-0.0771-0.46489-0.48764-0.47266-0.50391-0.29911-0.71066-1.1204-2.8636-1.4414-3.4258l-0.7793-0.75195-0.38672-0.37891c-0.13859 4e-3 -2.8476 0.10037-2.8652 0.0898l-2.5137-1.3848c-0.49145-0.27013-0.74162-0.47699-1.2578-0.69337-0.34719-0.14425-0.56996-0.13568-0.93555-0.22266-1.0331-0.24394-3.6958-0.76781-4.6094-1.3066-0.35708-0.21213-0.7752-0.66244-1.0977-0.93751-0.0111-0.0418-0.0281-0.0996-0.0391-0.14648h6e-3c-0.0585-0.25304-0.13289-0.53189-0.21289-0.78516-0.0221-0.0697-0.0308-0.15626-0.0566-0.21484h-2e-3c-5e-3 -0.0122-6e-3 -0.0333-0.0117-0.0449-0.19021-0.39174-3.1826-5.6693-3.3106-5.8164l-2.2891-1.711-1.5527-0.35742c-0.30336-0.07-0.46709-0.13459-0.77539-0.17774l-1.3555 0.0332-0.77345 0.42187c-0.15062 0.082-0.25307 0.10274-0.38672 0.21094-0.0276 0.0233-0.67642 0.83612-0.74218 0.91603-0.33094 0.40871-0.83886 0.91177-1.0977 1.3594-0.35144 0.6067-0.50423 1.8559-1.1406 2.2363-0.12092 0.0156-1.5337 0.18588-1.5606 0.18164-0.0905-0.0141-1.839-0.68232-2.0391-0.75586-0.24749-0.35142-0.75608-0.94145-0.92579-1.3106-0.0523-0.11667-0.71147-2.24-0.71289-2.2754-0.0269-0.58762 0.50599-1.8244 0.49609-2.4375-7e-4 -0.094-0.52119-2.3798-0.57422-2.623 0.24891-0.60105 0.94701-2.0824 1.0898-2.6367 6e-3 -0.0212-0.0414-1.2702-0.0449-1.377-0.0198-0.64348 9e-3 -2.3057-0.0859-2.8594-6e-3 -0.0354-0.85079-2.7011-0.87695-2.7598-0.017-0.0389-1.3191-2.257-1.334-2.2754-0.0799-0.0997-2.0562-1.5775-2.4395-1.873l-0.43164-1.2012-0.86133-2.4043c-0.23972-0.48014-2.1741-3.5734-2.5078-4.0274-0.0155-0.0219-1.0055-0.80126-1.0918-0.86914-0.80964-0.64277-1.6394-1.4024-2.4922-1.9766-0.37972-0.25456-1.2396-0.55669-1.6914-0.72851l-0.73047-0.2793-1.3418-4e-3c-0.13152 0-0.23501-0.0115-0.33789-0.0176zm533.72 128.8c-0.16839-6e-3 -0.3304-6e-3 -0.47265 8e-3 -0.18968 0.0184-0.34522 0.0591-0.4336 0.13281-0.35357 0.29486-0.94168 0.58893-0.11718 0.70702s1.6504 0.17579 1.6504 0.17579-1.946 3.6551-2.5938 3.9492c-0.6477 0.29416-4.7129 3.418-4.7129 3.418-0.35356 0.35355-1.5909 1.2968-1.709 2.0039-0.1181 0.70711-0.17858 1.5889 0.23438 1.707 0.41295 0.11809 1.4735 0.35475 2.0625 0.0606 0.58902-0.29415 4.0672-1.1211 4.3613-1.4746 0.29415-0.35355 1.2969-1.1192 1.2969-1.1192l1.5898-1.5898s-3.6532 4.4189-3.8887 4.5957c-0.23547 0.17678-0.64653 0.94157-0.9414 1.1777s-3.0655 1.4746-3.5371 1.4746h-2.1797s2.5338 1.4133 4.5371 0.4707c2.0033-0.94257 4.243-3.7723 5.4805-5.3633 1.2375-1.591 2.4748-5.42 2.3574-6.0684-0.11738-0.64843-0.29578-2.6512-0.53125-3.2402-0.23547-0.58902-0.6475-0.82608-1.1192-0.88477-0.26531-0.0331-0.82881-0.12143-1.334-0.14062z" fill="#ed2939"/>
</clipPath>
</defs>
<g transform="translate(-218.37)" clip-path="url(#a)">
<rect width="1200" height="600" fill="#509e2f"/>
<rect width="1200" height="400" fill="#ef3340"/>
<rect width="1200" height="200" fill="#00b5e2"/>
<circle cx="570" cy="300" r="90" fill="#fff"/>
<circle cx="590" cy="300" r="75" fill="#ef3340"/>
<path d="m670 250 9.567 26.903 25.788-12.258-12.258 25.788 26.903 9.567-26.903 9.567 12.258 25.788-25.788-12.258-9.567 26.903-9.567-26.903-25.788 12.258 12.258-25.788-26.903-9.567 26.903-9.567-12.258-25.788 25.788 12.258z" fill="#fff"/>
</g>
</svg>
