<?xml version="1.0" standalone="no"?>
<!DOCTYPE svg PUBLIC "-//W3C//DTD SVG 20010904//EN"
 "http://www.w3.org/TR/2001/REC-SVG-20010904/DTD/svg10.dtd">
<svg version="1.0" xmlns="http://www.w3.org/2000/svg"
 width="980.000000pt" height="353.000000pt" viewBox="0 0 980.000000 353.000000"
 preserveAspectRatio="xMidYMid meet">

<g transform="translate(0.000000,353.000000) scale(0.100000,-0.100000)"
fill="#000000" stroke="none">
<path d="M1477 3252 c-152 -152 -277 -283 -277 -290 0 -8 22 -12 78 -12 l77 0
200 200 c110 110 204 200 210 200 6 0 100 -90 210 -200 l200 -200 77 0 c56 0
78 4 78 13 0 14 -550 567 -565 567 -6 0 -135 -125 -288 -278z"/>
<path d="M1116 2792 c-15 -25 -586 -1907 -582 -1918 7 -18 139 -20 154 -1 5 6
65 181 132 387 67 206 128 381 135 388 10 12 61 -42 290 -307 155 -179 285
-321 294 -320 10 0 112 141 255 350 132 193 243 352 246 354 4 3 65 -183 135
-413 70 -229 132 -425 137 -434 8 -17 37 -18 383 -18 237 0 376 4 380 10 5 9
-530 1850 -555 1908 -5 12 -14 22 -20 22 -5 0 -158 -223 -340 -495 -182 -272
-333 -495 -338 -495 -4 0 -158 223 -342 495 -184 272 -340 495 -347 495 -6 0
-14 -4 -17 -8z"/>
<path d="M6224 2362 c-6 -4 -91 -209 -189 -457 -97 -247 -188 -474 -202 -502
-28 -61 -64 -90 -122 -99 -35 -6 -41 -10 -41 -30 l0 -24 201 0 c200 0 200 0
197 22 -2 17 -14 24 -55 33 -99 22 -103 45 -41 218 l43 117 184 -2 184 -3 48
-133 c27 -74 49 -143 49 -153 0 -21 -51 -49 -90 -49 -15 0 -20 -7 -20 -25 l0
-25 210 0 210 0 0 24 c0 20 -6 24 -42 30 -63 10 -87 31 -117 99 -15 34 -101
266 -192 514 -142 391 -167 453 -184 453 -11 0 -25 -4 -31 -8z m55 -427 c39
-110 71 -204 71 -208 0 -4 -67 -7 -150 -7 -82 0 -150 3 -150 7 0 10 152 414
155 411 1 -2 34 -93 74 -203z"/>
<path d="M8072 2358 c-5 -7 -90 -215 -187 -463 -98 -247 -188 -471 -201 -497
-29 -57 -65 -86 -116 -94 -32 -6 -38 -10 -38 -30 l0 -24 195 0 195 0 0 24 c0
21 -6 25 -47 31 -27 3 -59 13 -72 22 -20 13 -23 20 -17 57 3 22 23 88 45 146
l39 105 183 3 184 2 48 -132 c63 -178 63 -182 -18 -203 -30 -8 -41 -17 -43
-33 l-3 -22 216 0 216 0 -3 22 c-2 14 -11 24 -23 26 -60 9 -102 34 -124 72
-17 31 -371 981 -371 997 0 9 -49 1 -58 -9z m62 -429 l73 -204 -150 -3 c-82
-1 -151 -1 -153 1 -2 2 31 96 74 209 42 114 78 205 80 203 2 -1 36 -94 76
-206z"/>
<path d="M4220 2326 c0 -21 6 -26 38 -31 70 -12 103 -27 114 -51 8 -18 4 -122
-16 -416 -15 -216 -32 -410 -37 -432 -14 -54 -47 -83 -103 -91 -40 -6 -46 -10
-46 -31 l0 -24 206 0 205 0 -3 22 c-2 14 -11 24 -23 26 -56 10 -98 25 -116 43
-17 17 -19 33 -18 137 0 139 24 660 30 666 5 5 74 -161 251 -597 113 -279 123
-298 145 -295 20 3 39 39 146 278 225 503 281 625 289 634 10 12 10 -133 1
-523 -7 -335 -4 -325 -93 -337 -44 -6 -50 -9 -50 -30 l0 -24 231 0 230 0 -3
22 c-2 18 -12 24 -48 31 -64 11 -88 26 -100 61 -6 19 -13 191 -17 446 -6 414
-6 415 16 442 12 14 35 29 51 32 17 3 44 9 60 12 24 4 30 11 30 30 l0 25 -151
-3 -151 -3 -196 -422 c-109 -232 -200 -418 -204 -415 -3 4 -87 194 -187 422
l-180 415 -151 3 -150 3 0 -25z"/>
<path d="M6650 2325 c0 -21 6 -26 41 -31 87 -14 111 -46 302 -396 l97 -177 0
-179 c0 -214 -1 -216 -97 -234 -56 -10 -63 -14 -63 -35 l0 -23 246 0 245 0 -3
22 c-3 19 -13 24 -67 34 -44 8 -70 18 -82 33 -23 28 -32 123 -27 269 l4 117
74 135 c118 217 198 348 235 384 25 25 49 37 90 46 48 10 55 14 55 36 l0 24
-195 0 -195 0 0 -25 c0 -20 6 -25 38 -30 71 -12 85 -22 79 -58 -4 -27 -196
-408 -216 -429 -7 -8 -241 424 -241 447 0 16 24 29 73 39 21 5 27 12 27 31 l0
25 -210 0 -210 0 0 -25z"/>
<path d="M8710 2325 c0 -22 5 -25 51 -31 27 -4 60 -15 72 -24 22 -18 22 -19
25 -453 2 -279 -1 -444 -8 -461 -11 -30 -62 -56 -110 -56 -25 0 -30 -4 -30
-25 l0 -25 231 0 230 0 -3 23 c-2 15 -11 23 -28 25 -126 16 -130 26 -130 292
0 110 3 200 6 200 29 0 87 -52 184 -168 63 -75 161 -189 218 -254 l103 -118
140 0 c138 0 140 0 137 21 -2 17 -15 25 -57 35 -29 8 -66 23 -81 34 -34 24
-143 144 -335 366 l-146 169 178 174 c97 95 193 184 213 197 31 21 69 33 153
49 21 4 27 11 27 30 l0 25 -205 0 -205 0 0 -24 c0 -24 21 -36 66 -36 12 0 27
-7 34 -15 18 -22 -2 -48 -174 -224 -141 -143 -220 -211 -245 -211 -8 0 -11 59
-11 180 0 240 8 259 113 274 41 6 47 10 47 32 l0 24 -230 0 -230 0 0 -25z"/>
<path d="M200 1975 l-204 -205 209 -210 c115 -115 212 -207 217 -204 4 3 8 38
8 77 l0 72 -125 125 c-69 69 -125 129 -125 135 0 6 56 66 125 135 l125 125 0
77 c0 57 -3 78 -13 78 -7 0 -105 -92 -217 -205z"/>
<path d="M3180 2022 l0 -77 85 -85 c47 -47 85 -89 85 -95 0 -6 -38 -48 -85
-95 l-85 -85 0 -72 c0 -39 4 -74 8 -77 5 -3 84 71 178 165 l169 169 -165 165
c-91 91 -170 165 -177 165 -9 0 -13 -22 -13 -78z"/>
<path d="M8555 880 c-8 -14 3 -30 21 -30 8 0 14 9 14 20 0 21 -24 28 -35 10z"/>
<path d="M5906 806 c-8 -38 -8 -46 2 -46 5 0 14 11 20 25 8 17 20 25 37 25
l25 0 0 -110 c0 -91 -3 -110 -15 -110 -8 0 -15 -4 -15 -10 0 -5 25 -10 55 -10
54 0 74 13 35 23 -18 5 -20 14 -20 111 l0 106 30 0 c22 0 33 -7 44 -27 l15
-28 1 40 0 40 -104 0 -104 0 -6 -29z"/>
<path d="M8554 827 c-2 -7 -3 -67 -2 -132 3 -105 5 -120 21 -123 15 -3 17 8
17 132 0 115 -2 136 -15 136 -9 0 -18 -6 -21 -13z"/>
<path d="M4551 813 c-43 -21 -76 -89 -65 -136 15 -71 64 -107 146 -107 52 0
64 7 77 43 13 34 1 35 -27 2 -32 -36 -84 -34 -123 4 -24 24 -29 38 -29 76 0
77 30 114 92 115 34 0 68 -20 68 -41 0 -5 5 -9 10 -9 14 0 13 43 -2 58 -17 17
-107 14 -147 -5z"/>
<path d="M4851 808 c-53 -137 -86 -211 -97 -215 -8 -3 -14 -9 -14 -14 0 -12
77 -11 85 1 3 6 -1 10 -9 10 -17 0 -19 12 -10 48 5 18 13 22 49 22 40 0 44 -3
54 -32 8 -22 8 -34 1 -36 -26 -9 -5 -22 35 -22 48 0 56 8 27 26 -9 6 -35 61
-57 123 -22 61 -43 111 -48 111 -4 0 -11 -10 -16 -22z m33 -105 c7 -20 4 -23
-23 -23 -35 0 -35 -1 -19 52 11 39 12 39 24 16 6 -13 15 -33 18 -45z"/>
<path d="M5010 822 c0 -5 7 -12 15 -16 12 -4 15 -26 15 -106 0 -80 -3 -102
-15 -106 -8 -4 -15 -10 -15 -15 0 -12 87 -11 95 1 3 6 0 10 -8 10 -18 0 -27
21 -27 61 0 47 32 38 69 -20 20 -31 42 -51 58 -56 37 -9 38 -1 5 35 -16 17
-35 43 -43 56 -11 21 -10 27 9 47 27 29 28 68 2 92 -22 20 -160 35 -160 17z
m124 -28 c35 -34 9 -94 -40 -94 -21 0 -24 4 -24 39 0 22 3 46 6 55 8 20 38 21
58 0z"/>
<path d="M5313 814 c-44 -22 -67 -60 -67 -114 0 -78 56 -130 141 -130 72 0 83
7 83 56 0 30 5 46 18 53 13 8 2 10 -43 10 -46 0 -55 -2 -37 -9 18 -8 22 -17
22 -50 l0 -40 -41 0 c-31 0 -47 6 -70 29 -25 25 -29 37 -29 84 0 71 30 107 88
107 40 0 63 -12 80 -45 10 -18 11 -16 12 16 0 25 -5 39 -16 43 -29 11 -109 6
-141 -10z"/>
<path d="M5590 808 c-111 -75 -51 -248 83 -235 57 5 92 34 109 89 14 48 -1
104 -37 138 -37 35 -110 39 -155 8z m105 -4 c45 -18 63 -151 25 -192 -32 -34
-82 -30 -114 9 -21 24 -26 41 -26 83 0 85 47 126 115 100z"/>
<path d="M6156 821 c-4 -6 -1 -11 7 -11 22 0 27 -22 27 -110 0 -88 -5 -110
-27 -110 -8 0 -11 -4 -8 -10 8 -12 92 -13 99 -1 3 5 -3 11 -14 14 -16 4 -20
14 -20 46 0 58 29 56 65 -5 30 -52 48 -61 128 -63 59 -2 68 4 41 23 -12 9 -13
17 -5 39 10 26 15 28 53 25 37 -3 44 -7 53 -32 7 -22 7 -30 -2 -33 -29 -10
-10 -23 32 -23 43 0 60 12 32 23 -8 3 -24 34 -37 69 -52 144 -62 168 -70 168
-4 0 -15 -19 -23 -42 -8 -24 -29 -78 -47 -120 -27 -66 -35 -78 -56 -78 -17 0
-33 14 -58 51 l-34 50 24 24 c29 29 30 55 6 85 -15 18 -31 23 -89 27 -46 4
-73 2 -77 -6z m126 -28 c37 -33 12 -93 -38 -93 -22 0 -24 4 -24 48 0 27 3 52
7 55 11 12 36 8 55 -10z m247 -100 c1 -8 -11 -13 -29 -13 -35 0 -35 -2 -13 52
l17 42 12 -35 c7 -19 13 -40 13 -46z"/>
<path d="M6646 821 c-3 -5 3 -11 14 -14 18 -5 20 -14 20 -106 0 -81 -3 -103
-15 -107 -30 -12 -14 -24 30 -24 25 0 45 5 45 10 0 6 -7 10 -15 10 -18 0 -27
48 -23 119 l3 54 79 -96 c44 -53 84 -97 88 -97 4 0 8 52 8 115 0 94 3 117 15
121 30 12 14 24 -30 24 -46 0 -61 -14 -25 -23 18 -5 20 -13 20 -89 -1 -67 -3
-80 -13 -67 -79 102 -153 179 -173 179 -13 0 -25 -4 -28 -9z"/>
<path d="M6972 814 c-15 -10 -22 -25 -22 -49 0 -33 12 -47 85 -98 46 -33 18
-87 -38 -73 -14 3 -29 15 -32 26 -8 26 -25 26 -25 1 0 -30 28 -51 68 -51 43 1
67 16 81 52 13 35 -5 68 -53 94 -46 26 -60 46 -51 74 10 31 62 27 77 -5 14
-32 26 -24 20 15 -4 28 -7 30 -46 30 -23 0 -52 -7 -64 -16z"/>
<path d="M7130 822 c0 -5 7 -12 15 -16 12 -4 15 -26 15 -106 0 -80 -3 -102
-15 -106 -31 -12 -13 -24 35 -24 28 0 50 5 50 10 0 6 -7 10 -15 10 -11 0 -15
11 -15 43 0 43 0 43 35 43 68 0 105 70 63 119 -21 24 -33 28 -96 33 -46 3 -72
1 -72 -6z m131 -33 c34 -34 6 -99 -43 -99 -15 0 -18 9 -18 60 0 53 2 60 20 60
11 0 29 -9 41 -21z"/>
<path d="M7414 811 c-20 -12 -38 -36 -49 -65 -15 -40 -16 -50 -4 -88 20 -60
67 -91 132 -85 79 7 129 77 113 159 -15 80 -122 124 -192 79z m113 -16 c46
-32 52 -146 12 -186 -30 -30 -82 -25 -113 12 -34 40 -37 123 -5 163 24 30 71
35 106 11z"/>
<path d="M7646 822 c-3 -5 3 -12 14 -15 18 -5 20 -14 20 -107 0 -93 -2 -102
-20 -107 -33 -9 -12 -23 35 -23 47 0 68 14 35 23 -16 4 -20 14 -20 46 0 59 28
56 69 -8 20 -31 42 -51 58 -56 36 -9 38 -2 6 32 -15 16 -34 42 -42 56 -13 25
-13 29 7 50 27 29 28 68 2 92 -22 20 -153 34 -164 17z m128 -28 c35 -34 9 -94
-40 -94 -22 0 -24 4 -24 48 0 27 3 52 7 55 11 12 41 7 57 -9z"/>
<path d="M7870 793 l1 -38 20 28 c13 16 30 27 45 27 24 0 24 -1 24 -106 0 -97
-2 -106 -20 -111 -11 -3 -17 -9 -14 -14 7 -12 104 -11 104 1 0 6 -7 10 -15 10
-12 0 -15 19 -15 110 0 110 0 110 24 110 15 0 32 -11 45 -27 l20 -28 1 38 0
37 -110 0 -110 0 0 -37z"/>
<path d="M8150 723 c-23 -60 -51 -115 -61 -125 -11 -9 -19 -19 -19 -22 0 -10
79 -7 85 4 3 6 -1 10 -9 10 -17 0 -19 12 -10 48 5 18 13 22 49 22 38 0 44 -3
56 -32 10 -24 10 -33 1 -36 -28 -9 -9 -22 33 -22 50 0 54 4 26 28 -10 10 -36
65 -57 125 -21 59 -41 107 -45 107 -4 0 -26 -48 -49 -107z m54 13 c3 -13 9
-31 12 -40 5 -13 -1 -16 -25 -16 -34 0 -36 3 -20 49 13 37 25 40 33 7z"/>
<path d="M8300 793 l1 -38 20 28 c13 16 30 27 45 27 24 0 24 -1 24 -106 0 -97
-2 -106 -20 -111 -11 -3 -17 -9 -14 -14 7 -12 104 -11 104 1 0 6 -7 10 -15 10
-12 0 -15 19 -15 111 l0 110 28 -3 c16 -2 31 -12 37 -25 14 -33 25 -28 25 12
l0 35 -110 0 -110 0 0 -37z"/>
<path d="M8704 815 c-61 -31 -85 -116 -50 -183 36 -71 140 -83 200 -23 28 28
31 38 31 91 0 53 -3 63 -31 91 -38 38 -102 48 -150 24z m111 -29 c50 -50 40
-170 -16 -190 -69 -24 -123 33 -116 123 3 41 9 59 27 73 31 25 76 23 105 -6z"/>
<path d="M8920 822 c0 -4 9 -13 20 -20 18 -11 20 -23 20 -108 0 -87 -2 -96
-20 -101 -32 -8 -12 -23 30 -23 42 0 62 15 30 23 -18 5 -20 14 -20 88 0 46 4
79 8 74 5 -6 41 -49 81 -97 40 -49 77 -85 82 -82 5 3 9 55 9 115 0 88 3 111
15 115 30 12 14 24 -30 24 -44 0 -60 -12 -31 -23 15 -6 30 -92 24 -141 -3 -27
-6 -25 -73 54 -38 46 -75 89 -83 96 -14 15 -62 19 -62 6z"/>
<path d="M1124 659 c-7 -12 622 -649 641 -649 15 0 645 633 645 648 0 8 -21
12 -73 12 l-72 0 -245 -245 c-135 -135 -249 -245 -255 -245 -6 0 -120 110
-255 245 l-245 245 -67 0 c-38 0 -70 -5 -74 -11z"/>
</g>
</svg>
