<?xml version="1.0" encoding="UTF-8" standalone="no"?>
<!-- Created with Inkscape (http://www.inkscape.org/) -->

<svg
   width="972.70233"
   height="818.52625"
   id="svg2"
   sodipodi:version="0.32"
   inkscape:version="1.1.1 (3bf5ae0d25, 2021-09-20)"
   version="1.0"
   sodipodi:docname="Xinjiang_Kashgar.svg"
   inkscape:output_extension="org.inkscape.output.svg.inkscape"
   xmlns:inkscape="http://www.inkscape.org/namespaces/inkscape"
   xmlns:sodipodi="http://sodipodi.sourceforge.net/DTD/sodipodi-0.dtd"
   xmlns:xlink="http://www.w3.org/1999/xlink"
   xmlns="http://www.w3.org/2000/svg"
   xmlns:svg="http://www.w3.org/2000/svg"
   xmlns:rdf="http://www.w3.org/1999/02/22-rdf-syntax-ns#"
   xmlns:cc="http://creativecommons.org/ns#"
   xmlns:dc="http://purl.org/dc/elements/1.1/">
  <defs
     id="defs4">
    <inkscape:perspective
       sodipodi:type="inkscape:persp3d"
       inkscape:vp_x="0 : 393.52624 : 1"
       inkscape:vp_y="0 : 1000 : 0"
       inkscape:vp_z="1000 : 393.52624 : 1"
       inkscape:persp3d-origin="500 : 251.85957 : 1"
       id="perspective5866" />
    <style
       type="text/css"
       id="style3210" />
    <style
       type="text/css"
       id="style6" />
    <style
       id="style2668"
       type="text/css" />
    <style
       id="style2666"
       type="text/css" />
    <path
       id="s"
       d="M 0,-1 0.587785,0.809017 -0.951057,-0.309017 H 0.951057 L -0.587785,0.809017 Z"
       fill="#ffff00" />
    <clipPath
       clipPathUnits="userSpaceOnUse"
       id="clipPath8869">
      <path
         id="path8871"
         style="opacity:0.5;fill:#ffffd0;fill-opacity:1;fill-rule:evenodd;stroke:none;stroke-width:0.5;stroke-linecap:butt;stroke-linejoin:miter;stroke-miterlimit:4;stroke-dasharray:none;stroke-opacity:1"
         d="m 25.234102,-7.1623053 -0.237696,0.1065104 -0.371744,0.09043 -0.381315,0.2125 -0.192318,0.058594 -0.177214,0.3208985 -0.08867,0.070378 -0.01165,0.1679687 0.09694,-0.013216 0.194206,0.015951 0.02891,0.1263672 0.06152,0.098438 -0.01178,0.258789 -0.188282,0.2238282 -0.135742,0.4934895 -0.06107,0.2607422 -0.09264,0.2760417 0.103776,0.163737 -0.08822,0.180729 -0.197135,0.04707 -0.214323,0.2526694 -0.167123,0.121289 -0.279622,-0.014974 -0.29043,-0.1138023 -0.229297,0.724935 0.03177,0.1147786 -0.06875,0.095508 -0.03014,0.304297 -0.126563,0.1113933 0.0998,0.2127604 0.148828,0.1077473 0.10918,-0.121354 0.405859,-0.08431 0.217513,0.1007813 0.135677,-0.251172 0.34375,-0.06263 0.202605,0.1238283 0.147395,0.019466 0.09375,0.14056 0.303516,0.1808594 0.166276,0.3210936 -0.108398,0.126758 -0.1903,0.044922 -0.242838,-0.060351 -0.09915,0.052018 -0.1528,-0.027213 -0.291666,0.2326824 -0.139714,-0.028516 -0.05039,0.1448567 -0.238737,0.031576 -0.17487,0.1758464 -0.09115,0.22076797 8.47e-4,0.14290366 -0.269792,0.28444034 -0.507617,0.0704427 -0.0944,0.17968734 -0.37806,0.368685 -0.523177,-0.023633 -0.119662,-0.098763 -0.307812,-0.00957 -0.199479,0.54628934 0.35013,0.42044265 -0.116211,0.093099 -0.09915,0.1093097 -0.25,0.1385417 -0.360807,0.485026 -0.485742,0.2556643 -0.654037,0.056445 -0.210416,0.053515 -0.268099,-0.036263 -0.102865,0.088932 -0.294726,0.0778 L 17.352657,2.6348953 16.878373,2.936132 16.725118,2.8883457 16.619128,2.742382 16.403764,2.799088 15.814962,2.6419263 15.36698,2.5305333 15.180782,2.305989 14.247449,2.1552077 13.742696,2.2415357 13.189506,2.1417963 12.717761,2.1037103 12.249727,1.9875643 11.990613,1.6414057 11.811446,1.0421217 11.70461,0.97187433 11.706173,0.83020767 11.457541,0.76555933 11.017762,0.45260367 10.756434,0.20520767 9.8429572,0.073502 9.6018112,-0.05612033 9.4203662,-0.092644 9.3318895,-0.19134167 9.3560432,-0.429037 9.5610562,-0.71132867 9.5169805,-0.929688 l 0.086979,-0.1095053 0.016081,-0.1752604 -0.189323,-0.3621093 -0.051888,-0.302474 -0.1703123,-0.2527343 -0.09349,0.020833 -0.1796223,-0.1889977 -0.096029,0.029948 -0.1384116,-3.333e-4 -0.068359,-0.09375 -0.1102863,-0.243099 -0.236914,-0.1591147 0.00319,-0.091992 -0.1092447,-0.18763 0.054752,-0.08457 -0.0084,-0.136914 -0.153841,0.036914 -0.1589843,-0.068294 -0.1914063,0.031836 -0.023307,0.153255 -0.076563,0.179362 -0.247591,0.1082034 -0.2365234,-0.039714 -0.1895833,0.4369793 0.026562,0.3441404 -0.051823,0.1782553 -0.2159503,0.040755 -0.2052733,0.1003254 -0.081706,-0.094596 -0.1447917,-0.077864 -0.1940753,-0.010547 -0.4457034,-0.2527997 -0.066406,0.1671227 -0.3583333,0.6110023 -0.1759117,0.366146 0.142448,0.14056003 -0.09681,0.19244767 -0.1190103,-0.0815103 -0.1914713,0.002993 -0.133138,-0.17076833 -0.3635417,0.0653647 -0.4866537,6.667e-5 -0.120052,0.0998047 0.2673177,0.159375 -0.068164,0.10826833 -0.085482,0.338216 0.090495,0.443099 -0.0375,0.13665367 L 3.8533089,0.527335 3.6649625,0.58085067 3.6548712,0.715942 3.4647019,0.79074667 3.4525925,0.952921 3.3789599,1.287817 3.2342332,1.240356 3.1106655,1.3171137 2.8130742,1.366723 2.3413947,1.5050043 2.0792203,1.7325433 1.7258349,1.6946527 1.4162646,1.5777257 1.1688688,1.8514237 0.99204587,1.986059 0.84478023,1.9313717 0.67121253,1.946606 0.5972542,1.6951737 0.40877763,1.7662673 0.1847542,1.68352 0.1734261,1.76451 -0.12755047,1.862296 -0.31303224,1.831372 l -0.1328125,0.1142576 -0.038151,0.260612 -0.1621745,0.030859 -0.061849,0.139323 0.0617839,0.2080076 -0.0971354,0.05013 0.0442057,0.303841 0.17083334,-0.085872 0.33886716,0.2163414 -0.0826823,0.2121093 0.0266276,0.1509763 -0.0268229,0.351758 0.002995,0.17181 -0.38007813,0.00404 -0.005729,0.1078123 0.19791667,0.1315107 0.23535156,0.057357 0.0584635,0.1808594 0.17102863,0.068099 0.04694013,0.2897136 -0.0623698,0.1854817 0.09772134,0.2185547 0.1511719,0.030664 0.2108073,0.2406903 0.4755208,0.2230467 0.0301432,-0.00104 8.4633e-4,0.00176 0.0261719,-0.00267 0.0552083,-0.00182 0.023698,0.045313 -0.039518,0.06875 -0.01888,0.058919 0.037825,0.1410156 0.00423,0.052604 -0.00632,0.073633 0.023177,0.052604 0.0084,0.086263 -0.0084,0.048437 0.033659,0.075781 0.067318,0.029427 0.1115234,0.048438 0.048438,0.061003 0.023112,0.046289 0.063151,0.037891 0.02526,0.044206 -0.014714,0.079948 -0.039974,0.035807 -0.1326172,0.021029 -0.014714,0.069466 0.00423,0.069401 0.0084,0.073698 -0.010547,0.056836 -0.033659,0.122005 0.023763,0.093425 -0.00247,0.011979 0.00794,0.00957 0.00234,0.00924 0.016862,0.016797 5.21e-4,-0.00221 0.1626302,0.196094 -8.463e-4,0.00801 -0.055925,-0.024349 -0.017904,0.048438 -0.026302,0.032617 -0.00951,0.029427 0.016862,0.028451 0.027344,0.011523 0.018945,0.064193 -0.017904,0.043164 -0.02207,0.013672 0.015755,0.032617 0.00104,0.029492 -0.02207,0.050456 0.0084,0.029492 -0.029427,0.035742 -0.00736,0.047396 0.039974,-0.00631 0.034375,-0.01862 -0.00189,0.018359 -0.3067708,0.060026 -0.054036,-0.1734376 -0.17024745,-0.031901 -0.0319661,0.202995 0.0986979,0.2604166 -0.008464,0.023893 -0.0116537,-0.030078 -0.0677734,-0.084701 -0.0336588,-0.088411 -0.0421224,0.01263 0.00319,0.056836 0.0263021,-0.00736 0.0410156,0.069466 0.0452474,0.075716 0.0126302,0.064193 0.004818,-0.00612 -0.0132161,0.037435 0.0102214,0.1337893 -0.0401042,0.1279947 -0.002474,0.08444 0.0621094,0.061328 -0.0128906,0.00417 0.0304687,0.062044 0.002148,0.060026 0.0178385,0.036784 0.0989583,0.041081 h 0.043099 l 0.029036,0.00176 0.1261067,0.124414 0.2136719,0.05612 0.1068359,0.1645833 -0.026042,-0.029427 -0.00632,0.048438 -0.00319,0.03151 0.0347,0.013737 0.029492,0.038932 0.026953,-0.017513 0.014779,0.022721 0.2347005,0.2192056 0.1697916,0.188802 0.07155,0.1481119 0.3468096,-0.2337239 0.039844,0.1235027 0.1537106,0.1078122 0.3075523,0.215886 0.1366537,0.194661 0.2505206,0.197787 0.060547,0.270052 0.1615884,0.151693 0.1381513,-0.17767 0.1210937,0.06947 -0.035612,0.304883 0.4149086,0.266667 0.1826824,-0.01764 -0.017773,0.107682 0.034245,0.155599 0.1873699,0.0401 0.2186847,0.144727 0.058073,0.170182 0.096615,-0.10013 0.1040365,0.11582 0.089518,0.04102 0.1571613,-0.09766 0.3390627,0.280534 0.190625,-0.03073 0.1026693,0.07415 0.6249346,-0.139844 0.1485027,0.08216 0.00404,0.119335 -0.094857,0.208073 0.035938,0.120118 0.060091,-0.007 0.1979167,-0.210547 0.2366536,-0.198828 0.3365887,-0.154557 0.193815,0.06608 0.2055991,0.205143 0.3845053,0.0502 0.245703,0.172201 -0.058789,0.126107 0.032747,0.09375 0.063997,0.06699 0.151758,0.0074 0.050586,0.05358 -0.00742,0.0655 -0.061003,0.07734 0.0015,0.07142 0.038672,0.02975 0.020833,0.07591 -0.00592,0.02825 0.1279296,0.0045 0.1294924,-0.02383 0.099674,-0.03275 0.09082,0.06849 0.113086,0.0044 0.1160807,0.02532 0.1130859,-0.01491 0.05651,0.01042 0.032748,-0.0089 0.1399087,-0.02676 0.078841,-0.01934 0.025325,-0.111654 0.1026694,-0.09518 0.090755,-0.05508 0.09525,-0.102669 0.133919,-0.02533 0.227669,-0.04609 0.09974,-0.0625 0.08333,-0.02083 0.06992,-0.04167 0.06992,-0.02682 0.04167,-0.116081 0.38099,-0.117513 0.02083,0.04609 0.05508,0.03574 0.09225,-0.0015 0.05801,-0.02383 0.04316,0.07142 0.04759,0.0075 0.01491,-0.01641 0.117578,0.09525 0.130925,0.108659 0.09375,0.03568 0.04616,0.05208 0.0044,0.04466 0.227669,-0.147331 0.0194,-0.0625 -0.02083,-0.08333 0.02083,-0.0655 -0.02155,-0.0016 0.11543,-0.132422 0.12207,-0.04232 0.08854,0.107292 0.131706,0.05775 0.06947,0.240039 0.142513,0.315039 0.06719,-0.0832 0.151042,0.09427 -0.02682,0.256966 0.02754,0.113346 -0.01549,0.510808 -0.100195,0.209244 0.0347,0.164128 -0.107227,0.04655 -0.11263,0.156119 -0.103125,0.0042 -0.05391,0.153711 -0.207162,0.0821 -0.05788,0.192774 0.02051,0.07949 -0.109049,0.03672 -0.05059,0.08496 0.02148,0.166666 0.05527,0.06107 0.02559,0.142643 -0.08926,0.146875 0.02012,0.08353 0.175326,-0.06068 0.09792,-0.100391 0.308724,-0.0209 0.07988,0.05013 0.171419,-0.01784 -0.119791,0.16914 0.08795,0.132357 0.05645,0.363151 0.119466,0.104753 0.264453,0.0025 0.0278,0.09538 -0.123763,0.185547 0.02546,0.143359 -0.104036,0.137566 -0.03268,0.138216 0.119792,0.05195 0.06673,-0.01263 0.346875,0.08164 -0.02161,0.170508 0.09779,0.1028 0.0972,0.195182 0.08516,-0.0862 0.156706,0.06569 0.165104,-0.136133 0.178451,-0.06263 0.155404,0.399219 0.158723,-0.02982 0.151498,0.03691 0.03131,-0.345312 -0.15625,-0.421745 0.102279,-0.193294 0.08744,0.03932 0.233007,-0.01159 0.128386,-0.09616 0.09909,-0.146159 0.21875,0.108659 0.0778,0.09824 0.0681,0.0051 0.229883,-0.245572 0.110677,0.15677 0.08659,-0.152799 0.210677,0.20931 0.05833,-0.139584 0.10625,-0.104817 0.08971,0.08281 0.111458,-0.05365 0.235417,-0.09069 0.0078,-0.14082 0.319401,-0.215495 0.172396,0.165821 0.249674,0.134635 0.159766,-0.05254 0.107356,0.10306 0.131901,-0.05547 0.191146,0.07155 0.0049,0.102408 -0.122656,0.09701 -0.01074,0.11263 0.05423,0.0528 0.06003,0.234961 0.201693,0.05046 0.10638,0.12513 0.248568,0.101237 0.224544,-0.06289 0.121224,0.07943 0.111263,-0.04362 0.0179,0.01608 h 0.06732 l 0.03372,-0.07578 0.09258,-0.02526 v -0.159896 l 0.09258,-0.02526 0.02526,0.100976 0.08418,0.10944 0.05052,-0.05052 0.09258,0.05052 0.09258,0.02526 0.03372,0.1347 0.05892,-0.04212 0.202019,-0.04206 -0.03366,-0.143099 0.04206,-0.0084 0.101042,0.126237 0.193619,0.01686 -0.04212,0.07572 -0.09258,0.143099 -0.03366,0.269401 0.09258,0.02526 0.01686,0.193619 0.143099,0.07578 -0.04212,0.03366 0.02526,0.08418 0.252539,-0.0085 0.117839,-0.117839 0.0085,-0.05052 -0.117903,-0.117838 -0.0252,-0.117839 -0.09264,-0.03366 -0.03366,-0.10944 0.07578,-0.07578 0.117839,-0.08418 0.08418,-0.0084 0.117839,-0.159961 0.134701,-0.0084 0.05892,-0.07578 0.185221,-0.0084 0.05892,-0.05052 h 0.10944 l 0.109375,-0.07578 v -0.07572 l 0.101042,-0.03366 0.07578,-0.04212 h 0.10944 0.134636 l 0.02526,-0.07578 0.126302,0.03372 0.143099,-0.101042 h 0.134701 l -0.01354,-0.197005 0.03184,-0.07083 0.113021,0.145117 0.117904,-0.151823 -0.0429,-0.106575 0.09336,0.08971 0.05013,-0.0096 0.03236,-0.061 -0.0083,-0.06068 -0.0474,-0.122851 -0.01152,-0.116276 -0.02878,-0.04531 0.02526,-0.06738 0.06732,0.06738 0.07396,-0.0068 0.03281,0.08001 0.07871,0.07357 0.09264,-0.0054 -0.03398,0.119597 0.08418,-0.0084 0.05586,0.01478 0.0942,0.01699 -0.01894,-0.06042 0.06777,-0.04193 -0.106184,-0.08978 0.112825,-0.04518 0.09668,0.04544 0.0092,-0.126107 0.117838,-0.05892 0.01686,0.126237 0.10944,-0.0084 0.05046,-0.08418 0.117904,-0.10944 0.100976,-0.0084 0.04212,0.0252 0.0084,0.07578 h 0.09258 l 0.02526,-0.143099 0.03366,-0.04206 0.134701,0.07572 0.126302,-0.09258 0.07572,-0.01686 0.101042,-0.07572 0.159961,-0.02526 0.0168,-0.176823 0.1347,-0.05892 -0.05052,-0.08418 -0.06732,-0.02526 0.193619,-0.0168 0.126237,-0.05892 -0.06732,-0.05892 0.05892,-0.08418 0.117838,0.0084 0.02526,-0.117838 0.09258,0.0168 -0.03366,-0.151497 0.126302,0.03366 v -0.143099 h 0.09258 l 0.06732,-0.10944 0.06738,-0.06732 -0.04212,-0.08418 -0.07572,-0.06738 0.134636,-0.0252 0.05892,-0.08418 0.101042,-0.05052 h 0.143099 l 0.04212,-0.05892 0.03366,-0.07578 -0.06738,-0.04212 -0.0252,-0.06732 0.176758,-0.0084 0.03366,-0.05892 -0.05052,-0.09264 0.06738,-0.05892 0.06732,-0.05892 0.07578,-0.02526 -0.07578,-0.09258 0.01686,-0.09258 0.05892,-0.06738 0.09258,0.05892 0.07578,0.01686 0.0168,-0.05892 -0.07572,-0.10944 0.07572,-0.117838 -0.04206,-0.07578 0.0168,-0.07578 -0.05046,-0.08418 0.04206,-0.134635 0.05892,-0.07578 -0.03366,-0.05892 -0.126237,-0.10944 0.0252,-0.09258 0.109441,0.0168 0.03366,0.04212 0.02526,-0.1347 0.10944,-0.07578 0.05052,-0.04206 0.0084,-0.117838 0.06738,-0.06738 -0.05892,-0.04206 h 0.08418 l 0.09258,-0.126302 -0.0084,-0.126237 0.0084,-0.07578 0.05892,-0.168359 0.05052,-0.117839 0.05892,-0.04212 0.01686,-0.202018 0.100977,-0.04206 0.02526,0.168359 0.09258,-0.126302 0.10944,-0.07578 -0.06732,-0.143099 -0.05892,-0.100977 0.09258,-0.08418 v -0.117838 l 0.09258,-0.126302 -0.03366,-0.101042 0.05892,-0.05046 -0.03366,-0.126302 -0.01686,-0.202018 -0.05892,0.143099 -0.09258,0.0084 0.117838,-0.159895 0.143099,-0.10944 0.117904,-0.05892 -0.01686,-0.08418 -0.185222,-0.07578 -0.07572,0.02526 -0.05052,0.117838 -0.08418,0.03366 -0.10944,-0.07572 -0.151498,-0.117904 -0.126302,0.01686 -0.159961,0.143099 -0.08418,0.03366 -0.151498,-0.02526 -0.1347,-0.03366 -0.02526,-0.04206 0.10944,-0.05892 0.176758,-0.01686 0.101042,-0.03366 0.0084,-0.101041 0.210482,-0.1683599 0.151497,-0.10944 0.109441,-0.1346353 0.02526,-0.1347007 -0.117839,-0.1010416 -0.176757,-0.067318 -0.134701,-0.075781 -0.06738,-0.075781 -0.134635,-0.02526 -0.159961,-0.025195 -0.01686,-0.092643 -0.126237,-0.025261 -0.134701,0.067383 -0.05052,0.016797 0.05892,-0.092578 0.10944,-0.050521 0.159961,0.016862 0.05892,0.08418 0.09258,0.033659 h 0.159961 l 0.117839,0.016862 0.117838,0.067318 0.151563,0.02526 0.07572,-0.016862 0.02526,-0.050456 -0.09258,-0.126302 -0.176758,-0.159961 -0.159961,-0.042057 -0.05892,-0.1683593 -0.151497,-0.058919 -0.16836,-0.042122 -0.05892,-0.042057 0.0252,-0.10944 -0.04206,-0.10944 -0.202018,-0.2945963 -0.126302,-0.210482 -0.159896,-0.3030597 -0.08418,-0.08418 -0.21888,-0.067318 -0.19362,-0.058919 -0.07578,-0.08418 -0.185156,-0.033659 -0.01686,-0.1515624 0.08418,-0.08418 0.01686,-0.1430986 0.05045,-0.075781 0.06738,-0.1683593 0.10944,-0.033659 0.02526,-0.08418 0.05045,-0.1347003 0.08418,-0.075716 -0.09258,-0.1010417 0.05052,-0.050521 0.08418,0.042122 0.109441,0.016797 0.09258,-0.092578 -0.0084,-0.2020183 0.05052,-0.092578 0.07572,-0.016862 0.151563,-0.126237 0.10944,-0.075781 0.143099,-0.10944 0.08418,-0.10944 0.09258,0.016862 0.04206,-0.042123 0.09264,0.08418 0.10944,-0.08418 -0.04212,-0.10944 0.03366,-0.08418 -0.0084,-0.1514973 -0.10944,-0.042122 -0.09258,0.050521 -0.10944,-0.050521 -0.168359,0.067383 -0.134701,0.067318 -0.07578,-0.033659 -0.05892,-0.067318 -0.07572,0.016797 -0.143099,-0.092578 -0.10944,-0.050521 -0.1347,0.050521 -0.143099,0.10944 -0.02526,0.1347007 -0.151562,0.1346353 -0.0252,0.143099 L 25.518672,5.421607 25.28293,5.3963467 25.106172,5.3289637 25.080912,5.009107 24.971472,4.8912683 24.811576,4.849146 24.710534,4.77343 l -0.09258,0.033659 -0.10944,0.067318 -0.101041,-0.08418 -0.134701,-0.10944 -0.09258,-0.176758 -0.01686,-0.21888 0.05898,-0.143099 0.134636,-0.092578 0.07578,-0.016862 0.117838,0.058919 0.08418,-0.042057 0.05052,-0.058919 h 0.117839 l 0.05052,-0.033659 0.04212,0.016797 0.0252,-0.1683593 0.04212,-0.1514973 0.09258,-0.1515627 0.08418,-0.050456 V 3.376034 l 0.176757,-0.10944 0.202084,-0.1514973 0.100976,-0.067383 0.0085,-0.1683594 0.126237,-0.1767576 0.05052,-0.050521 0.0168,-0.10944 0.10944,-0.067318 0.168359,-0.0084 0.117904,-0.067383 0.100976,0.02526 0.16836,0.1683593 0.09258,0.067318 -0.05892,0.1347007 -0.05892,0.1347003 -0.04206,0.126237 -0.134701,0.1010417 -0.05892,0.067318 -0.0084,0.1683593 -0.07578,0.042122 0.117839,0.067318 0.06732,0.058919 0.117903,-0.033659 -0.05052,0.143099 -0.01686,0.08418 -0.09258,0.050521 -0.03366,0.067383 -0.07578,0.0084 -0.03366,0.126237 0.05052,0.058919 0.134636,-0.109375 0.117903,-0.1347003 0.134636,-0.092643 0.07578,-0.08418 0.05892,-0.1346353 0.252539,-0.2272787 0.176563,-0.1452477 0.08405,-0.00833 0.03763,-0.082096 0.15358,-0.027278 0.0694,-0.069466 0.180795,-0.016667 0.116015,-0.069336 0.04512,-0.2167316 0.30931,-0.3884114 0.361133,-0.306836 0.23763,-0.401237 0.01777,-0.261133 0.186914,-0.1305986 0.226823,0.1579426 0.484961,-0.064909 0.01354,-0.129297 -0.177343,-0.19609363 0.0306,-0.10957034 0.253971,-0.064974 0.239193,-0.158203 0.03659,-0.21764333 0.18086,-0.0477863 0.01654,-0.43984367 0.15599,-0.0246093 0.110221,0.16985666 0.157292,0.027604 -0.06667,-0.076367 0.06068,-0.10195333 0.161263,-0.11614567 0.0793,-0.401237 -0.08516,-0.091862 -0.05462,-0.37760399 -0.316732,-0.5479166 0.172527,-0.082357 0.170117,-0.3521484 0.131575,0.049674 0.51224,-0.041341 -0.02578,-0.316211 0.09492,-0.113867 0.0265,-0.4177084 0.06068,-0.141732 -0.0597,-0.1966143 0.01595,-0.1326173 -0.0194,-0.343099 -0.02975,-0.119987 0.04772,-0.1134767 0.08776,-0.072917 0.04492,-0.1955076 -0.153776,-0.170573 -0.0027,-0.2188151 -0.15918,-0.069076 -0.257292,0.1900391 -0.132942,0.1827475 -0.130013,0.024154 -0.141016,0.1076824 -0.108333,0.261979 -0.331055,0.1502603 -0.231055,0.01888 -0.155468,0.080729 -0.280144,-0.2255206 0.04128,-0.1708984 -0.18789,-0.193034 -0.0444,-0.2068359 -0.174154,0.060221 -0.477604,-0.2854818 -0.150586,0.073112 -0.279687,-0.1272136 -0.177605,0.1145834 -0.227474,0.0125 -0.204492,-0.2020834 -0.0332,-0.2208984 -0.120377,-0.049935 -0.04342,-0.2395182 -0.302214,-0.3126953 -0.01276,-0.1445964 -0.307617,-0.3826172 -0.05762,-0.2038411 -0.137305,-0.1931641 -0.157747,-0.1233724 -0.07493,-0.1328776 -0.441341,-0.2193359 -0.186068,0.082878 z M 26.98,3.4969393 l -0.07142,0.00599 -0.0059,0.041667 h 0.05951 z m 0.267774,5.5953777 -0.05801,0.037305 0.118294,0.081901 0.130274,0.029492 0.132031,0.017708 -0.01654,-0.052344 -0.201497,-0.051302 z m 0.221354,0.2153647 0.123958,0.044401 0.0021,-0.022331 z m -18.8132165,3.4876953 0.024609,0.0068 -0.0056,-1.34e-4 z m 18.4014975,0.05872 -0.02383,0.08333 0.04167,0.0595 0.03574,-0.07142 z m -0.04766,0.857161 -0.01191,0.07734 0.05358,0.0655 0.05358,-0.0595 -0.03568,-0.07142 z m -3.503841,2.982292 -0.104753,0.07682 0.113997,-0.01875 z m 0.10612,0.02077 0.04297,0.03535 0.03262,-0.02747 z m -0.375977,0.110157 -0.05951,0.04759 0.05358,0.02975 z m -0.130469,0.115104 -0.02871,0.04043 0.03535,0.0085 z m -0.380534,0.277669 -0.04466,0.03385 v 0.05059 l 0.04128,0.01693 z m -0.138932,0.04805 -0.0362,0.06589 0.03789,-0.0035 0.02949,-0.03542 z m -0.457096,0.09115 -0.04629,0.05469 -0.0042,0.03366 0.05052,-0.02526 z m 3.375586,0.290364 -0.02103,0.02949 h 0.05046 l 0.01686,-0.02526 z m -4.310287,0.219206 -0.0655,0.0059 -0.05358,0.03574 0.01784,0.02975 0.08333,-0.0059 z m 0.291667,0.696419 -0.160742,0.07142 -0.142839,0.04167 -0.220247,0.02975 -0.02975,0.05358 -0.107161,0.02383 -0.172592,-0.02975 -0.04167,0.0059 -0.05957,0.02975 v 0.05957 l -0.04759,0.02376 -0.130989,-0.0059 -0.07142,0.04759 v 0.07148 l 0.08333,0.0059 -0.04759,0.07741 -0.08932,0.02376 -0.255925,0.178581 -0.04167,0.08932 0.02383,0.08333 -0.02975,0.07734 0.02975,0.160742 0.04167,0.101172 0.02376,0.142838 0.178581,0.07741 0.142904,0.06549 0.202344,-0.01191 0.07142,0.06543 0.148828,-0.02376 v -0.119075 l 0.119075,-0.02975 0.107097,-0.0059 0.006,-0.06549 0.119011,-0.148828 h 0.07142 l 0.07741,-0.03568 0.02383,-0.154818 0.02975,-0.208333 0.08926,-0.19043 0.08932,-0.125 0.08333,-0.07142 -0.0179,-0.113151 -0.04759,-0.130925 v -0.119075 z" />
    </clipPath>
  </defs>
  <sodipodi:namedview
     id="base"
     pagecolor="#ffffff"
     bordercolor="#666666"
     borderopacity="1.0"
     gridtolerance="10000"
     guidetolerance="10"
     objecttolerance="10"
     inkscape:pageopacity="0.0"
     inkscape:pageshadow="2"
     inkscape:zoom="0.35355339"
     inkscape:cx="391.73715"
     inkscape:cy="504.87424"
     inkscape:document-units="px"
     inkscape:current-layer="svg2"
     borderlayer="false"
     width="1000px"
     height="850px"
     inkscape:window-width="1366"
     inkscape:window-height="697"
     inkscape:window-x="-8"
     inkscape:window-y="-8"
     showgrid="false"
     inkscape:pagecheckerboard="0"
     inkscape:window-maximized="1" />
  <metadata
     id="metadata7">
    <rdf:RDF>
      <cc:Work
         rdf:about="">
        <dc:format>image/svg+xml</dc:format>
        <dc:type
           rdf:resource="http://purl.org/dc/dcmitype/StillImage" />
      </cc:Work>
    </rdf:RDF>
  </metadata>
  <g
     id="g8733"
     transform="matrix(30,0,0,30,22.301122,214.86916)"
     style="opacity:1"
     clip-path="url(#clipPath8869)">
    <rect
       width="41.502266"
       height="38.667622"
       fill="#ee1c25"
       id="rect8710"
       x="-5.0911689"
       y="-11.879394"
       style="stroke-width:1" />
    <use
       xlink:href="#s"
       transform="matrix(3,0,0,3,5,5)"
       id="use8712"
       x="0"
       y="0"
       width="100%"
       height="100%" />
    <use
       xlink:href="#s"
       transform="rotate(23.036243,0.09278783,25.536061)"
       id="use8714"
       x="0"
       y="0"
       width="100%"
       height="100%" />
    <use
       xlink:href="#s"
       transform="rotate(45.869898,1.2733821,16.179854)"
       id="use8716"
       x="0"
       y="0"
       width="100%"
       height="100%" />
    <use
       xlink:href="#s"
       transform="rotate(69.945396,0.99640912,12.077584)"
       id="use8718"
       x="0"
       y="0"
       width="100%"
       height="100%" />
    <use
       xlink:href="#s"
       transform="rotate(20.659808,-19.688647,31.93183)"
       id="use8720"
       x="0"
       y="0"
       width="100%"
       height="100%" />
  </g>
</svg>
