<?xml version="1.0" encoding="UTF-8"?>
<!DOCTYPE svg PUBLIC "-//W3C//DTD SVG 1.1//EN" "http://www.w3.org/Graphics/SVG/1.1/DTD/svg11.dtd">
<svg xmlns="http://www.w3.org/2000/svg" version="1.1" width="512px" height="512px" style="shape-rendering:geometricPrecision; text-rendering:geometricPrecision; image-rendering:optimizeQuality; fill-rule:evenodd; clip-rule:evenodd" xmlns:xlink="http://www.w3.org/1999/xlink">
<g><path style="opacity:0.998" fill="#4a6ea9" d="M 232.5,-0.5 C 247.833,-0.5 263.167,-0.5 278.5,-0.5C 368.144,10.3879 435.644,54.7213 481,132.5C 497.695,163.971 507.861,197.304 511.5,232.5C 511.5,247.833 511.5,263.167 511.5,278.5C 500.612,368.144 456.279,435.644 378.5,481C 347.029,497.695 313.696,507.861 278.5,511.5C 263.167,511.5 247.833,511.5 232.5,511.5C 142.856,500.612 75.3562,456.279 30,378.5C 13.3053,347.029 3.1386,313.696 -0.5,278.5C -0.5,263.167 -0.5,247.833 -0.5,232.5C 10.3875,142.857 54.7208,75.3573 132.5,30C 163.971,13.3053 197.304,3.1386 232.5,-0.5 Z"/></g>
<g><path style="opacity:1" fill="#fefefe" d="M 223.5,384.5 C 223.5,347.167 223.5,309.833 223.5,272.5C 211.5,272.5 199.5,272.5 187.5,272.5C 185.248,272.084 183.748,270.751 183,268.5C 182.03,252.075 182.364,235.741 184,219.5C 184.75,218.874 185.584,218.374 186.5,218C 198.829,217.5 211.162,217.333 223.5,217.5C 223.333,202.83 223.5,188.163 224,173.5C 230.468,142.684 249.301,125.184 280.5,121C 295.167,120.333 309.833,120.333 324.5,121C 325.416,121.374 326.25,121.874 327,122.5C 328.634,137.741 328.968,153.074 328,168.5C 327.535,169.931 326.701,171.097 325.5,172C 314.167,172.333 302.833,172.667 291.5,173C 285.765,173.772 282.265,176.938 281,182.5C 280.5,194.162 280.333,205.829 280.5,217.5C 295.215,217.183 309.882,217.517 324.5,218.5C 325.192,219.025 325.692,219.692 326,220.5C 326.667,236.833 326.667,253.167 326,269.5C 325.692,270.308 325.192,270.975 324.5,271.5C 309.882,272.483 295.215,272.817 280.5,272.5C 280.982,310.895 280.482,349.228 279,387.5C 278.5,388 278,388.5 277.5,389C 260.167,389.667 242.833,389.667 225.5,389C 224.418,387.67 223.751,386.17 223.5,384.5 Z"/></g>
<g><path style="opacity:1" fill="#7591be" d="M 187.5,272.5 C 199.5,272.5 211.5,272.5 223.5,272.5C 223.5,309.833 223.5,347.167 223.5,384.5C 222.502,347.67 222.168,310.67 222.5,273.5C 210.655,273.828 198.988,273.495 187.5,272.5 Z"/></g>
</svg>
