<?xml version="1.0" encoding="UTF-8"?>
<!DOCTYPE svg PUBLIC "-//W3C//DTD SVG 1.1//EN" "http://www.w3.org/Graphics/SVG/1.1/DTD/svg11.dtd">
<svg xmlns="http://www.w3.org/2000/svg" version="1.1" width="360px" height="186px" style="shape-rendering:geometricPrecision; text-rendering:geometricPrecision; image-rendering:optimizeQuality; fill-rule:evenodd; clip-rule:evenodd" xmlns:xlink="http://www.w3.org/1999/xlink">
<g><path style="opacity:0.718" fill="#be6876" d="M 13.5,-0.5 C 15.8333,-0.5 18.1667,-0.5 20.5,-0.5C 22.9647,1.83674 25.9647,3.33674 29.5,4C 34.6365,4.53702 39.6365,4.20368 44.5,3C 48.0084,4.01167 50.3418,6.17833 51.5,9.5C 49.0676,8.24983 46.7343,6.74983 44.5,5C 41.0432,4.55575 37.7099,5.05575 34.5,6.5C 28.2045,5.26639 22.0378,3.59973 16,1.5C 14.8333,1.83333 13.6667,2.16667 12.5,2.5C 10.0426,5.91399 7.70929,9.41399 5.5,13C 9.43674,14.6441 13.2701,16.4774 17,18.5C 18.6538,23.1389 19.9871,27.8056 21,32.5C 22.4659,30.6751 24.2992,30.1751 26.5,31C 32.757,36.4033 40.0903,38.7367 48.5,38C 57.1048,42.0226 61.6048,48.8559 62,58.5C 72.3842,59.0726 79.5509,64.0726 83.5,73.5C 83.5,73.8333 83.5,74.1667 83.5,74.5C 82.5139,78.97 82.1805,83.6367 82.5,88.5C 81.6728,83.0149 81.1728,77.3482 81,71.5C 80.1166,68.8976 78.6166,66.7309 76.5,65C 71.6034,62.2117 66.6034,60.5451 61.5,60C 59.4212,55.7026 57.9212,51.2026 57,46.5C 51.3994,39.9634 44.2327,37.1301 35.5,38C 32.5046,36.5023 29.5046,35.0023 26.5,33.5C 25.1667,30.8333 23.8333,30.8333 22.5,33.5C 21.1779,33.67 20.0113,33.3366 19,32.5C 17.9635,29.2473 17.2969,25.914 17,22.5C 16.2155,20.714 15.0488,19.214 13.5,18C 8.76505,16.2567 4.09839,14.4234 -0.5,12.5C -0.5,11.1667 -0.5,9.83333 -0.5,8.5C 1.30492,9.9094 3.30492,10.4094 5.5,10C 7.67798,6.00659 10.3446,2.50659 13.5,-0.5 Z"/></g>
<g><path style="opacity:1" fill="#c16d78" d="M 51.5,9.5 C 54.0026,11.8327 56.6693,13.9993 59.5,16C 63.0395,16.2819 66.5395,16.7819 70,17.5C 73.6185,16.6049 77.1185,17.1049 80.5,19C 82.8333,22 85.1667,25 87.5,28C 93.4688,29.1029 99.4688,29.9363 105.5,30.5C 98.678,31.94 92.0114,31.2733 85.5,28.5C 83.7195,25.5461 81.7195,22.7128 79.5,20C 71.5454,20.0359 63.8787,18.7026 56.5,16C 54.2101,14.2228 52.5434,12.0562 51.5,9.5 Z"/></g>
<g><path style="opacity:0.698" fill="#bd6775" d="M 122.5,25.5 C 130.863,26.4348 138.363,29.4348 145,34.5C 151.705,32.9062 158.038,33.9062 164,37.5C 164.333,39.5 164.667,41.5 165,43.5C 167.04,45.3702 168.873,47.3702 170.5,49.5C 165.596,47.4299 162.763,43.7632 162,38.5C 161.25,37.8742 160.416,37.3742 159.5,37C 153.915,35.8144 148.249,35.1478 142.5,35C 136.792,29.981 130.126,27.481 122.5,27.5C 122.5,26.8333 122.5,26.1667 122.5,25.5 Z"/></g>
<g><path style="opacity:1" fill="#d44250" d="M 122.5,25.5 C 122.5,26.1667 122.5,26.8333 122.5,27.5C 122.5,29.8333 122.5,32.1667 122.5,34.5C 125.167,34.5 127.833,34.5 130.5,34.5C 131.5,34.5 132.5,34.5 133.5,34.5C 133.5,38.1667 133.5,41.8333 133.5,45.5C 132.209,45.7373 131.209,45.404 130.5,44.5C 132.388,42.0122 133.055,39.0122 132.5,35.5C 128.881,36.2436 125.215,36.577 121.5,36.5C 121.923,34.2188 121.256,32.5521 119.5,31.5C 119.737,30.209 119.404,29.209 118.5,28.5C 117.316,27.3121 117.316,26.1455 118.5,25C 120.066,24.235 121.399,24.4017 122.5,25.5 Z"/></g>
<g><path style="opacity:1" fill="#f8f9f9" d="M 51.5,9.5 C 52.5434,12.0562 54.2101,14.2228 56.5,16C 63.8787,18.7026 71.5454,20.0359 79.5,20C 81.7195,22.7128 83.7195,25.5461 85.5,28.5C 85.5394,29.5832 85.8728,30.5832 86.5,31.5C 90.7828,32.4922 95.1161,32.8256 99.5,32.5C 99.5,37.1667 99.5,41.8333 99.5,46.5C 102.909,46.2493 106.242,46.5827 109.5,47.5C 110.168,50.3056 110.834,52.9723 111.5,55.5C 115.5,55.5 119.5,55.5 123.5,55.5C 123.768,53.901 123.434,52.5676 122.5,51.5C 122.5,50.8333 122.5,50.1667 122.5,49.5C 122.077,47.2188 122.744,45.5521 124.5,44.5C 126.5,44.5 128.5,44.5 130.5,44.5C 131.209,45.404 132.209,45.7373 133.5,45.5C 134.483,41.7016 134.817,37.7016 134.5,33.5C 132.901,33.2322 131.568,33.5655 130.5,34.5C 127.833,34.5 125.167,34.5 122.5,34.5C 122.5,32.1667 122.5,29.8333 122.5,27.5C 130.126,27.481 136.792,29.981 142.5,35C 148.249,35.1478 153.915,35.8144 159.5,37C 160.416,37.3742 161.25,37.8742 162,38.5C 162.763,43.7632 165.596,47.4299 170.5,49.5C 170.973,50.9063 171.973,51.573 173.5,51.5C 173.833,52.5 174.5,53.1667 175.5,53.5C 175.5,60.1667 175.5,66.8333 175.5,73.5C 144.833,73.5 114.167,73.5 83.5,73.5C 79.5509,64.0726 72.3842,59.0726 62,58.5C 61.6048,48.8559 57.1048,42.0226 48.5,38C 40.0903,38.7367 32.757,36.4033 26.5,31C 24.2992,30.1751 22.4659,30.6751 21,32.5C 19.9871,27.8056 18.6538,23.1389 17,18.5C 13.2701,16.4774 9.43674,14.6441 5.5,13C 7.70929,9.41399 10.0426,5.91399 12.5,2.5C 13.6667,2.16667 14.8333,1.83333 16,1.5C 22.0378,3.59973 28.2045,5.26639 34.5,6.5C 37.7099,5.05575 41.0432,4.55575 44.5,5C 46.7343,6.74983 49.0676,8.24983 51.5,9.5 Z"/></g>
<g><path style="opacity:1" fill="#fde6eb" d="M 85.5,28.5 C 92.0114,31.2733 98.678,31.94 105.5,30.5C 110.294,31.0969 114.627,30.4302 118.5,28.5C 119.404,29.209 119.737,30.209 119.5,31.5C 115.818,31.3347 112.152,31.5014 108.5,32C 113.624,33.346 113.291,34.1793 107.5,34.5C 105.44,34.4284 103.44,34.0951 101.5,33.5C 100.167,37.5 100.167,41.5 101.5,45.5C 105.094,44.5741 108.76,44.2408 112.5,44.5C 111.756,48.1185 111.423,51.7852 111.5,55.5C 110.834,52.9723 110.168,50.3056 109.5,47.5C 106.242,46.5827 102.909,46.2493 99.5,46.5C 99.5,41.8333 99.5,37.1667 99.5,32.5C 95.1161,32.8256 90.7828,32.4922 86.5,31.5C 85.8728,30.5832 85.5394,29.5832 85.5,28.5 Z"/></g>
<g><path style="opacity:0.249" fill="#fce6e6" d="M 26.5,33.5 C 25.1667,33.5 23.8333,33.5 22.5,33.5C 23.8333,30.8333 25.1667,30.8333 26.5,33.5 Z"/></g>
<g><path style="opacity:1" fill="#e58991" d="M 130.5,34.5 C 131.568,33.5655 132.901,33.2322 134.5,33.5C 134.817,37.7016 134.483,41.7016 133.5,45.5C 133.5,41.8333 133.5,38.1667 133.5,34.5C 132.5,34.5 131.5,34.5 130.5,34.5 Z"/></g>
<g><path style="opacity:1" fill="#e4112b" d="M 119.5,31.5 C 121.256,32.5521 121.923,34.2188 121.5,36.5C 125.215,36.577 128.881,36.2436 132.5,35.5C 133.055,39.0122 132.388,42.0122 130.5,44.5C 128.5,44.5 126.5,44.5 124.5,44.5C 123.791,43.596 122.791,43.2627 121.5,43.5C 121.205,45.7354 121.539,47.7354 122.5,49.5C 122.5,50.1667 122.5,50.8333 122.5,51.5C 122.5,52.5 122.5,53.5 122.5,54.5C 119.167,54.5 115.833,54.5 112.5,54.5C 112.44,51.979 113.106,49.6457 114.5,47.5C 114.32,46.4461 113.987,45.4461 113.5,44.5C 109.893,43.5108 106.226,43.1774 102.5,43.5C 102.5,41.1667 102.5,38.8333 102.5,36.5C 106.182,36.6653 109.848,36.4986 113.5,36C 114.337,34.9887 114.67,33.8221 114.5,32.5C 116.415,32.7845 118.081,32.4511 119.5,31.5 Z"/></g>
<g><path style="opacity:1" fill="#e36976" d="M 124.5,44.5 C 122.744,45.5521 122.077,47.2188 122.5,49.5C 121.539,47.7354 121.205,45.7354 121.5,43.5C 122.791,43.2627 123.791,43.596 124.5,44.5 Z"/></g>
<g><path style="opacity:1" fill="#c92e3c" d="M 119.5,31.5 C 118.081,32.4511 116.415,32.7845 114.5,32.5C 114.67,33.8221 114.337,34.9887 113.5,36C 109.848,36.4986 106.182,36.6653 102.5,36.5C 102.5,38.8333 102.5,41.1667 102.5,43.5C 106.226,43.1774 109.893,43.5108 113.5,44.5C 113.987,45.4461 114.32,46.4461 114.5,47.5C 113.106,49.6457 112.44,51.979 112.5,54.5C 115.833,54.5 119.167,54.5 122.5,54.5C 122.5,53.5 122.5,52.5 122.5,51.5C 123.434,52.5676 123.768,53.901 123.5,55.5C 119.5,55.5 115.5,55.5 111.5,55.5C 111.423,51.7852 111.756,48.1185 112.5,44.5C 108.76,44.2408 105.094,44.5741 101.5,45.5C 100.167,41.5 100.167,37.5 101.5,33.5C 103.44,34.0951 105.44,34.4284 107.5,34.5C 113.291,34.1793 113.624,33.346 108.5,32C 112.152,31.5014 115.818,31.3347 119.5,31.5 Z"/></g>
<g><path style="opacity:0.682" fill="#ab4d62" d="M 170.5,49.5 C 172.027,49.427 173.027,50.0937 173.5,51.5C 171.973,51.573 170.973,50.9063 170.5,49.5 Z"/></g>
<g><path style="opacity:1" fill="#cd3849" d="M 185.5,56.5 C 191.285,57.5361 196.618,59.5361 201.5,62.5C 195.586,61.7022 190.253,59.7022 185.5,56.5 Z"/></g>
<g><path style="opacity:1" fill="#c16776" d="M 278.5,71.5 C 274.639,67.8171 270.139,65.1504 265,63.5C 264.228,63.6448 263.561,63.9781 263,64.5C 261.925,67.8944 260.758,71.2278 259.5,74.5C 257.766,73.438 256.099,73.438 254.5,74.5C 253.027,71.5531 251.527,68.5531 250,65.5C 245.571,63.1358 241.071,63.3024 236.5,66C 232.403,68.3696 228.736,71.2029 225.5,74.5C 224.5,74.5 223.5,74.5 222.5,74.5C 228.935,68.0822 236.601,63.7489 245.5,61.5C 246.938,61.7189 248.271,62.2189 249.5,63C 251.907,66.3534 254.407,69.5201 257,72.5C 257.772,72.3552 258.439,72.0219 259,71.5C 259.803,68.7558 260.803,66.0891 262,63.5C 262.739,62.4258 263.739,61.7591 265,61.5C 268.373,62.6212 271.539,64.1212 274.5,66C 276.464,67.451 277.797,69.2843 278.5,71.5 Z M 254.5,74.5 C 244.833,74.5 235.167,74.5 225.5,74.5C 228.736,71.2029 232.403,68.3696 236.5,66C 241.071,63.3024 245.571,63.1358 250,65.5C 251.527,68.5531 253.027,71.5531 254.5,74.5 Z"/></g>
<g><path style="opacity:1" fill="#b22f3d" d="M 173.5,51.5 C 176.018,52.2638 178.351,53.2638 180.5,54.5C 179.5,54.5 178.5,54.5 177.5,54.5C 177.823,61.0221 177.49,67.3554 176.5,73.5C 176.824,66.6457 176.491,59.979 175.5,53.5C 174.5,53.1667 173.833,52.5 173.5,51.5 Z"/></g>
<g><path style="opacity:1" fill="#d83642" d="M 201.5,62.5 C 203.645,62.7377 205.312,63.7377 206.5,65.5C 204.411,67.5799 202.744,69.9133 201.5,72.5C 201.787,74.4433 202.787,75.7767 204.5,76.5C 203.178,76.67 202.011,76.3366 201,75.5C 200.132,72.5147 199.799,69.5147 200,66.5C 201.011,67.3366 202.178,67.67 203.5,67.5C 203.169,65.6776 202.502,64.0109 201.5,62.5 Z"/></g>
<g><path style="opacity:1" fill="#ffdbe6" d="M 175.5,53.5 C 176.491,59.979 176.824,66.6457 176.5,73.5C 145.671,74.4982 114.671,74.8315 83.5,74.5C 83.5,74.1667 83.5,73.8333 83.5,73.5C 114.167,73.5 144.833,73.5 175.5,73.5C 175.5,66.8333 175.5,60.1667 175.5,53.5 Z"/></g>
<g><path style="opacity:1" fill="#e70f2a" d="M 185.5,56.5 C 190.253,59.7022 195.586,61.7022 201.5,62.5C 202.502,64.0109 203.169,65.6776 203.5,67.5C 202.178,67.67 201.011,67.3366 200,66.5C 199.799,69.5147 200.132,72.5147 201,75.5C 202.011,76.3366 203.178,76.67 204.5,76.5C 204.833,76.5 205.167,76.5 205.5,76.5C 207.223,77.8001 209.39,78.4668 212,78.5C 217.8,77.4027 223.633,76.4027 229.5,75.5C 245.662,76.3315 261.995,76.8315 278.5,77C 280.813,77.662 283.146,78.162 285.5,78.5C 291.783,80.1426 298.45,81.1426 305.5,81.5C 306.415,82.3279 307.081,83.3279 307.5,84.5C 306.622,87.1298 305.955,89.7965 305.5,92.5C 305.443,93.609 305.11,94.609 304.5,95.5C 300.832,97.356 299.666,100.356 301,104.5C 303.96,105.286 306.794,106.452 309.5,108C 277.833,108.333 246.167,108.667 214.5,109C 213.944,109.383 213.611,109.883 213.5,110.5C 213.833,132.51 213.5,154.51 212.5,176.5C 210.241,176.784 208.574,177.784 207.5,179.5C 206.833,179.5 206.167,179.5 205.5,179.5C 197.646,181.536 189.646,182.536 181.5,182.5C 181.854,179.579 180.854,177.246 178.5,175.5C 179.177,153.186 179.844,130.852 180.5,108.5C 179.783,105.148 178.116,104.648 175.5,107C 175.833,107.333 176.167,107.667 176.5,108C 147.502,108.5 118.502,108.667 89.5,108.5C 86.9632,103.092 85.2965,97.4253 84.5,91.5C 84.5,86.5 84.5,81.5 84.5,76.5C 115.502,76.6666 146.502,76.5 177.5,76C 178.479,69.2555 178.812,62.4222 178.5,55.5C 180.806,55.9926 183.139,56.3259 185.5,56.5 Z"/></g>
<g><path style="opacity:1" fill="#b92d3d" d="M 278.5,71.5 C 280.5,72.8333 282.167,74.5 283.5,76.5C 265.547,75.5266 247.547,75.1932 229.5,75.5C 223.633,76.4027 217.8,77.4027 212,78.5C 209.39,78.4668 207.223,77.8001 205.5,76.5C 211.458,78.1714 217.125,77.5047 222.5,74.5C 223.5,74.5 224.5,74.5 225.5,74.5C 235.167,74.5 244.833,74.5 254.5,74.5C 256.099,73.438 257.766,73.438 259.5,74.5C 266.175,74.6663 272.842,74.4996 279.5,74C 278.748,73.3292 278.414,72.4959 278.5,71.5 Z"/></g>
<g><path style="opacity:1" fill="#cb1f31" d="M 180.5,54.5 C 182.553,54.4021 184.22,55.0687 185.5,56.5C 183.139,56.3259 180.806,55.9926 178.5,55.5C 178.812,62.4222 178.479,69.2555 177.5,76C 146.502,76.5 115.502,76.6666 84.5,76.5C 84.5,81.5 84.5,86.5 84.5,91.5C 83.8333,90.5 83.1667,89.5 82.5,88.5C 82.1805,83.6367 82.5139,78.97 83.5,74.5C 114.671,74.8315 145.671,74.4982 176.5,73.5C 177.49,67.3554 177.823,61.0221 177.5,54.5C 178.5,54.5 179.5,54.5 180.5,54.5 Z"/></g>
<g><path style="opacity:1" fill="#d61830" d="M 229.5,75.5 C 247.547,75.1932 265.547,75.5266 283.5,76.5C 284.5,76.8333 285.167,77.5 285.5,78.5C 283.146,78.162 280.813,77.662 278.5,77C 261.995,76.8315 245.662,76.3315 229.5,75.5 Z"/></g>
<g><path style="opacity:1" fill="#d52d3b" d="M 305.5,92.5 C 305.955,89.7965 306.622,87.1298 307.5,84.5C 307.081,83.3279 306.415,82.3279 305.5,81.5C 298.45,81.1426 291.783,80.1426 285.5,78.5C 289.627,79.847 293.46,79.1803 297,76.5C 300.864,77.846 304.698,79.346 308.5,81C 309.46,85.2964 308.46,89.1297 305.5,92.5 Z"/></g>
<g><path style="opacity:1" fill="#cf4951" d="M 82.5,88.5 C 83.1667,89.5 83.8333,90.5 84.5,91.5C 85.2965,97.4253 86.9632,103.092 89.5,108.5C 89.5,108.833 89.5,109.167 89.5,109.5C 89.1667,109.5 88.8333,109.5 88.5,109.5C 85.288,102.862 83.288,95.862 82.5,88.5 Z"/></g>
<g><path style="opacity:1" fill="#d41a32" d="M 304.5,95.5 C 303.639,97.3863 302.639,99.2196 301.5,101C 305.367,103.433 309.367,105.6 313.5,107.5C 281.013,109.165 248.346,110.165 215.5,110.5C 215.167,110.5 214.833,110.5 214.5,110.5C 214.167,110.5 213.833,110.5 213.5,110.5C 213.611,109.883 213.944,109.383 214.5,109C 246.167,108.667 277.833,108.333 309.5,108C 306.794,106.452 303.96,105.286 301,104.5C 299.666,100.356 300.832,97.356 304.5,95.5 Z"/></g>
<g><path style="opacity:1" fill="#b02a3c" d="M 313.5,107.5 C 315.773,107.957 317.106,109.29 317.5,111.5C 317.5,112.167 317.167,112.5 316.5,112.5C 283.183,110.507 249.517,109.84 215.5,110.5C 248.346,110.165 281.013,109.165 313.5,107.5 Z"/></g>
<g><path style="opacity:1" fill="#d41b30" d="M 181.5,182.5 C 180.607,180.703 179.274,179.37 177.5,178.5C 177.167,177.833 176.833,177.167 176.5,176.5C 176.831,154.327 176.497,132.327 175.5,110.5C 147.005,109.502 118.338,109.169 89.5,109.5C 89.5,109.167 89.5,108.833 89.5,108.5C 118.502,108.667 147.502,108.5 176.5,108C 176.167,107.667 175.833,107.333 175.5,107C 178.116,104.648 179.783,105.148 180.5,108.5C 179.844,130.852 179.177,153.186 178.5,175.5C 180.854,177.246 181.854,179.579 181.5,182.5 Z"/></g>
<g><path style="opacity:1" fill="#fedce4" d="M 175.5,110.5 C 176.497,132.327 176.831,154.327 176.5,176.5C 176.167,176.5 175.833,176.5 175.5,176.5C 175.5,154.833 175.5,133.167 175.5,111.5C 147.833,111.5 120.167,111.5 92.5,111.5C 92.5,113.5 92.5,115.5 92.5,117.5C 91.3882,115.401 90.7215,113.067 90.5,110.5C 118.833,110.5 147.167,110.5 175.5,110.5 Z"/></g>
<g><path style="opacity:1" fill="#cc5464" d="M 213.5,110.5 C 213.833,110.5 214.167,110.5 214.5,110.5C 214.5,132.167 214.5,153.833 214.5,175.5C 214.5,176.167 214.5,176.833 214.5,177.5C 212.106,178.015 209.772,178.681 207.5,179.5C 208.574,177.784 210.241,176.784 212.5,176.5C 213.5,154.51 213.833,132.51 213.5,110.5 Z"/></g>
<g><path style="opacity:1" fill="#feeef2" d="M 214.5,110.5 C 214.833,110.5 215.167,110.5 215.5,110.5C 249.517,109.84 283.183,110.507 316.5,112.5C 317.028,113.721 317.695,114.887 318.5,116C 323.833,116.333 329.167,116.667 334.5,117C 335.381,117.708 336.047,118.542 336.5,119.5C 330.497,118.877 324.497,118.211 318.5,117.5C 318.167,117.833 317.833,118.167 317.5,118.5C 320.726,119.877 321.059,121.543 318.5,123.5C 316.277,120.386 313.611,117.72 310.5,115.5C 310.167,115.833 309.833,116.167 309.5,116.5C 312.586,119.91 311.92,121.91 307.5,122.5C 307.214,120.723 306.547,119.056 305.5,117.5C 306.547,115.944 307.214,114.277 307.5,112.5C 277.167,112.5 246.833,112.5 216.5,112.5C 216.167,133.177 216.5,153.844 217.5,174.5C 218.613,172.969 220.113,171.969 222,171.5C 228.404,171.925 234.571,172.925 240.5,174.5C 231.805,174.327 223.138,174.66 214.5,175.5C 214.5,153.833 214.5,132.167 214.5,110.5 Z"/></g>
<g><path style="opacity:1" fill="#b44851" d="M 88.5,109.5 C 88.8333,109.5 89.1667,109.5 89.5,109.5C 118.338,109.169 147.005,109.502 175.5,110.5C 147.167,110.5 118.833,110.5 90.5,110.5C 90.7215,113.067 91.3882,115.401 92.5,117.5C 93.9134,122.537 93.7467,127.537 92,132.5C 91.5357,131.906 91.369,131.239 91.5,130.5C 91.8754,123.287 90.8754,116.287 88.5,109.5 Z"/></g>
<g><path style="opacity:1" fill="#f8f9f9" d="M 175.5,176.5 C 173.254,177.455 170.921,178.122 168.5,178.5C 169.21,175.14 167.876,173.307 164.5,173C 165.056,172.617 165.389,172.117 165.5,171.5C 167.344,170.796 167.844,169.463 167,167.5C 164.012,165.601 161.179,163.601 158.5,161.5C 157.133,159.858 156.799,158.192 157.5,156.5C 156.5,155.833 155.5,155.167 154.5,154.5C 154.709,153.914 155.043,153.414 155.5,153C 154.095,151.731 152.429,151.231 150.5,151.5C 150.714,149.856 150.38,148.356 149.5,147C 145.53,147.326 141.53,147.326 137.5,147C 136.743,145.488 135.743,144.154 134.5,143C 131.574,142.782 128.74,142.282 126,141.5C 125.667,141.833 125.333,142.167 125,142.5C 123.86,138.611 124.693,135.278 127.5,132.5C 127.167,132.167 126.833,131.833 126.5,131.5C 121.23,132.451 115.897,132.785 110.5,132.5C 110.5,135.833 110.5,139.167 110.5,142.5C 106.833,142.5 103.167,142.5 99.5,142.5C 99.5,146.167 99.5,149.833 99.5,153.5C 96.8016,155.2 94.3016,157.2 92,159.5C 86.7413,157.12 81.5747,154.62 76.5,152C 80.0845,148.922 83.0845,145.422 85.5,141.5C 89.903,140.171 91.5696,137.504 90.5,133.5C 90.2627,132.209 90.596,131.209 91.5,130.5C 91.369,131.239 91.5357,131.906 92,132.5C 93.7467,127.537 93.9134,122.537 92.5,117.5C 92.5,115.5 92.5,113.5 92.5,111.5C 120.167,111.5 147.833,111.5 175.5,111.5C 175.5,133.167 175.5,154.833 175.5,176.5 Z"/></g>
<g><path style="opacity:1" fill="#bb6977" d="M 317.5,111.5 C 318.186,112.848 319.186,114.015 320.5,115C 325.5,115.333 330.5,115.667 335.5,116C 338.545,119.19 342.212,121.357 346.5,122.5C 344.921,125.994 343.087,129.327 341,132.5C 338.591,134.599 335.924,136.266 333,137.5C 332.327,142.74 334.494,146.074 339.5,147.5C 338.595,148.964 338.595,150.298 339.5,151.5C 337.088,151.306 336.088,149.973 336.5,147.5C 334.089,147.863 332.589,146.863 332,144.5C 330.876,141.558 330.542,138.558 331,135.5C 332.857,133.369 335.023,132.869 337.5,134C 340.333,130.672 342.666,127.005 344.5,123C 341.359,122.684 338.692,121.517 336.5,119.5C 336.047,118.542 335.381,117.708 334.5,117C 329.167,116.667 323.833,116.333 318.5,116C 317.695,114.887 317.028,113.721 316.5,112.5C 317.167,112.5 317.5,112.167 317.5,111.5 Z"/></g>
<g><path style="opacity:1" fill="#b25767" d="M 90.5,133.5 C 91.5696,137.504 89.903,140.171 85.5,141.5C 87.9848,139.348 89.6515,136.681 90.5,133.5 Z"/></g>
<g><path style="opacity:1" fill="#fde9ec" d="M 158.5,161.5 C 156.203,160.165 154.203,158.332 152.5,156C 150.536,155.376 148.869,155.876 147.5,157.5C 146.914,157.291 146.414,156.957 146,156.5C 147.404,154.168 148.238,151.501 148.5,148.5C 143.959,148.331 143.626,148.998 147.5,150.5C 146.479,152.188 145.145,153.521 143.5,154.5C 141.621,150.991 138.621,149.658 134.5,150.5C 136.292,149.691 138.292,149.191 140.5,149C 138.527,148.505 136.527,148.338 134.5,148.5C 134.5,147.167 134.5,145.833 134.5,144.5C 131.833,144.5 129.167,144.5 126.5,144.5C 125.167,144.5 123.833,144.5 122.5,144.5C 122.5,143.5 122.5,142.5 122.5,141.5C 122.575,138.794 122.908,136.127 123.5,133.5C 119.5,133.5 115.5,133.5 111.5,133.5C 111.216,135.415 111.549,137.081 112.5,138.5C 112.5,138.833 112.5,139.167 112.5,139.5C 112.5,141.5 112.5,143.5 112.5,145.5C 108.519,144.979 104.519,144.646 100.5,144.5C 100.5,147.5 100.5,150.5 100.5,153.5C 100.167,153.5 99.8333,153.5 99.5,153.5C 99.5,149.833 99.5,146.167 99.5,142.5C 103.167,142.5 106.833,142.5 110.5,142.5C 110.5,139.167 110.5,135.833 110.5,132.5C 115.897,132.785 121.23,132.451 126.5,131.5C 126.833,131.833 127.167,132.167 127.5,132.5C 124.693,135.278 123.86,138.611 125,142.5C 125.333,142.167 125.667,141.833 126,141.5C 128.74,142.282 131.574,142.782 134.5,143C 135.743,144.154 136.743,145.488 137.5,147C 141.53,147.326 145.53,147.326 149.5,147C 150.38,148.356 150.714,149.856 150.5,151.5C 152.429,151.231 154.095,151.731 155.5,153C 155.043,153.414 154.709,153.914 154.5,154.5C 155.5,155.167 156.5,155.833 157.5,156.5C 156.799,158.192 157.133,159.858 158.5,161.5 Z"/></g>
<g><path style="opacity:1" fill="#d02c3e" d="M 122.5,141.5 C 121.566,142.568 121.232,143.901 121.5,145.5C 120.521,142.375 120.187,139.042 120.5,135.5C 118.08,135.708 115.747,135.374 113.5,134.5C 112.571,135.689 112.238,137.022 112.5,138.5C 111.549,137.081 111.216,135.415 111.5,133.5C 115.5,133.5 119.5,133.5 123.5,133.5C 122.908,136.127 122.575,138.794 122.5,141.5 Z"/></g>
<g><path style="opacity:1" fill="#ed8d92" d="M 122.5,141.5 C 122.5,142.5 122.5,143.5 122.5,144.5C 123.833,144.5 125.167,144.5 126.5,144.5C 126.5,144.833 126.5,145.167 126.5,145.5C 124.833,145.5 123.167,145.5 121.5,145.5C 121.232,143.901 121.566,142.568 122.5,141.5 Z"/></g>
<g><path style="opacity:1" fill="#bb6976" d="M 85.5,141.5 C 83.0845,145.422 80.0845,148.922 76.5,152C 81.5747,154.62 86.7413,157.12 92,159.5C 94.3016,157.2 96.8016,155.2 99.5,153.5C 99.8333,153.5 100.167,153.5 100.5,153.5C 102.099,153.232 103.432,153.566 104.5,154.5C 102.473,154.338 100.473,154.505 98.5,155C 97.1577,158.184 94.8244,160.017 91.5,160.5C 86.9294,158.584 82.2628,156.751 77.5,155C 75.7888,153.867 75.2888,152.367 76,150.5C 79.1091,147.218 82.2757,144.218 85.5,141.5 Z"/></g>
<g><path style="opacity:1" fill="#c92c3b" d="M 112.5,139.5 C 113.468,141.607 113.802,143.941 113.5,146.5C 109.833,146.5 106.167,146.5 102.5,146.5C 102.5,148.5 102.5,150.5 102.5,152.5C 105.466,152.11 108.132,152.777 110.5,154.5C 112.137,153.556 113.137,154.223 113.5,156.5C 110.539,155.677 107.539,155.01 104.5,154.5C 103.432,153.566 102.099,153.232 100.5,153.5C 100.5,150.5 100.5,147.5 100.5,144.5C 104.519,144.646 108.519,144.979 112.5,145.5C 112.5,143.5 112.5,141.5 112.5,139.5 Z"/></g>
<g><path style="opacity:1" fill="#c7414d" d="M 126.5,145.5 C 126.5,145.167 126.5,144.833 126.5,144.5C 129.167,144.5 131.833,144.5 134.5,144.5C 134.5,145.833 134.5,147.167 134.5,148.5C 136.527,148.338 138.527,148.505 140.5,149C 138.292,149.191 136.292,149.691 134.5,150.5C 133.559,152.05 132.893,153.716 132.5,155.5C 131.833,155.5 131.167,155.5 130.5,155.5C 127.833,155.167 125.167,154.833 122.5,154.5C 122.5,155.5 122.5,156.5 122.5,157.5C 122.5,158.167 122.167,158.5 121.5,158.5C 119.214,158.405 117.214,157.738 115.5,156.5C 117.167,156.5 118.833,156.5 120.5,156.5C 120.5,155.5 120.5,154.5 120.5,153.5C 124.226,153.823 127.893,153.489 131.5,152.5C 132.374,150.253 132.708,147.92 132.5,145.5C 130.5,145.5 128.5,145.5 126.5,145.5 Z"/></g>
<g><path style="opacity:1" fill="#e5102b" d="M 121.5,145.5 C 123.167,145.5 124.833,145.5 126.5,145.5C 128.5,145.5 130.5,145.5 132.5,145.5C 132.708,147.92 132.374,150.253 131.5,152.5C 127.893,153.489 124.226,153.823 120.5,153.5C 120.5,154.5 120.5,155.5 120.5,156.5C 118.833,156.5 117.167,156.5 115.5,156.5C 114.833,156.5 114.167,156.5 113.5,156.5C 113.137,154.223 112.137,153.556 110.5,154.5C 108.132,152.777 105.466,152.11 102.5,152.5C 102.5,150.5 102.5,148.5 102.5,146.5C 106.167,146.5 109.833,146.5 113.5,146.5C 113.802,143.941 113.468,141.607 112.5,139.5C 112.5,139.167 112.5,138.833 112.5,138.5C 112.238,137.022 112.571,135.689 113.5,134.5C 115.747,135.374 118.08,135.708 120.5,135.5C 120.187,139.042 120.521,142.375 121.5,145.5 Z"/></g>
<g><path style="opacity:0.937" fill="#fdeae8" d="M 339.5,147.5 C 340.803,149.142 342.136,150.809 343.5,152.5C 342.167,152.167 340.833,151.833 339.5,151.5C 338.595,150.298 338.595,148.964 339.5,147.5 Z"/></g>
<g><path style="opacity:1" fill="#f8f9f9" d="M 336.5,119.5 C 338.692,121.517 341.359,122.684 344.5,123C 342.666,127.005 340.333,130.672 337.5,134C 335.023,132.869 332.857,133.369 331,135.5C 330.542,138.558 330.876,141.558 332,144.5C 332.589,146.863 334.089,147.863 336.5,147.5C 336.088,149.973 337.088,151.306 339.5,151.5C 345.869,156.023 351.869,161.023 357.5,166.5C 358.167,168.819 358.334,171.153 358,173.5C 355.497,179.364 351.331,182.864 345.5,184C 341.47,176.988 335.47,173.654 327.5,174C 325.119,174.223 323.453,175.39 322.5,177.5C 315.628,176.565 309.628,173.731 304.5,169C 305.056,168.617 305.389,168.117 305.5,167.5C 308.96,166.74 309.293,165.24 306.5,163C 299.367,159.005 291.7,156.839 283.5,156.5C 283.5,155.833 283.5,155.167 283.5,154.5C 287.215,154.423 290.881,154.756 294.5,155.5C 294.5,151.833 294.5,148.167 294.5,144.5C 292.167,144.5 289.833,144.5 287.5,144.5C 286.167,144.5 284.833,144.5 283.5,144.5C 283.5,143.167 283.5,141.833 283.5,140.5C 283.5,138.5 283.5,136.5 283.5,134.5C 280.038,133.518 276.371,133.185 272.5,133.5C 272.216,135.415 272.549,137.081 273.5,138.5C 273.5,140.5 273.5,142.5 273.5,144.5C 269.5,144.5 265.5,144.5 261.5,144.5C 261.5,148.167 261.5,151.833 261.5,155.5C 265.481,154.979 269.481,154.646 273.5,154.5C 273.5,155.833 273.5,157.167 273.5,158.5C 271.454,168.381 265.454,172.548 255.5,171C 255.167,171.333 254.833,171.667 254.5,172C 255.357,172.689 256.023,173.522 256.5,174.5C 251.014,175.815 245.68,175.815 240.5,174.5C 234.571,172.925 228.404,171.925 222,171.5C 220.113,171.969 218.613,172.969 217.5,174.5C 216.5,153.844 216.167,133.177 216.5,112.5C 246.833,112.5 277.167,112.5 307.5,112.5C 307.214,114.277 306.547,115.944 305.5,117.5C 306.547,119.056 307.214,120.723 307.5,122.5C 311.92,121.91 312.586,119.91 309.5,116.5C 309.833,116.167 310.167,115.833 310.5,115.5C 313.611,117.72 316.277,120.386 318.5,123.5C 321.059,121.543 320.726,119.877 317.5,118.5C 317.833,118.167 318.167,117.833 318.5,117.5C 324.497,118.211 330.497,118.877 336.5,119.5 Z"/></g>
<g><path style="opacity:1" fill="#dd1930" d="M 283.5,134.5 C 283.5,136.5 283.5,138.5 283.5,140.5C 282.549,141.919 282.216,143.585 282.5,145.5C 284.167,145.5 285.833,145.5 287.5,145.5C 289.5,145.5 291.5,145.5 293.5,145.5C 293.5,148.167 293.5,150.833 293.5,153.5C 289.958,153.187 286.625,153.521 283.5,154.5C 283.5,155.167 283.5,155.833 283.5,156.5C 283.5,156.833 283.5,157.167 283.5,157.5C 279.772,157.903 276.772,159.57 274.5,162.5C 273.566,161.432 273.232,160.099 273.5,158.5C 273.5,157.167 273.5,155.833 273.5,154.5C 271.735,153.539 269.735,153.205 267.5,153.5C 273.287,151.437 279.287,151.103 285.5,152.5C 285.5,151.5 285.5,150.5 285.5,149.5C 287.833,149.5 290.167,149.5 292.5,149.5C 292.5,148.5 292.5,147.5 292.5,146.5C 288.563,146.207 284.73,146.54 281,147.5C 281.454,143.812 281.287,140.145 280.5,136.5C 279.167,145.833 277.833,145.833 276.5,136.5C 275.914,136.709 275.414,137.043 275,137.5C 274.021,141.295 274.854,144.628 277.5,147.5C 277.167,148.167 276.833,148.833 276.5,149.5C 275.614,148.675 275.281,147.675 275.5,146.5C 271.167,146.5 266.833,146.5 262.5,146.5C 266.167,145.833 269.833,145.167 273.5,144.5C 273.5,142.5 273.5,140.5 273.5,138.5C 273.5,137.167 273.5,135.833 273.5,134.5C 276.833,134.5 280.167,134.5 283.5,134.5 Z"/></g>
<g><path style="opacity:1" fill="#c53844" d="M 273.5,144.5 C 269.833,145.167 266.167,145.833 262.5,146.5C 262.5,148.833 262.5,151.167 262.5,153.5C 264.167,153.5 265.833,153.5 267.5,153.5C 269.735,153.205 271.735,153.539 273.5,154.5C 269.481,154.646 265.481,154.979 261.5,155.5C 261.5,151.833 261.5,148.167 261.5,144.5C 265.5,144.5 269.5,144.5 273.5,144.5 Z"/></g>
<g><path style="opacity:1" fill="#e80f29" d="M 267.5,153.5 C 265.833,153.5 264.167,153.5 262.5,153.5C 262.5,151.167 262.5,148.833 262.5,146.5C 266.833,146.5 271.167,146.5 275.5,146.5C 275.281,147.675 275.614,148.675 276.5,149.5C 276.833,148.833 277.167,148.167 277.5,147.5C 274.854,144.628 274.021,141.295 275,137.5C 275.414,137.043 275.914,136.709 276.5,136.5C 277.833,145.833 279.167,145.833 280.5,136.5C 281.287,140.145 281.454,143.812 281,147.5C 284.73,146.54 288.563,146.207 292.5,146.5C 292.5,147.5 292.5,148.5 292.5,149.5C 290.167,149.5 287.833,149.5 285.5,149.5C 285.5,150.5 285.5,151.5 285.5,152.5C 279.287,151.103 273.287,151.437 267.5,153.5 Z"/></g>
<g><path style="opacity:1" fill="#f0818f" d="M 283.5,140.5 C 283.5,141.833 283.5,143.167 283.5,144.5C 284.833,144.5 286.167,144.5 287.5,144.5C 287.5,144.833 287.5,145.167 287.5,145.5C 285.833,145.5 284.167,145.5 282.5,145.5C 282.216,143.585 282.549,141.919 283.5,140.5 Z"/></g>
<g><path style="opacity:1" fill="#c74759" d="M 283.5,134.5 C 280.167,134.5 276.833,134.5 273.5,134.5C 273.5,135.833 273.5,137.167 273.5,138.5C 272.549,137.081 272.216,135.415 272.5,133.5C 276.371,133.185 280.038,133.518 283.5,134.5 Z"/></g>
<g><path style="opacity:1" fill="#bf293e" d="M 287.5,145.5 C 287.5,145.167 287.5,144.833 287.5,144.5C 289.833,144.5 292.167,144.5 294.5,144.5C 294.5,148.167 294.5,151.833 294.5,155.5C 290.881,154.756 287.215,154.423 283.5,154.5C 286.625,153.521 289.958,153.187 293.5,153.5C 293.5,150.833 293.5,148.167 293.5,145.5C 291.5,145.5 289.5,145.5 287.5,145.5 Z"/></g>
<g><path style="opacity:1" fill="#ba6673" d="M 158.5,161.5 C 161.179,163.601 164.012,165.601 167,167.5C 167.844,169.463 167.344,170.796 165.5,171.5C 166.303,170.577 166.47,169.577 166,168.5C 160.753,166.074 156.253,162.741 152.5,158.5C 151.5,155.833 150.5,155.833 149.5,158.5C 147.864,159.246 146.197,158.912 144.5,157.5C 143.614,156.675 143.281,155.675 143.5,154.5C 145.145,153.521 146.479,152.188 147.5,150.5C 143.626,148.998 143.959,148.331 148.5,148.5C 148.238,151.501 147.404,154.168 146,156.5C 146.414,156.957 146.914,157.291 147.5,157.5C 148.869,155.876 150.536,155.376 152.5,156C 154.203,158.332 156.203,160.165 158.5,161.5 Z"/></g>
<g><path style="opacity:1" fill="#fee9f0" d="M 130.5,155.5 C 130.288,157.384 129.288,158.717 127.5,159.5C 125.925,158.544 124.258,157.877 122.5,157.5C 122.5,156.5 122.5,155.5 122.5,154.5C 125.167,154.833 127.833,155.167 130.5,155.5 Z"/></g>
<g><path style="opacity:0.008" fill="#fff1f4" d="M 152.5,158.5 C 151.5,158.5 150.5,158.5 149.5,158.5C 150.5,155.833 151.5,155.833 152.5,158.5 Z"/></g>
<g><path style="opacity:0.92" fill="#bf6f77" d="M 339.5,151.5 C 340.833,151.833 342.167,152.167 343.5,152.5C 346.621,154.448 349.621,156.615 352.5,159C 354.808,161.128 356.474,163.628 357.5,166.5C 351.869,161.023 345.869,156.023 339.5,151.5 Z"/></g>
<g><path style="opacity:0.859" fill="#ba6a75" d="M 283.5,157.5 C 283.5,157.167 283.5,156.833 283.5,156.5C 291.7,156.839 299.367,159.005 306.5,163C 309.293,165.24 308.96,166.74 305.5,167.5C 307.002,165.171 306.336,163.837 303.5,163.5C 297.143,160.495 290.476,158.495 283.5,157.5 Z"/></g>
<g><path style="opacity:0.655" fill="#ad6874" d="M 130.5,155.5 C 131.167,155.5 131.833,155.5 132.5,155.5C 130.101,160.916 126.434,161.916 121.5,158.5C 122.167,158.5 122.5,158.167 122.5,157.5C 124.258,157.877 125.925,158.544 127.5,159.5C 129.288,158.717 130.288,157.384 130.5,155.5 Z"/></g>
<g><path style="opacity:1" fill="#fce2e6" d="M 303.5,163.5 C 306.336,163.837 307.002,165.171 305.5,167.5C 304.833,167.5 304.167,167.5 303.5,167.5C 303.5,166.167 303.5,164.833 303.5,163.5 Z"/></g>
<g><path style="opacity:0.553" fill="#ffdfe8" d="M 264.5,172.5 C 262.272,173.377 260.272,174.71 258.5,176.5C 258.67,175.178 258.337,174.011 257.5,173C 259.81,172.503 262.143,172.337 264.5,172.5 Z"/></g>
<g><path style="opacity:1" fill="#b25e6c" d="M 303.5,167.5 C 304.167,167.5 304.833,167.5 305.5,167.5C 305.389,168.117 305.056,168.617 304.5,169C 309.628,173.731 315.628,176.565 322.5,177.5C 318.78,178.775 315.113,178.275 311.5,176C 309.089,174.045 306.589,172.211 304,170.5C 303.517,169.552 303.351,168.552 303.5,167.5 Z"/></g>
<g><path style="opacity:1" fill="#bb6472" d="M 273.5,158.5 C 273.232,160.099 273.566,161.432 274.5,162.5C 272.167,166.833 268.833,170.167 264.5,172.5C 262.143,172.337 259.81,172.503 257.5,173C 258.337,174.011 258.67,175.178 258.5,176.5C 249.179,177.34 239.845,177.006 230.5,175.5C 225.101,175.734 219.767,176.4 214.5,177.5C 214.5,176.833 214.5,176.167 214.5,175.5C 223.138,174.66 231.805,174.327 240.5,174.5C 245.68,175.815 251.014,175.815 256.5,174.5C 256.023,173.522 255.357,172.689 254.5,172C 254.833,171.667 255.167,171.333 255.5,171C 265.454,172.548 271.454,168.381 273.5,158.5 Z"/></g>
<g><path style="opacity:1" fill="#ffe7f1" d="M 166.5,178.5 C 164.5,178.5 163.5,177.5 163.5,175.5C 165.879,174.433 166.879,175.433 166.5,178.5 Z"/></g>
<g><path style="opacity:1" fill="#c26a77" d="M 165.5,171.5 C 165.389,172.117 165.056,172.617 164.5,173C 167.876,173.307 169.21,175.14 168.5,178.5C 170.921,178.122 173.254,177.455 175.5,176.5C 175.833,176.5 176.167,176.5 176.5,176.5C 176.833,177.167 177.167,177.833 177.5,178.5C 174.801,178.466 172.301,179.133 170,180.5C 168.698,179.915 167.531,179.249 166.5,178.5C 166.879,175.433 165.879,174.433 163.5,175.5C 162.503,175.53 161.836,175.03 161.5,174C 162.356,172.405 163.689,171.572 165.5,171.5 Z"/></g>
<g><path style="opacity:1" fill="#b7596a" d="M 357.5,166.5 C 358.167,166.833 358.833,167.167 359.5,167.5C 359.5,170.167 359.5,172.833 359.5,175.5C 356.87,179.132 353.87,182.465 350.5,185.5C 348.5,185.5 346.5,185.5 344.5,185.5C 339.618,176.058 332.285,173.391 322.5,177.5C 323.453,175.39 325.119,174.223 327.5,174C 335.47,173.654 341.47,176.988 345.5,184C 351.331,182.864 355.497,179.364 358,173.5C 358.334,171.153 358.167,168.819 357.5,166.5 Z"/></g>
<g><path style="opacity:1" fill="#cf4853" d="M 205.5,179.5 C 198.52,182.166 191.186,183.833 183.5,184.5C 182.287,184.253 181.62,183.586 181.5,182.5C 189.646,182.536 197.646,181.536 205.5,179.5 Z"/></g>
</svg>
