<?xml version="1.0" encoding="UTF-8"?>
<!DOCTYPE svg PUBLIC "-//W3C//DTD SVG 1.1//EN" "http://www.w3.org/Graphics/SVG/1.1/DTD/svg11.dtd">
<svg xmlns="http://www.w3.org/2000/svg" version="1.1" width="128px" height="128px" style="shape-rendering:geometricPrecision; text-rendering:geometricPrecision; image-rendering:optimizeQuality; fill-rule:evenodd; clip-rule:evenodd" xmlns:xlink="http://www.w3.org/1999/xlink">
<g><path style="opacity:0.99" fill="#f69f12" d="M 127.5,11.5 C 127.5,14.8333 127.5,18.1667 127.5,21.5C 125.704,22.7927 124.037,24.2927 122.5,26C 83.1667,26.6667 43.8333,26.6667 4.5,26C 2.96252,24.2927 1.29585,22.7927 -0.5,21.5C -0.5,18.1667 -0.5,14.8333 -0.5,11.5C 1.22405,8.45823 3.89071,6.62489 7.5,6C 44.8333,5.33333 82.1667,5.33333 119.5,6C 123.109,6.62489 125.776,8.45823 127.5,11.5 Z"/></g>
<g><path style="opacity:0.925" fill="#f69e11" d="M 127.5,58.5 C 127.5,61.8333 127.5,65.1667 127.5,68.5C 125.156,71.3418 122.156,73.1752 118.5,74C 81.8333,74.6667 45.1667,74.6667 8.5,74C 4.84425,73.1752 1.84425,71.3418 -0.5,68.5C -0.5,65.1667 -0.5,61.8333 -0.5,58.5C 1.84425,55.6582 4.84425,53.8248 8.5,53C 45.1667,52.3333 81.8333,52.3333 118.5,53C 122.156,53.8248 125.156,55.6582 127.5,58.5 Z"/></g>
<g><path style="opacity:0.99" fill="#f69f12" d="M 127.5,105.5 C 127.5,108.833 127.5,112.167 127.5,115.5C 125.776,118.542 123.109,120.375 119.5,121C 82.1667,121.667 44.8333,121.667 7.5,121C 3.89071,120.375 1.22405,118.542 -0.5,115.5C -0.5,112.167 -0.5,108.833 -0.5,105.5C 1.29585,104.207 2.96252,102.707 4.5,101C 43.8333,100.333 83.1667,100.333 122.5,101C 124.037,102.707 125.704,104.207 127.5,105.5 Z"/></g>
</svg>
