<?xml version="1.0" encoding="UTF-8"?>
<!DOCTYPE svg PUBLIC "-//W3C//DTD SVG 1.1//EN" "http://www.w3.org/Graphics/SVG/1.1/DTD/svg11.dtd">
<svg xmlns="http://www.w3.org/2000/svg" version="1.1" width="2224px" height="2048px" style="shape-rendering:geometricPrecision; text-rendering:geometricPrecision; image-rendering:optimizeQuality; fill-rule:evenodd; clip-rule:evenodd" xmlns:xlink="http://www.w3.org/1999/xlink">
<g><path style="opacity:0.997" fill="#239f40" d="M 1955.5,1362.5 C 1955.18,1360.95 1954.18,1360.29 1952.5,1360.5C 1954.89,1355.93 1957.89,1351.77 1961.5,1348C 1960.06,1347.78 1958.73,1347.28 1957.5,1346.5C 1975.14,1327.21 1992.3,1307.54 2009,1287.5C 2017.39,1276.78 2025.39,1265.78 2033,1254.5C 2045.05,1232.59 2050.05,1209.26 2048,1184.5C 2043.56,1170.74 2034.06,1163.9 2019.5,1164C 2002.48,1163.79 1985.48,1163.13 1968.5,1162C 1946.84,1158.33 1934.67,1145.5 1932,1123.5C 1931.03,1117.21 1930.53,1110.87 1930.5,1104.5C 1931.42,1090.15 1932.59,1075.82 1934,1061.5C 1935.9,1046.39 1934.23,1031.72 1929,1017.5C 1920.88,998.467 1913.54,979.134 1907,959.5C 1903.45,946.955 1902.78,934.288 1905,921.5C 1906.45,916.601 1908.45,911.935 1911,907.5C 1917.67,898.833 1924.33,890.167 1931,881.5C 1933.64,877.884 1935.47,873.884 1936.5,869.5C 1936.07,867.234 1934.74,865.734 1932.5,865C 1915.26,864.634 1903.43,856.467 1897,840.5C 1889.37,818.662 1888.7,796.662 1895,774.5C 1897.72,767.119 1902.55,761.619 1909.5,758C 1915.5,754.667 1921.5,751.333 1927.5,748C 1932.47,743.818 1932.64,739.318 1928,734.5C 1923.91,729.572 1920.41,724.239 1917.5,718.5C 1935.05,716.449 1946.89,707.116 1953,690.5C 1957.22,677.144 1959.72,663.477 1960.5,649.5C 1961.83,649.5 1963.17,649.5 1964.5,649.5C 1964.33,641.493 1964.5,633.493 1965,625.5C 1965.9,622.045 1967.06,618.711 1968.5,615.5C 1969.04,615.44 1969.38,615.107 1969.5,614.5C 1943.34,613.171 1917.34,613.171 1891.5,614.5C 1891.5,621.5 1891.5,628.5 1891.5,635.5C 1885.83,635.5 1880.17,635.5 1874.5,635.5C 1874.5,628.5 1874.5,621.5 1874.5,614.5C 1821.83,614.5 1769.17,614.5 1716.5,614.5C 1716.5,621.5 1716.5,628.5 1716.5,635.5C 1710.5,635.5 1704.5,635.5 1698.5,635.5C 1698.5,628.5 1698.5,621.5 1698.5,614.5C 1645.83,614.5 1593.17,614.5 1540.5,614.5C 1540.5,621.5 1540.5,628.5 1540.5,635.5C 1534.5,635.5 1528.5,635.5 1522.5,635.5C 1522.5,628.5 1522.5,621.5 1522.5,614.5C 1469.83,614.5 1417.17,614.5 1364.5,614.5C 1364.5,621.5 1364.5,628.5 1364.5,635.5C 1358.83,635.5 1353.17,635.5 1347.5,635.5C 1347.5,628.5 1347.5,621.5 1347.5,614.5C 1294.83,614.5 1242.17,614.5 1189.5,614.5C 1189.5,621.5 1189.5,628.5 1189.5,635.5C 1183.5,635.5 1177.5,635.5 1171.5,635.5C 1171.5,628.5 1171.5,621.5 1171.5,614.5C 1118.83,614.5 1066.17,614.5 1013.5,614.5C 1013.5,621.5 1013.5,628.5 1013.5,635.5C 1007.5,635.5 1001.5,635.5 995.5,635.5C 995.5,628.5 995.5,621.5 995.5,614.5C 942.833,614.5 890.167,614.5 837.5,614.5C 837.5,621.5 837.5,628.5 837.5,635.5C 831.833,635.5 826.167,635.5 820.5,635.5C 820.825,628.313 820.491,621.313 819.5,614.5C 767.003,613.501 714.336,613.168 661.5,613.5C 661.5,620.833 661.5,628.167 661.5,635.5C 655.833,635.5 650.167,635.5 644.5,635.5C 644.5,628.5 644.5,621.5 644.5,614.5C 591.833,614.5 539.167,614.5 486.5,614.5C 486.5,621.5 486.5,628.5 486.5,635.5C 480.5,635.5 474.5,635.5 468.5,635.5C 468.5,628.5 468.5,621.5 468.5,614.5C 415.833,614.5 363.167,614.5 310.5,614.5C 310.5,621.5 310.5,628.5 310.5,635.5C 304.5,635.5 298.5,635.5 292.5,635.5C 292.5,628.5 292.5,621.5 292.5,614.5C 273.497,614.333 254.497,614.5 235.5,615C 240.061,621.232 244.228,627.732 248,634.5C 249.325,639.401 249.825,644.401 249.5,649.5C 250.5,649.5 251.5,649.5 252.5,649.5C 251.93,653.912 249.597,657.078 245.5,659C 237.895,660.19 230.229,660.857 222.5,661C 220.773,665.735 219.273,670.568 218,675.5C 214.448,681.045 209.615,685.211 203.5,688C 196.86,692.871 194.694,699.371 197,707.5C 199.238,716.38 200.738,725.38 201.5,734.5C 192.686,735.213 184.353,733.546 176.5,729.5C 171.994,735.828 169.827,742.828 170,750.5C 175.1,755.597 179.433,761.264 183,767.5C 184.182,775.147 183.182,782.48 180,789.5C 176.496,795.844 172.496,801.844 168,807.5C 167.333,809.167 167.333,810.833 168,812.5C 185.6,833.435 204.6,853.102 225,871.5C 235.612,882.449 244.279,894.782 251,908.5C 255.903,919.214 253.736,928.047 244.5,935C 248.438,938.631 250.771,943.131 251.5,948.5C 252.025,949.192 252.692,949.692 253.5,950C 266.789,948.544 279.122,951.21 290.5,958C 306.543,968.373 320.376,981.207 332,996.5C 342.979,1009.41 356.813,1017.24 373.5,1020C 383.313,1022.31 391.146,1027.48 397,1035.5C 401.588,1043.68 405.922,1052.01 410,1060.5C 418.949,1073.12 428.283,1085.45 438,1097.5C 444.139,1107.71 446.139,1118.71 444,1130.5C 439.031,1149.43 434.365,1168.43 430,1187.5C 429.188,1195.22 429.522,1202.89 431,1210.5C 432.399,1216.9 436.233,1221.07 442.5,1223C 452.642,1221.38 461.142,1224.21 468,1231.5C 469.275,1233.72 470.275,1236.05 471,1238.5C 471.665,1252.54 471.165,1266.54 469.5,1280.5C 468.949,1288.35 471.115,1295.35 476,1301.5C 481.209,1306.38 486.709,1310.88 492.5,1315C 499.944,1320.76 505.444,1327.93 509,1336.5C 510.301,1344.65 512.134,1352.65 514.5,1360.5C 511.5,1360.5 508.5,1360.5 505.5,1360.5C 504.326,1350.79 501.826,1341.46 498,1332.5C 492.242,1325.87 485.742,1320.03 478.5,1315C 472.535,1310.04 467.702,1304.21 464,1297.5C 462.062,1291.84 461.229,1286 461.5,1280C 462.067,1270.16 462.734,1260.33 463.5,1250.5C 463.769,1245.29 462.936,1240.29 461,1235.5C 459.421,1233.96 457.587,1232.79 455.5,1232C 432.466,1232.8 421.133,1221.63 421.5,1198.5C 421.595,1193.13 422.095,1187.79 423,1182.5C 426.706,1165.01 431.039,1147.68 436,1130.5C 437.516,1121.04 436.183,1112.04 432,1103.5C 425.149,1093.8 417.816,1084.47 410,1075.5C 403.146,1064.46 396.812,1053.12 391,1041.5C 386.383,1034.94 380.216,1030.44 372.5,1028C 359.433,1026.09 347.766,1021.09 337.5,1013C 325.137,1000.97 313.137,988.638 301.5,976C 292.833,968.674 283.166,963.007 272.5,959C 265.833,958.667 259.167,958.333 252.5,958C 249.452,957.394 246.952,955.894 245,953.5C 243.391,949.221 241.557,945.054 239.5,941C 234.62,938.393 229.62,936.06 224.5,934C 229.091,932.136 233.757,930.47 238.5,929C 242.342,927.159 244.676,924.159 245.5,920C 244.379,914.59 242.546,909.423 240,904.5C 234.769,895.934 228.769,887.934 222,880.5C 209.638,867.804 196.971,855.47 184,843.5C 177.039,834.87 169.705,826.537 162,818.5C 159.66,814.445 158.993,810.111 160,805.5C 163.276,799.892 166.943,794.558 171,789.5C 178.641,777.237 176.641,766.904 165,758.5C 162.928,755.117 161.761,751.45 161.5,747.5C 163.938,737.301 166.938,727.301 170.5,717.5C 174.381,718.774 178.048,720.607 181.5,723C 185.017,724.734 188.684,725.401 192.5,725C 189.431,715.412 188.264,705.578 189,695.5C 189.438,692.624 190.438,689.957 192,687.5C 197.819,682.592 203.819,677.925 210,673.5C 211.527,666.58 214.027,660.08 217.5,654C 225.062,652.733 232.729,652.066 240.5,652C 244.084,650.336 245.751,647.503 245.5,643.5C 245.37,641.625 245.037,639.792 244.5,638C 237.962,627.763 231.795,617.263 226,606.5C 221.074,593.036 223.908,581.536 234.5,572C 243.454,567.857 252.12,563.19 260.5,558C 253.781,555.869 246.948,554.369 240,553.5C 232.134,554.406 224.3,555.573 216.5,557C 208.266,558.025 200.6,556.359 193.5,552C 186.794,545.626 179.794,539.626 172.5,534C 169.544,533.011 166.544,532.178 163.5,531.5C 157.221,533.059 150.888,533.892 144.5,534C 152.481,524.592 154.648,514.092 151,502.5C 149.248,499.328 147.248,496.328 145,493.5C 136.333,485.5 127.667,477.5 119,469.5C 117.248,466.328 115.248,463.328 113,460.5C 112.538,451.439 112.872,442.439 114,433.5C 111.434,428.945 107.6,425.778 102.5,424C 101.299,423.097 100.465,421.931 100,420.5C 91.4942,397.83 86.8275,374.497 86,350.5C 85.4169,348.998 84.5836,347.665 83.5,346.5C 71.9334,342.026 65.1001,333.693 63,321.5C 62.5239,314.327 62.6906,307.16 63.5,300C 64.4743,291.948 61.4743,285.948 54.5,282C 46.9391,279.553 39.6058,276.553 32.5,273C 27.0415,270.046 23.7082,265.546 22.5,259.5C 26.7217,239.731 34.7217,221.731 46.5,205.5C 39.3407,199.482 34.8407,191.815 33,182.5C 31.4251,166.517 30.0918,150.517 29,134.5C 24.3333,128.5 19.6667,122.5 15,116.5C 14.3333,113.167 14.3333,109.833 15,106.5C 17.8953,100.998 18.2286,95.3311 16,89.5C 12.0185,78.8589 6.51851,69.1923 -0.5,60.5C -0.5,58.5 -0.5,56.5 -0.5,54.5C 13.0214,50.4025 26.6881,46.9025 40.5,44C 42.3783,42.4571 43.8783,40.6238 45,38.5C 47.7593,28.1661 50.426,17.8328 53,7.5C 57.5297,1.82936 63.363,-0.00397819 70.5,2C 78.7171,5.0486 86.0505,9.5486 92.5,15.5C 100.833,26.8333 109.167,38.1667 117.5,49.5C 136.31,65.8098 154.31,82.9765 171.5,101C 183.308,111.054 196.975,117.054 212.5,119C 237.941,123.873 263.275,123.54 288.5,118C 315.456,103.377 338.456,84.0438 357.5,60C 366.833,55 376.167,50 385.5,45C 398.307,33.1879 411.974,22.5212 426.5,13C 444.58,4.31691 461.58,5.98358 477.5,18C 489.2,28.8577 499.2,41.0244 507.5,54.5C 502.954,57.083 498.287,59.583 493.5,62C 487.604,66.0204 485.437,71.5204 487,78.5C 490.547,86.7609 493.38,95.2609 495.5,104C 495.134,108.701 492.801,112.034 488.5,114C 482.618,115.405 476.951,117.405 471.5,120C 468.42,121.711 467.254,124.211 468,127.5C 470.748,132.252 474.248,136.419 478.5,140C 487.325,146.579 496.325,152.913 505.5,159C 513.248,166.752 521.581,173.752 530.5,180C 532.717,181.275 535.051,182.275 537.5,183C 544.5,183.333 551.5,183.667 558.5,184C 559.333,184.833 560.167,185.667 561,186.5C 563.425,192.621 565.092,198.954 566,205.5C 567.968,224.213 570.301,242.88 573,261.5C 576.191,286.688 590.024,302.521 614.5,309C 635.365,312.874 656.365,315.874 677.5,318C 692.215,319.945 705.048,325.778 716,335.5C 723.25,346.331 730.25,357.331 737,368.5C 742.239,374.41 748.072,379.577 754.5,384C 787.66,403.276 822.66,418.276 859.5,429C 889.196,436.224 918.862,436.224 948.5,429C 1005.18,399.806 1065.02,390.64 1128,401.5C 1133.55,401.474 1139.05,400.974 1144.5,400C 1145.77,397.617 1146.43,394.95 1146.5,392C 1146.33,389.5 1146.17,387 1146,384.5C 1142.8,370.048 1139.14,355.715 1135,341.5C 1133.98,337.56 1133.48,333.56 1133.5,329.5C 1165.34,329.898 1196.01,324.065 1225.5,312C 1228,310.833 1229.83,309 1231,306.5C 1233.26,289.485 1241.09,275.651 1254.5,265C 1273.41,249.039 1294.41,236.372 1317.5,227C 1327.36,223.428 1337.53,221.928 1348,222.5C 1365.55,223.555 1383.05,225.221 1400.5,227.5C 1404.15,226.884 1407.81,226.55 1411.5,226.5C 1412.12,213.032 1419.12,204.865 1432.5,202C 1439.03,201.266 1445.53,201.433 1452,202.5C 1456.86,200.546 1461.86,199.212 1467,198.5C 1468.83,198.667 1470.67,198.833 1472.5,199C 1478.35,202.926 1484.68,205.759 1491.5,207.5C 1501.02,204.884 1510.69,204.051 1520.5,205C 1525.21,206.378 1528.71,209.212 1531,213.5C 1534.53,221.084 1537.86,228.751 1541,236.5C 1545.45,241.61 1550.95,245.11 1557.5,247C 1575.46,250.883 1593.46,254.549 1611.5,258C 1622.34,263.919 1632.68,270.586 1642.5,278C 1645.83,279.333 1649.17,280.667 1652.5,282C 1673.14,283.139 1693.81,284.139 1714.5,285C 1731.23,286.904 1746.23,292.904 1759.5,303C 1762.37,305.537 1764.87,308.37 1767,311.5C 1772.19,320.554 1776.86,329.888 1781,339.5C 1786.04,346.196 1792.54,351.029 1800.5,354C 1814.75,357.97 1828.42,363.304 1841.5,370C 1845.67,372.833 1849.17,376.333 1852,380.5C 1858.33,390.833 1864.67,401.167 1871,411.5C 1876.89,419.386 1884.72,423.886 1894.5,425C 1900,425.5 1905.5,426 1911,426.5C 1931.16,424.806 1951.32,423.639 1971.5,423C 1973.67,423.833 1975.17,425.333 1976,427.5C 1977.07,432.083 1977.57,436.749 1977.5,441.5C 1976.44,452.823 1975.94,464.156 1976,475.5C 1979.07,482.708 1980.9,490.208 1981.5,498C 1981.35,505.459 1979.01,512.126 1974.5,518C 1981.1,524.035 1984.93,531.535 1986,540.5C 1988.92,554.703 1989.92,569.036 1989,583.5C 1986.2,594.104 1981.53,603.77 1975,612.5C 1972.78,616.271 1971.11,620.271 1970,624.5C 1969.26,640.887 1967.93,657.22 1966,673.5C 1963.97,690.638 1956.8,705.138 1944.5,717C 1940.11,719.861 1935.45,722.194 1930.5,724C 1933.98,728.455 1936.81,733.288 1939,738.5C 1939.93,745.478 1937.43,750.978 1931.5,755C 1925.5,758.333 1919.5,761.667 1913.5,765C 1905.31,770.206 1900.81,777.706 1900,787.5C 1896.6,807.38 1899.27,826.38 1908,844.5C 1914.43,853.437 1923.27,857.604 1934.5,857C 1941,858.664 1944.33,862.831 1944.5,869.5C 1944.1,874.203 1942.6,878.536 1940,882.5C 1930.93,893.638 1922.6,905.305 1915,917.5C 1911.92,925.24 1910.92,933.24 1912,941.5C 1912.9,949.334 1914.57,957.001 1917,964.5C 1922.61,979.991 1928.61,995.325 1935,1010.5C 1942.11,1028.54 1944.44,1047.21 1942,1066.5C 1940.62,1079.81 1939.46,1093.15 1938.5,1106.5C 1938.26,1118.15 1940.76,1129.15 1946,1139.5C 1950.73,1147.12 1957.56,1151.62 1966.5,1153C 1985.14,1154.2 2003.81,1155.2 2022.5,1156C 2046.58,1159.44 2058.25,1173.44 2057.5,1198C 2055.98,1220.22 2049.82,1241.05 2039,1260.5C 2032.73,1270.7 2025.73,1280.36 2018,1289.5C 1996.93,1313.73 1976.09,1338.06 1955.5,1362.5 Z"/></g>
<g><path style="opacity:1" fill="#b1ddbb" d="M 310.5,509.5 C 386.665,508.501 462.998,508.167 539.5,508.5C 539.823,514.69 539.49,520.69 538.5,526.5C 538.5,520.833 538.5,515.167 538.5,509.5C 462.5,509.5 386.5,509.5 310.5,509.5 Z"/></g>
<g><path style="opacity:1" fill="#b4debd" d="M 890.5,509.5 C 890.167,509.5 889.833,509.5 889.5,509.5C 813.833,509.5 738.167,509.5 662.5,509.5C 662.5,514.833 662.5,520.167 662.5,525.5C 662.5,525.833 662.5,526.167 662.5,526.5C 661.51,520.69 661.177,514.69 661.5,508.5C 738.002,508.167 814.335,508.501 890.5,509.5 Z"/></g>
<g><path style="opacity:1" fill="#b6dfbf" d="M 1592.5,526.5 C 1592.5,520.833 1592.5,515.167 1592.5,509.5C 1516.83,509.5 1441.17,509.5 1365.5,509.5C 1365.5,515.167 1365.5,520.833 1365.5,526.5C 1364.51,520.69 1364.18,514.69 1364.5,508.5C 1440.83,508.5 1517.17,508.5 1593.5,508.5C 1593.82,514.69 1593.49,520.69 1592.5,526.5 Z"/></g>
<g><path style="opacity:1" fill="#f8fcf9" d="M 157.5,508.5 C 167.5,508.5 177.5,508.5 187.5,508.5C 187.5,514.5 187.5,520.5 187.5,526.5C 176.48,526.832 165.48,526.499 154.5,525.5C 156.88,520.082 157.88,514.415 157.5,508.5 Z"/></g>
<g><path style="opacity:1" fill="#94d0a2" d="M 222.5,509.5 C 216.833,509.5 211.167,509.5 205.5,509.5C 205.5,521.167 205.5,532.833 205.5,544.5C 200.968,544.182 196.634,544.515 192.5,545.5C 191.957,545.44 191.624,545.107 191.5,544.5C 195.783,543.508 200.116,543.174 204.5,543.5C 204.5,531.833 204.5,520.167 204.5,508.5C 210.69,508.177 216.69,508.51 222.5,509.5 Z"/></g>
<g><path style="opacity:1" fill="#fefefe" d="M 222.5,509.5 C 222.833,523.516 222.499,537.516 221.5,551.5C 210.667,554.392 201,552.392 192.5,545.5C 196.634,544.515 200.968,544.182 205.5,544.5C 205.5,532.833 205.5,521.167 205.5,509.5C 211.167,509.5 216.833,509.5 222.5,509.5 Z"/></g>
<g><path style="opacity:1" fill="#fcfdfc" d="M 240.5,508.5 C 246.167,508.5 251.833,508.5 257.5,508.5C 257.5,523.167 257.5,537.833 257.5,552.5C 251.848,551.003 246.182,549.67 240.5,548.5C 240.5,535.167 240.5,521.833 240.5,508.5 Z"/></g>
<g><path style="opacity:1" fill="#fefefe" d="M 275.5,509.5 C 281.167,509.5 286.833,509.5 292.5,509.5C 292.5,538.5 292.5,567.5 292.5,596.5C 271.167,596.5 249.833,596.5 228.5,596.5C 227.775,590.725 228.941,585.392 232,580.5C 234.719,579.556 237.552,579.223 240.5,579.5C 240.244,577.208 240.577,575.041 241.5,573C 246.771,570.689 251.937,568.189 257,565.5C 257.499,570.155 257.666,574.821 257.5,579.5C 263.5,579.5 269.5,579.5 275.5,579.5C 275.5,556.167 275.5,532.833 275.5,509.5 Z"/></g>
<g><path style="opacity:1" fill="#82c892" d="M 275.5,509.5 C 281.31,508.51 287.31,508.177 293.5,508.5C 293.831,538.005 293.498,567.338 292.5,596.5C 292.5,567.5 292.5,538.5 292.5,509.5C 286.833,509.5 281.167,509.5 275.5,509.5 Z"/></g>
<g><path style="opacity:1" fill="#fdfefd" d="M 310.5,509.5 C 386.5,509.5 462.5,509.5 538.5,509.5C 538.5,515.167 538.5,520.833 538.5,526.5C 462.5,526.5 386.5,526.5 310.5,526.5C 310.5,520.833 310.5,515.167 310.5,509.5 Z"/></g>
<g><path style="opacity:1" fill="#fefefe" d="M 556.5,509.5 C 562.167,509.5 567.833,509.5 573.5,509.5C 573.5,532.833 573.5,556.167 573.5,579.5C 579.69,579.823 585.69,579.49 591.5,578.5C 591.5,555.5 591.5,532.5 591.5,509.5C 597.167,509.5 602.833,509.5 608.5,509.5C 608.5,532.833 608.5,556.167 608.5,579.5C 614.5,579.5 620.5,579.5 626.5,579.5C 627.498,556.339 627.831,533.006 627.5,509.5C 632.833,509.5 638.167,509.5 643.5,509.5C 643.5,538.5 643.5,567.5 643.5,596.5C 614.5,596.5 585.5,596.5 556.5,596.5C 556.5,584.833 556.5,573.167 556.5,561.5C 539.167,561.5 521.833,561.5 504.5,561.5C 503.51,567.31 503.177,573.31 503.5,579.5C 515.167,579.5 526.833,579.5 538.5,579.5C 538.5,585.167 538.5,590.833 538.5,596.5C 521.167,596.5 503.833,596.5 486.5,596.5C 486.5,579.167 486.5,561.833 486.5,544.5C 510.006,544.831 533.339,544.498 556.5,543.5C 556.5,532.167 556.5,520.833 556.5,509.5 Z"/></g>
<g><path style="opacity:1" fill="#98d2a5" d="M 556.5,509.5 C 562.31,508.51 568.31,508.177 574.5,508.5C 574.5,531.833 574.5,555.167 574.5,578.5C 580.167,578.5 585.833,578.5 591.5,578.5C 585.69,579.49 579.69,579.823 573.5,579.5C 573.5,556.167 573.5,532.833 573.5,509.5C 567.833,509.5 562.167,509.5 556.5,509.5 Z"/></g>
<g><path style="opacity:1" fill="#aedcb9" d="M 591.5,509.5 C 597.31,508.51 603.31,508.177 609.5,508.5C 609.5,531.833 609.5,555.167 609.5,578.5C 615.167,578.5 620.833,578.5 626.5,578.5C 626.5,578.833 626.5,579.167 626.5,579.5C 620.5,579.5 614.5,579.5 608.5,579.5C 608.5,556.167 608.5,532.833 608.5,509.5C 602.833,509.5 597.167,509.5 591.5,509.5 Z"/></g>
<g><path style="opacity:1" fill="#d1ebd7" d="M 643.5,596.5 C 643.5,567.5 643.5,538.5 643.5,509.5C 638.167,509.5 632.833,509.5 627.5,509.5C 627.831,533.006 627.498,556.339 626.5,579.5C 626.5,579.167 626.5,578.833 626.5,578.5C 626.5,555.167 626.5,531.833 626.5,508.5C 632.5,508.5 638.5,508.5 644.5,508.5C 644.831,538.005 644.498,567.338 643.5,596.5 Z"/></g>
<g><path style="opacity:1" fill="#fefffe" d="M 889.5,509.5 C 889.5,514.833 889.5,520.167 889.5,525.5C 813.833,525.5 738.167,525.5 662.5,525.5C 662.5,520.167 662.5,514.833 662.5,509.5C 738.167,509.5 813.833,509.5 889.5,509.5 Z"/></g>
<g><path style="opacity:1" fill="#abdab6" d="M 925.5,509.5 C 919.833,509.5 914.167,509.5 908.5,509.5C 908.828,521.012 908.495,532.346 907.5,543.5C 907.5,531.833 907.5,520.167 907.5,508.5C 913.69,508.177 919.69,508.51 925.5,509.5 Z"/></g>
<g><path style="opacity:1" fill="#fdfefd" d="M 978.5,508.5 C 984.167,508.5 989.833,508.5 995.5,508.5C 995.5,537.833 995.5,567.167 995.5,596.5C 966.167,596.5 936.833,596.5 907.5,596.5C 907.5,584.833 907.5,573.167 907.5,561.5C 890.167,561.5 872.833,561.5 855.5,561.5C 854.51,567.31 854.177,573.31 854.5,579.5C 866.5,579.5 878.5,579.5 890.5,579.5C 890.5,585.167 890.5,590.833 890.5,596.5C 872.833,596.5 855.167,596.5 837.5,596.5C 837.5,578.833 837.5,561.167 837.5,543.5C 860.833,543.5 884.167,543.5 907.5,543.5C 908.495,532.346 908.828,521.012 908.5,509.5C 914.167,509.5 919.833,509.5 925.5,509.5C 925.5,532.5 925.5,555.5 925.5,578.5C 931.31,579.49 937.31,579.823 943.5,579.5C 943.5,556.167 943.5,532.833 943.5,509.5C 949.167,509.5 954.833,509.5 960.5,509.5C 960.5,532.5 960.5,555.5 960.5,578.5C 966.31,579.49 972.31,579.823 978.5,579.5C 978.5,555.833 978.5,532.167 978.5,508.5 Z"/></g>
<g><path style="opacity:1" fill="#8fce9d" d="M 960.5,509.5 C 954.833,509.5 949.167,509.5 943.5,509.5C 943.5,532.833 943.5,556.167 943.5,579.5C 937.31,579.823 931.31,579.49 925.5,578.5C 931.167,578.5 936.833,578.5 942.5,578.5C 942.5,555.167 942.5,531.833 942.5,508.5C 948.69,508.177 954.69,508.51 960.5,509.5 Z"/></g>
<g><path style="opacity:1" fill="#6ec082" d="M 978.5,508.5 C 978.5,532.167 978.5,555.833 978.5,579.5C 972.31,579.823 966.31,579.49 960.5,578.5C 966.167,578.5 971.833,578.5 977.5,578.5C 977.169,554.994 977.502,531.661 978.5,508.5 Z"/></g>
<g><path style="opacity:1" fill="#f9fcfa" d="M 1013.5,508.5 C 1089.5,508.5 1165.5,508.5 1241.5,508.5C 1241.5,514.5 1241.5,520.5 1241.5,526.5C 1165.5,526.5 1089.5,526.5 1013.5,526.5C 1013.5,520.5 1013.5,514.5 1013.5,508.5 Z"/></g>
<g><path style="opacity:1" fill="#fefefe" d="M 1259.5,509.5 C 1265.17,509.5 1270.83,509.5 1276.5,509.5C 1276.5,532.833 1276.5,556.167 1276.5,579.5C 1282.69,579.823 1288.69,579.49 1294.5,578.5C 1294.5,555.5 1294.5,532.5 1294.5,509.5C 1300.17,509.5 1305.83,509.5 1311.5,509.5C 1311.5,532.833 1311.5,556.167 1311.5,579.5C 1317.69,579.823 1323.69,579.49 1329.5,578.5C 1329.5,555.5 1329.5,532.5 1329.5,509.5C 1335.17,509.5 1340.83,509.5 1346.5,509.5C 1346.5,538.5 1346.5,567.5 1346.5,596.5C 1317.5,596.5 1288.5,596.5 1259.5,596.5C 1259.5,584.833 1259.5,573.167 1259.5,561.5C 1241.83,561.5 1224.17,561.5 1206.5,561.5C 1206.5,567.5 1206.5,573.5 1206.5,579.5C 1218.17,579.5 1229.83,579.5 1241.5,579.5C 1241.5,585.167 1241.5,590.833 1241.5,596.5C 1224.17,596.5 1206.83,596.5 1189.5,596.5C 1189.5,579.167 1189.5,561.833 1189.5,544.5C 1213.01,544.831 1236.34,544.498 1259.5,543.5C 1259.5,532.167 1259.5,520.833 1259.5,509.5 Z"/></g>
<g><path style="opacity:1" fill="#80c890" d="M 1259.5,509.5 C 1265.31,508.51 1271.31,508.177 1277.5,508.5C 1277.5,531.833 1277.5,555.167 1277.5,578.5C 1283.17,578.5 1288.83,578.5 1294.5,578.5C 1288.69,579.49 1282.69,579.823 1276.5,579.5C 1276.5,556.167 1276.5,532.833 1276.5,509.5C 1270.83,509.5 1265.17,509.5 1259.5,509.5 Z"/></g>
<g><path style="opacity:1" fill="#96d1a3" d="M 1294.5,509.5 C 1300.31,508.51 1306.31,508.177 1312.5,508.5C 1312.5,531.833 1312.5,555.167 1312.5,578.5C 1318.17,578.5 1323.83,578.5 1329.5,578.5C 1323.69,579.49 1317.69,579.823 1311.5,579.5C 1311.5,556.167 1311.5,532.833 1311.5,509.5C 1305.83,509.5 1300.17,509.5 1294.5,509.5 Z"/></g>
<g><path style="opacity:1" fill="#b4debe" d="M 1329.5,509.5 C 1335.31,508.51 1341.31,508.177 1347.5,508.5C 1347.83,538.005 1347.5,567.338 1346.5,596.5C 1346.5,567.5 1346.5,538.5 1346.5,509.5C 1340.83,509.5 1335.17,509.5 1329.5,509.5 Z"/></g>
<g><path style="opacity:1" fill="#fdfefd" d="M 1592.5,526.5 C 1516.83,526.5 1441.17,526.5 1365.5,526.5C 1365.5,520.833 1365.5,515.167 1365.5,509.5C 1441.17,509.5 1516.83,509.5 1592.5,509.5C 1592.5,515.167 1592.5,520.833 1592.5,526.5 Z"/></g>
<g><path style="opacity:1" fill="#fdfefd" d="M 1628.5,579.5 C 1634.5,579.5 1640.5,579.5 1646.5,579.5C 1646.5,556.167 1646.5,532.833 1646.5,509.5C 1652.17,509.5 1657.83,509.5 1663.5,509.5C 1663.5,532.5 1663.5,555.5 1663.5,578.5C 1669.31,579.49 1675.31,579.823 1681.5,579.5C 1681.5,556.167 1681.5,532.833 1681.5,509.5C 1687.17,509.5 1692.83,509.5 1698.5,509.5C 1698.5,538.5 1698.5,567.5 1698.5,596.5C 1669.17,596.5 1639.83,596.5 1610.5,596.5C 1610.5,584.833 1610.5,573.167 1610.5,561.5C 1593.17,561.5 1575.83,561.5 1558.5,561.5C 1557.51,567.31 1557.18,573.31 1557.5,579.5C 1569.17,579.5 1580.83,579.5 1592.5,579.5C 1592.5,585.167 1592.5,590.833 1592.5,596.5C 1575.17,596.5 1557.83,596.5 1540.5,596.5C 1540.5,578.833 1540.5,561.167 1540.5,543.5C 1563.83,543.5 1587.17,543.5 1610.5,543.5C 1611.49,532.346 1611.83,521.012 1611.5,509.5C 1616.83,509.5 1622.17,509.5 1627.5,509.5C 1627.17,533.006 1627.5,556.339 1628.5,579.5 Z"/></g>
<g><path style="opacity:1" fill="#cfead5" d="M 1628.5,578.5 C 1628.5,578.833 1628.5,579.167 1628.5,579.5C 1627.5,556.339 1627.17,533.006 1627.5,509.5C 1622.17,509.5 1616.83,509.5 1611.5,509.5C 1611.83,521.012 1611.49,532.346 1610.5,543.5C 1610.5,531.833 1610.5,520.167 1610.5,508.5C 1616.5,508.5 1622.5,508.5 1628.5,508.5C 1628.5,531.833 1628.5,555.167 1628.5,578.5 Z"/></g>
<g><path style="opacity:1" fill="#a7d8b2" d="M 1663.5,509.5 C 1657.83,509.5 1652.17,509.5 1646.5,509.5C 1646.5,532.833 1646.5,556.167 1646.5,579.5C 1640.5,579.5 1634.5,579.5 1628.5,579.5C 1628.5,579.167 1628.5,578.833 1628.5,578.5C 1634.17,578.5 1639.83,578.5 1645.5,578.5C 1645.5,555.167 1645.5,531.833 1645.5,508.5C 1651.69,508.177 1657.69,508.51 1663.5,509.5 Z"/></g>
<g><path style="opacity:1" fill="#91cf9f" d="M 1698.5,509.5 C 1692.83,509.5 1687.17,509.5 1681.5,509.5C 1681.5,532.833 1681.5,556.167 1681.5,579.5C 1675.31,579.823 1669.31,579.49 1663.5,578.5C 1669.17,578.5 1674.83,578.5 1680.5,578.5C 1680.5,555.167 1680.5,531.833 1680.5,508.5C 1686.69,508.177 1692.69,508.51 1698.5,509.5 Z"/></g>
<g><path style="opacity:1" fill="#f9fcfa" d="M 1716.5,508.5 C 1792.5,508.5 1868.5,508.5 1944.5,508.5C 1944.5,514.5 1944.5,520.5 1944.5,526.5C 1868.5,526.5 1792.5,526.5 1716.5,526.5C 1716.5,520.5 1716.5,514.5 1716.5,508.5 Z"/></g>
<g><path style="opacity:1" fill="#fefefe" d="M 1962.5,508.5 C 1966.55,508.176 1970.55,508.509 1974.5,509.5C 1972.72,511.945 1971.39,514.611 1970.5,517.5C 1973.52,522.844 1976.52,528.177 1979.5,533.5C 1979.5,548.833 1979.5,564.167 1979.5,579.5C 1981.17,579.5 1982.83,579.5 1984.5,579.5C 1984.5,580.5 1984.5,581.5 1984.5,582.5C 1983.55,587.24 1981.88,591.74 1979.5,596C 1973.84,596.499 1968.18,596.666 1962.5,596.5C 1962.5,584.833 1962.5,573.167 1962.5,561.5C 1944.83,561.5 1927.17,561.5 1909.5,561.5C 1909.5,567.5 1909.5,573.5 1909.5,579.5C 1921.17,579.5 1932.83,579.5 1944.5,579.5C 1944.5,585.167 1944.5,590.833 1944.5,596.5C 1927.17,596.5 1909.83,596.5 1892.5,596.5C 1892.5,579.167 1892.5,561.833 1892.5,544.5C 1915.83,544.5 1939.17,544.5 1962.5,544.5C 1962.5,532.5 1962.5,520.5 1962.5,508.5 Z"/></g>
<g><path style="opacity:1" fill="#e1f1e5" d="M 889.5,509.5 C 889.833,509.5 890.167,509.5 890.5,509.5C 890.5,515.167 890.5,520.833 890.5,526.5C 814.5,526.5 738.5,526.5 662.5,526.5C 662.5,526.167 662.5,525.833 662.5,525.5C 738.167,525.5 813.833,525.5 889.5,525.5C 889.5,520.167 889.5,514.833 889.5,509.5 Z"/></g>
<g><path style="opacity:1" fill="#5ab66f" d="M 1979.5,533.5 C 1980.5,548.324 1980.83,563.324 1980.5,578.5C 1982.17,578.5 1983.83,578.5 1985.5,578.5C 1985.77,580.099 1985.43,581.432 1984.5,582.5C 1984.5,581.5 1984.5,580.5 1984.5,579.5C 1982.83,579.5 1981.17,579.5 1979.5,579.5C 1979.5,564.167 1979.5,548.833 1979.5,533.5 Z"/></g>
<g><path style="opacity:1" fill="#9ad3a7" d="M 468.5,544.5 C 451.167,544.5 433.833,544.5 416.5,544.5C 416.5,550.167 416.5,555.833 416.5,561.5C 415.51,555.69 415.177,549.69 415.5,543.5C 433.341,543.17 451.008,543.503 468.5,544.5 Z"/></g>
<g><path style="opacity:1" fill="#8acb99" d="M 556.5,543.5 C 533.339,544.498 510.006,544.831 486.5,544.5C 486.5,561.833 486.5,579.167 486.5,596.5C 485.503,579.008 485.17,561.341 485.5,543.5C 509.167,543.5 532.833,543.5 556.5,543.5 Z"/></g>
<g><path style="opacity:1" fill="#90ce9e" d="M 802.5,578.5 C 785.008,579.497 767.341,579.83 749.5,579.5C 749.5,567.833 749.5,556.167 749.5,544.5C 720.5,544.5 691.5,544.5 662.5,544.5C 662.5,561.833 662.5,579.167 662.5,596.5C 661.503,579.008 661.17,561.341 661.5,543.5C 691.167,543.5 720.833,543.5 750.5,543.5C 750.5,555.167 750.5,566.833 750.5,578.5C 767.833,578.5 785.167,578.5 802.5,578.5 Z"/></g>
<g><path style="opacity:1" fill="#97d1a5" d="M 1013.5,544.5 C 1042.66,543.502 1072,543.169 1101.5,543.5C 1101.5,555.167 1101.5,566.833 1101.5,578.5C 1118.83,578.5 1136.17,578.5 1153.5,578.5C 1153.5,572.833 1153.5,567.167 1153.5,561.5C 1154.49,567.31 1154.82,573.31 1154.5,579.5C 1136.5,579.5 1118.5,579.5 1100.5,579.5C 1100.5,567.833 1100.5,556.167 1100.5,544.5C 1071.5,544.5 1042.5,544.5 1013.5,544.5 Z"/></g>
<g><path style="opacity:1" fill="#a1d6ad" d="M 1171.5,544.5 C 1154.17,544.5 1136.83,544.5 1119.5,544.5C 1119.5,550.167 1119.5,555.833 1119.5,561.5C 1118.51,555.69 1118.18,549.69 1118.5,543.5C 1136.34,543.17 1154.01,543.503 1171.5,544.5 Z"/></g>
<g><path style="opacity:1" fill="#94d0a2" d="M 1259.5,543.5 C 1236.34,544.498 1213.01,544.831 1189.5,544.5C 1189.5,561.833 1189.5,579.167 1189.5,596.5C 1188.5,579.008 1188.17,561.341 1188.5,543.5C 1212.17,543.5 1235.83,543.5 1259.5,543.5 Z"/></g>
<g><path style="opacity:1" fill="#8fce9e" d="M 1522.5,544.5 C 1505.17,544.5 1487.83,544.5 1470.5,544.5C 1470.5,550.167 1470.5,555.833 1470.5,561.5C 1469.51,555.69 1469.18,549.69 1469.5,543.5C 1487.34,543.17 1505.01,543.503 1522.5,544.5 Z"/></g>
<g><path style="opacity:1" fill="#90ce9f" d="M 1716.5,544.5 C 1745.66,543.502 1775,543.169 1804.5,543.5C 1804.5,555.167 1804.5,566.833 1804.5,578.5C 1821.83,578.5 1839.17,578.5 1856.5,578.5C 1839.01,579.497 1821.34,579.83 1803.5,579.5C 1803.5,567.833 1803.5,556.167 1803.5,544.5C 1774.5,544.5 1745.5,544.5 1716.5,544.5 Z"/></g>
<g><path style="opacity:1" fill="#96d1a3" d="M 1962.5,508.5 C 1962.5,520.5 1962.5,532.5 1962.5,544.5C 1939.17,544.5 1915.83,544.5 1892.5,544.5C 1892.5,561.833 1892.5,579.167 1892.5,596.5C 1891.5,579.008 1891.17,561.341 1891.5,543.5C 1914.83,543.5 1938.17,543.5 1961.5,543.5C 1961.17,531.655 1961.51,519.988 1962.5,508.5 Z"/></g>
<g><path style="opacity:1" fill="#fbfdfc" d="M 398.5,578.5 C 415.992,579.497 433.659,579.83 451.5,579.5C 451.823,573.31 451.49,567.31 450.5,561.5C 439.167,561.5 427.833,561.5 416.5,561.5C 416.5,555.833 416.5,550.167 416.5,544.5C 433.833,544.5 451.167,544.5 468.5,544.5C 468.5,561.833 468.5,579.167 468.5,596.5C 439.167,596.5 409.833,596.5 380.5,596.5C 380.5,584.833 380.5,573.167 380.5,561.5C 363.167,561.5 345.833,561.5 328.5,561.5C 328.5,573.167 328.5,584.833 328.5,596.5C 322.5,596.5 316.5,596.5 310.5,596.5C 310.5,578.833 310.5,561.167 310.5,543.5C 339.833,543.5 369.167,543.5 398.5,543.5C 398.5,555.167 398.5,566.833 398.5,578.5 Z"/></g>
<g><path style="opacity:1" fill="#fefefe" d="M 802.5,578.5 C 802.5,572.833 802.5,567.167 802.5,561.5C 790.833,561.5 779.167,561.5 767.5,561.5C 767.5,555.833 767.5,550.167 767.5,544.5C 784.833,544.5 802.167,544.5 819.5,544.5C 819.5,561.833 819.5,579.167 819.5,596.5C 790.5,596.5 761.5,596.5 732.5,596.5C 732.5,584.833 732.5,573.167 732.5,561.5C 714.833,561.5 697.167,561.5 679.5,561.5C 679.5,573.167 679.5,584.833 679.5,596.5C 673.833,596.5 668.167,596.5 662.5,596.5C 662.5,579.167 662.5,561.833 662.5,544.5C 691.5,544.5 720.5,544.5 749.5,544.5C 749.5,556.167 749.5,567.833 749.5,579.5C 767.341,579.83 785.008,579.497 802.5,578.5 Z"/></g>
<g><path style="opacity:1" fill="#96d1a4" d="M 767.5,544.5 C 784.992,543.503 802.659,543.17 820.5,543.5C 820.83,561.341 820.497,579.008 819.5,596.5C 819.5,579.167 819.5,561.833 819.5,544.5C 802.167,544.5 784.833,544.5 767.5,544.5 Z"/></g>
<g><path style="opacity:1" fill="#fefefe" d="M 1013.5,544.5 C 1042.5,544.5 1071.5,544.5 1100.5,544.5C 1100.5,556.167 1100.5,567.833 1100.5,579.5C 1118.5,579.5 1136.5,579.5 1154.5,579.5C 1154.82,573.31 1154.49,567.31 1153.5,561.5C 1142.17,561.5 1130.83,561.5 1119.5,561.5C 1119.5,555.833 1119.5,550.167 1119.5,544.5C 1136.83,544.5 1154.17,544.5 1171.5,544.5C 1171.5,561.833 1171.5,579.167 1171.5,596.5C 1142.17,596.5 1112.83,596.5 1083.5,596.5C 1083.5,584.833 1083.5,573.167 1083.5,561.5C 1065.83,561.5 1048.17,561.5 1030.5,561.5C 1030.5,573.167 1030.5,584.833 1030.5,596.5C 1024.83,596.5 1019.17,596.5 1013.5,596.5C 1013.5,579.167 1013.5,561.833 1013.5,544.5 Z"/></g>
<g><path style="opacity:1" fill="#fcfdfc" d="M 1470.5,561.5 C 1470.5,555.833 1470.5,550.167 1470.5,544.5C 1487.83,544.5 1505.17,544.5 1522.5,544.5C 1522.5,561.833 1522.5,579.167 1522.5,596.5C 1493.5,596.5 1464.5,596.5 1435.5,596.5C 1435.5,584.833 1435.5,573.167 1435.5,561.5C 1417.83,561.5 1400.17,561.5 1382.5,561.5C 1382.5,573.167 1382.5,584.833 1382.5,596.5C 1376.5,596.5 1370.5,596.5 1364.5,596.5C 1364.5,578.833 1364.5,561.167 1364.5,543.5C 1393.83,543.5 1423.17,543.5 1452.5,543.5C 1452.5,555.5 1452.5,567.5 1452.5,579.5C 1470.17,579.5 1487.83,579.5 1505.5,579.5C 1505.5,573.5 1505.5,567.5 1505.5,561.5C 1493.83,561.5 1482.17,561.5 1470.5,561.5 Z"/></g>
<g><path style="opacity:1" fill="#fefefe" d="M 1716.5,544.5 C 1745.5,544.5 1774.5,544.5 1803.5,544.5C 1803.5,556.167 1803.5,567.833 1803.5,579.5C 1821.34,579.83 1839.01,579.497 1856.5,578.5C 1856.5,572.833 1856.5,567.167 1856.5,561.5C 1844.83,561.5 1833.17,561.5 1821.5,561.5C 1821.5,555.833 1821.5,550.167 1821.5,544.5C 1838.83,544.5 1856.17,544.5 1873.5,544.5C 1873.5,561.833 1873.5,579.167 1873.5,596.5C 1844.5,596.5 1815.5,596.5 1786.5,596.5C 1786.5,584.833 1786.5,573.167 1786.5,561.5C 1768.83,561.5 1751.17,561.5 1733.5,561.5C 1733.5,573.167 1733.5,584.833 1733.5,596.5C 1727.83,596.5 1722.17,596.5 1716.5,596.5C 1716.5,579.167 1716.5,561.833 1716.5,544.5 Z"/></g>
<g><path style="opacity:1" fill="#bee2c6" d="M 1821.5,544.5 C 1838.99,543.503 1856.66,543.17 1874.5,543.5C 1874.83,561.341 1874.5,579.008 1873.5,596.5C 1873.5,579.167 1873.5,561.833 1873.5,544.5C 1856.17,544.5 1838.83,544.5 1821.5,544.5 Z"/></g>
<g><path style="opacity:1" fill="#7ec68f" d="M 450.5,561.5 C 451.49,567.31 451.823,573.31 451.5,579.5C 433.659,579.83 415.992,579.497 398.5,578.5C 415.833,578.5 433.167,578.5 450.5,578.5C 450.5,572.833 450.5,567.167 450.5,561.5 Z"/></g>
<g><path style="opacity:1" fill="#73c185" d="M 504.5,561.5 C 504.5,567.167 504.5,572.833 504.5,578.5C 516.012,578.172 527.346,578.505 538.5,579.5C 526.833,579.5 515.167,579.5 503.5,579.5C 503.177,573.31 503.51,567.31 504.5,561.5 Z"/></g>
<g><path style="opacity:1" fill="#8acb99" d="M 855.5,561.5 C 855.5,567.167 855.5,572.833 855.5,578.5C 867.345,578.172 879.012,578.505 890.5,579.5C 878.5,579.5 866.5,579.5 854.5,579.5C 854.177,573.31 854.51,567.31 855.5,561.5 Z"/></g>
<g><path style="opacity:1" fill="#8bcc9a" d="M 1558.5,561.5 C 1558.5,567.167 1558.5,572.833 1558.5,578.5C 1570.17,578.5 1581.83,578.5 1593.5,578.5C 1593.82,584.69 1593.49,590.69 1592.5,596.5C 1592.5,590.833 1592.5,585.167 1592.5,579.5C 1580.83,579.5 1569.17,579.5 1557.5,579.5C 1557.18,573.31 1557.51,567.31 1558.5,561.5 Z"/></g>
<g><path style="opacity:1" fill="#fdfefd" d="M 345.5,579.5 C 351.167,579.5 356.833,579.5 362.5,579.5C 362.5,585.167 362.5,590.833 362.5,596.5C 362.5,590.833 362.5,585.167 362.5,579.5C 356.833,579.5 351.167,579.5 345.5,579.5 Z"/></g>
<g><path style="opacity:1" fill="#a3d6ae" d="M 345.5,579.5 C 351.31,578.51 357.31,578.177 363.5,578.5C 363.823,584.69 363.49,590.69 362.5,596.5C 362.5,590.833 362.5,585.167 362.5,579.5C 356.833,579.5 351.167,579.5 345.5,579.5 Z"/></g>
<g><path style="opacity:1" fill="#fefffe" d="M 697.5,579.5 C 703.167,579.5 708.833,579.5 714.5,579.5C 714.5,585.167 714.5,590.833 714.5,596.5C 708.833,596.5 703.167,596.5 697.5,596.5C 697.5,590.833 697.5,585.167 697.5,579.5 Z"/></g>
<g><path style="opacity:1" fill="#fefffe" d="M 1048.5,579.5 C 1054.17,579.5 1059.83,579.5 1065.5,579.5C 1065.5,585.167 1065.5,590.833 1065.5,596.5C 1059.83,596.5 1054.17,596.5 1048.5,596.5C 1048.5,590.833 1048.5,585.167 1048.5,579.5 Z"/></g>
<g><path style="opacity:1" fill="#9bd3a7" d="M 1417.5,579.5 C 1411.83,579.5 1406.17,579.5 1400.5,579.5C 1400.5,585.167 1400.5,590.833 1400.5,596.5C 1399.51,590.69 1399.18,584.69 1399.5,578.5C 1405.69,578.177 1411.69,578.51 1417.5,579.5 Z"/></g>
<g><path style="opacity:1" fill="#fefefe" d="M 1417.5,579.5 C 1417.5,585.167 1417.5,590.833 1417.5,596.5C 1411.83,596.5 1406.17,596.5 1400.5,596.5C 1400.5,590.833 1400.5,585.167 1400.5,579.5C 1406.17,579.5 1411.83,579.5 1417.5,579.5 Z"/></g>
<g><path style="opacity:1" fill="#fefffe" d="M 1751.5,579.5 C 1757.17,579.5 1762.83,579.5 1768.5,579.5C 1768.5,585.167 1768.5,590.833 1768.5,596.5C 1762.83,596.5 1757.17,596.5 1751.5,596.5C 1751.5,590.833 1751.5,585.167 1751.5,579.5 Z"/></g>
<g><path style="opacity:1" fill="#66bc79" d="M 819.5,614.5 C 767.167,614.5 714.833,614.5 662.5,614.5C 662.825,621.687 662.491,628.687 661.5,635.5C 661.5,628.167 661.5,620.833 661.5,613.5C 714.336,613.168 767.003,613.501 819.5,614.5 Z"/></g>
<g><path style="opacity:1" fill="#5db872" d="M 1891.5,614.5 C 1917.34,613.171 1943.34,613.171 1969.5,614.5C 1969.38,615.107 1969.04,615.44 1968.5,615.5C 1943.01,614.502 1917.34,614.169 1891.5,614.5 Z"/></g>
<g><path style="opacity:1" fill="#fefefe" d="M 661.5,635.5 C 662.491,628.687 662.825,621.687 662.5,614.5C 714.833,614.5 767.167,614.5 819.5,614.5C 820.491,621.313 820.825,628.313 820.5,635.5C 826.167,635.5 831.833,635.5 837.5,635.5C 837.5,628.5 837.5,621.5 837.5,614.5C 890.167,614.5 942.833,614.5 995.5,614.5C 995.5,621.5 995.5,628.5 995.5,635.5C 1001.5,635.5 1007.5,635.5 1013.5,635.5C 1013.5,628.5 1013.5,621.5 1013.5,614.5C 1066.17,614.5 1118.83,614.5 1171.5,614.5C 1171.5,621.5 1171.5,628.5 1171.5,635.5C 1177.5,635.5 1183.5,635.5 1189.5,635.5C 1189.5,628.5 1189.5,621.5 1189.5,614.5C 1242.17,614.5 1294.83,614.5 1347.5,614.5C 1347.5,621.5 1347.5,628.5 1347.5,635.5C 1353.17,635.5 1358.83,635.5 1364.5,635.5C 1364.5,628.5 1364.5,621.5 1364.5,614.5C 1417.17,614.5 1469.83,614.5 1522.5,614.5C 1522.5,621.5 1522.5,628.5 1522.5,635.5C 1528.5,635.5 1534.5,635.5 1540.5,635.5C 1540.5,628.5 1540.5,621.5 1540.5,614.5C 1593.17,614.5 1645.83,614.5 1698.5,614.5C 1698.5,621.5 1698.5,628.5 1698.5,635.5C 1704.5,635.5 1710.5,635.5 1716.5,635.5C 1716.5,628.5 1716.5,621.5 1716.5,614.5C 1769.17,614.5 1821.83,614.5 1874.5,614.5C 1874.5,621.5 1874.5,628.5 1874.5,635.5C 1880.17,635.5 1885.83,635.5 1891.5,635.5C 1891.5,628.5 1891.5,621.5 1891.5,614.5C 1917.34,614.169 1943.01,614.502 1968.5,615.5C 1967.06,618.711 1965.9,622.045 1965,625.5C 1964.5,633.493 1964.33,641.493 1964.5,649.5C 1963.17,649.5 1961.83,649.5 1960.5,649.5C 1959.72,663.477 1957.22,677.144 1953,690.5C 1946.89,707.116 1935.05,716.449 1917.5,718.5C 1920.41,724.239 1923.91,729.572 1928,734.5C 1932.64,739.318 1932.47,743.818 1927.5,748C 1921.5,751.333 1915.5,754.667 1909.5,758C 1902.55,761.619 1897.72,767.119 1895,774.5C 1888.7,796.662 1889.37,818.662 1897,840.5C 1903.43,856.467 1915.26,864.634 1932.5,865C 1934.74,865.734 1936.07,867.234 1936.5,869.5C 1935.47,873.884 1933.64,877.884 1931,881.5C 1924.33,890.167 1917.67,898.833 1911,907.5C 1908.45,911.935 1906.45,916.601 1905,921.5C 1902.78,934.288 1903.45,946.955 1907,959.5C 1913.54,979.134 1920.88,998.467 1929,1017.5C 1934.23,1031.72 1935.9,1046.39 1934,1061.5C 1932.59,1075.82 1931.42,1090.15 1930.5,1104.5C 1930.53,1110.87 1931.03,1117.21 1932,1123.5C 1934.67,1145.5 1946.84,1158.33 1968.5,1162C 1985.48,1163.13 2002.48,1163.79 2019.5,1164C 2034.06,1163.9 2043.56,1170.74 2048,1184.5C 2050.05,1209.26 2045.05,1232.59 2033,1254.5C 2025.39,1265.78 2017.39,1276.78 2009,1287.5C 1992.3,1307.54 1975.14,1327.21 1957.5,1346.5C 1958.73,1347.28 1960.06,1347.78 1961.5,1348C 1957.89,1351.77 1954.89,1355.93 1952.5,1360.5C 1949.22,1364.97 1946.89,1369.97 1945.5,1375.5C 1944.54,1377.26 1944.21,1379.26 1944.5,1381.5C 1927.17,1381.5 1909.83,1381.5 1892.5,1381.5C 1892.5,1374.5 1892.5,1367.5 1892.5,1360.5C 1886.17,1360.5 1879.83,1360.5 1873.5,1360.5C 1873.5,1367.5 1873.5,1374.5 1873.5,1381.5C 1821.17,1381.5 1768.83,1381.5 1716.5,1381.5C 1716.5,1374.5 1716.5,1367.5 1716.5,1360.5C 1710.31,1360.18 1704.31,1360.51 1698.5,1361.5C 1698.5,1368.5 1698.5,1375.5 1698.5,1382.5C 1645.83,1382.5 1593.17,1382.5 1540.5,1382.5C 1540.5,1375.5 1540.5,1368.5 1540.5,1361.5C 1534.69,1360.51 1528.69,1360.18 1522.5,1360.5C 1522.5,1367.5 1522.5,1374.5 1522.5,1381.5C 1470.17,1381.5 1417.83,1381.5 1365.5,1381.5C 1365.5,1374.5 1365.5,1367.5 1365.5,1360.5C 1359.17,1360.5 1352.83,1360.5 1346.5,1360.5C 1346.5,1367.5 1346.5,1374.5 1346.5,1381.5C 1294.17,1381.5 1241.83,1381.5 1189.5,1381.5C 1189.5,1374.5 1189.5,1367.5 1189.5,1360.5C 1183.31,1360.18 1177.31,1360.51 1171.5,1361.5C 1171.5,1368.5 1171.5,1375.5 1171.5,1382.5C 1118.83,1382.5 1066.17,1382.5 1013.5,1382.5C 1013.5,1375.17 1013.5,1367.83 1013.5,1360.5C 1007.5,1360.5 1001.5,1360.5 995.5,1360.5C 995.5,1367.83 995.5,1375.17 995.5,1382.5C 942.833,1382.5 890.167,1382.5 837.5,1382.5C 837.5,1375.5 837.5,1368.5 837.5,1361.5C 831.69,1360.51 825.69,1360.18 819.5,1360.5C 819.5,1367.83 819.5,1375.17 819.5,1382.5C 785.165,1382.67 750.832,1382.5 716.5,1382C 713.686,1377.06 711.352,1371.89 709.5,1366.5C 709.043,1365.7 708.376,1365.37 707.5,1365.5C 707.804,1364.85 708.137,1364.18 708.5,1363.5C 706.833,1358.17 705.167,1352.83 703.5,1347.5C 704.325,1346.61 705.325,1346.28 706.5,1346.5C 704.425,1335.29 697.758,1330.79 686.5,1333C 678.523,1336.66 671.189,1341.32 664.5,1347C 666.167,1347.33 667.833,1347.67 669.5,1348C 667.167,1349.83 664.833,1351.67 662.5,1353.5C 661.833,1352.5 661.167,1351.5 660.5,1350.5C 655.476,1354.68 649.809,1357.18 643.5,1358C 640.184,1353.42 636.184,1349.42 631.5,1346C 624.394,1343.27 617.061,1341.27 609.5,1340C 600.91,1329.87 591.243,1320.87 580.5,1313C 575.145,1309.21 570.311,1309.71 566,1314.5C 556.582,1332.33 544.082,1347.66 528.5,1360.5C 523.833,1360.5 519.167,1360.5 514.5,1360.5C 512.134,1352.65 510.301,1344.65 509,1336.5C 505.444,1327.93 499.944,1320.76 492.5,1315C 486.709,1310.88 481.209,1306.38 476,1301.5C 471.115,1295.35 468.949,1288.35 469.5,1280.5C 471.165,1266.54 471.665,1252.54 471,1238.5C 470.275,1236.05 469.275,1233.72 468,1231.5C 461.142,1224.21 452.642,1221.38 442.5,1223C 436.233,1221.07 432.399,1216.9 431,1210.5C 429.522,1202.89 429.188,1195.22 430,1187.5C 434.365,1168.43 439.031,1149.43 444,1130.5C 446.139,1118.71 444.139,1107.71 438,1097.5C 428.283,1085.45 418.949,1073.12 410,1060.5C 405.922,1052.01 401.588,1043.68 397,1035.5C 391.146,1027.48 383.313,1022.31 373.5,1020C 356.813,1017.24 342.979,1009.41 332,996.5C 320.376,981.207 306.543,968.373 290.5,958C 279.122,951.21 266.789,948.544 253.5,950C 252.692,949.692 252.025,949.192 251.5,948.5C 250.771,943.131 248.438,938.631 244.5,935C 253.736,928.047 255.903,919.214 251,908.5C 244.279,894.782 235.612,882.449 225,871.5C 204.6,853.102 185.6,833.435 168,812.5C 167.333,810.833 167.333,809.167 168,807.5C 172.496,801.844 176.496,795.844 180,789.5C 183.182,782.48 184.182,775.147 183,767.5C 179.433,761.264 175.1,755.597 170,750.5C 169.827,742.828 171.994,735.828 176.5,729.5C 184.353,733.546 192.686,735.213 201.5,734.5C 200.738,725.38 199.238,716.38 197,707.5C 194.694,699.371 196.86,692.871 203.5,688C 209.615,685.211 214.448,681.045 218,675.5C 219.273,670.568 220.773,665.735 222.5,661C 230.229,660.857 237.895,660.19 245.5,659C 249.597,657.078 251.93,653.912 252.5,649.5C 251.5,649.5 250.5,649.5 249.5,649.5C 249.825,644.401 249.325,639.401 248,634.5C 244.228,627.732 240.061,621.232 235.5,615C 254.497,614.5 273.497,614.333 292.5,614.5C 292.5,621.5 292.5,628.5 292.5,635.5C 298.5,635.5 304.5,635.5 310.5,635.5C 310.5,628.5 310.5,621.5 310.5,614.5C 363.167,614.5 415.833,614.5 468.5,614.5C 468.5,621.5 468.5,628.5 468.5,635.5C 474.5,635.5 480.5,635.5 486.5,635.5C 486.5,628.5 486.5,621.5 486.5,614.5C 539.167,614.5 591.833,614.5 644.5,614.5C 644.5,621.5 644.5,628.5 644.5,635.5C 650.167,635.5 655.833,635.5 661.5,635.5 Z"/></g>
<g><path style="opacity:1" fill="#da0703" d="M 1111.5,719.5 C 1130.45,743.245 1153.29,747.579 1180,732.5C 1197.84,743.944 1216.01,744.444 1234.5,734C 1240,729.833 1244.83,725 1249,719.5C 1252.18,737.286 1246.68,751.786 1232.5,763C 1213.57,773.285 1196.07,771.451 1180,757.5C 1169.19,767.748 1156.36,771.582 1141.5,769C 1118.06,760.614 1108.06,744.114 1111.5,719.5 Z"/></g>
<g><path style="opacity:1" fill="#da0301" d="M 1179.5,766.5 C 1191.39,774.88 1202.89,783.88 1214,793.5C 1212.58,907.324 1211.08,1021.16 1209.5,1135C 1209.83,1145.83 1210.17,1156.67 1210.5,1167.5C 1271.06,1119.74 1306.9,1057.41 1318,980.5C 1325.92,908.721 1309.25,843.388 1268,784.5C 1267.33,783.833 1267.33,783.167 1268,782.5C 1344.77,849.465 1374.77,933.465 1358,1034.5C 1340.36,1111.68 1297.52,1170.18 1229.5,1210C 1268.47,1223.06 1308.47,1227.73 1349.5,1224C 1303.73,1241.18 1256.73,1245.68 1208.5,1237.5C 1208.65,1238.55 1208.48,1239.55 1208,1240.5C 1198.97,1251.2 1189.63,1261.53 1180,1271.5C 1170.65,1261.82 1161.65,1251.82 1153,1241.5C 1152.51,1240.21 1152.34,1238.87 1152.5,1237.5C 1104.21,1246.11 1057.21,1241.61 1011.5,1224C 1052.43,1227.37 1092.43,1222.7 1131.5,1210C 1050.76,1162.74 1006.26,1092.24 998,998.5C 994.827,916.375 1022.99,847.208 1082.5,791C 1085.67,788.5 1088.83,786 1092,783.5C 1031.95,874.288 1024.29,969.621 1069,1069.5C 1088.65,1108.82 1115.98,1141.82 1151,1168.5C 1149.56,1043.5 1148.22,918.503 1147,793.5C 1158.02,784.636 1168.86,775.636 1179.5,766.5 Z"/></g>
<g><path style="opacity:1" fill="#da0502" d="M 1056.5,773.5 C 1057.87,773.343 1059.21,773.51 1060.5,774C 978.853,837.818 941.687,921.651 949,1025.5C 955.062,1083.1 976.562,1133.93 1013.5,1178C 1013.17,1178.17 1012.83,1178.33 1012.5,1178.5C 946.153,1139.55 908.653,1081.55 900,1004.5C 895.584,932.384 919.418,871.551 971.5,822C 996.54,800.144 1024.87,783.978 1056.5,773.5 Z"/></g>
<g><path style="opacity:1" fill="#da0502" d="M 1300.5,774.5 C 1300.56,773.957 1300.89,773.624 1301.5,773.5C 1367.17,793.665 1414.34,834.999 1443,897.5C 1469.85,963.838 1466.85,1028.84 1434,1092.5C 1413.31,1129.53 1384.47,1158.03 1347.5,1178C 1401.28,1111.05 1421.78,1034.88 1409,949.5C 1395.1,876.982 1358.94,818.649 1300.5,774.5 Z"/></g>
<g><path style="opacity:0.947" fill="#29a143" d="M 707.5,1365.5 C 706.5,1365.5 705.5,1365.5 704.5,1365.5C 702.309,1358.09 699.809,1350.76 697,1343.5C 695.745,1341.41 693.912,1340.41 691.5,1340.5C 688.298,1341.1 685.298,1342.27 682.5,1344C 673.519,1351.16 664.185,1357.82 654.5,1364C 649.583,1366.46 644.583,1366.79 639.5,1365C 634.833,1361.67 630.833,1357.67 627.5,1353C 619.467,1350.79 611.467,1348.46 603.5,1346C 594.976,1335.48 585.143,1326.31 574,1318.5C 565.41,1333.43 554.91,1346.93 542.5,1359C 541.473,1359.51 540.473,1360.01 539.5,1360.5C 535.833,1360.5 532.167,1360.5 528.5,1360.5C 544.082,1347.66 556.582,1332.33 566,1314.5C 570.311,1309.71 575.145,1309.21 580.5,1313C 591.243,1320.87 600.91,1329.87 609.5,1340C 617.061,1341.27 624.394,1343.27 631.5,1346C 636.184,1349.42 640.184,1353.42 643.5,1358C 649.809,1357.18 655.476,1354.68 660.5,1350.5C 661.167,1351.5 661.833,1352.5 662.5,1353.5C 664.833,1351.67 667.167,1349.83 669.5,1348C 667.833,1347.67 666.167,1347.33 664.5,1347C 671.189,1341.32 678.523,1336.66 686.5,1333C 697.758,1330.79 704.425,1335.29 706.5,1346.5C 705.325,1346.28 704.325,1346.61 703.5,1347.5C 705.167,1352.83 706.833,1358.17 708.5,1363.5C 708.137,1364.18 707.804,1364.85 707.5,1365.5 Z"/></g>
<g><path style="opacity:0.994" fill="#cf220b" d="M 505.5,1360.5 C 508.5,1360.5 511.5,1360.5 514.5,1360.5C 519.167,1360.5 523.833,1360.5 528.5,1360.5C 532.167,1360.5 535.833,1360.5 539.5,1360.5C 533.751,1366.31 527.251,1371.31 520,1375.5C 512.937,1372.6 508.104,1367.6 505.5,1360.5 Z"/></g>
<g><path style="opacity:1" fill="#ec7d7d" d="M 837.5,1361.5 C 831.833,1361.5 826.167,1361.5 820.5,1361.5C 820.825,1368.69 820.491,1375.69 819.5,1382.5C 819.5,1375.17 819.5,1367.83 819.5,1360.5C 825.69,1360.18 831.69,1360.51 837.5,1361.5 Z"/></g>
<g><path style="opacity:0.999" fill="#d90000" d="M 1952.5,1360.5 C 1954.18,1360.29 1955.18,1360.95 1955.5,1362.5C 1953.9,1366.6 1952.06,1370.6 1950,1374.5C 1948.96,1379.44 1949.63,1384.11 1952,1388.5C 1969.74,1405.56 1984.4,1424.9 1996,1446.5C 2007.05,1468.33 2017.72,1490.33 2028,1512.5C 2035.92,1528.1 2047.09,1540.93 2061.5,1551C 2078.83,1559 2096.17,1567 2113.5,1575C 2121.8,1581.63 2129.8,1588.63 2137.5,1596C 2142.36,1599.18 2147.69,1601.18 2153.5,1602C 2158.84,1605.83 2162.34,1610.99 2164,1617.5C 2166.17,1625.69 2167.5,1634.03 2168,1642.5C 2168.64,1665.17 2168.48,1687.84 2167.5,1710.5C 2167.16,1717.99 2167.99,1725.33 2170,1732.5C 2171.23,1734.73 2173.06,1736.23 2175.5,1737C 2188.72,1737.63 2201.72,1739.63 2214.5,1743C 2219.65,1746.16 2222.65,1750.66 2223.5,1756.5C 2223.5,1760.83 2223.5,1765.17 2223.5,1769.5C 2220.48,1785.24 2216.65,1800.91 2212,1816.5C 2206.07,1824.23 2198.24,1829.06 2188.5,1831C 2169.54,1834.25 2150.54,1837.25 2131.5,1840C 2122.38,1841.31 2114.55,1845.14 2108,1851.5C 2106.86,1854.06 2106.03,1856.73 2105.5,1859.5C 2106.5,1864.18 2107.5,1868.85 2108.5,1873.5C 2105.03,1872.76 2101.53,1872.09 2098,1871.5C 2083.61,1874.07 2070.61,1879.74 2059,1888.5C 2057.39,1891.38 2056.06,1894.38 2055,1897.5C 2054.03,1908.84 2053.03,1920.17 2052,1931.5C 2046.65,1946.55 2042.32,1961.89 2039,1977.5C 2037.84,1990.47 2037.17,2003.47 2037,2016.5C 2036.53,2026.81 2031.37,2033.15 2021.5,2035.5C 2019.97,2041.03 2016.64,2045.03 2011.5,2047.5C 2005.17,2047.5 1998.83,2047.5 1992.5,2047.5C 1978.26,2044.14 1964.26,2039.64 1950.5,2034C 1939.63,2032.5 1928.96,2030.16 1918.5,2027C 1915.7,2025.21 1913.2,2023.04 1911,2020.5C 1909.66,2015.13 1907.83,2009.96 1905.5,2005C 1901.47,2003.66 1898.47,2004.83 1896.5,2008.5C 1898.38,2011.09 1900.38,2013.59 1902.5,2016C 1895.65,2017.96 1888.65,2018.79 1881.5,2018.5C 1864.77,2018.2 1848.1,2017.03 1831.5,2015C 1826.3,2012.81 1821.3,2010.15 1816.5,2007C 1804.48,2002.91 1792.15,2001.58 1779.5,2003C 1769.67,2004.21 1760,2006.21 1750.5,2009C 1741.14,2010.06 1732.48,2008.06 1724.5,2003C 1716.95,1996.45 1708.62,1991.12 1699.5,1987C 1689.87,1985.88 1680.2,1985.21 1670.5,1985C 1665.98,1984.25 1661.48,1983.41 1657,1982.5C 1650.08,1983.6 1643.25,1985.1 1636.5,1987C 1629.65,1988.03 1622.98,1987.37 1616.5,1985C 1611.19,1980.36 1605.86,1975.7 1600.5,1971C 1597.83,1971 1595.17,1971 1592.5,1971C 1585.94,1969.05 1579.94,1966.05 1574.5,1962C 1565.59,1959.62 1556.59,1957.62 1547.5,1956C 1542.08,1953.86 1536.75,1951.53 1531.5,1949C 1521.08,1937.32 1513.91,1923.82 1510,1908.5C 1507.16,1897.61 1504.82,1886.61 1503,1875.5C 1500.37,1854.53 1498.04,1833.53 1496,1812.5C 1486.41,1777.59 1463.41,1759.93 1427,1759.5C 1416.83,1758.75 1407.33,1760.92 1398.5,1766C 1390.09,1771.4 1381.43,1776.4 1372.5,1781C 1361.99,1784.21 1351.66,1787.88 1341.5,1792C 1335.82,1796.55 1334.82,1802.05 1338.5,1808.5C 1337.11,1814.72 1333.11,1817.89 1326.5,1818C 1315.1,1818.07 1303.76,1818.73 1292.5,1820C 1288.84,1821.5 1285.5,1823.5 1282.5,1826C 1272.64,1837.54 1261.3,1847.21 1248.5,1855C 1239.17,1858.33 1229.83,1858.33 1220.5,1855C 1209.17,1849.67 1198.51,1843.34 1188.5,1836C 1181.51,1831.39 1173.84,1828.89 1165.5,1828.5C 1153.18,1829.56 1140.85,1829.73 1128.5,1829C 1115.88,1827.44 1105.71,1821.61 1098,1811.5C 1093.99,1803.82 1088.82,1796.98 1082.5,1791C 1056.85,1778.67 1032.18,1764.67 1008.5,1749C 999.5,1744.17 990.5,1739.33 981.5,1734.5C 987.517,1731.12 990.35,1726.12 990,1719.5C 986.5,1713.33 981.667,1708.5 975.5,1705C 965.779,1699.47 955.779,1694.47 945.5,1690C 938.346,1684.25 930.679,1679.25 922.5,1675C 918.886,1674.06 915.219,1673.39 911.5,1673C 900.118,1672.88 888.785,1672.22 877.5,1671C 873.888,1669.86 870.554,1668.19 867.5,1666C 855.464,1655.97 845.631,1644.13 838,1630.5C 830.395,1615.62 823.061,1600.62 816,1585.5C 814.384,1581.65 813.384,1577.65 813,1573.5C 812.588,1566.48 811.921,1559.48 811,1552.5C 810.226,1548.95 808.893,1545.62 807,1542.5C 799.333,1536.17 791.667,1529.83 784,1523.5C 779.811,1516.98 778.644,1509.98 780.5,1502.5C 784.244,1503.85 787.911,1503.69 791.5,1502C 794.215,1498.28 793.215,1495.61 788.5,1494C 781.449,1492.91 774.449,1491.58 767.5,1490C 760.642,1487.45 758.142,1482.62 760,1475.5C 762.984,1470.88 764.817,1465.88 765.5,1460.5C 764.595,1453.02 761.762,1446.36 757,1440.5C 746.298,1429.47 735.964,1418.13 726,1406.5C 716.739,1393.98 709.572,1380.31 704.5,1365.5C 705.5,1365.5 706.5,1365.5 707.5,1365.5C 708.376,1365.37 709.043,1365.7 709.5,1366.5C 711.352,1371.89 713.686,1377.06 716.5,1382C 750.832,1382.5 785.165,1382.67 819.5,1382.5C 820.491,1375.69 820.825,1368.69 820.5,1361.5C 826.167,1361.5 831.833,1361.5 837.5,1361.5C 837.5,1368.5 837.5,1375.5 837.5,1382.5C 890.167,1382.5 942.833,1382.5 995.5,1382.5C 996.491,1375.69 996.825,1368.69 996.5,1361.5C 1001.83,1361.5 1007.17,1361.5 1012.5,1361.5C 1012.18,1368.69 1012.51,1375.69 1013.5,1382.5C 1066.17,1382.5 1118.83,1382.5 1171.5,1382.5C 1171.5,1375.5 1171.5,1368.5 1171.5,1361.5C 1177.17,1361.5 1182.83,1361.5 1188.5,1361.5C 1188.18,1368.69 1188.51,1375.69 1189.5,1382.5C 1242.17,1382.5 1294.83,1382.5 1347.5,1382.5C 1347.5,1375.5 1347.5,1368.5 1347.5,1361.5C 1353.17,1361.5 1358.83,1361.5 1364.5,1361.5C 1364.5,1368.5 1364.5,1375.5 1364.5,1382.5C 1417.17,1382.5 1469.83,1382.5 1522.5,1382.5C 1523.49,1375.69 1523.82,1368.69 1523.5,1361.5C 1529.17,1361.5 1534.83,1361.5 1540.5,1361.5C 1540.5,1368.5 1540.5,1375.5 1540.5,1382.5C 1593.17,1382.5 1645.83,1382.5 1698.5,1382.5C 1698.5,1375.5 1698.5,1368.5 1698.5,1361.5C 1704.17,1361.5 1709.83,1361.5 1715.5,1361.5C 1715.18,1368.69 1715.51,1375.69 1716.5,1382.5C 1769.17,1382.5 1821.83,1382.5 1874.5,1382.5C 1874.5,1375.5 1874.5,1368.5 1874.5,1361.5C 1880.17,1361.5 1885.83,1361.5 1891.5,1361.5C 1891.5,1368.5 1891.5,1375.5 1891.5,1382.5C 1909.5,1382.5 1927.5,1382.5 1945.5,1382.5C 1945.5,1380.17 1945.5,1377.83 1945.5,1375.5C 1946.89,1369.97 1949.22,1364.97 1952.5,1360.5 Z"/></g>
<g><path style="opacity:1" fill="#e44643" d="M 1013.5,1382.5 C 1012.51,1375.69 1012.18,1368.69 1012.5,1361.5C 1007.17,1361.5 1001.83,1361.5 996.5,1361.5C 996.825,1368.69 996.491,1375.69 995.5,1382.5C 995.5,1375.17 995.5,1367.83 995.5,1360.5C 1001.5,1360.5 1007.5,1360.5 1013.5,1360.5C 1013.5,1367.83 1013.5,1375.17 1013.5,1382.5 Z"/></g>
<g><path style="opacity:1" fill="#eb7474" d="M 1171.5,1361.5 C 1177.31,1360.51 1183.31,1360.18 1189.5,1360.5C 1189.5,1367.5 1189.5,1374.5 1189.5,1381.5C 1189.5,1381.83 1189.5,1382.17 1189.5,1382.5C 1188.51,1375.69 1188.18,1368.69 1188.5,1361.5C 1182.83,1361.5 1177.17,1361.5 1171.5,1361.5 Z"/></g>
<g><path style="opacity:1" fill="#e86262" d="M 1540.5,1361.5 C 1534.83,1361.5 1529.17,1361.5 1523.5,1361.5C 1523.82,1368.69 1523.49,1375.69 1522.5,1382.5C 1522.5,1382.17 1522.5,1381.83 1522.5,1381.5C 1522.5,1374.5 1522.5,1367.5 1522.5,1360.5C 1528.69,1360.18 1534.69,1360.51 1540.5,1361.5 Z"/></g>
<g><path style="opacity:1" fill="#e75d5c" d="M 1698.5,1361.5 C 1704.31,1360.51 1710.31,1360.18 1716.5,1360.5C 1716.5,1367.5 1716.5,1374.5 1716.5,1381.5C 1716.5,1381.83 1716.5,1382.17 1716.5,1382.5C 1715.51,1375.69 1715.18,1368.69 1715.5,1361.5C 1709.83,1361.5 1704.17,1361.5 1698.5,1361.5 Z"/></g>
<g><path style="opacity:1" fill="#f4b9b9" d="M 1522.5,1381.5 C 1522.5,1381.83 1522.5,1382.17 1522.5,1382.5C 1469.83,1382.5 1417.17,1382.5 1364.5,1382.5C 1364.5,1375.5 1364.5,1368.5 1364.5,1361.5C 1358.83,1361.5 1353.17,1361.5 1347.5,1361.5C 1347.5,1368.5 1347.5,1375.5 1347.5,1382.5C 1294.83,1382.5 1242.17,1382.5 1189.5,1382.5C 1189.5,1382.17 1189.5,1381.83 1189.5,1381.5C 1241.83,1381.5 1294.17,1381.5 1346.5,1381.5C 1346.5,1374.5 1346.5,1367.5 1346.5,1360.5C 1352.83,1360.5 1359.17,1360.5 1365.5,1360.5C 1365.5,1367.5 1365.5,1374.5 1365.5,1381.5C 1417.83,1381.5 1470.17,1381.5 1522.5,1381.5 Z"/></g>
<g><path style="opacity:1" fill="#f4b7b7" d="M 1945.5,1375.5 C 1945.5,1377.83 1945.5,1380.17 1945.5,1382.5C 1927.5,1382.5 1909.5,1382.5 1891.5,1382.5C 1891.5,1375.5 1891.5,1368.5 1891.5,1361.5C 1885.83,1361.5 1880.17,1361.5 1874.5,1361.5C 1874.5,1368.5 1874.5,1375.5 1874.5,1382.5C 1821.83,1382.5 1769.17,1382.5 1716.5,1382.5C 1716.5,1382.17 1716.5,1381.83 1716.5,1381.5C 1768.83,1381.5 1821.17,1381.5 1873.5,1381.5C 1873.5,1374.5 1873.5,1367.5 1873.5,1360.5C 1879.83,1360.5 1886.17,1360.5 1892.5,1360.5C 1892.5,1367.5 1892.5,1374.5 1892.5,1381.5C 1909.83,1381.5 1927.17,1381.5 1944.5,1381.5C 1944.21,1379.26 1944.54,1377.26 1945.5,1375.5 Z"/></g>
<g><path style="opacity:1" fill="#f4baba" d="M 890.5,1400.5 C 890.167,1400.5 889.833,1400.5 889.5,1400.5C 835.664,1400.17 781.997,1400.5 728.5,1401.5C 727.957,1401.44 727.624,1401.11 727.5,1400.5C 781.998,1399.17 836.332,1399.17 890.5,1400.5 Z"/></g>
<g><path style="opacity:1" fill="#f4b9b9" d="M 1592.5,1417.5 C 1592.5,1411.83 1592.5,1406.17 1592.5,1400.5C 1516.83,1400.5 1441.17,1400.5 1365.5,1400.5C 1365.5,1406.17 1365.5,1411.83 1365.5,1417.5C 1364.51,1411.69 1364.18,1405.69 1364.5,1399.5C 1440.83,1399.5 1517.17,1399.5 1593.5,1399.5C 1593.82,1405.69 1593.49,1411.69 1592.5,1417.5 Z"/></g>
<g><path style="opacity:1" fill="#fefefe" d="M 889.5,1400.5 C 889.5,1405.83 889.5,1411.17 889.5,1416.5C 839.833,1416.5 790.167,1416.5 740.5,1416.5C 735.771,1412.1 731.771,1407.1 728.5,1401.5C 781.997,1400.5 835.664,1400.17 889.5,1400.5 Z"/></g>
<g><path style="opacity:1" fill="#f2a2a2" d="M 925.5,1400.5 C 919.833,1400.5 914.167,1400.5 908.5,1400.5C 908.828,1412.01 908.495,1423.35 907.5,1434.5C 907.5,1422.83 907.5,1411.17 907.5,1399.5C 913.69,1399.18 919.69,1399.51 925.5,1400.5 Z"/></g>
<g><path style="opacity:1" fill="#fefcfc" d="M 943.5,1399.5 C 949.167,1399.5 954.833,1399.5 960.5,1399.5C 960.5,1422.83 960.5,1446.17 960.5,1469.5C 966.31,1470.49 972.31,1470.82 978.5,1470.5C 978.5,1446.83 978.5,1423.17 978.5,1399.5C 984.167,1399.5 989.833,1399.5 995.5,1399.5C 995.5,1428.83 995.5,1458.17 995.5,1487.5C 966.167,1487.5 936.833,1487.5 907.5,1487.5C 907.5,1475.83 907.5,1464.17 907.5,1452.5C 890.167,1452.5 872.833,1452.5 855.5,1452.5C 854.51,1458.31 854.177,1464.31 854.5,1470.5C 866.5,1470.5 878.5,1470.5 890.5,1470.5C 890.5,1476.17 890.5,1481.83 890.5,1487.5C 872.833,1487.5 855.167,1487.5 837.5,1487.5C 837.5,1469.83 837.5,1452.17 837.5,1434.5C 860.833,1434.5 884.167,1434.5 907.5,1434.5C 908.495,1423.35 908.828,1412.01 908.5,1400.5C 914.167,1400.5 919.833,1400.5 925.5,1400.5C 925.5,1423.5 925.5,1446.5 925.5,1469.5C 931.31,1470.49 937.31,1470.82 943.5,1470.5C 943.5,1446.83 943.5,1423.17 943.5,1399.5 Z"/></g>
<g><path style="opacity:1" fill="#eb7978" d="M 943.5,1399.5 C 943.5,1423.17 943.5,1446.83 943.5,1470.5C 937.31,1470.82 931.31,1470.49 925.5,1469.5C 931.167,1469.5 936.833,1469.5 942.5,1469.5C 942.169,1445.99 942.502,1422.66 943.5,1399.5 Z"/></g>
<g><path style="opacity:1" fill="#e75b5a" d="M 978.5,1399.5 C 978.5,1423.17 978.5,1446.83 978.5,1470.5C 972.31,1470.82 966.31,1470.49 960.5,1469.5C 966.167,1469.5 971.833,1469.5 977.5,1469.5C 977.169,1445.99 977.502,1422.66 978.5,1399.5 Z"/></g>
<g><path style="opacity:1" fill="#fef9f9" d="M 1013.5,1399.5 C 1089.5,1399.5 1165.5,1399.5 1241.5,1399.5C 1241.5,1405.5 1241.5,1411.5 1241.5,1417.5C 1165.5,1417.5 1089.5,1417.5 1013.5,1417.5C 1013.5,1411.5 1013.5,1405.5 1013.5,1399.5 Z"/></g>
<g><path style="opacity:1" fill="#fefefe" d="M 1276.5,1399.5 C 1276.5,1423.17 1276.5,1446.83 1276.5,1470.5C 1282.69,1470.82 1288.69,1470.49 1294.5,1469.5C 1294.5,1446.5 1294.5,1423.5 1294.5,1400.5C 1300.17,1400.5 1305.83,1400.5 1311.5,1400.5C 1311.5,1423.83 1311.5,1447.17 1311.5,1470.5C 1317.69,1470.82 1323.69,1470.49 1329.5,1469.5C 1329.5,1446.5 1329.5,1423.5 1329.5,1400.5C 1335.17,1400.5 1340.83,1400.5 1346.5,1400.5C 1346.5,1429.5 1346.5,1458.5 1346.5,1487.5C 1317.5,1487.5 1288.5,1487.5 1259.5,1487.5C 1259.5,1475.83 1259.5,1464.17 1259.5,1452.5C 1241.83,1452.5 1224.17,1452.5 1206.5,1452.5C 1206.5,1458.5 1206.5,1464.5 1206.5,1470.5C 1218.17,1470.5 1229.83,1470.5 1241.5,1470.5C 1241.5,1476.17 1241.5,1481.83 1241.5,1487.5C 1224.17,1487.5 1206.83,1487.5 1189.5,1487.5C 1189.5,1470.17 1189.5,1452.83 1189.5,1435.5C 1213.01,1435.83 1236.34,1435.5 1259.5,1434.5C 1259.5,1422.83 1259.5,1411.17 1259.5,1399.5C 1265.17,1399.5 1270.83,1399.5 1276.5,1399.5 Z"/></g>
<g><path style="opacity:1" fill="#e86564" d="M 1276.5,1399.5 C 1277.5,1422.66 1277.83,1445.99 1277.5,1469.5C 1283.17,1469.5 1288.83,1469.5 1294.5,1469.5C 1288.69,1470.49 1282.69,1470.82 1276.5,1470.5C 1276.5,1446.83 1276.5,1423.17 1276.5,1399.5 Z"/></g>
<g><path style="opacity:1" fill="#ee8a89" d="M 1294.5,1400.5 C 1300.31,1399.51 1306.31,1399.18 1312.5,1399.5C 1312.5,1422.83 1312.5,1446.17 1312.5,1469.5C 1318.17,1469.5 1323.83,1469.5 1329.5,1469.5C 1323.69,1470.49 1317.69,1470.82 1311.5,1470.5C 1311.5,1447.17 1311.5,1423.83 1311.5,1400.5C 1305.83,1400.5 1300.17,1400.5 1294.5,1400.5 Z"/></g>
<g><path style="opacity:1" fill="#f3aaaa" d="M 1329.5,1400.5 C 1335.31,1399.51 1341.31,1399.18 1347.5,1399.5C 1347.83,1429 1347.5,1458.34 1346.5,1487.5C 1346.5,1458.5 1346.5,1429.5 1346.5,1400.5C 1340.83,1400.5 1335.17,1400.5 1329.5,1400.5 Z"/></g>
<g><path style="opacity:1" fill="#fefdfd" d="M 1592.5,1417.5 C 1516.83,1417.5 1441.17,1417.5 1365.5,1417.5C 1365.5,1411.83 1365.5,1406.17 1365.5,1400.5C 1441.17,1400.5 1516.83,1400.5 1592.5,1400.5C 1592.5,1406.17 1592.5,1411.83 1592.5,1417.5 Z"/></g>
<g><path style="opacity:1" fill="#fefdfd" d="M 1681.5,1399.5 C 1687.17,1399.5 1692.83,1399.5 1698.5,1399.5C 1698.5,1428.83 1698.5,1458.17 1698.5,1487.5C 1669.17,1487.5 1639.83,1487.5 1610.5,1487.5C 1610.5,1475.83 1610.5,1464.17 1610.5,1452.5C 1593.17,1452.5 1575.83,1452.5 1558.5,1452.5C 1557.51,1458.31 1557.18,1464.31 1557.5,1470.5C 1569.17,1470.5 1580.83,1470.5 1592.5,1470.5C 1592.5,1476.17 1592.5,1481.83 1592.5,1487.5C 1575.17,1487.5 1557.83,1487.5 1540.5,1487.5C 1540.5,1469.83 1540.5,1452.17 1540.5,1434.5C 1563.83,1434.5 1587.17,1434.5 1610.5,1434.5C 1611.49,1423.35 1611.83,1412.01 1611.5,1400.5C 1616.83,1400.5 1622.17,1400.5 1627.5,1400.5C 1627.17,1424.01 1627.5,1447.34 1628.5,1470.5C 1634.5,1470.5 1640.5,1470.5 1646.5,1470.5C 1646.5,1447.17 1646.5,1423.83 1646.5,1400.5C 1652.17,1400.5 1657.83,1400.5 1663.5,1400.5C 1663.5,1423.5 1663.5,1446.5 1663.5,1469.5C 1669.31,1470.49 1675.31,1470.82 1681.5,1470.5C 1681.5,1446.83 1681.5,1423.17 1681.5,1399.5 Z"/></g>
<g><path style="opacity:1" fill="#f7c8c8" d="M 1628.5,1469.5 C 1628.5,1469.83 1628.5,1470.17 1628.5,1470.5C 1627.5,1447.34 1627.17,1424.01 1627.5,1400.5C 1622.17,1400.5 1616.83,1400.5 1611.5,1400.5C 1611.83,1412.01 1611.49,1423.35 1610.5,1434.5C 1610.5,1422.83 1610.5,1411.17 1610.5,1399.5C 1616.5,1399.5 1622.5,1399.5 1628.5,1399.5C 1628.5,1422.83 1628.5,1446.17 1628.5,1469.5 Z"/></g>
<g><path style="opacity:1" fill="#f19e9d" d="M 1663.5,1400.5 C 1657.83,1400.5 1652.17,1400.5 1646.5,1400.5C 1646.5,1423.83 1646.5,1447.17 1646.5,1470.5C 1640.5,1470.5 1634.5,1470.5 1628.5,1470.5C 1628.5,1470.17 1628.5,1469.83 1628.5,1469.5C 1634.17,1469.5 1639.83,1469.5 1645.5,1469.5C 1645.5,1446.17 1645.5,1422.83 1645.5,1399.5C 1651.69,1399.18 1657.69,1399.51 1663.5,1400.5 Z"/></g>
<g><path style="opacity:1" fill="#eb7b7b" d="M 1681.5,1399.5 C 1681.5,1423.17 1681.5,1446.83 1681.5,1470.5C 1675.31,1470.82 1669.31,1470.49 1663.5,1469.5C 1669.17,1469.5 1674.83,1469.5 1680.5,1469.5C 1680.17,1445.99 1680.5,1422.66 1681.5,1399.5 Z"/></g>
<g><path style="opacity:1" fill="#fef9f9" d="M 1716.5,1399.5 C 1792.5,1399.5 1868.5,1399.5 1944.5,1399.5C 1944.5,1405.5 1944.5,1411.5 1944.5,1417.5C 1868.5,1417.5 1792.5,1417.5 1716.5,1417.5C 1716.5,1411.5 1716.5,1405.5 1716.5,1399.5 Z"/></g>
<g><path style="opacity:1" fill="#e75a5a" d="M 1963.5,1407.5 C 1962.51,1416.32 1962.17,1425.32 1962.5,1434.5C 1962.17,1434.5 1961.83,1434.5 1961.5,1434.5C 1961.17,1425.14 1961.5,1415.81 1962.5,1406.5C 1963.11,1406.62 1963.44,1406.96 1963.5,1407.5 Z"/></g>
<g><path style="opacity:1" fill="#fefefe" d="M 1963.5,1407.5 C 1969.6,1413.93 1974.93,1420.93 1979.5,1428.5C 1979.5,1442.5 1979.5,1456.5 1979.5,1470.5C 1985.69,1470.82 1991.69,1470.49 1997.5,1469.5C 1997.34,1466.48 1997.5,1463.48 1998,1460.5C 2002.84,1469.21 2007.01,1478.21 2010.5,1487.5C 1994.5,1487.5 1978.5,1487.5 1962.5,1487.5C 1962.5,1475.83 1962.5,1464.17 1962.5,1452.5C 1944.83,1452.5 1927.17,1452.5 1909.5,1452.5C 1909.5,1458.5 1909.5,1464.5 1909.5,1470.5C 1921.17,1470.5 1932.83,1470.5 1944.5,1470.5C 1944.5,1476.17 1944.5,1481.83 1944.5,1487.5C 1927.17,1487.5 1909.83,1487.5 1892.5,1487.5C 1892.5,1470.17 1892.5,1452.83 1892.5,1435.5C 1916.01,1435.83 1939.34,1435.5 1962.5,1434.5C 1962.17,1425.32 1962.51,1416.32 1963.5,1407.5 Z"/></g>
<g><path style="opacity:1" fill="#f9dbdb" d="M 889.5,1400.5 C 889.833,1400.5 890.167,1400.5 890.5,1400.5C 890.5,1406.17 890.5,1411.83 890.5,1417.5C 840.331,1417.83 790.331,1417.5 740.5,1416.5C 790.167,1416.5 839.833,1416.5 889.5,1416.5C 889.5,1411.17 889.5,1405.83 889.5,1400.5 Z"/></g>
<g><path style="opacity:1" fill="#e54a47" d="M 1979.5,1428.5 C 1980.5,1441.99 1980.83,1455.66 1980.5,1469.5C 1986.17,1469.5 1991.83,1469.5 1997.5,1469.5C 1991.69,1470.49 1985.69,1470.82 1979.5,1470.5C 1979.5,1456.5 1979.5,1442.5 1979.5,1428.5 Z"/></g>
<g><path style="opacity:1" fill="#ef9594" d="M 1013.5,1435.5 C 1042.66,1434.5 1072,1434.17 1101.5,1434.5C 1101.5,1446.17 1101.5,1457.83 1101.5,1469.5C 1118.83,1469.5 1136.17,1469.5 1153.5,1469.5C 1153.5,1463.83 1153.5,1458.17 1153.5,1452.5C 1154.49,1458.31 1154.82,1464.31 1154.5,1470.5C 1136.5,1470.5 1118.5,1470.5 1100.5,1470.5C 1100.5,1458.83 1100.5,1447.17 1100.5,1435.5C 1071.5,1435.5 1042.5,1435.5 1013.5,1435.5 Z"/></g>
<g><path style="opacity:1" fill="#f1a0a0" d="M 1171.5,1435.5 C 1154.17,1435.5 1136.83,1435.5 1119.5,1435.5C 1119.5,1441.17 1119.5,1446.83 1119.5,1452.5C 1118.51,1446.69 1118.18,1440.69 1118.5,1434.5C 1136.34,1434.17 1154.01,1434.5 1171.5,1435.5 Z"/></g>
<g><path style="opacity:1" fill="#ef8f8f" d="M 1259.5,1434.5 C 1236.34,1435.5 1213.01,1435.83 1189.5,1435.5C 1189.5,1452.83 1189.5,1470.17 1189.5,1487.5C 1188.5,1470.01 1188.17,1452.34 1188.5,1434.5C 1212.17,1434.5 1235.83,1434.5 1259.5,1434.5 Z"/></g>
<g><path style="opacity:1" fill="#f2a4a3" d="M 1452.5,1435.5 C 1423.5,1435.5 1394.5,1435.5 1365.5,1435.5C 1365.5,1452.83 1365.5,1470.17 1365.5,1487.5C 1364.5,1470.01 1364.17,1452.34 1364.5,1434.5C 1394,1434.17 1423.34,1434.5 1452.5,1435.5 Z"/></g>
<g><path style="opacity:1" fill="#ed7f7d" d="M 1522.5,1487.5 C 1522.5,1470.17 1522.5,1452.83 1522.5,1435.5C 1505.17,1435.5 1487.83,1435.5 1470.5,1435.5C 1470.5,1441.17 1470.5,1446.83 1470.5,1452.5C 1469.51,1446.69 1469.18,1440.69 1469.5,1434.5C 1487.5,1434.5 1505.5,1434.5 1523.5,1434.5C 1523.83,1452.34 1523.5,1470.01 1522.5,1487.5 Z"/></g>
<g><path style="opacity:1" fill="#ee8685" d="M 1804.5,1469.5 C 1803.51,1458.35 1803.17,1447.01 1803.5,1435.5C 1774.5,1435.5 1745.5,1435.5 1716.5,1435.5C 1716.5,1452.83 1716.5,1470.17 1716.5,1487.5C 1715.5,1470.01 1715.17,1452.34 1715.5,1434.5C 1745.17,1434.5 1774.83,1434.5 1804.5,1434.5C 1804.5,1446.17 1804.5,1457.83 1804.5,1469.5 Z"/></g>
<g><path style="opacity:1" fill="#f09b9b" d="M 1961.5,1434.5 C 1961.83,1434.5 1962.17,1434.5 1962.5,1434.5C 1939.34,1435.5 1916.01,1435.83 1892.5,1435.5C 1892.5,1452.83 1892.5,1470.17 1892.5,1487.5C 1891.5,1470.01 1891.17,1452.34 1891.5,1434.5C 1914.83,1434.5 1938.17,1434.5 1961.5,1434.5 Z"/></g>
<g><path style="opacity:1" fill="#fefefe" d="M 767.5,1435.5 C 784.833,1435.5 802.167,1435.5 819.5,1435.5C 819.5,1452.83 819.5,1470.17 819.5,1487.5C 803.83,1487.67 788.163,1487.5 772.5,1487C 762.682,1484.25 761.016,1478.92 767.5,1471C 779.162,1470.5 790.829,1470.33 802.5,1470.5C 802.5,1464.5 802.5,1458.5 802.5,1452.5C 791.147,1452.83 779.814,1452.5 768.5,1451.5C 767.549,1446.23 767.215,1440.9 767.5,1435.5 Z"/></g>
<g><path style="opacity:1" fill="#ee8c8c" d="M 767.5,1435.5 C 784.992,1434.5 802.659,1434.17 820.5,1434.5C 820.83,1452.34 820.497,1470.01 819.5,1487.5C 819.5,1470.17 819.5,1452.83 819.5,1435.5C 802.167,1435.5 784.833,1435.5 767.5,1435.5 Z"/></g>
<g><path style="opacity:1" fill="#fefefe" d="M 1013.5,1435.5 C 1042.5,1435.5 1071.5,1435.5 1100.5,1435.5C 1100.5,1447.17 1100.5,1458.83 1100.5,1470.5C 1118.5,1470.5 1136.5,1470.5 1154.5,1470.5C 1154.82,1464.31 1154.49,1458.31 1153.5,1452.5C 1142.17,1452.5 1130.83,1452.5 1119.5,1452.5C 1119.5,1446.83 1119.5,1441.17 1119.5,1435.5C 1136.83,1435.5 1154.17,1435.5 1171.5,1435.5C 1171.5,1452.83 1171.5,1470.17 1171.5,1487.5C 1142.17,1487.5 1112.83,1487.5 1083.5,1487.5C 1083.5,1475.83 1083.5,1464.17 1083.5,1452.5C 1065.83,1452.5 1048.17,1452.5 1030.5,1452.5C 1030.5,1464.17 1030.5,1475.83 1030.5,1487.5C 1024.83,1487.5 1019.17,1487.5 1013.5,1487.5C 1013.5,1470.17 1013.5,1452.83 1013.5,1435.5 Z"/></g>
<g><path style="opacity:1" fill="#fefefe" d="M 1452.5,1435.5 C 1452.5,1447.17 1452.5,1458.83 1452.5,1470.5C 1470.17,1470.5 1487.83,1470.5 1505.5,1470.5C 1505.5,1464.5 1505.5,1458.5 1505.5,1452.5C 1493.83,1452.5 1482.17,1452.5 1470.5,1452.5C 1470.5,1446.83 1470.5,1441.17 1470.5,1435.5C 1487.83,1435.5 1505.17,1435.5 1522.5,1435.5C 1522.5,1452.83 1522.5,1470.17 1522.5,1487.5C 1493.5,1487.5 1464.5,1487.5 1435.5,1487.5C 1435.5,1475.83 1435.5,1464.17 1435.5,1452.5C 1417.83,1452.5 1400.17,1452.5 1382.5,1452.5C 1382.5,1464.17 1382.5,1475.83 1382.5,1487.5C 1376.83,1487.5 1371.17,1487.5 1365.5,1487.5C 1365.5,1470.17 1365.5,1452.83 1365.5,1435.5C 1394.5,1435.5 1423.5,1435.5 1452.5,1435.5 Z"/></g>
<g><path style="opacity:1" fill="#fefefe" d="M 1804.5,1469.5 C 1821.66,1470.5 1838.99,1470.83 1856.5,1470.5C 1856.5,1464.5 1856.5,1458.5 1856.5,1452.5C 1844.83,1452.5 1833.17,1452.5 1821.5,1452.5C 1821.5,1446.83 1821.5,1441.17 1821.5,1435.5C 1838.83,1435.5 1856.17,1435.5 1873.5,1435.5C 1873.5,1452.83 1873.5,1470.17 1873.5,1487.5C 1844.5,1487.5 1815.5,1487.5 1786.5,1487.5C 1786.5,1475.83 1786.5,1464.17 1786.5,1452.5C 1768.83,1452.5 1751.17,1452.5 1733.5,1452.5C 1733.5,1464.17 1733.5,1475.83 1733.5,1487.5C 1727.83,1487.5 1722.17,1487.5 1716.5,1487.5C 1716.5,1470.17 1716.5,1452.83 1716.5,1435.5C 1745.5,1435.5 1774.5,1435.5 1803.5,1435.5C 1803.17,1447.01 1803.51,1458.35 1804.5,1469.5 Z"/></g>
<g><path style="opacity:1" fill="#f5bab9" d="M 1821.5,1435.5 C 1838.99,1434.5 1856.66,1434.17 1874.5,1434.5C 1874.83,1452.34 1874.5,1470.01 1873.5,1487.5C 1873.5,1470.17 1873.5,1452.83 1873.5,1435.5C 1856.17,1435.5 1838.83,1435.5 1821.5,1435.5 Z"/></g>
<g><path style="opacity:1" fill="#ed8483" d="M 855.5,1452.5 C 855.5,1458.17 855.5,1463.83 855.5,1469.5C 867.345,1469.17 879.012,1469.51 890.5,1470.5C 878.5,1470.5 866.5,1470.5 854.5,1470.5C 854.177,1464.31 854.51,1458.31 855.5,1452.5 Z"/></g>
<g><path style="opacity:1" fill="#ed8382" d="M 1558.5,1452.5 C 1558.5,1458.17 1558.5,1463.83 1558.5,1469.5C 1570.17,1469.5 1581.83,1469.5 1593.5,1469.5C 1593.82,1475.69 1593.49,1481.69 1592.5,1487.5C 1592.5,1481.83 1592.5,1476.17 1592.5,1470.5C 1580.83,1470.5 1569.17,1470.5 1557.5,1470.5C 1557.18,1464.31 1557.51,1458.31 1558.5,1452.5 Z"/></g>
<g><path style="opacity:1" fill="#fff8f8" d="M 1048.5,1470.5 C 1054.5,1470.5 1060.5,1470.5 1066.5,1470.5C 1066.5,1476.17 1066.5,1481.83 1066.5,1487.5C 1060.5,1487.5 1054.5,1487.5 1048.5,1487.5C 1048.5,1481.83 1048.5,1476.17 1048.5,1470.5 Z"/></g>
<g><path style="opacity:1" fill="#ef9090" d="M 1417.5,1470.5 C 1411.83,1470.5 1406.17,1470.5 1400.5,1470.5C 1400.5,1476.17 1400.5,1481.83 1400.5,1487.5C 1399.51,1481.69 1399.18,1475.69 1399.5,1469.5C 1405.69,1469.18 1411.69,1469.51 1417.5,1470.5 Z"/></g>
<g><path style="opacity:1" fill="#fefefe" d="M 1417.5,1470.5 C 1417.5,1476.17 1417.5,1481.83 1417.5,1487.5C 1411.83,1487.5 1406.17,1487.5 1400.5,1487.5C 1400.5,1481.83 1400.5,1476.17 1400.5,1470.5C 1406.17,1470.5 1411.83,1470.5 1417.5,1470.5 Z"/></g>
<g><path style="opacity:1" fill="#fefffe" d="M 1751.5,1470.5 C 1757.17,1470.5 1762.83,1470.5 1768.5,1470.5C 1768.5,1476.17 1768.5,1481.83 1768.5,1487.5C 1762.83,1487.5 1757.17,1487.5 1751.5,1487.5C 1751.5,1481.83 1751.5,1476.17 1751.5,1470.5 Z"/></g>
</svg>
