<?xml version="1.0" encoding="UTF-8"?>
<!DOCTYPE svg PUBLIC "-//W3C//DTD SVG 1.1//EN" "http://www.w3.org/Graphics/SVG/1.1/DTD/svg11.dtd">
<svg xmlns="http://www.w3.org/2000/svg" version="1.1" width="1280px" height="699px" style="shape-rendering:geometricPrecision; text-rendering:geometricPrecision; image-rendering:optimizeQuality; fill-rule:evenodd; clip-rule:evenodd" xmlns:xlink="http://www.w3.org/1999/xlink">
<g><path style="opacity:0.997" fill="#02afc9" d="M 702.5,-0.5 C 703.5,-0.5 704.5,-0.5 705.5,-0.5C 708.048,0.691682 710.382,2.35835 712.5,4.5C 718.841,3.20674 725.174,3.70674 731.5,6C 733.176,7.17687 734.509,8.67687 735.5,10.5C 738.04,11.4021 740.54,12.4021 743,13.5C 744.63,12.2869 746.464,11.4536 748.5,11C 749.337,9.98873 749.67,8.82207 749.5,7.5C 751.792,7.24358 753.959,7.57692 756,8.5C 758.135,6.7215 760.635,6.05484 763.5,6.5C 764.055,10.5599 766.055,13.7266 769.5,16C 767.955,18.0851 767.622,20.2518 768.5,22.5C 766.18,24.8249 766.68,26.8249 770,28.5C 770.167,32.6667 772.333,34.8333 776.5,35C 779.317,37.563 778.817,39.3963 775,40.5C 774.892,44.1765 774.892,47.8432 775,51.5C 773.175,52.1029 771.341,52.7696 769.5,53.5C 771.475,54.7493 771.809,56.2493 770.5,58C 772.019,59.2183 773.186,60.7183 774,62.5C 775.389,60.7727 777.056,59.4394 779,58.5C 782.272,59.6109 785.439,60.9442 788.5,62.5C 790.131,60.9412 790.964,58.9412 791,56.5C 794.418,55.3779 797.751,55.7112 801,57.5C 803.078,55.3194 802.911,53.3194 800.5,51.5C 806.489,49.6282 809.656,51.9615 810,58.5C 812.287,59.4738 814.287,60.8071 816,62.5C 823.463,60.1879 829.63,62.0213 834.5,68C 836.698,68.3729 838.865,68.8729 841,69.5C 842.29,67.646 843.79,67.3127 845.5,68.5C 846.524,67.1468 847.857,66.4802 849.5,66.5C 849.5,65.5 849.5,64.5 849.5,63.5C 852.244,63.2003 853.911,64.367 854.5,67C 853.841,69.4621 853.507,71.9621 853.5,74.5C 850.881,74.7683 848.381,74.435 846,73.5C 844.312,74.3247 844.145,75.3247 845.5,76.5C 844.675,77.3857 843.675,77.719 842.5,77.5C 842.371,80.7659 841.371,83.7659 839.5,86.5C 841.868,87.8718 843.534,89.8718 844.5,92.5C 847.242,90.8102 849.576,88.6436 851.5,86C 853.235,85.3486 854.902,85.5153 856.5,86.5C 857.281,85.2634 858.281,84.2634 859.5,83.5C 861.071,84.3094 862.738,84.6427 864.5,84.5C 864.238,85.9778 864.571,87.3112 865.5,88.5C 866.842,86.9951 868.508,86.3285 870.5,86.5C 871.533,93.547 873.533,94.047 876.5,88C 875.446,86.6124 875.28,85.1124 876,83.5C 878.041,82.5769 880.208,82.2436 882.5,82.5C 882.5,81.5 882.5,80.5 882.5,79.5C 885.329,79.6751 886.996,78.3418 887.5,75.5C 890.103,76.5617 892.77,76.7284 895.5,76C 899.5,73.3333 903.5,70.6667 907.5,68C 904.491,64.5054 905.324,62.3387 910,61.5C 910.772,61.6448 911.439,61.9781 912,62.5C 918.018,59.7394 924.185,57.4061 930.5,55.5C 930.383,53.5165 931.05,51.8498 932.5,50.5C 935.438,51.5748 938.438,51.7415 941.5,51C 945.355,49.0107 949.355,47.1774 953.5,45.5C 954.9,47.7817 954.234,49.2817 951.5,50C 952.897,55.7093 950.897,59.876 945.5,62.5C 943.265,61.2479 940.931,60.7479 938.5,61C 940.317,62.7998 941.484,64.9664 942,67.5C 953.551,76.7184 965.384,85.5517 977.5,94C 980.667,97.1667 983.833,100.333 987,103.5C 1010.78,138.713 1031.78,175.713 1050,214.5C 1051.44,215.26 1052.94,215.926 1054.5,216.5C 1055.17,215.167 1055.83,213.833 1056.5,212.5C 1059.09,212.064 1061.42,211.064 1063.5,209.5C 1064.08,205.904 1064.08,202.238 1063.5,198.5C 1065.5,198.5 1067.5,198.5 1069.5,198.5C 1069.5,197.167 1069.5,195.833 1069.5,194.5C 1074.24,194.04 1078.24,195.54 1081.5,199C 1083.31,198.954 1084.98,199.12 1086.5,199.5C 1086.83,200.167 1087.17,200.833 1087.5,201.5C 1085.91,204.68 1084.91,208.013 1084.5,211.5C 1087.2,211.045 1089.87,210.378 1092.5,209.5C 1093.17,209.833 1093.83,210.167 1094.5,210.5C 1095.96,213.286 1096.96,216.286 1097.5,219.5C 1098.17,219.833 1098.83,220.167 1099.5,220.5C 1102.04,220.156 1104.2,219.156 1106,217.5C 1108.3,217.579 1110.8,217.746 1113.5,218C 1115.07,219.076 1116.73,219.909 1118.5,220.5C 1121.94,220.055 1125.28,220.055 1128.5,220.5C 1133.49,219.519 1135.82,216.519 1135.5,211.5C 1137.94,211.756 1140.27,212.423 1142.5,213.5C 1144.84,211.661 1147,209.661 1149,207.5C 1151.78,207.576 1154.61,207.576 1157.5,207.5C 1158.29,208.242 1158.95,209.075 1159.5,210C 1163.36,210.867 1167.02,212.2 1170.5,214C 1173.83,220.017 1178,225.517 1183,230.5C 1183.14,234.549 1183.47,238.549 1184,242.5C 1185.65,245.877 1187.65,246.21 1190,243.5C 1191.83,245.074 1193.99,245.907 1196.5,246C 1199.99,249.048 1203.82,251.548 1208,253.5C 1208.62,255.464 1208.12,257.131 1206.5,258.5C 1207.53,260.361 1209.03,261.695 1211,262.5C 1212.76,265.927 1213.93,269.594 1214.5,273.5C 1218.08,275.973 1221.58,275.973 1225,273.5C 1226.32,276.047 1228.15,276.713 1230.5,275.5C 1232.44,276.189 1234.44,276.689 1236.5,277C 1236.93,277.92 1237.26,278.753 1237.5,279.5C 1239.78,278.787 1242.11,278.287 1244.5,278C 1249.45,274.388 1253.78,270.054 1257.5,265C 1263.64,263.349 1265.47,265.183 1263,270.5C 1259.91,270.793 1258.41,272.459 1258.5,275.5C 1260.58,275.472 1262.42,276.139 1264,277.5C 1265.34,281.079 1266.84,284.579 1268.5,288C 1271.76,290.355 1275.43,291.522 1279.5,291.5C 1279.5,293.833 1279.5,296.167 1279.5,298.5C 1277.28,298.822 1275.44,298.155 1274,296.5C 1269.09,297.351 1265.09,299.684 1262,303.5C 1261.15,306.407 1261.98,308.74 1264.5,310.5C 1263.25,315.668 1260.92,320.334 1257.5,324.5C 1253.04,326.561 1248.54,328.561 1244,330.5C 1239.44,329.477 1235.11,330.144 1231,332.5C 1227.72,339.327 1225.56,346.493 1224.5,354C 1225.94,360.754 1226.78,367.587 1227,374.5C 1229.44,378.483 1230.1,382.816 1229,387.5C 1228,387.833 1227,388.167 1226,388.5C 1225.19,390.436 1224.69,392.436 1224.5,394.5C 1221.16,394.89 1217.83,395.39 1214.5,396C 1210.26,400.552 1205.26,403.718 1199.5,405.5C 1198.5,405.333 1197.5,405.167 1196.5,405C 1200.64,401.954 1200.3,399.454 1195.5,397.5C 1192.36,398.595 1189.19,398.595 1186,397.5C 1183.1,397.857 1180.26,398.523 1177.5,399.5C 1172.99,397.645 1167.99,396.145 1162.5,395C 1158.42,393.36 1154.42,391.027 1150.5,388C 1148.87,387.506 1147.2,387.34 1145.5,387.5C 1145.45,390.568 1144.95,393.568 1144,396.5C 1139.75,409.915 1135.09,423.248 1130,436.5C 1129.67,439.5 1129.33,442.5 1129,445.5C 1126.3,451.95 1123.8,458.45 1121.5,465C 1124.52,467.761 1128.02,469.594 1132,470.5C 1133.73,476.495 1132.4,481.828 1128,486.5C 1125.96,484.126 1123.63,482.126 1121,480.5C 1118.09,481.708 1115.25,483.041 1112.5,484.5C 1110.67,483.349 1108.67,482.682 1106.5,482.5C 1106.93,479.018 1105.6,476.685 1102.5,475.5C 1094.86,478.506 1087.2,481.673 1079.5,485C 1077.43,485.687 1075.43,485.52 1073.5,484.5C 1069.94,485.592 1066.6,487.092 1063.5,489C 1060.28,490.126 1057.11,490.293 1054,489.5C 1051.86,491.64 1049.69,493.806 1047.5,496C 1049.18,497.177 1050.51,498.677 1051.5,500.5C 1057.54,497.13 1062.54,498.63 1066.5,505C 1065.24,505.923 1063.91,506.757 1062.5,507.5C 1063.34,510.539 1063,513.539 1061.5,516.5C 1063.24,533.049 1067.58,548.882 1074.5,564C 1073.6,566.192 1072.6,568.358 1071.5,570.5C 1075.01,572.433 1076.34,575.433 1075.5,579.5C 1071.02,579.296 1067.02,580.629 1063.5,583.5C 1062.48,584.002 1062.31,584.668 1063,585.5C 1065.3,587.057 1067.46,588.724 1069.5,590.5C 1066.15,592.879 1062.49,594.213 1058.5,594.5C 1058.2,597.579 1057.2,600.413 1055.5,603C 1056.03,605.429 1057.36,607.262 1059.5,608.5C 1058.46,609.623 1057.79,610.956 1057.5,612.5C 1059.02,615.601 1059.69,618.934 1059.5,622.5C 1057.74,622.357 1056.07,622.691 1054.5,623.5C 1052.95,619.293 1050.62,615.627 1047.5,612.5C 1046.91,612.709 1046.41,613.043 1046,613.5C 1042.23,610.807 1038.06,609.807 1033.5,610.5C 1030.83,606.66 1027.66,603.327 1024,600.5C 1024.04,596.755 1023.04,596.088 1021,598.5C 1014.7,596.586 1008.7,593.919 1003,590.5C 997.221,591.28 991.721,592.28 986.5,593.5C 979.663,589.964 972.496,588.964 965,590.5C 961.455,588.074 957.455,586.74 953,586.5C 947.836,589.714 942.169,591.714 936,592.5C 934.521,591.244 932.855,590.244 931,589.5C 927.501,590.96 924.168,590.627 921,588.5C 919.429,591.082 917.596,593.415 915.5,595.5C 909.471,594.663 903.471,593.663 897.5,592.5C 893.812,589.045 889.478,586.712 884.5,585.5C 882.833,583.333 881.167,581.167 879.5,579C 876.238,577.571 873.071,576.071 870,574.5C 867.653,577.856 864.653,578.856 861,577.5C 860.375,580.706 858.709,581.706 856,580.5C 853.667,581.833 851.333,583.167 849,584.5C 847.136,591.238 845.636,598.072 844.5,605C 844.757,607.77 845.757,610.27 847.5,612.5C 845.579,613.641 843.579,613.808 841.5,613C 840.386,611.43 839.053,610.097 837.5,609C 830.733,609.75 825.233,607.583 821,602.5C 816.828,601.778 812.995,600.278 809.5,598C 807.287,597.374 805.12,597.541 803,598.5C 800.445,596.889 797.778,595.556 795,594.5C 792.201,594.82 789.701,595.82 787.5,597.5C 784.025,595.279 780.358,594.946 776.5,596.5C 775.5,599.167 774.5,601.833 773.5,604.5C 772.022,604.238 770.689,604.571 769.5,605.5C 772.019,607.641 772.019,609.641 769.5,611.5C 768.914,611.291 768.414,610.957 768,610.5C 766.306,613.769 765.306,617.103 765,620.5C 765.654,619.304 766.154,619.304 766.5,620.5C 764.117,622.586 761.617,624.586 759,626.5C 758.358,628.762 757.525,630.929 756.5,633C 755.833,633.667 755.167,633.667 754.5,633C 750.802,625.443 748.302,625.943 747,634.5C 744.064,638.025 740.898,641.358 737.5,644.5C 736.167,645.5 734.833,646.5 733.5,647.5C 732.833,647.167 732.167,646.833 731.5,646.5C 729.615,647.609 727.615,648.443 725.5,649C 723.605,651.806 721.272,654.14 718.5,656C 718.957,656.414 719.291,656.914 719.5,657.5C 716.833,658.167 714.167,658.833 711.5,659.5C 709.89,661.731 708.057,663.731 706,665.5C 702.678,670.53 699.678,675.863 697,681.5C 694.031,683.027 692.531,685.527 692.5,689C 694.072,691.919 694.739,695.085 694.5,698.5C 691.833,698.5 689.167,698.5 686.5,698.5C 682.065,695.243 677.732,691.743 673.5,688C 676.62,685.592 677.953,682.426 677.5,678.5C 676.325,678.719 675.325,678.386 674.5,677.5C 673.982,675.1 672.815,673.1 671,671.5C 669.703,672.784 668.536,672.617 667.5,671C 654.806,670.497 642.139,669.664 629.5,668.5C 628.833,658.167 628.167,647.833 627.5,637.5C 622.093,637.324 616.76,636.657 611.5,635.5C 610.604,630.533 610.604,625.533 611.5,620.5C 611.558,616.343 612.558,613.343 614.5,611.5C 613.808,603.848 613.308,596.181 613,588.5C 610.667,589.833 608.333,591.167 606,592.5C 603.48,585.272 601.147,577.939 599,570.5C 591.947,565.111 586.78,558.278 583.5,550C 577.602,551.438 571.936,553.772 566.5,557C 553.934,557.373 541.434,556.54 529,554.5C 514.454,557.476 499.954,560.31 485.5,563C 477,551.833 468.5,540.667 460,529.5C 458.217,526.922 457.051,524.089 456.5,521C 452.868,518.37 449.535,515.37 446.5,512C 423.461,496.153 400.461,480.32 377.5,464.5C 351.505,473.498 325.505,482.498 299.5,491.5C 298.5,549.496 298.167,607.496 298.5,665.5C 292.866,666.462 287.199,667.295 281.5,668C 278.333,664.167 275.167,660.333 272,656.5C 268.351,648.878 265.017,641.212 262,633.5C 254.875,627.033 247.208,621.366 239,616.5C 226.757,617.437 215.257,620.937 204.5,627C 198.662,633.171 192.495,639.004 186,644.5C 185.776,641.89 186.276,639.39 187.5,637C 183.184,629.914 184.017,623.414 190,617.5C 193.448,610.994 193.282,604.661 189.5,598.5C 189.608,597.558 189.941,596.725 190.5,596C 186.96,592.982 183.793,593.149 181,596.5C 179.949,594.373 178.449,592.707 176.5,591.5C 173.972,592.942 171.305,593.442 168.5,593C 165.658,587.937 163.325,582.77 161.5,577.5C 157.772,577.844 154.105,578.51 150.5,579.5C 149.914,579.291 149.414,578.957 149,578.5C 149.236,575.028 149.736,571.528 150.5,568C 150.763,562.511 148.597,558.345 144,555.5C 141.77,551.038 140.103,546.372 139,541.5C 136.063,538.116 134.729,534.116 135,529.5C 134.097,528.299 132.931,527.465 131.5,527C 126.627,526.302 121.96,524.968 117.5,523C 116.371,518.921 116.204,514.755 117,510.5C 117.745,509.01 118.912,508.01 120.5,507.5C 123.06,508.656 125.56,508.656 128,507.5C 128.667,508.167 129.333,508.833 130,509.5C 132.269,509.096 134.769,508.929 137.5,509C 140.042,511.636 142.875,513.803 146,515.5C 147.3,513.541 149.133,512.374 151.5,512C 149.59,510.299 148.423,508.133 148,505.5C 145,503.167 142,500.833 139,498.5C 139.497,496.802 139.33,495.135 138.5,493.5C 140.507,492.092 142.507,490.592 144.5,489C 145.833,488.667 147.167,488.333 148.5,488C 148.167,487.667 147.833,487.333 147.5,487C 148.249,485.266 148.749,483.433 149,481.5C 150.935,478.629 152.601,475.629 154,472.5C 155.062,473.899 156.395,474.899 158,475.5C 159.482,473.888 161.315,472.888 163.5,472.5C 163.281,471.325 163.614,470.325 164.5,469.5C 165.738,471.637 167.571,472.971 170,473.5C 175.256,472.601 180.422,472.268 185.5,472.5C 193.285,475.315 200.952,478.315 208.5,481.5C 213.091,479.949 217.591,478.282 222,476.5C 225.359,477.89 228.526,479.557 231.5,481.5C 231.557,482.609 231.89,483.609 232.5,484.5C 227.623,486.861 223.123,489.861 219,493.5C 215.542,501.889 211.709,510.056 207.5,518C 209.298,519.505 211.132,519.672 213,518.5C 216.791,511.909 219.791,504.909 222,497.5C 224.239,494.038 227.406,492.705 231.5,493.5C 231.158,494.338 230.492,494.672 229.5,494.5C 228.761,494.369 228.094,494.536 227.5,495C 230.863,498.479 232.197,502.646 231.5,507.5C 231.468,512.631 230.634,517.631 229,522.5C 228.333,526.5 228.333,530.5 229,534.5C 230.122,536.624 231.622,538.457 233.5,540C 228.167,542.667 228.167,545.333 233.5,548C 231.622,549.543 230.122,551.376 229,553.5C 228.333,557.5 228.333,561.5 229,565.5C 232.805,574.839 232.305,583.839 227.5,592.5C 230.289,592.878 232.789,591.878 235,589.5C 236.692,586.356 237.858,583.023 238.5,579.5C 239.687,580.894 240.354,580.727 240.5,579C 238.853,576.804 239.187,574.971 241.5,573.5C 241.023,572.522 240.357,571.689 239.5,571C 243.236,570.715 246.236,569.215 248.5,566.5C 249.167,566.5 249.5,566.833 249.5,567.5C 247.679,571.812 245.846,576.145 244,580.5C 242.766,591.051 247.1,594.384 257,590.5C 262.253,593.624 266.919,592.957 271,588.5C 271.167,587.333 271.333,586.167 271.5,585C 269.102,577.364 266.269,569.864 263,562.5C 260.387,555.043 262.887,551.043 270.5,550.5C 278.98,551.114 281.647,555.447 278.5,563.5C 276.133,565.395 273.466,565.895 270.5,565C 267.51,561.621 268.176,559.955 272.5,560C 273.191,561.067 273.691,562.234 274,563.5C 274.996,561.256 276.496,559.423 278.5,558C 276.496,556.577 274.996,554.744 274,552.5C 273.517,553.448 273.351,554.448 273.5,555.5C 265.258,555.243 262.758,558.91 266,566.5C 268.448,569.473 271.614,570.973 275.5,571C 274.619,571.708 273.953,572.542 273.5,573.5C 272.957,573.56 272.624,573.893 272.5,574.5C 273.325,575.386 274.325,575.719 275.5,575.5C 274.766,576.708 274.433,578.041 274.5,579.5C 275.5,579.5 276.5,579.5 277.5,579.5C 276.591,587.396 279.924,591.896 287.5,593C 282.713,583.801 282.213,574.301 286,564.5C 287.759,557.991 286.259,552.491 281.5,548C 282.868,546.66 284.201,545.326 285.5,544C 284.201,542.674 282.868,541.34 281.5,540C 283.894,538.048 285.394,535.548 286,532.5C 285.813,524.423 284.979,516.423 283.5,508.5C 282.686,503.251 284.019,498.751 287.5,495C 279.533,496.14 276.533,500.64 278.5,508.5C 277.349,509.731 276.183,509.731 275,508.5C 274.405,509.899 274.572,511.232 275.5,512.5C 273.458,513.503 273.125,514.837 274.5,516.5C 270.612,517.27 267.612,519.27 265.5,522.5C 264.833,522.5 264.5,522.167 264.5,521.5C 272.049,504.734 279.882,488.068 288,471.5C 291.629,464.568 291.296,457.901 287,451.5C 284.293,449.064 281.127,447.564 277.5,447C 287.907,444.025 292.074,437.191 290,426.5C 281.488,408.145 272.988,389.812 264.5,371.5C 264.5,370.833 264.833,370.5 265.5,370.5C 267.501,374.651 270.834,376.485 275.5,376C 272.956,377.563 272.956,379.063 275.5,380.5C 274.754,381.736 274.421,383.07 274.5,384.5C 275.5,384.5 276.5,384.5 277.5,384.5C 276.541,391.25 279.208,395.916 285.5,398.5C 285.833,398.167 286.167,397.833 286.5,397.5C 284.042,393.394 283.042,388.894 283.5,384C 284.594,375.816 285.428,367.649 286,359.5C 285.117,356.898 283.617,354.731 281.5,353C 286.745,350.619 286.745,348.119 281.5,345.5C 283.774,343.287 285.274,340.621 286,337.5C 285.275,329.726 284.442,321.893 283.5,314C 282.742,308.668 284.075,304.002 287.5,300C 279.886,301.388 276.886,305.888 278.5,313.5C 277.349,314.731 276.183,314.731 275,313.5C 274.28,315.112 274.446,316.612 275.5,318C 273.311,318.677 272.978,319.844 274.5,321.5C 270.612,322.27 267.612,324.27 265.5,327.5C 264.833,327.5 264.5,327.167 264.5,326.5C 272.988,308.188 281.488,289.855 290,271.5C 291.718,261.082 287.552,254.582 277.5,252C 289.426,247.984 293.092,240.15 288.5,228.5C 292.608,226.074 296.775,223.741 301,221.5C 301.455,218.146 301.955,214.813 302.5,211.5C 304.806,211.993 307.139,212.326 309.5,212.5C 309.993,210.194 310.326,207.861 310.5,205.5C 311.873,205.343 313.207,205.51 314.5,206C 316.572,208.707 319.239,209.707 322.5,209C 319.895,207.069 319.895,205.236 322.5,203.5C 326.318,206.123 330.151,206.123 334,203.5C 337.125,205.296 339.125,207.963 340,211.5C 343.69,213.49 347.524,213.49 351.5,211.5C 352.407,208.579 352.74,205.579 352.5,202.5C 355.118,202.779 357.618,203.446 360,204.5C 362.333,201.5 364,201.833 365,205.5C 366.026,202.307 368.192,200.974 371.5,201.5C 371.5,202.5 371.5,203.5 371.5,204.5C 373.167,204.5 374.833,204.5 376.5,204.5C 376.695,208.888 378.028,212.888 380.5,216.5C 384.034,217.098 386.701,218.932 388.5,222C 394.517,223.347 400.517,224.681 406.5,226C 408.107,227.049 408.773,228.549 408.5,230.5C 411.238,230.149 413.904,229.482 416.5,228.5C 419.263,224.029 421.929,219.529 424.5,215C 426.107,215.019 427.774,215.185 429.5,215.5C 429.642,218.617 430.976,221.117 433.5,223C 445.763,225.947 457.263,224.114 468,217.5C 469.333,210.153 471.167,202.987 473.5,196C 471.919,194.172 470.585,192.172 469.5,190C 463.983,189.551 458.649,188.551 453.5,187C 451.984,185.103 451.317,182.936 451.5,180.5C 446.489,180.666 441.489,180.499 436.5,180C 435.313,178.981 434.313,177.814 433.5,176.5C 435.316,175.185 436.983,173.685 438.5,172C 436.051,171.275 433.717,170.275 431.5,169C 428.8,168.747 426.133,168.747 423.5,169C 422.925,166.859 422.592,164.359 422.5,161.5C 425.187,161.664 427.854,161.497 430.5,161C 433.989,156.005 438.822,153.505 445,153.5C 446.923,151.119 449.423,149.619 452.5,149C 453.5,148 454.5,147 455.5,146C 453.771,144.211 453.104,142.044 453.5,139.5C 449.932,139.241 448.599,137.241 449.5,133.5C 444.637,133.108 443.47,130.774 446,126.5C 448.677,123.491 451.677,120.824 455,118.5C 455.617,117.551 455.451,116.718 454.5,116C 457.371,115.869 459.705,114.703 461.5,112.5C 464.253,114.994 466.92,114.994 469.5,112.5C 473.498,115.868 477.831,116.201 482.5,113.5C 484.16,117.079 486.327,117.412 489,114.5C 489.72,112.888 489.554,111.388 488.5,110C 482.813,110.114 478.313,107.947 475,103.5C 474.326,104.578 473.326,105.245 472,105.5C 468.51,103.375 464.676,102.208 460.5,102C 458.412,99.0737 458.579,96.5737 461,94.5C 461.49,93.2068 461.657,91.8734 461.5,90.5C 464.181,90.4621 466.681,91.1287 469,92.5C 472.382,91.5497 472.882,90.0497 470.5,88C 468.04,87.9375 465.54,88.1042 463,88.5C 459.191,87.6782 455.358,87.0115 451.5,86.5C 451.5,85.1667 451.5,83.8333 451.5,82.5C 453.124,82.3601 454.29,83.0267 455,84.5C 456.218,81.4423 458.051,78.7756 460.5,76.5C 458.703,74.248 456.37,73.248 453.5,73.5C 453.155,70.512 454.488,69.1787 457.5,69.5C 458.994,69.7092 460.161,70.3759 461,71.5C 462.236,69.6928 462.57,67.6928 462,65.5C 464.153,63.5561 466.653,63.0561 469.5,64C 471.371,68.1157 474.038,68.6157 477.5,65.5C 478.517,68.028 479.684,68.028 481,65.5C 483.122,66.2199 483.622,67.3866 482.5,69C 485.492,70.0879 486.492,69.4213 485.5,67C 485.905,66.0546 486.572,65.3879 487.5,65C 491.33,65.6826 495.163,65.5159 499,64.5C 502.12,65.5934 502.287,67.0934 499.5,69C 500.047,69.9246 500.713,70.7579 501.5,71.5C 506.114,64.2812 512.448,61.1145 520.5,62C 522.416,57.6438 525.583,56.4772 530,58.5C 536.916,55.6026 543.582,53.936 550,53.5C 554.074,52.4031 558.24,51.5698 562.5,51C 564.519,50.5503 566.352,49.717 568,48.5C 568.804,49.8045 569.971,50.4712 571.5,50.5C 574.051,49.6414 576.551,48.6414 579,47.5C 581.175,49.5233 583.675,50.8566 586.5,51.5C 585.427,48.2791 585.427,45.1124 586.5,42C 589.044,40.908 591.711,40.2414 594.5,40C 593.159,38.1735 593.659,37.0069 596,36.5C 598.333,37.1667 600.667,37.8333 603,38.5C 604.394,37.3867 605.561,36.0534 606.5,34.5C 607.736,33.7542 609.07,33.4208 610.5,33.5C 610.215,35.288 610.548,36.9547 611.5,38.5C 623.895,34.3691 636.561,31.2024 649.5,29C 650.662,28.1729 651.829,27.3396 653,26.5C 656.121,27.5359 659.287,27.7026 662.5,27C 665.301,25.5459 667.801,23.7125 670,21.5C 675.509,25.0524 679.342,23.719 681.5,17.5C 680.218,15.8208 679.218,13.9874 678.5,12C 680.101,11.7266 681.601,11.2266 683,10.5C 686.521,11.2448 690.021,11.5782 693.5,11.5C 693.631,9.18451 694.631,6.85118 696.5,4.5C 699.895,3.11049 702.395,4.11049 704,7.5C 703.842,4.82064 703.342,2.15398 702.5,-0.5 Z M 802.5,58.5 C 804.337,58.6395 804.67,59.3061 803.5,60.5C 802.702,60.0431 802.369,59.3764 802.5,58.5 Z M 820.5,68.5 C 819.178,68.67 818.011,68.3366 817,67.5C 816,68.8333 815,70.1667 814,71.5C 812.904,69.1108 812.071,66.6108 811.5,64C 812.793,63.51 814.127,63.3433 815.5,63.5C 815.38,66.2048 816.38,66.8715 818.5,65.5C 819.919,66.0047 820.585,67.0047 820.5,68.5 Z M 155.5,512.5 C 154.05,513.658 153.05,513.158 152.5,511C 153.998,510.415 154.998,510.915 155.5,512.5 Z M 191.5,598.5 C 192.5,598.5 193.5,598.5 194.5,598.5C 194.521,603.366 193.521,603.366 191.5,598.5 Z"/></g>
<g><path style="opacity:0.992" fill="#01afc9" d="M 229.5,199.5 C 228.634,201.144 228.134,202.811 228,204.5C 230.278,203.281 232.445,201.948 234.5,200.5C 236.027,200.427 237.027,201.094 237.5,202.5C 233.626,211.919 229.459,221.252 225,230.5C 222.503,240.79 226.003,247.956 235.5,252C 227.995,254.173 224.329,259.173 224.5,267C 224.325,270.746 225.158,274.246 227,277.5C 235.333,294.833 243.667,312.167 252,329.5C 254.549,339.602 250.716,344.102 240.5,343C 235.845,340.103 234.345,335.937 236,330.5C 238.21,327.71 241.044,326.877 244.5,328C 245.406,329.699 245.739,331.533 245.5,333.5C 242.612,333.78 241.112,332.447 241,329.5C 240.196,331.944 238.696,333.778 236.5,335C 238.504,336.423 240.004,338.256 241,340.5C 243.893,339.189 246.559,337.523 249,335.5C 251.132,327.264 247.966,322.764 239.5,322C 242.044,320.437 242.044,318.937 239.5,317.5C 240.705,316.005 240.705,314.672 239.5,313.5C 237.94,311.844 236.94,309.844 236.5,307.5C 234.877,303.877 232.21,301.21 228.5,299.5C 228.167,299.833 227.833,300.167 227.5,300.5C 230.83,304.159 232.163,308.492 231.5,313.5C 230.506,320.156 229.506,326.822 228.5,333.5C 228.124,338.079 229.457,342.079 232.5,345.5C 228.41,348.434 228.743,350.934 233.5,353C 228.741,357.491 227.241,362.991 229,369.5C 231.275,376.685 231.942,384.018 231,391.5C 230.484,394.034 229.317,396.2 227.5,398C 234.929,396.825 237.929,392.491 236.5,385C 237.793,384.51 239.127,384.343 240.5,384.5C 240.703,382.61 240.037,381.11 238.5,380C 242.082,379.405 242.416,378.071 239.5,376C 242.963,375.883 245.963,374.716 248.5,372.5C 249.167,372.5 249.5,372.833 249.5,373.5C 241.618,390.932 233.451,408.266 225,425.5C 222.498,435.74 225.998,442.906 235.5,447C 229.161,448.838 225.494,453.005 224.5,459.5C 223.761,459.369 223.094,459.536 222.5,460C 223.942,460.377 224.942,461.21 225.5,462.5C 224.549,463.919 224.216,465.585 224.5,467.5C 222.629,467.141 221.129,466.141 220,464.5C 218.519,461.044 216.852,457.711 215,454.5C 212.76,457.293 211.26,456.96 210.5,453.5C 215.66,452.272 215.66,451.605 210.5,451.5C 208.631,450.835 206.631,450.169 204.5,449.5C 204.808,448.692 205.308,448.025 206,447.5C 210.047,449.182 210.88,448.515 208.5,445.5C 210.111,442.78 210.944,439.78 211,436.5C 215.344,431.422 216.344,425.756 214,419.5C 210.272,418.166 209.772,416.166 212.5,413.5C 212.29,409.62 210.29,407.953 206.5,408.5C 207.75,406.032 207.583,403.699 206,401.5C 203.372,399.874 201.039,397.874 199,395.5C 198.161,396.624 196.994,397.291 195.5,397.5C 192.488,396.828 189.488,396.161 186.5,395.5C 186.313,397.564 185.813,399.564 185,401.5C 182.331,402.747 180.498,404.747 179.5,407.5C 175.16,405.763 170.994,403.763 167,401.5C 166.282,402.451 165.449,402.617 164.5,402C 162.459,400.758 161.293,398.925 161,396.5C 160.692,397.308 160.192,397.975 159.5,398.5C 158.155,397.653 157.155,396.487 156.5,395C 153.607,394.369 150.774,393.536 148,392.5C 141.685,393.808 136.685,397.141 133,402.5C 131.989,401.663 130.822,401.33 129.5,401.5C 129.716,403.681 128.883,405.347 127,406.5C 126.3,404.968 125.134,403.968 123.5,403.5C 120.853,405.216 118.519,407.883 116.5,411.5C 115.833,411.167 115.167,410.833 114.5,410.5C 113.5,411.833 112.5,413.167 111.5,414.5C 109.013,415.576 106.68,416.91 104.5,418.5C 101.634,419.889 98.9671,420.889 96.5,421.5C 95.8076,420.975 95.3076,420.308 95,419.5C 92.988,421.68 91.1546,424.014 89.5,426.5C 88.3247,425.145 87.3247,425.312 86.5,427C 87.8333,428 87.8333,429 86.5,430C 88.6574,431.085 88.8241,432.251 87,433.5C 85.6667,432.833 84.3333,432.167 83,431.5C 82.7266,429.899 82.2266,428.399 81.5,427C 78.5311,425.516 75.5311,424.016 72.5,422.5C 68.8008,419.131 65.1341,415.798 61.5,412.5C 61.6472,409.501 63.1472,407.834 66,407.5C 68.0832,409.245 70.4165,410.578 73,411.5C 75.3759,411.457 76.8759,410.291 77.5,408C 75.384,403.601 72.884,399.434 70,395.5C 67.4229,390.113 65.9229,384.446 65.5,378.5C 63.0108,378.702 60.6775,378.202 58.5,377C 55.6628,371.656 52.3295,366.656 48.5,362C 41.7556,362.978 35.0889,362.478 28.5,360.5C 28.5,362.167 28.5,363.833 28.5,365.5C 24.4204,364.756 21.0871,362.756 18.5,359.5C 18.8333,358.833 19.1667,358.167 19.5,357.5C 18.1667,355.167 16.8333,352.833 15.5,350.5C 16.9814,349.52 18.3147,348.353 19.5,347C 18.6433,346.311 17.9767,345.478 17.5,344.5C 18.3742,342.253 18.7076,339.92 18.5,337.5C 12.1636,335.327 5.83025,332.993 -0.5,330.5C -0.5,329.167 -0.5,327.833 -0.5,326.5C 2.40462,319.64 5.23796,312.64 8,305.5C 18.475,300.162 18.8083,294.495 9,288.5C 8.33333,285.167 8.33333,281.833 9,278.5C 10.8675,273.125 11.8675,267.791 12,262.5C 18.7246,261.555 23.2246,257.889 25.5,251.5C 23.3647,247.998 23.1981,244.331 25,240.5C 27.0607,237.73 29.5607,235.396 32.5,233.5C 34.7721,234.441 36.7721,235.774 38.5,237.5C 42.5717,241.565 46.2383,245.898 49.5,250.5C 50.7271,256.301 53.8938,260.635 59,263.5C 62.442,261.862 65.942,260.362 69.5,259C 74.5463,255.991 74.5463,253.325 69.5,251C 70.0585,250.275 70.3918,249.442 70.5,248.5C 68.2523,242.02 66.7523,235.353 66,228.5C 63.3544,227.02 63.1878,225.687 65.5,224.5C 68.7054,226.839 72.0388,227.005 75.5,225C 78.6003,219.61 83.2669,216.443 89.5,215.5C 89.8333,215 90.1667,214.5 90.5,214C 89.7113,212.374 88.7113,210.874 87.5,209.5C 88.6005,207.358 89.6005,205.192 90.5,203C 93.6682,203.003 96.8349,203.17 100,203.5C 102.46,202.042 104.627,200.209 106.5,198C 110.461,196.402 114.461,194.902 118.5,193.5C 118.913,189.989 120.746,187.655 124,186.5C 123.772,182.27 125.605,179.604 129.5,178.5C 134.086,180.915 134.753,179.582 131.5,174.5C 132.748,172.31 134.414,171.977 136.5,173.5C 137.386,174.325 137.719,175.325 137.5,176.5C 141.846,176.334 146.179,176.501 150.5,177C 152.192,178.401 152.859,180.234 152.5,182.5C 150.058,182.354 149.391,183.187 150.5,185C 153.742,185.986 156.408,185.152 158.5,182.5C 160.116,183.115 161.449,184.115 162.5,185.5C 164.018,182.854 165.351,180.021 166.5,177C 169.022,176.501 171.522,176.668 174,177.5C 176.648,175.615 179.481,173.949 182.5,172.5C 184.412,177.292 187.078,181.792 190.5,186C 192.983,186.17 195.149,185.336 197,183.5C 201.418,186.018 205.418,186.018 209,183.5C 215.263,183.769 220.429,186.269 224.5,191C 223.233,192.796 223.233,194.629 224.5,196.5C 226.145,197.696 227.811,198.696 229.5,199.5 Z"/></g>
<g><path style="opacity:1" fill="#f2c41e" d="M 691.5,190.5 C 695.874,199.67 697.54,209.337 696.5,219.5C 693.37,222.113 690.204,222.113 687,219.5C 686.409,209.525 687.909,199.858 691.5,190.5 Z"/></g>
<g><path style="opacity:1" fill="#f4c41a" d="M 669.5,193.5 C 674.081,200.833 677.748,208.666 680.5,217C 679.359,221.81 676.359,223.81 671.5,223C 670.299,222.097 669.465,220.931 669,219.5C 668.225,210.785 668.392,202.119 669.5,193.5 Z"/></g>
<g><path style="opacity:1" fill="#f2c41e" d="M 713.5,193.5 C 714.268,194.263 714.768,195.263 715,196.5C 715.667,204.167 715.667,211.833 715,219.5C 711.822,224.371 708.155,224.704 704,220.5C 703.833,219.333 703.667,218.167 703.5,217C 706.345,208.966 709.678,201.133 713.5,193.5 Z"/></g>
<g><path style="opacity:1" fill="#cec03c" d="M 229.5,199.5 C 231.415,199.216 233.081,199.549 234.5,200.5C 232.445,201.948 230.278,203.281 228,204.5C 228.134,202.811 228.634,201.144 229.5,199.5 Z"/></g>
<g><path style="opacity:1" fill="#f5c41a" d="M 648.5,200.5 C 653.853,206.364 658.687,212.697 663,219.5C 664.218,226.283 661.384,229.116 654.5,228C 653.299,227.097 652.465,225.931 652,224.5C 650.184,216.577 649.017,208.577 648.5,200.5 Z"/></g>
<g><path style="opacity:1" fill="#f6c416" d="M 734.5,200.5 C 734.995,209.169 733.828,217.836 731,226.5C 727.393,229.269 724.06,228.936 721,225.5C 720.333,223.5 720.333,221.5 721,219.5C 725.331,213.01 729.831,206.676 734.5,200.5 Z"/></g>
<g><path style="opacity:1" fill="#f5c418" d="M 754.5,210.5 C 753.006,218.155 750.506,225.822 747,233.5C 744.321,236.835 741.155,237.335 737.5,235C 735.114,232.293 734.948,229.46 737,226.5C 743.029,221.301 748.862,215.967 754.5,210.5 Z"/></g>
<g><path style="opacity:1" fill="#d4c039" d="M 268.5,212.5 C 267.833,213.833 267.167,213.833 266.5,212.5C 267.167,211.167 267.833,211.167 268.5,212.5 Z"/></g>
<g><path style="opacity:1" fill="#f5c41a" d="M 628.5,210.5 C 632.959,213.787 637.292,217.287 641.5,221C 645.683,223.881 647.85,227.714 648,232.5C 645.126,236.842 641.626,237.509 637.5,234.5C 633.707,226.786 630.707,218.786 628.5,210.5 Z"/></g>
<g><path style="opacity:1" fill="#6ab685" d="M 260.5,213.5 C 262.265,212.539 264.265,212.205 266.5,212.5C 267.167,213.833 267.833,213.833 268.5,212.5C 269.5,212.833 270.167,213.5 270.5,214.5C 268.167,214.5 265.833,214.5 263.5,214.5C 262.791,213.596 261.791,213.263 260.5,213.5 Z"/></g>
<g><path style="opacity:1" fill="#f7c416" d="M 611.5,224.5 C 618.781,228.608 625.947,232.941 633,237.5C 635.626,244.756 633.126,247.922 625.5,247C 619.79,240.129 615.123,232.629 611.5,224.5 Z"/></g>
<g><path style="opacity:1" fill="#f7c415" d="M 771.5,224.5 C 772.525,224.897 772.692,225.563 772,226.5C 768.121,233.762 763.621,240.595 758.5,247C 750.754,247.923 748.254,244.757 751,237.5C 757.644,232.767 764.478,228.434 771.5,224.5 Z"/></g>
<g><path style="opacity:1" fill="#1dafc3" d="M 263.5,214.5 C 265.833,214.5 268.167,214.5 270.5,214.5C 270.047,215.458 269.381,216.292 268.5,217C 271.667,219.5 274.833,222 278,224.5C 278.383,223.944 278.883,223.611 279.5,223.5C 281.404,227.309 282.737,231.309 283.5,235.5C 282.713,243.448 278.379,246.615 270.5,245C 266.874,242.749 265.707,239.582 267,235.5C 268.388,234.446 269.888,234.28 271.5,235C 273.357,242.094 275.024,241.927 276.5,234.5C 279.5,234.833 280.833,233.5 280.5,230.5C 279.448,230.649 278.448,230.483 277.5,230C 277.012,227.824 276.012,225.991 274.5,224.5C 273.772,226.193 272.772,227.693 271.5,229C 268.097,229.1 264.93,229.934 262,231.5C 261.333,226.167 261.333,220.833 262,215.5C 262.383,214.944 262.883,214.611 263.5,214.5 Z"/></g>
<g><path style="opacity:1" fill="#fdc40d" d="M 680.5,231.5 C 723.149,229.057 750.982,248.057 764,288.5C 769.581,337.521 748.415,367.687 700.5,379C 660.912,380.465 634.412,362.632 621,325.5C 613.079,290.201 623.912,262.368 653.5,242C 662.192,237.306 671.192,233.806 680.5,231.5 Z"/></g>
<g><path style="opacity:1" fill="#1fafc2" d="M 241.5,210.5 C 242.812,211.145 243.812,212.145 244.5,213.5C 246.686,214.221 248.853,214.887 251,215.5C 250.432,218.996 249.598,222.496 248.5,226C 249.305,227.113 249.972,228.279 250.5,229.5C 247.813,229.664 245.146,229.497 242.5,229C 241.91,227.491 241.244,225.991 240.5,224.5C 238.46,227.214 236.127,229.714 233.5,232C 236.344,234.541 238.844,237.374 241,240.5C 241.111,236.047 243.277,234.213 247.5,235C 248.848,243.31 245.182,246.643 236.5,245C 234.43,244.052 232.93,242.552 232,240.5C 231.333,237.167 231.333,233.833 232,230.5C 235.076,223.761 238.243,217.094 241.5,210.5 Z"/></g>
<g><path style="opacity:1" fill="#f6c417" d="M 596.5,242.5 C 604.9,244.135 613.234,246.968 621.5,251C 624.439,254.973 623.772,258.307 619.5,261C 617.833,261.667 616.167,261.667 614.5,261C 608.27,254.938 602.27,248.771 596.5,242.5 Z"/></g>
<g><path style="opacity:1" fill="#f5c418" d="M 785.5,241.5 C 786.239,241.369 786.906,241.536 787.5,242C 782.199,248.302 776.532,254.302 770.5,260C 765.023,262.595 761.689,260.928 760.5,255C 760.643,252.849 761.643,251.182 763.5,250C 770.893,247.041 778.227,244.207 785.5,241.5 Z"/></g>
<g><path style="opacity:1" fill="#f5c419" d="M 237.5,202.5 C 238.496,202.414 239.329,202.748 240,203.5C 240.977,205.74 241.477,208.073 241.5,210.5C 238.243,217.094 235.076,223.761 232,230.5C 231.333,233.833 231.333,237.167 232,240.5C 232.93,242.552 234.43,244.052 236.5,245C 245.182,246.643 248.848,243.31 247.5,235C 243.277,234.213 241.111,236.047 241,240.5C 238.844,237.374 236.344,234.541 233.5,232C 236.127,229.714 238.46,227.214 240.5,224.5C 241.244,225.991 241.91,227.491 242.5,229C 245.146,229.497 247.813,229.664 250.5,229.5C 250.833,229.5 251.167,229.5 251.5,229.5C 252.167,232.167 252.833,232.167 253.5,229.5C 254.962,228.542 256.295,227.376 257.5,226C 254.942,222.151 254.609,218.318 256.5,214.5C 258.012,213.912 259.345,213.578 260.5,213.5C 261.791,213.263 262.791,213.596 263.5,214.5C 262.883,214.611 262.383,214.944 262,215.5C 261.333,220.833 261.333,226.167 262,231.5C 264.93,229.934 268.097,229.1 271.5,229C 272.772,227.693 273.772,226.193 274.5,224.5C 276.012,225.991 277.012,227.824 277.5,230C 278.448,230.483 279.448,230.649 280.5,230.5C 280.833,233.5 279.5,234.833 276.5,234.5C 275.024,241.927 273.357,242.094 271.5,235C 269.888,234.28 268.388,234.446 267,235.5C 265.707,239.582 266.874,242.749 270.5,245C 278.379,246.615 282.713,243.448 283.5,235.5C 282.737,231.309 281.404,227.309 279.5,223.5C 282.339,225.42 285.339,227.087 288.5,228.5C 293.092,240.15 289.426,247.984 277.5,252C 287.552,254.582 291.718,261.082 290,271.5C 281.488,289.855 272.988,308.188 264.5,326.5C 260.245,331.903 260.578,337.07 265.5,342C 275,344.828 279.5,341.328 279,331.5C 277.309,327.787 274.475,326.621 270.5,328C 267.697,330.222 267.863,332.055 271,333.5C 272.653,333.18 273.653,332.18 274,330.5C 275.167,332.167 276.333,333.833 277.5,335.5C 276.094,337.026 274.928,338.693 274,340.5C 271.803,338.844 269.303,337.678 266.5,337C 264.359,333.997 264.026,330.831 265.5,327.5C 267.612,324.27 270.612,322.27 274.5,321.5C 272.978,319.844 273.311,318.677 275.5,318C 274.446,316.612 274.28,315.112 275,313.5C 276.183,314.731 277.349,314.731 278.5,313.5C 276.886,305.888 279.886,301.388 287.5,300C 284.075,304.002 282.742,308.668 283.5,314C 284.442,321.893 285.275,329.726 286,337.5C 285.274,340.621 283.774,343.287 281.5,345.5C 286.745,348.119 286.745,350.619 281.5,353C 283.617,354.731 285.117,356.898 286,359.5C 285.428,367.649 284.594,375.816 283.5,384C 283.042,388.894 284.042,393.394 286.5,397.5C 286.167,397.833 285.833,398.167 285.5,398.5C 279.208,395.916 276.541,391.25 277.5,384.5C 276.5,384.5 275.5,384.5 274.5,384.5C 274.421,383.07 274.754,381.736 275.5,380.5C 272.956,379.063 272.956,377.563 275.5,376C 270.834,376.485 267.501,374.651 265.5,370.5C 263.492,366.175 264.492,362.842 268.5,360.5C 270.886,360.741 272.886,360.075 274.5,358.5C 275.304,360.189 276.304,361.855 277.5,363.5C 276.094,365.026 274.928,366.693 274,368.5C 273.883,365.371 272.383,364.205 269.5,365C 267.65,368.747 268.817,370.914 273,371.5C 278.346,369.818 280.346,366.151 279,360.5C 273.419,352.607 267.753,352.607 262,360.5C 261.13,364.639 261.963,368.306 264.5,371.5C 272.988,389.812 281.488,408.145 290,426.5C 292.074,437.191 287.907,444.025 277.5,447C 281.127,447.564 284.293,449.064 287,451.5C 291.296,457.901 291.629,464.568 288,471.5C 279.882,488.068 272.049,504.734 264.5,521.5C 259.789,528.017 260.789,533.517 267.5,538C 276.492,538.672 280.325,534.506 279,525.5C 276.387,522.481 273.221,521.814 269.5,523.5C 267.717,527.031 268.717,528.531 272.5,528C 273.047,527.075 273.713,526.242 274.5,525.5C 275.228,527.193 276.228,528.693 277.5,530C 276.15,531.718 274.983,533.552 274,535.5C 272.56,533.954 270.727,533.121 268.5,533C 264.589,530.399 263.589,526.899 265.5,522.5C 267.612,519.27 270.612,517.27 274.5,516.5C 273.125,514.837 273.458,513.503 275.5,512.5C 274.572,511.232 274.405,509.899 275,508.5C 276.183,509.731 277.349,509.731 278.5,508.5C 276.533,500.64 279.533,496.14 287.5,495C 284.019,498.751 282.686,503.251 283.5,508.5C 284.979,516.423 285.813,524.423 286,532.5C 285.394,535.548 283.894,538.048 281.5,540C 282.868,541.34 284.201,542.674 285.5,544C 284.201,545.326 282.868,546.66 281.5,548C 286.259,552.491 287.759,557.991 286,564.5C 282.213,574.301 282.713,583.801 287.5,593C 279.924,591.896 276.591,587.396 277.5,579.5C 276.5,579.5 275.5,579.5 274.5,579.5C 274.433,578.041 274.766,576.708 275.5,575.5C 274.833,574.833 274.167,574.167 273.5,573.5C 273.953,572.542 274.619,571.708 275.5,571C 271.614,570.973 268.448,569.473 266,566.5C 262.758,558.91 265.258,555.243 273.5,555.5C 273.351,554.448 273.517,553.448 274,552.5C 274.996,554.744 276.496,556.577 278.5,558C 276.496,559.423 274.996,561.256 274,563.5C 273.691,562.234 273.191,561.067 272.5,560C 268.176,559.955 267.51,561.621 270.5,565C 273.466,565.895 276.133,565.395 278.5,563.5C 281.647,555.447 278.98,551.114 270.5,550.5C 262.887,551.043 260.387,555.043 263,562.5C 266.269,569.864 269.102,577.364 271.5,585C 271.333,586.167 271.167,587.333 271,588.5C 266.919,592.957 262.253,593.624 257,590.5C 247.1,594.384 242.766,591.051 244,580.5C 245.846,576.145 247.679,571.812 249.5,567.5C 252.395,562.78 252.895,557.78 251,552.5C 245.754,549.602 240.754,549.936 236,553.5C 232.707,562.117 235.541,565.95 244.5,565C 245.833,563.333 245.833,561.667 244.5,560C 243.833,559.333 243.167,559.333 242.5,560C 241.929,561.205 241.262,562.372 240.5,563.5C 239.766,561.185 238.432,559.352 236.5,558C 238.504,556.577 240.004,554.744 241,552.5C 241.483,553.448 241.649,554.448 241.5,555.5C 249.328,555.339 251.661,559.006 248.5,566.5C 246.236,569.215 243.236,570.715 239.5,571C 240.357,571.689 241.023,572.522 241.5,573.5C 239.187,574.971 238.853,576.804 240.5,579C 240.354,580.727 239.687,580.894 238.5,579.5C 237.858,583.023 236.692,586.356 235,589.5C 232.789,591.878 230.289,592.878 227.5,592.5C 232.305,583.839 232.805,574.839 229,565.5C 228.333,561.5 228.333,557.5 229,553.5C 230.122,551.376 231.622,549.543 233.5,548C 228.167,545.333 228.167,542.667 233.5,540C 231.622,538.457 230.122,536.624 229,534.5C 228.333,530.5 228.333,526.5 229,522.5C 230.634,517.631 231.468,512.631 231.5,507.5C 232.197,502.646 230.863,498.479 227.5,495C 228.094,494.536 228.761,494.369 229.5,494.5C 233.719,496.751 236.385,500.251 237.5,505C 237.355,506.226 237.022,507.393 236.5,508.5C 237.391,509.59 238.391,509.59 239.5,508.5C 240.645,509.776 240.645,511.109 239.5,512.5C 241.645,513.682 241.645,515.182 239.5,517C 249.045,518.425 251.712,523.425 247.5,532C 244.992,532.654 242.826,533.821 241,535.5C 240.004,533.256 238.504,531.423 236.5,530C 238.504,528.577 240.004,526.744 241,524.5C 241.112,527.447 242.612,528.78 245.5,528.5C 245.854,522.796 243.187,520.963 237.5,523C 234.118,528.998 235.118,533.998 240.5,538C 247.682,539.144 251.682,536.144 252.5,529C 252.406,525.643 251.573,522.477 250,519.5C 245.216,510.267 240.716,500.933 236.5,491.5C 237.585,489.413 239.251,488.08 241.5,487.5C 246.563,498.627 251.897,509.627 257.5,520.5C 267.42,501.499 276.086,481.999 283.5,462C 283.6,458.196 281.934,455.529 278.5,454C 270.899,451.398 266.732,453.898 266,461.5C 270.123,464.585 272.789,463.585 274,458.5C 275.683,461.446 277.85,463.946 280.5,466C 279.968,468.02 278.635,468.853 276.5,468.5C 276.872,471.022 276.039,473.022 274,474.5C 274.054,471.809 272.887,469.976 270.5,469C 267.341,468.989 264.507,468.155 262,466.5C 261.51,467.793 261.343,469.127 261.5,470.5C 260.566,471.568 260.232,472.901 260.5,474.5C 258.167,474.5 255.833,474.5 253.5,474.5C 253.5,473.833 253.167,473.5 252.5,473.5C 252.5,473.167 252.5,472.833 252.5,472.5C 253.622,470.712 253.789,468.712 253,466.5C 252.329,467.252 251.496,467.586 250.5,467.5C 248.938,467.267 247.605,466.6 246.5,465.5C 246.5,464.833 246.5,464.167 246.5,463.5C 249.657,458.605 248.323,455.105 242.5,453C 238.133,452.286 234.8,453.786 232.5,457.5C 232.167,457.5 231.833,457.5 231.5,457.5C 230.167,457.5 228.833,457.5 227.5,457.5C 227.737,458.791 227.404,459.791 226.5,460.5C 225.833,460.167 225.167,459.833 224.5,459.5C 225.494,453.005 229.161,448.838 235.5,447C 225.998,442.906 222.498,435.74 225,425.5C 233.451,408.266 241.618,390.932 249.5,373.5C 252.252,369.299 253.086,364.632 252,359.5C 246.667,352.833 241.333,352.833 236,359.5C 234.849,363.829 235.682,367.662 238.5,371C 243.835,372.167 246.169,370 245.5,364.5C 242.612,364.22 241.112,365.553 241,368.5C 240.004,366.256 238.504,364.423 236.5,363C 238.696,361.778 240.196,359.944 241,357.5C 242.826,359.179 244.992,360.346 247.5,361C 249.84,364.573 250.173,368.406 248.5,372.5C 245.963,374.716 242.963,375.883 239.5,376C 242.416,378.071 242.082,379.405 238.5,380C 240.037,381.11 240.703,382.61 240.5,384.5C 239.127,384.343 237.793,384.51 236.5,385C 237.929,392.491 234.929,396.825 227.5,398C 229.317,396.2 230.484,394.034 231,391.5C 231.942,384.018 231.275,376.685 229,369.5C 227.241,362.991 228.741,357.491 233.5,353C 228.743,350.934 228.41,348.434 232.5,345.5C 229.457,342.079 228.124,338.079 228.5,333.5C 229.506,326.822 230.506,320.156 231.5,313.5C 232.163,308.492 230.83,304.159 227.5,300.5C 227.833,300.167 228.167,299.833 228.5,299.5C 232.21,301.21 234.877,303.877 236.5,307.5C 236.5,309.833 236.5,312.167 236.5,314.5C 237.791,314.737 238.791,314.404 239.5,313.5C 240.705,314.672 240.705,316.005 239.5,317.5C 242.044,318.937 242.044,320.437 239.5,322C 247.966,322.764 251.132,327.264 249,335.5C 246.559,337.523 243.893,339.189 241,340.5C 240.004,338.256 238.504,336.423 236.5,335C 238.696,333.778 240.196,331.944 241,329.5C 241.112,332.447 242.612,333.78 245.5,333.5C 245.739,331.533 245.406,329.699 244.5,328C 241.044,326.877 238.21,327.71 236,330.5C 234.345,335.937 235.845,340.103 240.5,343C 250.716,344.102 254.549,339.602 252,329.5C 243.667,312.167 235.333,294.833 227,277.5C 225.158,274.246 224.325,270.746 224.5,267C 224.329,259.173 227.995,254.173 235.5,252C 226.003,247.956 222.503,240.79 225,230.5C 229.459,221.252 233.626,211.919 237.5,202.5 Z"/></g>
<g><path style="opacity:1" fill="#23afc1" d="M 256.5,242.5 C 260.239,246.882 264.906,250.048 270.5,252C 264.902,253.43 260.569,256.597 257.5,261.5C 254.312,256.144 249.646,252.978 243.5,252C 249.366,250.752 253.699,247.585 256.5,242.5 Z"/></g>
<g><path style="opacity:0.992" fill="#4bb2a2" d="M 251.5,229.5 C 252.167,229.5 252.833,229.5 253.5,229.5C 252.833,232.167 252.167,232.167 251.5,229.5 Z"/></g>
<g><path style="opacity:1" fill="#f8c414" d="M 586.5,262.5 C 595.129,262.33 603.795,263.497 612.5,266C 615.077,269.262 615.077,272.595 612.5,276C 610.167,276.667 607.833,276.667 605.5,276C 599.01,271.669 592.676,267.169 586.5,262.5 Z"/></g>
<g><path style="opacity:1" fill="#f4c41b" d="M 792.5,261.5 C 794.199,261.34 795.866,261.506 797.5,262C 791.345,266.911 785.011,271.577 778.5,276C 772.984,277.925 769.651,276.091 768.5,270.5C 768.876,268.617 769.876,267.117 771.5,266C 778.437,263.627 785.437,262.127 792.5,261.5 Z"/></g>
<g><path style="opacity:1" fill="#20afc2" d="M 261.5,287.5 C 261.179,282.305 261.513,277.305 262.5,272.5C 265.609,274.021 268.942,274.854 272.5,275C 273.227,276.399 273.727,277.899 274,279.5C 276.039,278.022 276.872,276.022 276.5,273.5C 278.346,273.778 279.68,273.111 280.5,271.5C 277.723,269.37 275.556,266.703 274,263.5C 273.536,268.35 271.036,269.684 266.5,267.5C 265.221,263.553 266.554,260.72 270.5,259C 280.667,257.167 284.833,261.333 283,271.5C 274.757,289.652 266.257,307.652 257.5,325.5C 249.41,309.654 241.577,293.654 234,277.5C 231.69,272.734 231.023,267.734 232,262.5C 237.452,257.225 242.786,257.225 248,262.5C 249.477,266.998 247.977,269.165 243.5,269C 242.134,267.4 241.134,265.567 240.5,263.5C 238.618,266.623 236.285,269.289 233.5,271.5C 236.305,273.795 238.639,276.461 240.5,279.5C 241.244,278.009 241.91,276.509 242.5,275C 246.425,274.937 249.925,273.771 253,271.5C 253.667,277.167 253.667,282.833 253,288.5C 250.281,289.444 247.448,289.777 244.5,289.5C 245.685,294.616 249.018,297.116 254.5,297C 250.346,302.627 251.346,307.461 257.5,311.5C 262.626,307.424 263.626,302.591 260.5,297C 265.295,296.921 268.628,294.755 270.5,290.5C 267.893,289.682 265.226,289.182 262.5,289C 261.944,288.617 261.611,288.117 261.5,287.5 Z"/></g>
<g><path style="opacity:1" fill="#b7be43" d="M 262.5,272.5 C 261.513,277.305 261.179,282.305 261.5,287.5C 260.185,282.32 260.185,276.986 261.5,271.5C 262.107,271.624 262.44,271.957 262.5,272.5 Z"/></g>
<g><path style="opacity:1" fill="#f4c41a" d="M 585.5,281.5 C 592.175,281.334 598.842,281.5 605.5,282C 610.028,284.824 610.695,288.49 607.5,293C 604.072,293.701 600.738,293.368 597.5,292C 591.5,289 585.5,286 579.5,283C 581.708,282.809 583.708,282.309 585.5,281.5 Z"/></g>
<g><path style="opacity:1" fill="#f7c416" d="M 777.5,281.5 C 786.513,281.715 795.513,282.215 804.5,283C 796.606,287.615 788.273,291.115 779.5,293.5C 777.626,293.61 776.126,292.944 775,291.5C 773.861,287.579 774.695,284.246 777.5,281.5 Z"/></g>
<g><path style="opacity:1" fill="#f2c41e" d="M 597.5,299.5 C 606,297.833 609.167,301.166 607,309.5C 604.083,311.393 600.916,311.893 597.5,311C 590.593,309.609 583.926,307.609 577.5,305C 584.339,303.341 591.006,301.508 597.5,299.5 Z"/></g>
<g><path style="opacity:1" fill="#f6c417" d="M 778.5,299.5 C 787.679,300.369 796.679,302.203 805.5,305C 797.121,308.262 788.454,310.262 779.5,311C 774.649,307.573 774.316,303.74 778.5,299.5 Z"/></g>
<g><path style="opacity:1" fill="#6fb781" d="M 236.5,307.5 C 236.94,309.844 237.94,311.844 239.5,313.5C 238.791,314.404 237.791,314.737 236.5,314.5C 236.5,312.167 236.5,309.833 236.5,307.5 Z"/></g>
<g><path style="opacity:1" fill="#f6c418" d="M 679.5,433.5 C 682.5,434.167 685.5,434.833 688.5,435.5C 687.605,438.96 685.938,441.96 683.5,444.5C 680.779,442.473 677.779,440.973 674.5,440C 664.866,438.764 655.199,437.764 645.5,437C 642.756,436.197 640.089,435.197 637.5,434C 631.167,428.333 624.833,422.667 618.5,417C 605.842,413.581 595.342,406.748 587,396.5C 580.257,386.003 571.924,377.003 562,369.5C 560.559,372.575 558.393,373.241 555.5,371.5C 554.263,371.556 553.263,372.056 552.5,373C 556.317,377.134 558.651,381.967 559.5,387.5C 557.143,387.337 554.81,387.503 552.5,388C 555.464,391.966 558.797,395.633 562.5,399C 560.744,399.202 559.078,399.702 557.5,400.5C 560.976,405.238 565.642,407.905 571.5,408.5C 570.572,412.458 571.906,415.125 575.5,416.5C 573.876,417.869 573.376,419.536 574,421.5C 576.816,422.662 579.65,423.829 582.5,425C 581.421,425.956 580.255,426.789 579,427.5C 578.333,428.167 578.333,428.833 579,429.5C 583.085,432.195 587.585,433.695 592.5,434C 590.751,435.292 588.918,436.458 587,437.5C 586.312,438.332 586.479,438.998 587.5,439.5C 600.143,446.327 613.476,451.494 627.5,455C 618.166,454.751 609.166,452.751 600.5,449C 591.833,445.333 583.167,441.667 574.5,438C 577.167,437 579.833,436 582.5,435C 579.211,434.118 575.877,433.452 572.5,433C 569.888,432.361 567.554,431.194 565.5,429.5C 568.198,428.331 570.865,427.164 573.5,426C 567.941,425.301 562.608,423.968 557.5,422C 573.103,419.093 573.103,417.093 557.5,416C 553.965,415.337 550.965,413.837 548.5,411.5C 550.948,410.527 553.615,410.194 556.5,410.5C 559.187,410.664 561.854,410.497 564.5,410C 557.864,406.682 551.198,403.349 544.5,400C 539.977,396.977 536.31,393.144 533.5,388.5C 534.167,388.167 534.833,387.833 535.5,387.5C 539.13,389.315 542.797,391.149 546.5,393C 548.167,393.667 549.833,393.667 551.5,393C 539.068,383.903 528.734,372.903 520.5,360C 522.25,356.99 524.584,356.657 527.5,359C 532.833,364.333 538.167,369.667 543.5,375C 545.369,376.602 547.369,377.602 549.5,378C 539.163,366.985 530.83,354.652 524.5,341C 524.585,339.893 524.919,338.893 525.5,338C 527.5,337.333 529.5,337.333 531.5,338C 537.394,346.95 543.894,355.45 551,363.5C 546.841,354.491 543.174,345.157 540,335.5C 538.738,330.213 538.404,324.88 539,319.5C 541.333,315.5 543.667,315.5 546,319.5C 548.433,331.231 552.1,342.565 557,353.5C 555.784,345.246 555.451,336.912 556,328.5C 557.667,327.167 559.333,327.167 561,328.5C 576.915,390.195 616.415,425.195 679.5,433.5 Z"/></g>
<g><path style="opacity:1" fill="#f7c416" d="M 664.5,466.5 C 661.728,467.222 659.728,468.889 658.5,471.5C 655.947,471.055 653.28,471.055 650.5,471.5C 650.393,469.097 651.393,467.264 653.5,466C 661.769,462.864 669.769,459.198 677.5,455C 684.167,448.333 690.833,441.667 697.5,435C 753.689,430.009 793.189,401.842 816,350.5C 818.411,343.269 820.411,335.936 822,328.5C 824.33,326.968 826.33,327.302 828,329.5C 828.212,337.214 827.878,344.88 827,352.5C 829.219,348.729 830.885,344.729 832,340.5C 833.704,332.683 835.87,325.016 838.5,317.5C 840.611,316.152 842.445,316.485 844,318.5C 844.873,327.809 843.539,336.809 840,345.5C 837.325,351.163 834.991,356.83 833,362.5C 839.861,354.607 846.361,346.44 852.5,338C 854.5,337.333 856.5,337.333 858.5,338C 859.059,338.725 859.392,339.558 859.5,340.5C 852.943,354.442 844.276,366.942 833.5,378C 836.801,377.176 839.801,375.51 842.5,373C 847.5,368 852.5,363 857.5,358C 859.925,357.014 861.591,357.681 862.5,360C 854.266,372.903 843.932,383.903 831.5,393C 833.167,393.667 834.833,393.667 836.5,393C 840.626,391.034 844.626,388.868 848.5,386.5C 849.724,388.898 849.558,391.231 848,393.5C 840.536,400.465 832.369,406.465 823.5,411.5C 826.833,412.167 830.167,412.833 833.5,413.5C 833.291,414.086 832.957,414.586 832.5,415C 825.677,418.123 818.677,420.789 811.5,423C 815.619,423.143 819.619,423.81 823.5,425C 817.075,427.753 810.409,429.753 803.5,431C 806.833,432 810.167,433 813.5,434C 808.312,435.643 802.978,436.643 797.5,437C 795.998,437.583 794.665,438.416 793.5,439.5C 796.054,441.021 798.721,442.354 801.5,443.5C 789.335,452.611 775.668,456.777 760.5,456C 769.937,453.614 778.603,449.614 786.5,444C 788.673,442.135 789.007,439.969 787.5,437.5C 790.436,436.885 793.103,435.718 795.5,434C 793.993,433.163 793.493,431.996 794,430.5C 796.071,429.475 798.238,428.642 800.5,428C 801.357,427.311 802.023,426.478 802.5,425.5C 801.41,424.391 801.41,423.391 802.5,422.5C 805.348,420.576 808.348,418.909 811.5,417.5C 808.203,416.858 807.869,415.691 810.5,414C 815.435,411.394 820.102,408.394 824.5,405C 822.5,404.333 820.5,403.667 818.5,403C 821.376,400.825 823.876,398.325 826,395.5C 826.798,393.741 826.631,392.074 825.5,390.5C 823.265,391.752 820.931,392.252 818.5,392C 822.269,388.294 824.269,383.794 824.5,378.5C 818.182,377.664 812.515,379.164 807.5,383C 798.337,389.823 791.004,398.156 785.5,408C 775.708,412.73 766.041,417.73 756.5,423C 750.909,426.586 745.909,430.92 741.5,436C 727.031,438.014 712.697,440.681 698.5,444C 690.446,450.387 682.112,456.387 673.5,462C 670.447,463.527 667.447,465.027 664.5,466.5 Z"/></g>
<g><path style="opacity:1" fill="#f7c417" d="M 586.5,328.5 C 584.5,327.833 582.5,327.167 580.5,326.5C 587.478,323.345 594.478,320.179 601.5,317C 608.806,316.657 611.139,319.99 608.5,327C 601.281,328.429 593.947,328.929 586.5,328.5 Z"/></g>
<g><path style="opacity:1" fill="#f5c41a" d="M 777.5,316.5 C 787.012,319.062 796.012,322.895 804.5,328C 795.167,328.667 785.833,328.667 776.5,328C 773.681,323.899 774.014,320.065 777.5,316.5 Z"/></g>
<g><path style="opacity:1" fill="#31b0ba" d="M 264.5,326.5 C 264.5,327.167 264.833,327.5 265.5,327.5C 264.026,330.831 264.359,333.997 266.5,337C 269.303,337.678 271.803,338.844 274,340.5C 274.928,338.693 276.094,337.026 277.5,335.5C 276.333,333.833 275.167,332.167 274,330.5C 273.653,332.18 272.653,333.18 271,333.5C 267.863,332.055 267.697,330.222 270.5,328C 274.475,326.621 277.309,327.787 279,331.5C 279.5,341.328 275,344.828 265.5,342C 260.578,337.07 260.245,331.903 264.5,326.5 Z"/></g>
<g><path style="opacity:1" fill="#a9bd51" d="M 580.5,326.5 C 582.5,327.167 584.5,327.833 586.5,328.5C 584.076,328.808 581.743,328.474 579.5,327.5C 579.624,326.893 579.957,326.56 580.5,326.5 Z"/></g>
<g><path style="opacity:1" fill="#f8c414" d="M 606.5,333.5 C 613.798,333.638 616.132,337.138 613.5,344C 605.054,346.826 596.387,348.159 587.5,348C 593.734,342.92 600.067,338.086 606.5,333.5 Z"/></g>
<g><path style="opacity:1" fill="#f2c41d" d="M 772.5,333.5 C 775.425,333.46 778.091,334.293 780.5,336C 786.347,340.091 792.013,344.424 797.5,349C 791.185,348.624 784.852,347.957 778.5,347C 767.983,345.746 765.983,341.246 772.5,333.5 Z"/></g>
<g><path style="opacity:1" fill="#28b0be" d="M 256.5,343.5 C 259.333,345.478 262.333,347.311 265.5,349C 262.244,350.459 259.577,352.626 257.5,355.5C 254.82,352.318 251.487,350.152 247.5,349C 251.2,348.157 254.2,346.324 256.5,343.5 Z"/></g>
<g><path style="opacity:1" fill="#f6c417" d="M 614.5,349.5 C 620.784,348.619 623.617,351.286 623,357.5C 621.833,358.667 620.667,359.833 619.5,361C 612.263,363.969 604.929,366.303 597.5,368C 603.061,361.611 608.728,355.445 614.5,349.5 Z"/></g>
<g><path style="opacity:1" fill="#f6c418" d="M 763.5,349.5 C 766.893,349.062 769.893,349.895 772.5,352C 777.167,357.333 781.833,362.667 786.5,368C 778.179,366.56 770.179,363.893 762.5,360C 759.811,356.241 760.145,352.741 763.5,349.5 Z"/></g>
<g><path style="opacity:1" fill="#3ab1b7" d="M 274.5,358.5 C 274.44,357.957 274.107,357.624 273.5,357.5C 271.897,358.793 270.231,359.793 268.5,360.5C 264.492,362.842 263.492,366.175 265.5,370.5C 264.833,370.5 264.5,370.833 264.5,371.5C 261.963,368.306 261.13,364.639 262,360.5C 267.753,352.607 273.419,352.607 279,360.5C 280.346,366.151 278.346,369.818 273,371.5C 268.817,370.914 267.65,368.747 269.5,365C 272.383,364.205 273.883,365.371 274,368.5C 274.928,366.693 276.094,365.026 277.5,363.5C 276.304,361.855 275.304,360.189 274.5,358.5 Z"/></g>
<g><path style="opacity:1" fill="#2fb0ba" d="M 249.5,373.5 C 249.5,372.833 249.167,372.5 248.5,372.5C 250.173,368.406 249.84,364.573 247.5,361C 244.992,360.346 242.826,359.179 241,357.5C 240.196,359.944 238.696,361.778 236.5,363C 238.504,364.423 240.004,366.256 241,368.5C 241.112,365.553 242.612,364.22 245.5,364.5C 246.169,370 243.835,372.167 238.5,371C 235.682,367.662 234.849,363.829 236,359.5C 241.333,352.833 246.667,352.833 252,359.5C 253.086,364.632 252.252,369.299 249.5,373.5 Z"/></g>
<g><path style="opacity:1" fill="#9fbc54" d="M 274.5,358.5 C 272.886,360.075 270.886,360.741 268.5,360.5C 270.231,359.793 271.897,358.793 273.5,357.5C 274.107,357.624 274.44,357.957 274.5,358.5 Z"/></g>
<g><path style="opacity:1" fill="#f5c418" d="M 626.5,362.5 C 632.133,362.961 634.633,365.961 634,371.5C 626.844,377.701 619.011,382.535 610.5,386C 614.377,380.415 617.877,374.582 621,368.5C 622.626,366.195 624.46,364.195 626.5,362.5 Z"/></g>
<g><path style="opacity:1" fill="#f6c417" d="M 753.5,362.5 C 756.421,362.146 758.754,363.146 760.5,365.5C 764.698,371.868 768.698,378.368 772.5,385C 764.108,382.211 756.608,377.711 750,371.5C 748.959,367.59 750.125,364.59 753.5,362.5 Z"/></g>
<g><path style="opacity:1" fill="#25afc1" d="M 256.5,372.5 C 266.087,390.009 274.92,408.009 283,426.5C 284.451,437.389 279.951,441.555 269.5,439C 266.71,436.79 265.877,433.956 267,430.5C 270.903,428.862 273.403,430.196 274.5,434.5C 275.684,432.954 276.684,431.287 277.5,429.5C 282.833,427.833 282.833,426.167 277.5,424.5C 276.756,423.009 276.09,421.509 275.5,420C 275.167,419.833 274.833,419.667 274.5,419.5C 273.772,421.193 272.772,422.693 271.5,424C 268.833,424.333 266.167,424.667 263.5,425C 263,425.5 262.5,426 262,426.5C 261.333,420.833 261.333,415.167 262,409.5C 264.8,408.875 267.634,408.208 270.5,407.5C 268.127,403.216 264.46,401.383 259.5,402C 263.769,396.369 263.103,391.203 257.5,386.5C 251.142,390.785 250.142,395.952 254.5,402C 249.778,401.524 246.445,403.357 244.5,407.5C 247.593,407.998 250.426,408.998 253,410.5C 253.829,415.864 253.663,421.198 252.5,426.5C 249.78,424.889 246.78,424.056 243.5,424C 241.996,422.509 241.163,420.676 241,418.5C 238.844,421.626 236.344,424.459 233.5,427C 236.344,429.541 238.844,432.374 241,435.5C 240.471,430.357 242.638,428.524 247.5,430C 249.496,436.196 247.163,439.696 240.5,440.5C 232.05,438.953 229.217,433.953 232,425.5C 240.178,407.812 248.345,390.145 256.5,372.5 Z"/></g>
<g><path style="opacity:1" fill="#f4c41a" d="M 638.5,374.5 C 644.831,373.029 647.998,375.362 648,381.5C 642.333,388.5 636,394.833 629,400.5C 630.475,391.243 633.642,382.576 638.5,374.5 Z"/></g>
<g><path style="opacity:1" fill="#f5c418" d="M 740.5,373.5 C 744.09,373.544 746.59,375.211 748,378.5C 750.976,385.747 753.31,393.08 755,400.5C 748.698,395.199 742.698,389.532 737,383.5C 734.487,378.886 735.654,375.553 740.5,373.5 Z"/></g>
<g><path style="opacity:1" fill="#f6c418" d="M 654.5,382.5 C 663.699,382.627 665.865,386.627 661,394.5C 657,399.833 653,405.167 649,410.5C 648.747,402.03 649.747,393.697 652,385.5C 653.045,384.627 653.878,383.627 654.5,382.5 Z"/></g>
<g><path style="opacity:1" fill="#f6c418" d="M 723.5,382.5 C 727.49,381.616 730.323,382.949 732,386.5C 734.093,394.385 735.093,402.385 735,410.5C 729.947,404.448 725.281,398.115 721,391.5C 719.927,387.9 720.76,384.9 723.5,382.5 Z"/></g>
<g><path style="opacity:1" fill="#f7c415" d="M 671.5,387.5 C 676.189,386.834 679.189,388.667 680.5,393C 677.588,401.399 674.088,409.566 670,417.5C 668.668,408.532 668.335,399.532 669,390.5C 670.045,389.627 670.878,388.627 671.5,387.5 Z"/></g>
<g><path style="opacity:1" fill="#f7c415" d="M 706.5,387.5 C 709.97,386.875 712.804,387.875 715,390.5C 715.606,399.528 715.273,408.528 714,417.5C 710.119,410.405 706.785,403.071 704,395.5C 703.018,392.225 703.851,389.559 706.5,387.5 Z"/></g>
<g><path style="opacity:1" fill="#f9c412" d="M 688.5,389.5 C 691.685,389.02 694.519,389.686 697,391.5C 696.948,401.059 695.281,410.393 692,419.5C 688.407,410.472 686.74,401.139 687,391.5C 687.717,390.956 688.217,390.289 688.5,389.5 Z"/></g>
<g><path style="opacity:1" fill="#7fb96f" d="M 556.5,410.5 C 553.615,410.194 550.948,410.527 548.5,411.5C 547.957,411.44 547.624,411.107 547.5,410.5C 550.645,409.197 553.645,409.197 556.5,410.5 Z"/></g>
<g><path style="opacity:1" fill="#7cb973" d="M 679.5,433.5 C 682.898,433.18 686.232,433.513 689.5,434.5C 689.376,435.107 689.043,435.44 688.5,435.5C 685.5,434.833 682.5,434.167 679.5,433.5 Z"/></g>
<g><path style="opacity:1" fill="#26b0c0" d="M 256.5,436.5 C 258.266,438.771 260.266,440.937 262.5,443C 265.202,444.34 267.869,445.673 270.5,447C 264.69,448.32 260.19,451.487 257,456.5C 254.16,450.996 249.66,447.829 243.5,447C 247.071,445.881 250.404,444.215 253.5,442C 254.758,440.259 255.758,438.426 256.5,436.5 Z"/></g>
<g><path style="opacity:0.476" fill="#00afc8" d="M 210.5,451.5 C 210.5,452.167 210.5,452.833 210.5,453.5C 207.833,452.833 207.833,452.167 210.5,451.5 Z"/></g>
<g><path style="opacity:0.912" fill="#28b1c2" d="M 246.5,463.5 C 245.167,463.5 243.833,463.5 242.5,463.5C 241.596,462.791 241.263,461.791 241.5,460.5C 245.099,460.738 245.433,459.738 242.5,457.5C 240.145,461.201 236.978,462.201 233,460.5C 232.544,459.256 233.044,458.423 234.5,458C 233.906,457.536 233.239,457.369 232.5,457.5C 234.8,453.786 238.133,452.286 242.5,453C 248.323,455.105 249.657,458.605 246.5,463.5 Z"/></g>
<g><path style="opacity:0.365" fill="#9dba56" d="M 231.5,457.5 C 230.602,458.158 229.602,458.824 228.5,459.5C 229.5,460.167 230.5,460.833 231.5,461.5C 229.954,462.684 228.287,463.684 226.5,464.5C 227.872,466.62 227.205,467.62 224.5,467.5C 224.216,465.585 224.549,463.919 225.5,462.5C 226.338,462.158 226.672,461.492 226.5,460.5C 227.404,459.791 227.737,458.791 227.5,457.5C 228.833,457.5 230.167,457.5 231.5,457.5 Z"/></g>
<g><path style="opacity:0.738" fill="#01afca" d="M 207.5,463.5 C 208.833,463.5 210.167,463.5 211.5,463.5C 211.769,465.429 211.269,467.095 210,468.5C 208.108,467.383 207.275,465.716 207.5,463.5 Z"/></g>
<g><path style="opacity:0.216" fill="#83b967" d="M 242.5,463.5 C 243.833,463.5 245.167,463.5 246.5,463.5C 246.5,464.167 246.5,464.833 246.5,465.5C 245.005,465.011 243.671,464.345 242.5,463.5 Z"/></g>
<g><path style="opacity:1" fill="#f2c41a" d="M 649.5,472.5 C 653.525,472.816 657.525,472.983 661.5,473C 662.38,471.644 662.714,470.144 662.5,468.5C 663.791,468.737 664.791,468.404 665.5,467.5C 669.506,466.664 673.506,466.164 677.5,466C 676.315,467.353 674.981,468.52 673.5,469.5C 675.463,471.269 675.13,473.102 672.5,475C 672.833,475.333 673.167,475.667 673.5,476C 684.043,476.872 694.71,477.538 705.5,478C 689.833,478.333 674.167,478.667 658.5,479C 656.302,479.373 654.135,479.873 652,480.5C 651.055,480.095 650.388,479.428 650,478.5C 648.414,479.376 646.914,480.376 645.5,481.5C 643.838,477.157 645.172,474.157 649.5,472.5 Z"/></g>
<g><path style="opacity:1" fill="#f8c416" d="M 672.5,495.5 C 670.901,495.768 669.568,495.434 668.5,494.5C 670.215,489.779 673.548,486.612 678.5,485C 692.078,482.979 705.745,481.979 719.5,482C 724.927,481.607 729.76,479.773 734,476.5C 734.333,475.167 734.667,473.833 735,472.5C 737.5,471.333 739.333,469.5 740.5,467C 755.208,466.444 769.874,466.944 784.5,468.5C 783.765,476.385 779.432,479.552 771.5,478C 770.271,476.471 768.771,475.304 767,474.5C 767.126,484.986 762.793,487.32 754,481.5C 752.122,484.608 749.788,487.275 747,489.5C 745.013,488.846 743.68,487.513 743,485.5C 741.285,487.759 739.452,489.926 737.5,492C 734.258,492.986 731.592,492.152 729.5,489.5C 727.722,491.945 725.389,493.611 722.5,494.5C 721.833,494.333 721.167,494.167 720.5,494C 719.95,492.155 718.95,490.655 717.5,489.5C 716.085,493.084 713.585,495.417 710,496.5C 708.893,496.415 707.893,496.081 707,495.5C 706.922,493.343 706.755,491.343 706.5,489.5C 703.455,492.547 700.122,495.213 696.5,497.5C 695.28,497.113 694.613,496.28 694.5,495C 695.606,493.118 695.606,491.284 694.5,489.5C 692.308,490.859 690.641,492.692 689.5,495C 687.783,496.559 685.783,497.392 683.5,497.5C 683.664,494.813 683.497,492.146 683,489.5C 679.689,491.903 676.189,493.903 672.5,495.5 Z"/></g>
<g><path style="opacity:0.673" fill="#13a8d0" d="M 191.5,466.5 C 192.649,466.791 193.316,467.624 193.5,469C 193.232,471.893 192.232,472.226 190.5,470C 191.337,468.989 191.67,467.822 191.5,466.5 Z"/></g>
<g><path style="opacity:0.991" fill="#25b0c1" d="M 241.5,487.5 C 243.581,488.99 245.914,489.99 248.5,490.5C 250.086,491.148 251.753,491.648 253.5,492C 250.916,497.289 251.916,501.956 256.5,506C 257.167,506.667 257.833,506.667 258.5,506C 262.732,501.715 263.398,497.048 260.5,492C 265.025,491.576 268.358,489.41 270.5,485.5C 266.637,484.904 262.97,483.904 259.5,482.5C 260.808,481.768 262.142,480.934 263.5,480C 262.956,479.283 262.289,478.783 261.5,478.5C 261.5,475.833 261.5,473.167 261.5,470.5C 261.343,469.127 261.51,467.793 262,466.5C 264.507,468.155 267.341,468.989 270.5,469C 272.887,469.976 274.054,471.809 274,474.5C 276.039,473.022 276.872,471.022 276.5,468.5C 278.635,468.853 279.968,468.02 280.5,466C 277.85,463.946 275.683,461.446 274,458.5C 272.789,463.585 270.123,464.585 266,461.5C 266.732,453.898 270.899,451.398 278.5,454C 281.934,455.529 283.6,458.196 283.5,462C 276.086,481.999 267.42,501.499 257.5,520.5C 251.897,509.627 246.563,498.627 241.5,487.5 Z"/></g>
<g><path style="opacity:0.586" fill="#00aeca" d="M 227.5,473.5 C 227.5,474.167 227.5,474.833 227.5,475.5C 225.417,474.971 223.583,473.971 222,472.5C 220.989,473.337 219.822,473.67 218.5,473.5C 218.579,472.07 218.246,470.736 217.5,469.5C 218,469.167 218.5,468.833 219,468.5C 221.972,470.064 224.805,471.731 227.5,473.5 Z"/></g>
<g><path style="opacity:0.106" fill="#8fc965" d="M 225.5,468.5 C 227.337,468.639 227.67,469.306 226.5,470.5C 225.702,470.043 225.369,469.376 225.5,468.5 Z"/></g>
<g><path style="opacity:0.665" fill="#2cb5be" d="M 252.5,472.5 C 249.01,471.277 248.343,469.611 250.5,467.5C 251.496,467.586 252.329,467.252 253,466.5C 253.789,468.712 253.622,470.712 252.5,472.5 Z"/></g>
<g><path style="opacity:0.416" fill="#93bc65" d="M 227.5,475.5 C 227.5,474.833 227.5,474.167 227.5,473.5C 228.302,472.115 228.969,472.282 229.5,474C 229.164,475.03 228.497,475.53 227.5,475.5 Z"/></g>
<g><path style="opacity:0.864" fill="#02afca" d="M 252.5,473.5 C 253.167,473.5 253.5,473.833 253.5,474.5C 253.5,474.833 253.5,475.167 253.5,475.5C 253.5,475.833 253.5,476.167 253.5,476.5C 253.5,478.5 253.5,480.5 253.5,482.5C 252.883,482.611 252.383,482.944 252,483.5C 250.457,481.622 248.624,480.122 246.5,479C 245.359,478.259 245.359,477.425 246.5,476.5C 244.144,475.346 243.977,474.013 246,472.5C 248.116,472.429 250.283,472.762 252.5,473.5 Z"/></g>
<g><path style="opacity:1" fill="#56b3a2" d="M 664.5,466.5 C 664.5,467.167 664.833,467.5 665.5,467.5C 664.791,468.404 663.791,468.737 662.5,468.5C 662.714,470.144 662.38,471.644 661.5,473C 657.525,472.983 653.525,472.816 649.5,472.5C 649.5,471.833 649.833,471.5 650.5,471.5C 653.28,471.055 655.947,471.055 658.5,471.5C 659.728,468.889 661.728,467.222 664.5,466.5 Z"/></g>
<g><path style="opacity:0.98" fill="#b1be4a" d="M 261.5,470.5 C 261.5,473.167 261.5,475.833 261.5,478.5C 261.189,479.478 260.522,480.145 259.5,480.5C 258.253,478.994 258.253,477.494 259.5,476C 257.527,475.505 255.527,475.338 253.5,475.5C 253.5,475.167 253.5,474.833 253.5,474.5C 255.833,474.5 258.167,474.5 260.5,474.5C 260.232,472.901 260.566,471.568 261.5,470.5 Z"/></g>
<g><path style="opacity:0.847" fill="#ccc23a" d="M 253.5,476.5 C 255.567,476.532 256.9,477.532 257.5,479.5C 256.954,481.135 256.62,482.801 256.5,484.5C 254.821,484.715 253.821,484.048 253.5,482.5C 253.5,480.5 253.5,478.5 253.5,476.5 Z"/></g>
<g><path style="opacity:1" fill="#c4c043" d="M 232.5,484.5 C 231.89,483.609 231.557,482.609 231.5,481.5C 232.315,479.092 233.981,478.259 236.5,479C 235.303,481.015 233.97,482.849 232.5,484.5 Z"/></g>
<g><path style="opacity:1" fill="#f0c41e" d="M 259.5,482.5 C 262.97,483.904 266.637,484.904 270.5,485.5C 268.358,489.41 265.025,491.576 260.5,492C 263.398,497.048 262.732,501.715 258.5,506C 257.833,506.667 257.167,506.667 256.5,506C 251.916,501.956 250.916,497.289 253.5,492C 251.753,491.648 250.086,491.148 248.5,490.5C 250.493,488.837 252.826,487.67 255.5,487C 257.041,485.629 258.375,484.129 259.5,482.5 Z"/></g>
<g><path style="opacity:0.71" fill="#02adca" d="M 117.5,487.5 C 118.5,487.5 119.5,487.5 120.5,487.5C 120.976,491.384 119.976,494.717 117.5,497.5C 118.042,495.301 117.375,493.134 115.5,491C 116.429,489.923 117.096,488.756 117.5,487.5 Z"/></g>
<g><path style="opacity:0.53" fill="#00b3cc" d="M 110.5,487.5 C 111.675,487.281 112.675,487.614 113.5,488.5C 109.957,491.132 109.624,494.132 112.5,497.5C 113.274,498.711 114.107,498.711 115,497.5C 115.483,498.448 115.649,499.448 115.5,500.5C 114.127,500.657 112.793,500.49 111.5,500C 107.981,496.09 107.648,491.923 110.5,487.5 Z"/></g>
<g><path style="opacity:1" fill="#88ba67" d="M 668.5,494.5 C 669.568,495.434 670.901,495.768 672.5,495.5C 670.965,496.788 669.299,496.788 667.5,495.5C 667.624,494.893 667.957,494.56 668.5,494.5 Z"/></g>
<g><path style="opacity:0.427" fill="#00adc9" d="M 136.5,497.5 C 137.525,497.897 137.692,498.563 137,499.5C 136.536,498.906 136.369,498.239 136.5,497.5 Z"/></g>
<g><path style="opacity:0.37" fill="#01b0c9" d="M 119.5,499.5 C 121.344,500.204 121.844,501.537 121,503.5C 119.812,502.437 119.312,501.103 119.5,499.5 Z"/></g>
<g><path style="opacity:0.337" fill="#00afca" d="M 127.5,497.5 C 130.951,498.768 130.784,500.435 127,502.5C 126.36,500.735 126.527,499.068 127.5,497.5 Z"/></g>
<g><path style="opacity:1" fill="#36b0b9" d="M 264.5,521.5 C 264.5,522.167 264.833,522.5 265.5,522.5C 263.589,526.899 264.589,530.399 268.5,533C 270.727,533.121 272.56,533.954 274,535.5C 274.983,533.552 276.15,531.718 277.5,530C 276.228,528.693 275.228,527.193 274.5,525.5C 273.713,526.242 273.047,527.075 272.5,528C 268.717,528.531 267.717,527.031 269.5,523.5C 273.221,521.814 276.387,522.481 279,525.5C 280.325,534.506 276.492,538.672 267.5,538C 260.789,533.517 259.789,528.017 264.5,521.5 Z"/></g>
<g><path style="opacity:1" fill="#27b0be" d="M 236.5,491.5 C 240.716,500.933 245.216,510.267 250,519.5C 251.573,522.477 252.406,525.643 252.5,529C 251.682,536.144 247.682,539.144 240.5,538C 235.118,533.998 234.118,528.998 237.5,523C 243.187,520.963 245.854,522.796 245.5,528.5C 242.612,528.78 241.112,527.447 241,524.5C 240.004,526.744 238.504,528.577 236.5,530C 238.504,531.423 240.004,533.256 241,535.5C 242.826,533.821 244.992,532.654 247.5,532C 251.712,523.425 249.045,518.425 239.5,517C 241.645,515.182 241.645,513.682 239.5,512.5C 240.645,511.109 240.645,509.776 239.5,508.5C 238.391,509.59 237.391,509.59 236.5,508.5C 237.022,507.393 237.355,506.226 237.5,505C 236.385,500.251 233.719,496.751 229.5,494.5C 230.492,494.672 231.158,494.338 231.5,493.5C 233.284,493.107 234.95,492.441 236.5,491.5 Z"/></g>
<g><path style="opacity:1" fill="#2ab0be" d="M 256.5,537.5 C 259.555,540.695 263.222,542.861 267.5,544C 263.49,545.343 259.99,547.509 257,550.5C 256.626,549.584 256.126,548.75 255.5,548C 252.583,546.472 249.583,545.139 246.5,544C 249.376,543.562 252.043,542.562 254.5,541C 255.823,540.184 256.489,539.017 256.5,537.5 Z"/></g>
<g><path style="opacity:1" fill="#37b1b7" d="M 249.5,567.5 C 249.5,566.833 249.167,566.5 248.5,566.5C 251.661,559.006 249.328,555.339 241.5,555.5C 241.649,554.448 241.483,553.448 241,552.5C 240.004,554.744 238.504,556.577 236.5,558C 238.432,559.352 239.766,561.185 240.5,563.5C 241.262,562.372 241.929,561.205 242.5,560C 243.167,559.333 243.833,559.333 244.5,560C 245.833,561.667 245.833,563.333 244.5,565C 235.541,565.95 232.707,562.117 236,553.5C 240.754,549.936 245.754,549.602 251,552.5C 252.895,557.78 252.395,562.78 249.5,567.5 Z"/></g>
<g><path style="opacity:1" fill="#24afc1" d="M 256.5,565.5 C 259.749,569.659 262.249,574.326 264,579.5C 264.497,581.81 264.663,584.143 264.5,586.5C 261.525,586.693 259.025,585.693 257,583.5C 252.522,588.118 250.188,587.451 250,581.5C 252.271,576.183 254.437,570.85 256.5,565.5 Z"/></g>
<g><path style="opacity:1" fill="#85bb67" d="M 273.5,573.5 C 274.167,574.167 274.833,574.833 275.5,575.5C 274.325,575.719 273.325,575.386 272.5,574.5C 272.624,573.893 272.957,573.56 273.5,573.5 Z"/></g>
</svg>
