<?xml version="1.0" encoding="UTF-8"?>
<!DOCTYPE svg PUBLIC "-//W3C//DTD SVG 1.1//EN" "http://www.w3.org/Graphics/SVG/1.1/DTD/svg11.dtd">
<svg xmlns="http://www.w3.org/2000/svg" version="1.1" width="128px" height="128px" style="shape-rendering:geometricPrecision; text-rendering:geometricPrecision; image-rendering:optimizeQuality; fill-rule:evenodd; clip-rule:evenodd" xmlns:xlink="http://www.w3.org/1999/xlink">
<g><path style="opacity:0.869" fill="#fefffe" d="M 127.5,27.5 C 127.5,51.5 127.5,75.5 127.5,99.5C 125.084,103.736 121.418,106.236 116.5,107C 81.1667,107.667 45.8333,107.667 10.5,107C 5.58239,106.236 1.91572,103.736 -0.5,99.5C -0.5,75.5 -0.5,51.5 -0.5,27.5C 1.91572,23.2639 5.58239,20.7639 10.5,20C 45.8333,19.3333 81.1667,19.3333 116.5,20C 121.418,20.7639 125.084,23.2639 127.5,27.5 Z M 14.5,30.5 C 46.9974,29.3359 79.6641,29.1692 112.5,30C 96.5945,46.4075 80.2612,62.2408 63.5,77.5C 62.8333,77.3333 62.1667,77.1667 61.5,77C 45.9652,61.2982 30.2986,45.7982 14.5,30.5 Z M 8.5,38.5 C 17.6317,47.131 26.6317,55.9644 35.5,65C 26.6667,73.8333 17.8333,82.6667 9,91.5C 8.50006,73.8365 8.33339,56.1698 8.5,38.5 Z M 117.5,38.5 C 118.662,55.9952 118.829,73.6619 118,91.5C 109.167,82.6667 100.333,73.8333 91.5,65C 100.369,56.2983 109.036,47.465 117.5,38.5 Z M 41.5,72.5 C 46.6075,76.4322 51.6075,80.5988 56.5,85C 62.5616,87.4277 68.2283,86.761 73.5,83C 77.0152,79.3176 80.6819,75.8176 84.5,72.5C 92.9858,80.4855 101.319,88.6522 109.5,97C 78.8333,97.6667 48.1667,97.6667 17.5,97C 25.7024,88.965 33.7024,80.7983 41.5,72.5 Z"/></g>
</svg>
