<?xml version="1.0" encoding="UTF-8"?>
<!DOCTYPE svg PUBLIC "-//W3C//DTD SVG 1.1//EN" "http://www.w3.org/Graphics/SVG/1.1/DTD/svg11.dtd">
<svg xmlns="http://www.w3.org/2000/svg" version="1.1" width="980px" height="353px" style="shape-rendering:geometricPrecision; text-rendering:geometricPrecision; image-rendering:optimizeQuality; fill-rule:evenodd; clip-rule:evenodd" xmlns:xlink="http://www.w3.org/1999/xlink">
<g><path style="opacity:1" fill="#fefffe" d="M 174.5,-0.5 C 175.833,-0.5 177.167,-0.5 178.5,-0.5C 196.132,17.6319 213.965,35.6319 232,53.5C 232.49,54.7932 232.657,56.1266 232.5,57.5C 227.156,57.666 221.823,57.4994 216.5,57C 203.292,43.4581 189.792,30.2914 176,17.5C 162.208,30.2914 148.708,43.4581 135.5,57C 130.177,57.4994 124.844,57.666 119.5,57.5C 119.351,56.448 119.517,55.448 120,54.5C 138.368,36.2986 156.535,17.9653 174.5,-0.5 Z"/></g>
<g><path style="opacity:1" fill="#fefffe" d="M 110.5,72.5 C 112.722,72.178 114.556,72.8446 116,74.5C 137.753,107.007 159.753,139.34 182,171.5C 203.667,138.833 225.333,106.167 247,73.5C 248.494,72.2528 249.994,72.2528 251.5,73.5C 270.991,137.635 289.658,201.968 307.5,266.5C 281.825,266.833 256.158,266.5 230.5,265.5C 221.568,237.203 212.734,208.869 204,180.5C 188.753,201.992 173.753,223.659 159,245.5C 157.434,247.993 155.434,249.993 153,251.5C 134.013,231.008 115.513,210.008 97.5,188.5C 96.675,187.614 95.675,187.281 94.5,187.5C 86.3085,213.575 77.8085,239.575 69,265.5C 63.5838,266.639 58.0838,266.806 52.5,266C 52.0426,265.586 51.7093,265.086 51.5,264.5C 71.1711,200.488 90.8378,136.488 110.5,72.5 Z"/></g>
<g><path style="opacity:1" fill="#fefffe" d="M 625.5,114.5 C 627.284,115.574 628.451,117.24 629,119.5C 640.137,150.577 651.47,181.577 663,212.5C 666.11,219.609 671.61,222.942 679.5,222.5C 679.5,224.5 679.5,226.5 679.5,228.5C 665.167,228.5 650.833,228.5 636.5,228.5C 636.5,226.5 636.5,224.5 636.5,222.5C 640.99,222.473 644.657,220.806 647.5,217.5C 644.333,208.5 641.167,199.5 638,190.5C 632.075,189.19 625.908,188.523 619.5,188.5C 613.256,188.51 607.089,188.843 601,189.5C 597.665,198.006 594.831,206.673 592.5,215.5C 592.57,216.772 592.903,217.938 593.5,219C 597.594,221.017 601.928,222.183 606.5,222.5C 606.5,224.5 606.5,226.5 606.5,228.5C 593.167,228.5 579.833,228.5 566.5,228.5C 566.5,226.5 566.5,224.5 566.5,222.5C 573.509,222.563 578.676,219.563 582,213.5C 594.667,181.5 607.333,149.5 620,117.5C 621.649,116.047 623.482,115.047 625.5,114.5 Z M 619.5,139.5 C 624.574,152.88 629.574,166.38 634.5,180C 624.483,180.832 614.483,180.666 604.5,179.5C 609.9,166.298 614.9,152.965 619.5,139.5 Z"/></g>
<g><path style="opacity:1" fill="#fefffe" d="M 810.5,114.5 C 812.335,115.122 813.502,116.456 814,118.5C 825,148.833 836,179.167 847,209.5C 849.464,218.32 855.297,222.653 864.5,222.5C 864.5,224.5 864.5,226.5 864.5,228.5C 850.167,228.5 835.833,228.5 821.5,228.5C 821.5,226.5 821.5,224.5 821.5,222.5C 824.166,222.067 826.832,221.567 829.5,221C 831.41,220.592 832.41,219.425 832.5,217.5C 829.616,208.066 826.449,198.733 823,189.5C 816.911,188.843 810.744,188.51 804.5,188.5C 798.092,188.523 791.925,189.19 786,190.5C 782.768,198.863 779.934,207.363 777.5,216C 778.101,217.605 779.101,218.938 780.5,220C 784.104,221.154 787.771,221.987 791.5,222.5C 791.5,224.5 791.5,226.5 791.5,228.5C 778.167,228.5 764.833,228.5 751.5,228.5C 751.5,226.5 751.5,224.5 751.5,222.5C 757.575,222.712 762.408,220.379 766,215.5C 779.647,182.375 793.147,149.208 806.5,116C 808.058,115.79 809.391,115.29 810.5,114.5 Z M 804.5,139.5 C 809.864,152.579 814.864,165.913 819.5,179.5C 809.517,180.666 799.517,180.832 789.5,180C 795.194,166.751 800.194,153.251 804.5,139.5 Z"/></g>
<g><path style="opacity:1" fill="#fefffe" d="M 421.5,117.5 C 431.833,117.5 442.167,117.5 452.5,117.5C 463.84,145.848 476.007,173.848 489,201.5C 501.833,173.833 514.667,146.167 527.5,118.5C 537.812,117.501 548.145,117.168 558.5,117.5C 558.5,119.5 558.5,121.5 558.5,123.5C 553.289,123.016 548.622,124.349 544.5,127.5C 543.902,128.795 543.402,130.128 543,131.5C 542.833,136.833 542.667,142.167 542.5,147.5C 542.848,170.54 543.681,193.54 545,216.5C 545.465,217.931 546.299,219.097 547.5,220C 551.414,221.283 555.414,222.116 559.5,222.5C 559.5,224.5 559.5,226.5 559.5,228.5C 544.167,228.5 528.833,228.5 513.5,228.5C 513.5,226.5 513.5,224.5 513.5,222.5C 517.302,222.24 520.969,221.406 524.5,220C 525.893,218.829 526.727,217.329 527,215.5C 527.667,189.833 527.667,164.167 527,138.5C 513.355,168.289 499.855,198.123 486.5,228C 484.559,228.743 482.726,228.576 481,227.5C 469.277,197.72 457.277,168.053 445,138.5C 443.015,163.802 442.015,189.135 442,214.5C 442.273,216.329 443.107,217.829 444.5,219C 448.571,221.115 452.905,222.281 457.5,222.5C 457.5,224.5 457.5,226.5 457.5,228.5C 443.833,228.5 430.167,228.5 416.5,228.5C 416.5,226.5 416.5,224.5 416.5,222.5C 423.522,222.911 428.356,219.911 431,213.5C 433.854,185.543 435.854,157.543 437,129.5C 436.535,128.069 435.701,126.903 434.5,126C 430.379,124.101 426.046,123.268 421.5,123.5C 421.5,121.5 421.5,119.5 421.5,117.5 Z"/></g>
<g><path style="opacity:1" fill="#fefffe" d="M 664.5,117.5 C 678.833,117.5 693.167,117.5 707.5,117.5C 707.739,119.467 707.406,121.301 706.5,123C 702.647,123.17 699.314,124.504 696.5,127C 704.446,141.723 712.279,156.556 720,171.5C 728.161,157.345 735.661,142.845 742.5,128C 742.241,126.739 741.574,125.739 740.5,125C 737.274,123.801 733.941,123.301 730.5,123.5C 730.5,121.5 730.5,119.5 730.5,117.5C 743.5,117.5 756.5,117.5 769.5,117.5C 769.5,119.5 769.5,121.5 769.5,123.5C 762.711,122.9 757.211,125.233 753,130.5C 742.908,146.345 733.575,162.678 725,179.5C 724.333,191.5 724.333,203.5 725,215.5C 725.785,217.286 726.951,218.786 728.5,220C 732.754,221.265 737.088,222.098 741.5,222.5C 741.5,224.5 741.5,226.5 741.5,228.5C 724.833,228.5 708.167,228.5 691.5,228.5C 691.5,226.5 691.5,224.5 691.5,222.5C 695.884,221.99 700.218,221.157 704.5,220C 705.333,219.167 706.167,218.333 707,217.5C 708.604,205.571 708.937,193.571 708,181.5C 699.443,164.05 690.109,147.05 680,130.5C 676.109,125.369 670.943,123.035 664.5,123.5C 664.5,121.5 664.5,119.5 664.5,117.5 Z"/></g>
<g><path style="opacity:1" fill="#fefffe" d="M 979.5,222.5 C 979.5,224.5 979.5,226.5 979.5,228.5C 970.161,228.666 960.827,228.5 951.5,228C 936.959,211.795 922.792,195.295 909,178.5C 906.859,175.679 904.025,174.346 900.5,174.5C 900.071,188.559 900.571,202.559 902,216.5C 902.833,218.667 904.333,220.167 906.5,221C 909.793,221.826 913.126,222.326 916.5,222.5C 916.5,224.5 916.5,226.5 916.5,228.5C 901.167,228.5 885.833,228.5 870.5,228.5C 870.5,226.5 870.5,224.5 870.5,222.5C 875.731,222.63 880.231,220.963 884,217.5C 885.134,202.552 885.634,187.552 885.5,172.5C 885.634,157.448 885.134,142.448 884,127.5C 880.215,124.036 875.715,122.702 870.5,123.5C 870.5,121.5 870.5,119.5 870.5,117.5C 885.833,117.5 901.167,117.5 916.5,117.5C 916.5,119.5 916.5,121.5 916.5,123.5C 910.199,122.314 905.366,124.314 902,129.5C 900.433,142.452 900.1,155.452 901,168.5C 903.365,167.711 905.532,166.544 907.5,165C 919.696,153.138 931.53,140.971 943,128.5C 943.684,127.216 943.517,126.049 942.5,125C 939.649,123.711 936.649,123.211 933.5,123.5C 933.5,121.5 933.5,119.5 933.5,117.5C 947.5,117.5 961.5,117.5 975.5,117.5C 975.739,119.467 975.406,121.301 974.5,123C 965.703,123.263 958.036,126.263 951.5,132C 940.5,143 929.5,154 918.5,165C 933.424,183.261 949.09,200.928 965.5,218C 969.754,220.687 974.421,222.187 979.5,222.5 Z"/></g>
<g><path style="opacity:1" fill="#fefffe" d="M -0.5,177.5 C -0.5,176.5 -0.5,175.5 -0.5,174.5C 12.9652,161.535 26.2985,148.369 39.5,135C 40.448,134.517 41.448,134.351 42.5,134.5C 42.666,139.844 42.4994,145.177 42,150.5C 33.6522,158.681 25.4855,167.014 17.5,175.5C 25.4855,183.986 33.6522,192.319 42,200.5C 42.4994,206.157 42.6661,211.824 42.5,217.5C 41.448,217.649 40.448,217.483 39.5,217C 26.2985,203.631 12.9652,190.465 -0.5,177.5 Z"/></g>
<g><path style="opacity:1" fill="#fefffe" d="M 317.5,142.5 C 318.873,142.343 320.207,142.51 321.5,143C 332.41,153.407 342.743,164.24 352.5,175.5C 342.41,187.093 331.743,198.26 320.5,209C 319.552,209.483 318.552,209.649 317.5,209.5C 317.334,203.824 317.501,198.157 318,192.5C 323.682,186.985 329.182,181.319 334.5,175.5C 329.182,169.681 323.682,164.015 318,158.5C 317.501,153.177 317.334,147.844 317.5,142.5 Z"/></g>
<g><path style="opacity:1" fill="#fefffe" d="M 854.5,263.5 C 856.167,263.5 857.833,263.5 859.5,263.5C 859.616,266.91 857.95,268.244 854.5,267.5C 854.5,266.167 854.5,264.833 854.5,263.5 Z"/></g>
<g><path style="opacity:1" fill="#fefffe" d="M 589.5,268.5 C 596.514,269.756 603.514,269.756 610.5,268.5C 611.795,271.012 612.461,273.679 612.5,276.5C 611.5,276.5 610.5,276.5 609.5,276.5C 609.67,275.178 609.337,274.011 608.5,273C 606.527,272.505 604.527,272.338 602.5,272.5C 602.334,278.509 602.501,284.509 603,290.5C 603.637,292.303 604.803,293.636 606.5,294.5C 602.5,295.833 598.5,295.833 594.5,294.5C 595.628,293.738 596.795,293.071 598,292.5C 598.5,285.842 598.666,279.175 598.5,272.5C 596.801,272.34 595.134,272.506 593.5,273C 592.845,274.487 591.845,275.653 590.5,276.5C 589.52,273.914 589.187,271.247 589.5,268.5 Z"/></g>
<g><path style="opacity:1" fill="#fefffe" d="M 786.5,268.5 C 793.501,269.796 800.501,269.796 807.5,268.5C 808.833,271.167 808.833,273.833 807.5,276.5C 805.86,273.278 803.193,271.944 799.5,272.5C 799.17,279.2 799.503,285.866 800.5,292.5C 801.672,292.919 802.672,293.585 803.5,294.5C 799.5,295.833 795.5,295.833 791.5,294.5C 792.328,293.585 793.328,292.919 794.5,292.5C 795.497,285.866 795.83,279.2 795.5,272.5C 791.807,271.944 789.14,273.278 787.5,276.5C 786.52,273.914 786.187,271.247 786.5,268.5 Z"/></g>
<g><path style="opacity:1" fill="#fefffe" d="M 829.5,268.5 C 836.501,269.796 843.501,269.796 850.5,268.5C 851.833,271.167 851.833,273.833 850.5,276.5C 848.86,273.278 846.193,271.944 842.5,272.5C 842.334,279.175 842.5,285.842 843,292.5C 844.205,293.071 845.372,293.738 846.5,294.5C 842.5,295.833 838.5,295.833 834.5,294.5C 835.76,293.618 836.926,292.618 838,291.5C 838.5,285.175 838.666,278.842 838.5,272.5C 834.733,272.026 831.899,273.359 830,276.5C 829.5,276.167 829,275.833 828.5,275.5C 829.374,273.253 829.708,270.92 829.5,268.5 Z"/></g>
<g><path style="opacity:1" fill="#fefffe" d="M 854.5,268.5 C 856.167,268.5 857.833,268.5 859.5,268.5C 859.5,277.5 859.5,286.5 859.5,295.5C 857.833,295.5 856.167,295.5 854.5,295.5C 854.5,286.5 854.5,277.5 854.5,268.5 Z"/></g>
<g><path style="opacity:1" fill="#fefffe" d="M 456.5,269.5 C 461.167,269.5 465.833,269.5 470.5,269.5C 470.813,272.247 470.48,274.914 469.5,277.5C 466.766,271.581 462.433,270.081 456.5,273C 450.976,279.658 451.309,285.991 457.5,292C 463.099,294.622 467.265,293.122 470,287.5C 471.357,289.735 471.19,292.069 469.5,294.5C 454.869,298.67 447.702,293.337 448,278.5C 449.714,274.29 452.547,271.29 456.5,269.5 Z"/></g>
<g><path style="opacity:1" fill="#fefffe" d="M 484.5,269.5 C 485.675,269.281 486.675,269.614 487.5,270.5C 490.278,277.057 492.778,283.724 495,290.5C 496.067,291.943 497.234,293.276 498.5,294.5C 495.167,295.833 491.833,295.833 488.5,294.5C 491.454,287.66 489.121,285.16 481.5,287C 478.678,290.053 479.011,292.553 482.5,294.5C 479.167,295.833 475.833,295.833 472.5,294.5C 475.256,292.909 477.089,290.576 478,287.5C 480.466,281.576 482.632,275.576 484.5,269.5 Z M 484.5,277.5 C 486.043,278.736 487.043,280.402 487.5,282.5C 485.926,283.631 484.259,283.798 482.5,283C 483.464,281.275 484.131,279.441 484.5,277.5 Z"/></g>
<g><path style="opacity:1" fill="#fefffe" d="M 499.5,269.5 C 504.511,269.334 509.511,269.501 514.5,270C 515.931,270.465 517.097,271.299 518,272.5C 519.443,277.212 518.277,281.045 514.5,284C 516.918,288.006 519.918,291.506 523.5,294.5C 521.579,295.641 519.579,295.808 517.5,295C 514.608,291.367 511.608,287.867 508.5,284.5C 506.737,288.469 507.404,291.802 510.5,294.5C 506.833,295.833 503.167,295.833 499.5,294.5C 500.242,293.713 501.075,293.047 502,292.5C 502.667,285.833 502.667,279.167 502,272.5C 500.583,271.922 499.75,270.922 499.5,269.5 Z M 508.5,271.5 C 514.129,272.92 515.462,276.086 512.5,281C 510.975,282.009 509.308,282.509 507.5,282.5C 507.244,278.731 507.577,275.064 508.5,271.5 Z"/></g>
<g><path style="opacity:1" fill="#fefffe" d="M 532.5,269.5 C 537.167,269.5 541.833,269.5 546.5,269.5C 546.575,272.206 546.908,274.873 547.5,277.5C 546.5,277.5 545.5,277.5 544.5,277.5C 544.069,273.432 541.736,271.432 537.5,271.5C 529.983,273.148 527.149,277.815 529,285.5C 530.948,291.723 535.115,294.223 541.5,293C 542.435,290.619 542.768,288.119 542.5,285.5C 541.167,285.5 539.833,285.5 538.5,285.5C 538.5,284.5 538.5,283.5 538.5,282.5C 542.167,282.5 545.833,282.5 549.5,282.5C 549.539,284.359 548.706,285.692 547,286.5C 546.788,289.332 546.621,291.998 546.5,294.5C 540.771,295.947 535.104,295.781 529.5,294C 523.514,288.993 522.014,282.826 525,275.5C 527.134,272.847 529.634,270.847 532.5,269.5 Z"/></g>
<g><path style="opacity:1" fill="#fefffe" d="M 560.5,269.5 C 576.729,268.946 581.896,276.279 576,291.5C 569.939,296.262 563.439,296.762 556.5,293C 552.245,287.72 551.412,281.886 554,275.5C 555.494,272.686 557.66,270.686 560.5,269.5 Z M 562.5,271.5 C 567.919,270.959 571.419,273.293 573,278.5C 573.767,282.594 573.434,286.594 572,290.5C 565.135,295.339 560.469,293.672 558,285.5C 556.454,279.794 557.954,275.127 562.5,271.5 Z"/></g>
<g><path style="opacity:1" fill="#fefffe" d="M 614.5,269.5 C 619.179,269.334 623.845,269.501 628.5,270C 630.329,270.273 631.829,271.107 633,272.5C 634.48,277.147 633.314,280.813 629.5,283.5C 631.697,287.238 634.364,290.571 637.5,293.5C 638.672,293.081 639.672,292.415 640.5,291.5C 643.431,284.54 646.264,277.54 649,270.5C 650.011,269.663 651.178,269.33 652.5,269.5C 654.692,276.91 657.192,284.243 660,291.5C 662.333,294.167 664.667,294.167 667,291.5C 667.667,285.5 667.667,279.5 667,273.5C 662.949,269.979 664.116,268.812 670.5,270C 675.214,275.926 680.047,281.759 685,287.5C 685.667,283.167 685.667,278.833 685,274.5C 684.209,272.396 682.709,271.063 680.5,270.5C 684.167,269.167 687.833,269.167 691.5,270.5C 690.24,271.382 689.074,272.382 688,273.5C 687.5,280.826 687.334,288.159 687.5,295.5C 686.178,295.67 685.011,295.337 684,294.5C 680.045,288.877 675.712,283.543 671,278.5C 670.172,283.202 670.338,287.869 671.5,292.5C 672.672,292.919 673.672,293.585 674.5,294.5C 667.5,295.833 660.5,295.833 653.5,294.5C 655.433,292.428 655.433,290.095 653.5,287.5C 650.914,286.52 648.247,286.187 645.5,286.5C 643.523,289.893 644.19,292.559 647.5,294.5C 642.533,295.662 637.533,295.829 632.5,295C 629.608,291.367 626.608,287.867 623.5,284.5C 621.737,288.469 622.404,291.802 625.5,294.5C 621.833,295.833 618.167,295.833 614.5,294.5C 615.242,293.713 616.075,293.047 617,292.5C 617.667,285.833 617.667,279.167 617,272.5C 615.583,271.922 614.75,270.922 614.5,269.5 Z M 623.5,271.5 C 629.129,272.92 630.462,276.086 627.5,281C 625.975,282.009 624.308,282.509 622.5,282.5C 622.244,278.731 622.577,275.064 623.5,271.5 Z M 649.5,277.5 C 650.391,279.291 651.391,281.124 652.5,283C 650.741,283.798 649.074,283.631 647.5,282.5C 648.174,280.805 648.841,279.138 649.5,277.5 Z"/></g>
<g><path style="opacity:1" fill="#fefffe" d="M 697.5,269.5 C 701.351,268.971 704.851,269.638 708,271.5C 708.798,273.259 708.631,274.926 707.5,276.5C 706.108,274.108 704.108,272.441 701.5,271.5C 699.431,271.785 698.098,272.952 697.5,275C 701.239,278.617 705.072,282.117 709,285.5C 709.959,289.421 708.792,292.588 705.5,295C 701.577,295.793 697.744,295.626 694,294.5C 693.045,287.165 694.212,286.332 697.5,292C 700.859,294.215 703.525,293.549 705.5,290C 703.806,286.645 701.14,284.311 697.5,283C 692.266,278.46 692.266,273.96 697.5,269.5 Z"/></g>
<g><path style="opacity:1" fill="#fefffe" d="M 711.5,269.5 C 716.511,269.334 721.511,269.501 726.5,270C 731.535,273.013 732.702,277.18 730,282.5C 726.959,284.929 723.459,285.929 719.5,285.5C 719.337,287.857 719.503,290.19 720,292.5C 721.205,293.071 722.372,293.738 723.5,294.5C 719.5,295.833 715.5,295.833 711.5,294.5C 713.197,293.636 714.363,292.303 715,290.5C 715.667,285.167 715.667,279.833 715,274.5C 713.86,272.721 712.693,271.054 711.5,269.5 Z M 720.5,271.5 C 726.691,273.141 728.024,276.641 724.5,282C 722.866,282.494 721.199,282.66 719.5,282.5C 719.244,278.731 719.577,275.064 720.5,271.5 Z"/></g>
<g><path style="opacity:1" fill="#fefffe" d="M 742.5,269.5 C 756.267,267.767 762.101,273.767 760,287.5C 756.527,295.095 750.694,297.595 742.5,295C 734.788,290.532 732.621,284.032 736,275.5C 738.063,273.266 740.229,271.266 742.5,269.5 Z M 744.5,271.5 C 749.957,270.974 753.457,273.307 755,278.5C 755.667,281.833 755.667,285.167 755,288.5C 753.053,292.557 749.886,294.057 745.5,293C 737.93,286.175 737.597,279.009 744.5,271.5 Z"/></g>
<g><path style="opacity:1" fill="#fefffe" d="M 763.5,269.5 C 768.511,269.334 773.511,269.501 778.5,270C 779.931,270.465 781.097,271.299 782,272.5C 783.48,277.147 782.314,280.813 778.5,283.5C 780.793,287.758 783.793,291.424 787.5,294.5C 785.579,295.641 783.579,295.808 781.5,295C 778.608,291.367 775.608,287.867 772.5,284.5C 770.737,288.469 771.404,291.802 774.5,294.5C 770.833,295.833 767.167,295.833 763.5,294.5C 764.242,293.713 765.075,293.047 766,292.5C 766.667,285.833 766.667,279.167 766,272.5C 764.583,271.922 763.75,270.922 763.5,269.5 Z M 772.5,271.5 C 778.129,272.92 779.462,276.086 776.5,281C 774.975,282.009 773.308,282.509 771.5,282.5C 771.244,278.731 771.577,275.064 772.5,271.5 Z"/></g>
<g><path style="opacity:1" fill="#fefffe" d="M 817.5,269.5 C 818.822,269.33 819.989,269.663 821,270.5C 823.5,277.333 826,284.167 828.5,291C 829.613,292.394 830.947,293.561 832.5,294.5C 828.833,295.833 825.167,295.833 821.5,294.5C 822.415,293.672 823.081,292.672 823.5,291.5C 822.954,289.865 822.62,288.199 822.5,286.5C 817.645,285.517 814.312,287.183 812.5,291.5C 813.263,292.719 814.263,293.719 815.5,294.5C 812.167,295.833 808.833,295.833 805.5,294.5C 807.149,293.352 808.649,292.019 810,290.5C 812.609,283.503 815.109,276.503 817.5,269.5 Z M 817.5,277.5 C 819.043,278.736 820.043,280.402 820.5,282.5C 818.926,283.631 817.259,283.798 815.5,283C 816.861,281.416 817.528,279.582 817.5,277.5 Z"/></g>
<g><path style="opacity:1" fill="#fefffe" d="M 870.5,269.5 C 884.821,267.988 890.654,274.322 888,288.5C 883.983,295.138 878.15,297.304 870.5,295C 862.251,289.976 860.418,283.143 865,274.5C 866.73,272.598 868.563,270.931 870.5,269.5 Z M 873.5,271.5 C 880.568,272.239 884.235,276.239 884.5,283.5C 882.625,293.534 877.791,295.534 870,289.5C 865.918,282.302 867.085,276.302 873.5,271.5 Z"/></g>
<g><path style="opacity:1" fill="#fefffe" d="M 890.5,269.5 C 892.857,269.337 895.19,269.503 897.5,270C 902.333,275.5 907.167,281 912,286.5C 912.828,281.798 912.662,277.131 911.5,272.5C 910.328,272.081 909.328,271.415 908.5,270.5C 911.833,269.167 915.167,269.167 918.5,270.5C 918.167,271.5 917.5,272.167 916.5,272.5C 915.503,280.138 915.169,287.804 915.5,295.5C 913.097,295.607 911.264,294.607 910,292.5C 906.38,287.211 902.38,282.211 898,277.5C 897.333,282.167 897.333,286.833 898,291.5C 899.074,292.618 900.24,293.618 901.5,294.5C 898.167,295.833 894.833,295.833 891.5,294.5C 892.242,293.713 893.075,293.047 894,292.5C 895.471,286.569 895.804,280.569 895,274.5C 893.287,272.924 891.787,271.257 890.5,269.5 Z"/></g>
<g><path style="opacity:1" fill="#fefffe" d="M 177.5,352.5 C 176.5,352.5 175.5,352.5 174.5,352.5C 153.535,331.035 132.368,309.701 111,288.5C 110.383,287.551 110.549,286.718 111.5,286C 116.833,285.333 122.167,285.333 127.5,286C 143.667,302.167 159.833,318.333 176,334.5C 192.167,318.333 208.333,302.167 224.5,286C 230.084,285.194 235.584,285.361 241,286.5C 241.667,287.167 241.667,287.833 241,288.5C 219.632,309.701 198.465,331.035 177.5,352.5 Z"/></g>
</svg>
